<svg version="1.1" xmlns="http://www.w3.org/2000/svg" xmlns:xlink="http://www.w3.org/1999/xlink" width="414.3037" height="381.00575" viewBox="0,0,414.3037,381.00575"><g transform="translate(-100.74557,59.22646)"><g data-paper-data="{&quot;isPaintingLayer&quot;:true}" fill="#000000" fill-rule="nonzero" stroke-linecap="butt" stroke-linejoin="miter" stroke-miterlimit="10" stroke-dasharray="" stroke-dashoffset="0" style="mix-blend-mode: normal"><path d="M504.65171,304.23607c-2.23607,1.11804 -3.3541,-1.11803 -3.3541,-1.11803l0.4455,-0.74633c-3.34321,-1.11663 -7.14535,-1.5559 -10.30781,-3.12592c-0.20387,-0.10121 -5.93995,-3.93338 -6.28837,-4.16566c0,0 -1.18428,-0.78952 -1.16994,-2.07069c-5.79924,-5.0498 -16.04448,-3.47886 -23.13785,-3.52817c-4.21411,1.07387 -9.83343,3.49307 -14.26216,1.82843c-1.00256,-0.37684 -1.43683,-1.63602 -2.35762,-2.18308c-0.90622,-0.53841 -2.09883,-0.45319 -3,-1c-0.69797,-0.42352 -0.89548,-1.48729 -1.64238,-1.81692c-1.53904,-0.67924 -3.36093,0.19021 -5.04318,0.1903c-4.7942,0.00025 -9.03587,0.52635 -13.75377,0.98784c-5.0503,0.494 -9.66074,-0.28965 -14.5518,-1.00657c-6.27726,-0.9201 -13.33518,0.01873 -19.69454,0.01873c-3.31878,0 -7.13808,0.42278 -10.40046,-0.03228c-1.04399,-0.14562 -1.95706,-0.84707 -3,-1c-3.25446,-0.47722 -6.73919,0.52591 -10,0c-3.34832,-0.54003 -5.70927,-1.44361 -9.29408,-0.98645c-13.00118,1.65801 -24.97848,9.01327 -32.3721,20.1037c-1.94111,1.95653 -4.27238,5.11133 -6.61903,6.54165c-1.01326,0.6176 -2.26852,0.71191 -3.35762,1.18308c-2.67912,1.15905 -4.61972,2.70799 -7.55625,3.15802c-1.31795,0.20198 -2.67989,-0.18734 -4,0c-0.99842,0.14168 -1.87623,0.77182 -2.86415,0.97408c-10.47427,2.14439 -21.74993,2.48439 -32.38115,3.05338c-4.30021,0.23015 -8.63936,1.08097 -12.93121,1.49489c-1.80124,0.17372 -3.66354,0.99374 -5.40542,0.50333c-0.13829,-0.03893 -0.2748,-0.082 -0.40967,-0.12883l-0.0152,0.06079l-3.94926,-0.98732c-1.1133,-0.25264 -1.94439,-1.24829 -1.94439,-2.43804c0,-1.38071 1.11929,-2.5 2.5,-2.5h3c0.75851,0.03575 1.56019,0.36205 2.27553,0.10727c1.00925,-0.35946 1.66989,-1.36987 2.62609,-1.85306c1.64656,-0.83206 3.05713,-0.31778 3.97175,-2.06854c0.48808,-0.93428 0.45767,-2.09612 1,-3c1.2236,-2.03933 3.73779,-2.61919 2,-5.37134c-1.10484,-1.74975 -1.86267,-1.17028 -3.83008,-2.00463c-4.97901,-2.11152 -9.90795,-4.22323 -14.43004,-7.22958c-2.02108,-1.34765 -4.02131,-2.72719 -5.99768,-4.1396c-1.87185,-1.33772 -3.4676,-3.31257 -5.69038,-3.90633c-4.63246,-1.23743 -9.75718,-1.55921 -14.47366,-2.5951c-9.4488,-2.07525 -18.97645,-4.71745 -28.16619,-7.45202c-5.67273,-1.68802 -11.23537,-4.48989 -16.65315,-6.84331c-1.65532,-0.71905 -3.44609,-1.15318 -5.00841,-2.05666c-0.79548,-0.46002 -1.1503,-1.48743 -1.9381,-1.96048c-0.85405,-0.51283 -1.89729,-0.60811 -2.84594,-0.91217c-7.71585,-5.7309 -14.30051,-12.00939 -14.33973,-22.21445c-0.01118,-2.90835 -0.77302,-5.95251 0.10726,-8.72446c0.40347,-1.2705 1.55269,-2.18068 2.14695,-3.37392c1.3161,-2.6427 0.48405,-3.43236 2.11916,-6.21595c0.46185,-0.78625 1.53656,-1.10524 1.95113,-1.91741c0.52389,-1.02634 0.4692,-2.25705 0.75014,-3.37459c0.27839,-1.1074 0.93527,-2.15589 0.9272,-3.29772c-0.00675,-0.95483 -0.85298,-1.74778 -0.96956,-2.69549c-0.88118,-7.1638 -0.05582,-15.73848 2.22193,-22.49883c1.91947,-2.91455 3.83923,-7.12204 6.93146,-9.02824c2.51797,-1.55221 6.68147,-2.35426 9.52376,-3.24509c1.25797,-0.39427 2.47287,-1.16814 3.79057,-1.12829c4.90313,0.14827 6.37409,3.67068 8.93336,6.91503c1.50738,1.91089 3.92974,3.21356 5.70464,4.69634c2.14027,1.788 3.77644,4.20923 5.94697,5.95528c1.03274,0.83077 2.37115,1.28717 3.27192,2.25946c0.81839,0.88336 1.14808,2.11745 1.74952,3.1607c1.27726,2.2155 3.19785,4.01 4.52022,6.19887c0.54506,0.90223 0.42153,2.11882 1,3c0.67114,1.02235 1.76076,1.69771 2.64114,2.54657c2.31938,2.31938 4.77441,4.58658 7,7c0.42514,0.46102 0.59849,1.24676 1.18894,1.45807c0.76855,0.27505 1.63706,-0.28279 2.44375,-0.15802c1.97216,0.30503 3.92995,0.70075 5.905,0.98645c5.39675,0.78066 10.48584,2.44638 15.94089,2.99344c13.09212,1.31295 26.54376,-1.13769 39.19731,-3.94948c2.41012,-0.56478 4.90472,-0.84042 7.23424,-1.67769c4.13722,-1.48701 7.43282,-4.56078 11.27488,-6.57264c5.90057,-3.08979 10.4641,-5.35822 15.27947,-10.08012c0.8512,-0.83468 2.00847,-1.42455 2.59227,-2.46398c0.60628,-1.07946 0.43637,-2.44598 0.82554,-3.62129c0.75702,-2.2863 2.388,-4.26535 2.89507,-6.61973c0.76242,-3.54001 -0.30248,-7.62954 -0.99658,-11.03708c-1.24758,-6.12469 -2.96107,-12.66141 -6.48188,-17.90518c-2.55874,-2.60637 -6.83862,-4.83094 -10.66618,-4.11725c-1.019,0.19001 -1.92733,0.80766 -2.94756,0.99091c-1.07878,0.19377 -2.22206,-0.13627 -3.2856,0.12868c-6.21931,1.54933 -12.35778,4.49379 -18.29994,6.7574c-3.51546,1.33918 -6.9113,1.53041 -10.46691,2.12301c-4.15695,0.69282 -8.43822,1.71388 -12.79627,1.00075c-2.66342,-0.43583 -5.16711,-1.69257 -7.85053,-1.98064c-2.49617,-0.26797 -5.06406,-0.31458 -7.45263,-1.08754c-10.00771,-2.4972 -23.39332,-5.25086 -30.23439,-13.81533c-4.65898,-5.83267 -6.71968,-16.75722 -3.31243,-23.68335c3.06089,-6.22205 9.62596,-10.03326 15.93146,-12.02824c2.32306,-2.42699 5.1367,-3.73683 7.72935,-5.80673c2.83746,-2.26533 5.17414,-5.33919 7.81721,-7.83441c0.91861,-0.86723 1.64627,-2.05285 2.81106,-2.54194c1.12341,-0.47172 2.44686,0.01285 3.65125,-0.17157c3.68662,-0.5645 6.55062,-1.01873 10.30546,-1.01873c9.66666,0 19.33333,0 29,0c3.61685,0 6.12493,-0.48349 9.69454,-0.98127c4.85217,-0.67663 10.09344,0.84509 14.905,0.01355c1.0387,-0.17951 1.95936,-0.83216 3,-1c2.84907,-0.4595 6.50552,-0.14151 9.40046,-0.03228c0.68356,0.0258 1.41748,0.46649 2.04329,0.1903c0.7469,-0.32963 0.94007,-1.40066 1.64238,-1.81692c2.753,-1.63173 6.3708,-1.69316 9.21595,-3.11916c3.5588,-1.78369 6.38211,-4.58237 9.16502,-7.33918c1.79807,-2.6971 3.57957,-4.18545 4.56165,-7.2056c0.96889,-2.97959 4.38631,-6.87633 3.06201,-10.25272c-0.22899,-0.58382 -0.99726,-0.76358 -1.45807,-1.18895c-0.95065,-0.87754 -2.63504,-2.94595 -3.9567,-3.37503c-2.47398,-0.80318 -5.56961,0.69143 -7.86734,1.07372c-3.60684,0.60009 -7.48356,0.50382 -11.10273,1.01482c-3.69837,0.52219 -7.25375,2.46491 -10.905,2.98645c-0.67015,0.09573 -5.64942,0.01677 -7,0c-7.49772,2.49924 -15.49129,1.84201 -23.3458,2.03168c-2.9671,0.07165 -5.89581,0.69092 -8.84845,0.99208c-7.73923,0.78938 -16.15486,-1.346 -23.80575,-0.02376c-5.14532,0.88922 -9.94511,2.36577 -15,4c-2.02759,0 -3.99279,0.71326 -6,1c-2.50259,0.35751 -5.17388,-0.03123 -7.53309,0.87699c-6.23144,2.39892 -12.80413,5.27814 -19.56191,6.13656c-5.92527,0.75266 -11.98078,0.99679 -17.905,1.98645c-1.03968,0.17369 -1.95378,0.87144 -3,1c-2.97761,0.3659 -6.03174,-0.43525 -9,0c-1.04294,0.15293 -1.95935,0.83216 -3,1c-2.92917,0.47243 -6.42654,0.03228 -9.40045,0.03228c-6.65735,0 -12.94305,-0.9163 -19.40046,-2.03228c-1.97079,-0.34059 -4.02551,0.31845 -6,0c-4.21748,-0.68021 -8.26862,-1.72218 -12.39011,-3.09601c-4.43148,-1.47716 -8.58258,-2.28142 -11.9772,-5.60394c-2.86662,-2.80574 -7.30299,-6.13658 -8.62497,-10.0433c-0.3981,-1.17647 -0.07151,-2.48298 -0.10726,-3.72446c0,-4.29785 -0.6694,-9.17744 0.03228,-13.40045c0.513,-3.08744 2.48596,-5.92802 3,-9c0.60359,-3.60717 -0.03228,-7.9322 -0.03228,-11.59954c0,-4.9995 0,-9.999 0,-14.99849c-1.91542,-1.38531 -0.58013,-3.38825 -0.58013,-3.38825c0.20154,-0.29793 0.39467,-0.60004 0.58013,-0.90594c0,-0.5691 0,-1.13821 0,-1.7073c0,0 0,-2.18739 2.04607,-2.47004c1.2087,-3.02122 2.04951,-6.2224 3.08222,-9.32053l-0.12829,-1.20943c0,0 0,-2.5 2.5,-2.5c2.5,0 2.5,2.5 2.5,2.5l-0.1283,2.79057c-1.50195,4.50586 -2.69183,9.03416 -4.8717,13.18231c0,6.00904 0,12.01808 0,18.02712c0,3.94473 0.61328,8.51518 -0.03229,12.40046c-0.513,3.08744 -2.48596,5.92802 -3,9c-0.65851,3.93532 0.03229,8.58295 0.03229,12.59955c-0.03575,0.75852 -0.34175,1.55329 -0.10727,2.27554c0.39134,1.2054 2.53446,3.1199 3.37503,3.9567c2.61904,2.60729 4.49373,5.26513 8.0228,6.39606c3.71795,1.19146 7.76585,3.28455 11.60989,3.90399c2.00177,0.32257 4.00203,0.65471 6,1c1.97079,0.34059 4.02551,-0.31845 6,0c1.04064,0.16784 1.96131,0.82049 3,1c1.97079,0.34059 4.02552,-0.31845 6,0c1.04065,0.16784 1.96131,0.82049 3,1c2.16774,0.37463 4.39967,-0.03228 6.59955,-0.03228c2.68095,0 5.96145,0.4882 8.59954,0.03228c1.03869,-0.17951 1.95602,-0.85438 3,-1c2.97124,-0.41446 6.02403,0.37896 9,0c1.04565,-0.13315 1.96018,-0.82708 3,-1c5.9983,-0.99747 12.09174,-1.27595 18.095,-2.01355c6.39977,-0.78632 12.52182,-3.69608 18.43809,-5.86344c2.67328,-0.97933 5.6485,-0.72037 8.46691,-1.12301c2.00721,-0.28675 3.97241,-1 6,-1c4.98858,-1.7279 9.87456,-3.17336 15,-4c7.85778,-1.26732 16.28163,0.81003 24.19426,-0.02376c3.05206,-0.32162 6.08364,-0.9277 9.15154,-1.00792c7.64378,-0.19987 15.35708,0.46405 22.6542,-1.96832c2.33323,-0.02215 4.69013,0.33004 7,0c3.69608,-0.5281 7.33981,-2.47145 11.095,-3.01355c3.54915,-0.51235 7.36712,-0.39191 10.89727,-0.98518c3.1449,-0.52853 6.81011,-2.05058 10.13266,-0.92628c5.99347,2.0281 10.65506,8.86088 8.66827,15.11719c-0.68371,2.15296 -2.2921,3.92804 -3.02102,6.06611c-1.27591,3.74251 -3.27161,5.54429 -5.43835,8.7944c-3.27001,3.29599 -6.61377,6.55438 -10.83498,8.66082c-2.64385,1.31932 -6.28084,1.35941 -8.78405,2.88084c-0.91525,0.55628 -1.35506,1.80624 -2.35762,2.18308c-3.72495,1.4001 -8.68531,-0.51096 -12.55625,0.15802c-1.0387,0.17951 -1.95936,0.83216 -3,1c-4.91746,0.7931 -10.1773,-0.70728 -15.095,0.01355c-3.68021,0.53943 -6.55533,1.01873 -10.30545,1.01873c-9.66667,0 -19.33334,0 -29,0c-3.60589,0 -6.13963,0.5174 -9.69455,0.98127c-0.7784,0.10157 -1.61102,-0.43985 -2.34875,-0.17157c-0.58936,0.21433 -0.7638,0.99704 -1.18894,1.45806c-1.2783,1.38618 -2.66666,2.66666 -4,4c-3.90037,3.90037 -8.52418,6.56349 -12.45344,10.35886c-4.51723,1.57201 -9.31351,3.68661 -12.38097,7.45834c-4.72624,5.81136 -3.27135,17.82027 2.65161,22.48167c7.52373,5.92121 16.99165,8.24832 26.11399,10.53306c2.08293,0.71905 4.35771,0.66549 6.54738,0.91246c2.78101,0.31367 5.39113,1.54606 8.14946,2.01936c3.83739,0.65846 7.56367,-0.39258 11.20373,-0.99925c3.28295,-0.54716 6.27478,-0.62893 9.53309,-1.87699c12.70099,-4.86497 29.15343,-13.7535 40.80073,-2.24025c3.98258,6.00478 6.0994,13.07629 7.51812,20.09482c0.82047,4.0589 1.90294,8.76864 1.00341,12.96292c-0.55967,2.6096 -2.23979,4.85544 -3.10493,7.38027c-0.48984,1.42956 -0.41732,3.07091 -1.17446,4.37871c-0.82016,1.41665 -2.25966,2.36919 -3.40773,3.53602c-5.06691,5.1497 -10.20291,7.69154 -16.49895,10.97583c-4.1085,2.14318 -7.46086,5.23383 -11.89098,6.84355c-0.1596,0.05799 -6.4816,1.53623 -7.82149,1.85017c-13.19531,2.9324 -27.15869,5.38514 -40.80269,4.05052c-5.48116,-0.53615 -10.64192,-2.243 -16.05912,-3.00656c-2.0394,-0.28745 -4.06683,-0.65532 -6.095,-1.01355c-1.1685,-0.20639 -2.46382,0.30521 -3.55625,-0.15802c-1.16306,-0.49318 -1.89245,-1.6747 -2.81106,-2.54193c-2.39327,-2.25939 -4.67373,-4.67373 -7,-7c-2.76161,-2.83937 -4.02143,-5.2219 -6.20274,-8.22923c-1.54388,-2.12851 -2.06814,-4.96513 -3.88638,-6.86463c-0.74589,-0.77922 -1.88388,-1.06907 -2.72808,-1.74054c-3.46345,-2.75484 -6.65672,-6.18342 -10.05303,-9.04472c-1.96269,-1.65351 -4.30854,-7.58076 -7.362,-7.38863c-1.84151,0.11587 -3.45897,1.28822 -5.20944,1.87171c-1.81849,0.60616 -3.81364,0.80092 -5.47624,1.75491c-2.16994,1.2451 -3.7242,4.98446 -5.06854,6.97176c-1.87751,5.72035 -2.54612,13.45675 -1.77807,19.50117c0.14544,1.14461 1.03654,2.15071 1.03044,3.30451c-0.00296,0.55995 -2.06911,8.81207 -2.32266,9.32769c-0.42974,0.87387 -1.5387,1.25309 -2.04887,2.08259c-1.0621,1.72692 -0.97123,3.97217 -1.88084,5.78405c-0.48067,0.95747 -1.49359,1.61683 -1.85305,2.62608c-0.81378,2.28485 0.11757,4.85012 0.10727,7.27554c-0.03464,8.15332 5.5623,13.15583 11.66027,17.78555c1.05136,0.3626 2.20024,0.51594 3.15406,1.08783c0.82912,0.49712 1.22683,1.55246 2.0619,2.03952c1.32055,0.77021 2.86794,1.06274 4.27635,1.65725c5.20919,2.19887 10.48186,4.98158 15.91638,6.5845c9.14269,2.69666 18.58732,5.34488 27.9795,7.40625c4.85394,1.06534 10.30419,1.35636 15.0353,2.75639c4.49713,1.3308 8.88748,5.99275 12.80299,8.60258c4.24996,2.84191 8.89681,4.74872 13.56995,6.77042c3.09105,1.33726 4.21327,0.66394 6.16992,3.99537c1.91784,3.26536 1.74449,5.3633 0,8.62866c-0.44426,0.83157 -1.51493,1.19155 -2,2c-0.54233,0.90388 -0.42188,2.11858 -1,3c-0.24949,0.38038 -0.54383,0.71955 -0.87169,1.02674c3.53563,-0.35092 7.06238,-0.6593 10.63178,-0.8385c8.93313,-0.44848 18.81265,-1.12854 27.57698,-2.94437c1.07693,-0.22312 2.04724,-0.86941 3.13585,-1.02592c1.31977,-0.18974 2.67791,0.17275 4,0c1.75788,-0.22969 5.29838,-2.35625 6.44375,-2.84198c0.84876,-0.35994 1.84724,-0.35034 2.64238,-0.81692c1.9073,-1.1192 3.79402,-3.88628 5.38097,-5.45835c8.04372,-12.06558 21.44202,-20.15629 35.6279,-21.8963c3.97255,-0.48726 6.97733,0.36917 10.70592,1.01355c3.20908,0.5546 6.76446,-0.45132 10,0c1.04399,0.14562 1.95706,0.84707 3,1c2.97942,0.43689 6.56959,-0.03228 9.59954,-0.03228c6.58525,0 13.79104,-0.88969 20.30545,0.01873c4.54739,0.63412 8.74403,1.46519 13.4482,0.99343c5.81368,-0.58303 11.3393,-1.17375 17.24635,-1.01216c1.31993,0.03611 2.72071,-0.27428 3.9567,0.1903c1.00256,0.37684 1.43683,1.63602 2.35762,2.18308c0.90622,0.53841 2.09883,0.45319 3,1c0.69797,0.42352 0.89548,1.48729 1.64238,1.81692c0.62581,0.27619 1.35965,-0.16703 2.0433,-0.1903c3.47701,-0.11834 6.24502,-1.13256 9.69454,-1.98127c9.4791,-0.05372 20.70047,-1.37504 28.07322,5.7135l1,1c0,0 0.46375,0.46374 0.67867,1.15371c1.17555,0.86092 2.35539,1.7142 3.65194,2.36827c2.9214,1.47374 6.58192,1.83927 9.69219,2.87408l2.4455,3.25367c0,0 1.11803,2.23607 -1.11804,3.35411z" stroke="#000000" stroke-width="0"/><path d="M498.1488,299.62319c-1.94135,-0.32485 -3.95644,0.29188 -5.905,0.01355c-2.43369,-0.34762 -4.67131,-1.60192 -7.095,-2.01355c-1.97177,-0.33487 -4.02552,0.31845 -6,0c-5.35477,-0.86363 -10.40491,-3.00553 -15.905,-2.98645c-5.3463,-1.31539 -10.71924,-4.11401 -16.095,-5.01355c-7.77441,-1.30091 -16.19997,1.25801 -24,0c-10.39916,-1.6772 -20.90496,-5.02194 -31.59954,-4.96772c-4.95728,0 -10.52262,0.68362 -15.39436,-0.0313c-5.1183,-0.7511 -10.84211,-3.97174 -16.20519,-3.00098c-6.4954,1.17572 -14.25672,2.72567 -20.30208,5.77807c-1.07285,0.5417 -1.92313,1.46634 -3,2c-1.88896,0.9361 -4.10844,1.06917 -6,2c-2.47952,1.22016 -4.24464,3.43681 -6.16502,5.33918c-2.8492,4.24351 -2.94464,12.3656 -7.97665,14.72473c-1.07438,0.50369 -2.38729,-0.04571 -3.55625,0.15802c-2.42189,0.42209 -4.66112,1.66722 -7.095,2.01355c-0.85225,0.12127 -1.7657,-0.36482 -2.581,-0.08854c-1.01467,0.34384 -1.67057,1.36851 -2.62608,1.85306c-0.94012,0.47675 -2.05719,0.5286 -3,1c-2.21596,1.10798 -4.25819,2.79085 -6.69792,3.22193c-2.00068,0.3535 -4.08481,-0.2811 -6.095,0.01355c-1.35984,0.19932 -2.6388,0.81018 -4,1c-5.46098,0.76152 -10.55108,-0.36223 -16,1c-3.36895,0.01909 -6.95347,0.29867 -10.30546,0.01873c-1.60231,-0.13382 -3.74649,0.50966 -4.76777,-0.73223c-4.00826,-4.87414 0.0364,-5.38911 1.64114,-8.08209c1.20074,-2.015 1.71669,-4.44809 3.19327,-6.27064c0.37915,-0.46799 2.40129,-1.24471 1.62366,-2.45832c-0.84595,-1.32022 -2.34933,-2.0802 -3.45807,-3.18894c-2.66697,-2.66697 -5.64974,-5.1343 -8.71382,-7.44553c-0.73892,-0.26958 -1.4701,-0.71814 -2.21738,-0.92194c-2.37205,-0.64692 -4.75865,-1.25241 -7.0916,-2.02859l-4.70759,-3.46765c1.41231,-0.72868 2.72849,-1.73707 4.13384,-2.486c-4.54319,-0.92941 -9.21026,-0.90998 -13.94114,-0.93679c-2.3872,-0.58734 -4.66007,-1.6747 -7.095,-2.01355c-3.67489,-0.5114 -7.3313,-0.4559 -11,-1c-4.57406,-0.67837 -8.72488,-3.21587 -12.69792,-5.22193c-2.72505,-1.37592 -6.04821,-1.72781 -8.85833,-2.93609c-2.51625,-1.08192 -4.69904,-2.82469 -7.14167,-4.06391c-3.10583,-1.57567 -6.86768,-1.42295 -10,-3c-3.90387,-1.96551 -6.80856,-5.61035 -9.83498,-8.66082c-1.69071,-2.53607 -4.71426,-4.72539 -6.19327,-7.27064c-1.85995,-3.20082 -1.42932,-6.80735 -1.37337,-10.31433c0.01981,-1.24184 -0.29083,-2.54799 0.10727,-3.72446c1.26617,-3.74179 4.48178,-4.59412 6.2661,-7.58987c0.91255,-1.5321 1.3646,-3.32731 1.65891,-5.08613c0.48661,-2.90803 -0.47199,-6.07349 0,-9c0.16784,-1.04064 0.82049,-1.9613 1,-3c0.83597,-4.83722 -0.03228,-10.65723 -0.03228,-15.59954c0,-2.76051 -0.78927,-8.07499 0.10727,-10.72446c2.35264,-6.95254 10.17278,-9.62958 16.49111,-6.52133c5.56065,2.73552 8.75831,8.5488 13.48659,12.31243c5.80115,4.61762 10.91259,9.89539 16.18279,15.16559c3.4331,3.57075 4.73532,8.62194 8.81721,11.83441c2.74768,2.16244 5.49875,3.17765 8.51341,4.68757c4.45842,2.23304 8.21124,4.91347 13.30208,5.77807c3.60017,0.61143 7.93758,-0.03228 11.59954,-0.03228c5.2303,0 9.03862,0.89848 13.04329,-2.8097c4.5712,-0.21986 9.08758,-0.4365 13.55625,-1.15802c4.83214,-0.7802 9.94604,-3.37421 14.60989,-4.90399c2.86463,-0.93962 6.05906,-0.52586 8.69219,-1.87408c2.97027,-1.52085 6.07008,-4.76677 8.16502,-7.33918c0.87825,-1.07841 1.33422,-2.52754 2.41587,-3.40179c0.8814,-0.7124 2.22516,-0.56723 3.20316,-1.13986c1.90654,-1.1163 3.79545,-3.8877 5.38097,-5.45835c0.66667,-1 1.23303,-2.07469 2,-3c0.45214,-0.54549 1.34945,-0.71843 1.62366,-1.37174c0.65107,-1.5512 -0.19583,-3.36101 -0.1903,-5.04329c0.01433,-4.35523 -1.2903,-8.39932 -1.96772,-12.59954c-0.65292,-4.04827 1.63389,-10.46488 -0.65891,-14.08613c-1.26987,-2.00564 -5.14399,-5.99753 -7.1877,-7.1877c-2.02697,-1.18043 -4.73877,-1.41694 -6.27064,-3.19327c-0.51821,-0.6009 -0.92416,-1.28025 -1.28946,-1.98802c-0.98187,0.59616 -1.81733,1.58495 -2.81124,2.18129c-0.90388,0.54233 -2.09352,0.46203 -3,1c-1.90519,1.13067 -3.22803,3.14122 -5.21595,4.11916c-2.03642,1.0018 -4.45734,0.86088 -6.69792,1.22193c-2.08134,0.33539 -3.99404,1.35148 -6,2c-7.62553,0.03339 -15.0469,3.32672 -22.80091,2c-3.06078,-0.5237 -4.72856,-1.91088 -7.55625,-3.15802c-1.68002,-0.74096 -3.63257,-0.54012 -5.44375,-0.84198c-1.03975,-0.17329 -1.9613,-0.82049 -3,-1c-3.87104,-0.669 -8.12262,0.72804 -12,0c-5.31014,-0.99706 -8.90403,-6.22504 -12.5329,-9.88275c-1.24534,-1.86801 -3.04759,-3.3399 -4.19327,-5.27064c-1.74886,-2.94723 -2.44523,-6.96894 -2.37337,-10.31433c0.02835,-1.32012 -0.30401,-2.7323 0.1903,-3.95671c0.47293,-1.17144 1.6747,-1.89244 2.54193,-2.81106c2.33312,-2.47136 4.54791,-4.41694 7.38102,-6.31236c2.88118,-1.92758 6.0938,-3.69127 8.80178,-5.85323c3.63456,-2.90171 6.28392,-7.78948 10.27064,-10.19327c2.98924,-1.80236 6.93825,-2.34132 10.31433,-2.37337c2.07691,0 4.27948,-0.13363 6.49646,-0.22928c0.18893,-0.37411 0.39563,-0.68501 0.61491,-0.90873c3.77219,-3.84843 12.70629,-4.10157 17.20296,-1.48862c0.6873,0.39938 2.34324,2.11813 3.59251,3.7416c0.67945,-0.70195 1.24798,-1.56058 2.13646,-1.92467c1.09797,-0.44994 2.38688,0.04338 3.55625,-0.15802c2.0776,-0.35783 3.92216,-1.64362 6,-2c0.98561,-0.16905 2.01361,0.1644 3,0c1.03975,-0.17329 1.95936,-0.83216 3,-1c2.92651,-0.47199 6.09197,0.48661 9,0c3.07199,-0.51404 5.91256,-2.487 9,-3c3.2474,-0.53957 6.77361,0.55759 10,0c3.32554,-0.57472 5.93016,-1.03228 9.40046,-1.03228c0.75851,0.03576 1.5602,0.36205 2.27554,0.10727c1.00925,-0.35946 1.66988,-1.36986 2.62608,-1.85306c2.24077,-1.13233 4.55092,-1.62266 5.97175,-4.06854c0.52948,-0.91146 0.44721,-2.10249 1,-3c1.56701,-2.54419 4.34195,-4.5059 6.0465,-7.07242c1.24447,-1.87378 4.49903,-5.17179 4.58013,-7.61325c0.05075,-1.52779 -1.36817,-2.356 -2.26777,-3.23223c-1.21371,-1.18219 -2.08151,-2.79008 -3.54656,-3.64114c-0.91146,-0.52948 -2.09883,-0.45318 -3,-1c-0.13636,-0.08274 -0.25431,-0.18846 -0.36128,-0.30776c-1.10122,-0.20897 -2.20858,-0.33272 -3.32439,-0.31887l-5.46772,-2.09954c1.18746,-0.90647 2.23249,-2.06548 3.43548,-2.94441c-0.66855,0.0263 -1.32648,0.04395 -1.96776,0.04395c-3.87799,0 -7.3148,-0.04051 -10.90162,1.74579c-1.19324,0.59425 -2.11063,1.72143 -3.37392,2.14694c-0.94768,0.31921 -2.05019,-0.31284 -3,0c-2.22634,0.73329 -4.01807,2.65431 -6.324,3.07499c-0.98376,0.17947 -2.01276,-0.15922 -3,0c-1.16945,0.18861 -2.21589,1.03228 -3.40046,1.03228c-2.02759,0 -3.97257,-1.02518 -6,-1c-3.35841,-0.04171 -5.3435,1.42671 -8.59954,1.96772c-2.9635,0.4924 -6.1333,-0.42057 -9.095,0.01355c-1.35984,0.19932 -2.6388,0.81018 -4,1c-1.94948,0.27185 -3.96541,-0.34875 -5.905,-0.01355c-5.87905,1.01602 -11.86299,2.4761 -17.75879,3.94853c-1.14752,0.28659 -5.25021,1.88681 -6.24121,2.05147c-5.11994,0.85071 -9.97381,-0.6754 -15,1c-1.99991,0.01899 -4.02529,-0.31704 -6,0c-4.52502,0.72649 -8.35766,4.22865 -13,5c-6.9004,1.14654 -14.18119,-0.11937 -21.29266,-0.3425c-0.12453,0.093 -0.25219,0.18231 -0.38334,0.26751c-0.92938,0.60377 -2.23139,-0.11074 -3.324,0.07499c-3.03459,0.51584 -5.96431,1.49405 -9,2c-1.20663,0.2011 -2.07735,-0.00545 -2.94615,-0.00058c-0.98612,0.28888 -1.93765,0.89038 -2.89945,1.29658c-0.42881,0.43542 -0.80875,0.93113 -1.24052,1.3629l-6.44095,0.1877c0.60219,-1.16505 1.01171,-2.467 1.59986,-3.64202c-1.0349,0.34274 -2.06632,0.62818 -3.07277,0.79541c-4.20981,0.69948 -9.14488,0.03228 -13.40046,0.03228c-0.47331,0 -6.14904,0.00949 -6.40046,-0.03228c-4.09704,-0.68075 -7.90609,-3.42528 -12,-4c-3.18921,-0.44772 -3.85815,0.50673 -7,0c-3.3599,-0.54189 -6.85158,-1.21074 -10.20588,-2.04236c-1.38967,-0.34453 -7.06915,-1.57745 -8.16143,-2.65759c-0.59714,-0.59051 -2.3697,-6.34581 -2.69995,-7.36731c-0.02544,-3.46719 -0.03228,-6.93324 -0.03228,-10.40046c0,-0.788 -0.02879,-6.29028 0.10727,-6.72446c0.35939,-1.14686 1.59414,-1.86875 2,-3c0.25643,-0.71475 -0.09183,-1.51634 -0.10727,-2.27554c-0.06069,-2.98497 -0.08164,-6.01559 0,-9c0.03611,-1.31993 -0.30401,-2.7323 0.1903,-3.95671c0.75376,-1.86707 3.15272,-2.62774 4.18307,-4.35762c0.01291,-0.02168 0.02576,-0.0434 0.03855,-0.06514c-0.0476,0.04927 -0.09565,0.09835 -0.14416,0.14724c0,0 -1.76777,1.76777 -3.53553,0c-1.76777,-1.76777 0,-3.53553 0,-3.53553c1.36578,-1.35297 2.29176,-2.83203 3.15067,-4.3256c-0.45869,-0.38942 -0.77504,-0.94142 -0.86002,-1.56696c-0.05165,0.1493 -0.10205,0.29959 -0.15117,0.45089c0,0 -0.79057,2.37171 -3.16228,1.58114c-2.37171,-0.79057 -1.58114,-3.16228 -1.58114,-3.16228c1.15409,-3.39057 2.87865,-6.48208 5.03404,-9.2213c0.24992,-2.83952 0.90785,-5.70405 1.96596,-8.7787c0.16127,-0.46862 0.31479,-0.97416 0.48066,-1.49044c-0.3506,-0.37001 -0.60895,-0.91533 -0.60895,-1.719c0,-2.5 2.5,-2.5 2.5,-2.5c0.15272,0 0.30803,0 0.46567,0c0.52611,-0.43445 1.16621,-0.7627 1.95995,-0.93312c1.91863,-0.41194 3.55023,0.01629 4.83584,0.93312c0.96264,0 1.89054,0 2.73854,0c0.47331,0 6.14904,-0.00949 6.40046,0.03228c0.01208,0.00201 0.02416,0.00403 0.03624,0.00606c0.01142,-0.0033 0.0229,-0.00652 0.03443,-0.00968c1.65426,-0.72377 3.59788,-1.48645 4.99065,-0.55676c0.7582,0.50611 1.11919,1.37981 1.2285,2.40284c3.20967,1.21053 6.3966,2.60346 9.71018,3.15755c1.09311,0.18279 2.27096,-0.27053 3.324,0.07499c1.14195,0.37469 1.86815,1.59583 3,2c0.72306,0.2582 1.53309,-0.11241 2.30085,-0.10714c1.04112,0.00715 2.11871,0.42929 3.1201,0.14435c1.38081,-0.3929 2.5178,-1.38072 3.75918,-2.10182c4.32844,-2.51432 8.5115,-5.31687 12.89406,-7.73509c8.57096,-4.72932 17.65184,-8.65603 26.50927,-12.80997c4.49645,-2.10869 9.2391,-4.87742 13.96886,-6.39071c2.88609,-0.9234 5.99907,-0.87874 8.97074,-1.47146c6.51596,-1.29964 12.92104,-3.19622 19.4123,-4.6165c3.16291,-0.69204 6.46075,-0.84927 9.52882,-1.88362c1.39974,-0.4719 2.57152,-1.48594 3.96131,-1.98637c7.44804,-2.68186 15.86764,-3.55106 23.64368,-4.77892c6.21808,-0.98185 12.42217,-2.31996 18.72292,-2.42033c19.81574,-0.28201 39.77148,-3.46617 59.51952,-5.35241c3.29042,-0.31429 6.59336,-0.51705 9.8714,-0.94146c0.74366,-0.09628 9.76918,-1.64354 10.23349,-1.63603c1.78511,0.02888 3.49881,0.71659 5.25947,1.01248c6.02275,1.01214 11.85246,1.90704 17.81628,3.32149c9.71753,2.30642 18.86587,5.06056 28.92956,5.65051c9.31938,0.54631 18.49596,-1.16297 27.69848,-2.37383c6.48109,-0.85277 13.21879,-1.27295 19.62268,-2.57308c7.12988,-1.44752 14.18049,-4.50516 20.93328,-7.14468c2.40507,-0.10675 5.12043,-1.5067 7.2152,-0.32025c1.44631,0.81917 0.73633,3.25195 0.88406,4.90755c0.58361,6.54048 0.00022,13.43004 0,20c-0.00042,12.94044 2.26886,25.11647 4.00314,37.89001c1.57706,11.61551 2.67105,23.32082 3.99285,34.96844c0.00703,14.78479 -1.10526,29.54626 -1.91041,44.3074c-1.05524,19.34613 -1.99927,38.71168 -3.37946,58.03768c-1.14114,15.976 -3.88644,32.40825 -1.7398,48.38748c1.0064,7.49149 4.90331,14.5911 6.01156,22.07716c1.09179,7.37484 -0.16087,15.63669 -1.3679,22.87889c-1.73873,10.43238 -3.96099,21.02037 -4.6138,31.59119c-0.57195,9.26144 1.09285,18.99567 0.20634,28.25639c2.07013,0.69076 4.15538,1.58942 6.08806,2.23365l1.70943,3.37171c0,0 0,2.5 -2.5,2.5c-1.55384,0 -2.14191,-0.96577 -2.36448,-1.69679c-0.74417,-0.28415 -1.50502,-0.58935 -2.2715,-0.88512c-0.34425,1.04443 -1.26442,1.39929 -1.84997,1.51986c-0.0113,0.18679 -0.01639,0.3741 -0.01405,0.56205c0,0 0,2.5 -2.5,2.5c-2.5,0 -2.5,-2.5 -2.5,-2.5c0.00515,-0.54213 0.05295,-1.0805 0.12663,-1.61665c-0.98842,-0.3872 -1.98502,-0.74126 -3.02708,-0.91563zM341.99548,56.38804c0.28483,0.32572 0.59975,0.68057 1.00911,1.02791c2.5297,0.6249 4.99567,1.51473 7.61153,2.19675c-0.21275,-0.1806 -0.42514,-0.36166 -0.65184,-0.52387c-1.59758,-1.14312 -2.8323,-2.16389 -4.81548,-2.46564c-1.01276,-0.15409 -2.07213,-0.22014 -3.15332,-0.23515zM254.70128,106.2837c-0.14977,-0.00066 -0.29989,-0.00054 -0.45031,0.00029c-0.03168,0.05116 -0.01886,0.08784 0.06605,0.10372c0.14088,0.02635 0.26575,-0.02167 0.38426,-0.10401zM264.70747,102.66484c-0.90499,-0.23377 -1.96124,-0.3472 -2.99995,-0.37082c0.40491,0.16817 0.81333,0.32226 1.24219,0.39373c0.57725,0.09621 1.16883,0.02149 1.75776,-0.02292zM312.33963,150.90844c0.22518,0.28693 0.4503,0.57382 0.6779,0.85947c0.69122,0.35307 1.43631,0.64622 1.94728,1.15924c0.44838,0.07249 0.89738,0.12642 1.34837,0.11029c0.27799,-0.00994 -0.5092,-0.22644 -0.7507,-0.36448c-1.2477,-0.71322 -2.05037,-1.36707 -3.22286,-1.76451zM114.93901,-2.11299c0.65331,-0.70861 1.23669,-1.43653 1.62703,-2.23153c-0.43541,0 -0.87082,0 -1.30623,0c-0.14839,0.70074 -0.13644,1.59921 -0.3208,2.23153z" stroke="none" stroke-width="0.5"/></g></g></svg>