<svg version="1.1" xmlns="http://www.w3.org/2000/svg" xmlns:xlink="http://www.w3.org/1999/xlink" width="571" height="393.50002" viewBox="0,0,571,393.50002"><g transform="translate(51.96632,11)"><g data-paper-data="{&quot;isPaintingLayer&quot;:true}" fill-rule="nonzero" stroke="none" stroke-linecap="butt" stroke-linejoin="miter" stroke-miterlimit="10" stroke-dasharray="" stroke-dashoffset="0" style="mix-blend-mode: normal"><path d="M307.03368,374.5c-4.25331,0 -9.08811,0.5771 -13.30407,-0.01856c-5.70887,-0.80658 -11.30575,-2.27382 -17.00138,-3.00017c-11.94843,-1.52376 -23.67697,1.09128 -35.0882,3.94409c0,0 -0.26473,0.06618 -0.64113,0.06736c0.00067,0.16647 0.00111,0.33547 0.00111,0.50729v1c0,0 0,2.5 -2.5,2.5c-2.5,0 -2.5,-2.5 -2.5,-2.5v-1c0,-3.62844 0.00134,-6.30476 1.12829,-9.79057c2.79559,-8.0711 -0.72579,-17.04767 3.08543,-25.22082c2.84727,-6.10597 8.28314,-5.65593 13.98082,-6.46988c1.36056,-0.19437 2.6388,-0.81018 4,-1c3.55969,-0.49639 6.43892,0.34869 9.80221,1.03112c4.24058,0.86043 8.70797,1.17657 12.98384,1.99678c4.22763,0.81095 8.35132,2.37715 12.43689,3.68723c8.15617,2.33841 15.7835,6.34013 24.35531,7.28107c5.95024,0.65317 11.66113,-0.39112 17.48086,-1.00277c1.16796,-0.12275 2.39275,0.41797 3.52188,0.09511c1.03007,-0.29454 1.67004,-1.36956 2.62608,-1.85306c2.4306,-1.22924 4.8782,-2.54032 7.524,-3.18733c4.87865,-1.19304 9.77602,0.96647 14.57438,0.93312c0,0 0.9402,0 1.66744,0.57659c0.03202,-0.06492 0.06419,-0.1298 0.09649,-0.19462c0,0 1.11804,-2.23607 3.35411,-1.11803c2.23607,1.11804 1.11803,3.35411 1.11803,3.35411c-3.05825,6.09418 -4.63009,12.59906 -5.76568,19.26563c-0.72157,4.23604 0.02961,9.3291 0.02961,13.61633v2c0,0 0,2.5 -2.5,2.5c-2.5,0 -2.5,-2.5 -2.5,-2.5v-2c0,-1.13095 -0.04262,-2.30493 -0.09579,-3.5c-16.70897,0 -35.24606,0 -51.87053,0z" fill="#9966ff" stroke-width="0.5"/><path d="M92,299c0,-1.38071 1.11929,-2.5 2.5,-2.5c1.38071,0 2.5,1.11929 2.5,2.5c0,1.38071 -1.11929,2.5 -2.5,2.5c-1.38071,0 -2.5,-1.11929 -2.5,-2.5z" fill="#9966ff" stroke-width="0.5"/><path d="M176,326c0,-1.38071 1.11929,-2.5 2.5,-2.5c1.38071,0 2.5,1.11929 2.5,2.5c0,1.38071 -1.11929,2.5 -2.5,2.5c-1.38071,0 -2.5,-1.11929 -2.5,-2.5z" fill="#9966ff" stroke-width="0.5"/><path d="M136,268c0,-1.38071 1.11929,-2.5 2.5,-2.5c1.38071,0 2.5,1.11929 2.5,2.5c0,1.38071 -1.11929,2.5 -2.5,2.5c-1.38071,0 -2.5,-1.11929 -2.5,-2.5z" fill="#9966ff" stroke-width="0.5"/><path d="M46,325c0,-1.38071 1.11929,-2.5 2.5,-2.5c1.38071,0 2.5,1.11929 2.5,2.5c0,1.38071 -1.11929,2.5 -2.5,2.5c-1.38071,0 -2.5,-1.11929 -2.5,-2.5z" fill="#9966ff" stroke-width="0.5"/><path d="M98,342c0,-1.38071 1.11929,-2.5 2.5,-2.5c1.38071,0 2.5,1.11929 2.5,2.5c0,1.38071 -1.11929,2.5 -2.5,2.5c-1.38071,0 -2.5,-1.11929 -2.5,-2.5z" fill="#9966ff" stroke-width="0.5"/><path d="M-51.96632,192v-99h122v99z" fill="#66ff8d" stroke-width="0"/><path d="M126.03368,207v-110h81v110z" fill="#66ff8d" stroke-width="0"/><path d="M188.03368,147v-105h19v105z" fill="#66ff8d" stroke-width="0"/><path d="M226.03368,57v-68h280v68z" fill="#66ff8d" stroke-width="0"/><path d="M190.03368,55v-14h55v14z" fill="#66ff8d" stroke-width="0"/><path d="M291.03368,233v-109h228v109z" fill="#66ff8d" stroke-width="0"/><path d="M352.03368,181v-137h148v137z" fill="#66ff8d" stroke-width="0"/><path d="M255.03368,304v-84h119v84z" fill="#66ff8d" stroke-width="0"/><path d="M232.53368,382v-48h135v48z" fill="#66ff8d" stroke-width="0"/></g></g></svg>