<svg version="1.1" xmlns="http://www.w3.org/2000/svg" xmlns:xlink="http://www.w3.org/1999/xlink" width="131.01874" height="157.89479" viewBox="0,0,131.01874,157.89479"><g transform="translate(-200.68036,-97.00175)"><g data-paper-data="{&quot;isPaintingLayer&quot;:true}" fill-rule="nonzero" stroke-linejoin="miter" stroke-miterlimit="10" stroke-dasharray="" stroke-dashoffset="0" style="mix-blend-mode: normal"><path d="M261.71038,230.89573v-35.23747" fill="none" stroke="#ffd966" stroke-width="5" stroke-linecap="round"/><path d="M264.09936,192.97061c0,14.6783 -11.76542,26.57741 -26.27879,26.57741c-14.51337,0 -26.27879,-11.89911 -26.27879,-26.57741c0,-14.6783 11.76541,-26.57741 26.27879,-26.57741c14.51337,0 26.27879,11.89911 26.27879,26.57742z" fill="#ffff55" stroke="#ffd966" stroke-width="5" stroke-linecap="butt"/><path d="M274.47458,136.45434c0,19.95589 -10.29474,36.13334 -22.99394,36.13334c-12.69921,0 -22.99394,-16.17745 -22.99394,-36.13334c0,-19.95589 10.29474,-36.13334 22.99394,-36.13334c12.69921,0 22.99394,16.17745 22.99394,36.13334z" fill="#ffff55" stroke="#ffd966" stroke-width="5" stroke-linecap="butt"/><path d="M249.16824,135.6351c0,19.95589 -10.29474,36.13333 -22.99394,36.13333c-12.69921,0 -22.99394,-16.17744 -22.99394,-36.13333c0,-19.95589 10.29474,-36.13334 22.99394,-36.13334c12.69921,0 22.99394,16.17745 22.99394,36.13334z" fill="#ffff55" stroke="#ffd966" stroke-width="5" stroke-linecap="butt"/><path d="M329.1991,160.71937c0,10.39025 -26.87328,18.81322 -60.02315,18.81322c-33.14987,0 -60.02314,-8.42297 -60.02314,-18.81322c0,-10.39025 26.87327,-18.81322 60.02314,-18.81322c33.14987,0 60.02315,8.42297 60.02315,18.81322z" fill="#ffff55" stroke="#ffd966" stroke-width="5" stroke-linecap="butt"/><path d="M217.51424,166.46248c-2.58837,0 -3.60035,-1.57639 -3.99601,-2.80903c-2.92809,-2.81694 -5.63683,-5.31952 -4.00256,-10.47516c0.46761,-1.47515 2.53128,-1.78641 3.72181,-2.77502c4.05665,-3.36864 6.91665,-5.10032 12.2194,-6.15675c0.73209,0.02803 1.44675,-0.12101 2.15663,-0.3244c0.06741,-0.08666 0.13688,-0.17204 0.20852,-0.25604c1.00154,-1.17435 2.91153,-1.02621 4.35601,-1.56991c1.45134,-0.54629 2.73026,-1.05399 3.98874,-1.47596c0.04084,-0.06222 0.08253,-0.12399 0.12511,-0.18528c0.80109,-1.15311 2.40481,-1.4958 3.73288,-1.9515c1.17959,-0.40475 2.40077,-0.59748 3.64526,-0.65566c0.01223,-0.07873 0.0272,-0.15841 0.04508,-0.23899c-1.20753,-1.03082 -2.43366,-2.03527 -2.87291,-3.49622c-0.77695,-2.5842 -2.55745,-5.90356 -0.91379,-8.04368c0.87874,-1.14415 2.38452,-1.25258 3.9887,-1.11228c-0.54175,-0.44813 -1.08107,-0.8858 -1.61982,-1.31597c-0.67288,-0.14054 -1.18376,-0.63037 -1.49049,-0.57634c0,0 -0.25,0 -0.25,-0.25c0,-0.25 0.25,-0.25 0.25,-0.25c0.05374,0.00483 0.10395,0.01175 0.15111,0.02046c-2.048,-1.59507 -4.10941,-3.11779 -6.28457,-4.73189c0,0 -3.4,-2.55 -0.85,-5.95c2.55,-3.4 5.95,-0.85 5.95,-0.85c1.47371,1.12054 3.21505,1.8505 4.71298,2.93845c1.59044,1.15512 2.43036,2.58141 3.88306,3.82057c2.05214,1.75048 4.90064,3.47335 6.39853,5.80128c1.11082,1.72638 3.11586,3.44337 2.82036,5.47487c-0.51918,3.56934 -2.61235,5.08078 -5.10468,5.59077c0.60806,0.84783 1.19428,1.70913 1.76962,2.57867c1.80818,-1.13729 3.73745,-2.06072 5.84208,-1.96663c1.20082,0.05369 2.41362,0.51847 3.53882,1.19825c0.34503,-1.03775 1.54408,-3.57876 4.88224,-2.91113c4.16747,0.83349 3.33397,5.00096 3.33397,5.00096c-0.35091,1.68541 -0.52858,3.41746 -0.51471,5.13896v2.98622c0,2.34721 -1.90279,4.25 -4.25,4.25c-0.89346,0 -1.72253,-0.2757 -2.40677,-0.74667c-1.67607,2.18226 -4.66156,2.76744 -7.32762,3.11497c-5.65969,0.73777 -11.88465,-1.2622 -17.49219,-1.78554c-0.27672,-0.02582 -0.58196,-0.05537 -0.90783,-0.08596c-2.33301,0.3917 -4.64943,0.76848 -6.86681,1.2124l-2.90017,0.58004c-0.29611,0.06531 -0.60381,0.09974 -0.91955,0.09974c-0.78397,0 -1.51835,-0.21227 -2.14882,-0.58246c-1.5417,0.30212 -2.69781,0.43187 -4.13043,1.23195c-1.16685,0.65166 -1.92807,1.88306 -2.94127,2.74952c0.51932,0.57221 0.95684,1.36946 1.47531,1.88794l1.2448,3.60245c0,0 0,4.25 -4.25,4.25z" fill="#ffff55" stroke="none" stroke-width="0.5" stroke-linecap="butt"/><path d="M220.50047,214.7701l-0.59725,35.83471" fill="none" stroke="#ffd966" stroke-width="5" stroke-linecap="round"/><path d="M249.16823,252.39655l0.59725,-32.84849" fill="none" stroke="#ffd966" stroke-width="5" stroke-linecap="round"/><path d="M206.76383,230.29845l1.19449,-41.80717" fill="none" stroke="#ffd966" stroke-width="5" stroke-linecap="round"/><path d="M214.52801,134.73917c0,2.30895 -0.93589,4.18072 -2.09036,4.18072c-1.15447,0 -2.09036,-1.87177 -2.09036,-4.18072c0,-2.30895 0.93589,-4.18072 2.09036,-4.18072c1.15447,0 2.09036,1.87177 2.09036,4.18072z" fill="#000000" stroke="#f1c232" stroke-width="5" stroke-linecap="butt"/><path d="M267.90488,135.55847c0,2.30894 -0.93588,4.18072 -2.09035,4.18072c-1.15448,0 -2.09036,-1.87178 -2.09036,-4.18072c0,-2.30894 0.93588,-4.18072 2.09036,-4.18072c1.15447,0 2.09035,1.87177 2.09035,4.18072z" fill="#000000" stroke="#f1c232" stroke-width="5" stroke-linecap="butt"/><path d="M328.00461,162.21248l-99.14271,-0.59725" fill="none" stroke="#ffd966" stroke-width="5" stroke-linecap="round"/><path d="M215.91454,171.72369c-1.84409,-0.26344 -2.11781,-1.70466 -2.13754,-2.42221c-1.47351,-0.51623 -1.5375,-2.19509 -1.54028,-2.33992c-2.15353,-0.84724 -1.40333,-3.09781 -1.40333,-3.09781l0.51852,-1.47609c0.74775,-1.4785 1.32626,-3.04772 1.7762,-4.64228c3.74907,-9.99751 6.94992,-20.10093 10.34269,-30.26231c2.56482,-7.68166 2.97863,-15.5651 6.64199,-22.90954c0,0 1.11803,-2.23607 3.3541,-1.11804c0.67808,0.33904 1.04772,0.78088 1.23364,1.23202c0.41458,-0.04752 0.89675,0.02461 1.44649,0.29949c1.06408,0.53204 1.36861,1.31727 1.39552,1.99423c0.33907,0.04246 0.7098,0.1698 1.10869,0.4191c2.11999,1.325 0.795,3.44499 0.795,3.44499c-4.2827,6.79613 -3.85218,14.34511 -6.27295,21.71821c-2.4378,7.42496 -4.45713,15.51941 -8.18989,22.54579c-1.25855,2.36904 -2.84041,4.54026 -4.07332,6.96651c-0.44975,1.79898 -1.03174,3.58567 -1.8728,5.2383l-0.29429,2.28826c0,0 -0.35355,2.47487 -2.82843,2.12132z" fill="#ffffff" stroke="none" stroke-width="0.5" stroke-linecap="butt"/><path d="M248.4296,115.0833c-0.87715,0 -1.6488,-0.45173 -2.09498,-1.13526c-0.55859,0.39979 -1.38157,0.64925 -2.46893,0.10558c-2.23607,-1.11804 -1.11803,-3.3541 -1.11803,-3.3541l0.38287,-0.76575c1.27548,-2.53968 2.79261,-4.79802 4.36757,-7.16046c0,0 1.38675,-2.08013 3.46688,-0.69338c0.68447,0.45632 0.99356,0.9877 1.1002,1.49535c0.02439,-0.03419 0.0488,-0.06839 0.07321,-0.10257c0,0 1.4531,-2.03434 3.48743,-0.58124c2.03434,1.4531 0.58124,3.48743 0.58124,3.48743c-1.15744,1.62008 -2.29584,3.25424 -3.40008,4.91103l-1.22876,1.64475c0,0 -0.33987,0.45316 -0.91176,0.76629c-0.41033,0.81963 -1.25788,1.38233 -2.23686,1.38233z" fill="#ffffff" stroke="none" stroke-width="0.5" stroke-linecap="butt"/><path d="M215.64895,207.00684c-0.53701,-0.53701 -0.74775,-1.07402 -0.7809,-1.56147c-0.16987,-0.0256 -0.34945,-0.06861 -0.53915,-0.13184c-2.37171,-0.79057 -1.58114,-3.16228 -1.58114,-3.16228l1.21691,-3.10714c2.38187,-2.78002 3.33361,-6.30128 5.07662,-9.53394c2.27158,-4.21298 4.9032,-8.01401 6.79808,-12.44003c0,0 0.9848,-2.29786 3.28266,-1.31306c0.35761,0.15326 0.63571,0.33832 0.85039,0.54158c0.2105,0.00464 0.43859,0.03495 0.68552,0.09668c2.42536,0.60634 1.81902,3.0317 1.81902,3.0317c-1.04586,4.10741 -2.96946,7.38299 -4.75687,11.17666c-1.3611,2.88885 -1.45714,6.00367 -3.23373,8.72913c-1.52937,2.3462 -3.18565,4.09861 -4.45069,6.64141l-0.85118,1.03261c0,0 -1.76777,1.76777 -3.53553,0z" fill="#ffffff" stroke="none" stroke-width="0.5" stroke-linecap="butt"/></g></g></svg>