<svg version="1.1" xmlns="http://www.w3.org/2000/svg" xmlns:xlink="http://www.w3.org/1999/xlink" width="131.01873" height="157.50538" viewBox="0,0,131.01873,157.50538"><g transform="translate(-201.06978,-97.39118)"><g data-paper-data="{&quot;isPaintingLayer&quot;:true}" fill-rule="nonzero" stroke-linejoin="miter" stroke-miterlimit="10" stroke-dasharray="" stroke-dashoffset="0" style="mix-blend-mode: normal"><path d="M261.71038,195.65827v35.23747" fill="#ff0000" stroke="#000000" stroke-width="5" stroke-linecap="round"/><path d="M264.48877,193.36003c0,14.6783 -11.76542,26.57741 -26.27879,26.57741c-14.51337,0 -26.27879,-11.89911 -26.27879,-26.57741c0,-14.6783 11.76541,-26.57741 26.27879,-26.57741c14.51337,0 26.27879,11.89911 26.27879,26.57742z" fill="#ff0000" stroke="#000000" stroke-width="5" stroke-linecap="butt"/><path d="M274.864,136.84376c0,19.95589 -10.29474,36.13334 -22.99394,36.13334c-12.69921,0 -22.99394,-16.17745 -22.99394,-36.13334c0,-19.95589 10.29474,-36.13334 22.99394,-36.13334c12.69921,0 22.99394,16.17745 22.99394,36.13334z" fill="#ff0000" stroke="#000000" stroke-width="5" stroke-linecap="butt"/><path d="M249.55767,136.02452c0,19.95589 -10.29474,36.13333 -22.99394,36.13333c-12.69921,0 -22.99394,-16.17744 -22.99394,-36.13333c0,-19.95589 10.29474,-36.13334 22.99394,-36.13334c12.69921,0 22.99394,16.17745 22.99394,36.13334z" fill="#ff0000" stroke="#000000" stroke-width="5" stroke-linecap="butt"/><path d="M329.58851,161.10879c0,10.39025 -26.87328,18.81322 -60.02315,18.81322c-33.14987,0 -60.02314,-8.42297 -60.02314,-18.81322c0,-10.39025 26.87327,-18.81322 60.02314,-18.81322c33.14987,0 60.02315,8.42297 60.02315,18.81322z" fill="#ff0000" stroke="#000000" stroke-width="5" stroke-linecap="butt"/><path d="M217.51425,166.46249c-2.58837,0 -3.60035,-1.57639 -3.99601,-2.80903c-2.92809,-2.81694 -5.63683,-5.31952 -4.00256,-10.47516c0.46761,-1.47515 2.53128,-1.78641 3.72181,-2.77502c4.05665,-3.36864 6.91665,-5.10032 12.2194,-6.15675c0.73209,0.02803 1.44675,-0.12101 2.15663,-0.3244c0.06741,-0.08666 0.13688,-0.17204 0.20852,-0.25604c1.00154,-1.17435 2.91153,-1.02621 4.35601,-1.56991c1.45134,-0.54629 2.73026,-1.05399 3.98874,-1.47596c0.04084,-0.06222 0.08253,-0.12399 0.12511,-0.18528c0.80109,-1.15311 2.40481,-1.4958 3.73288,-1.9515c1.17959,-0.40475 2.40077,-0.59748 3.64526,-0.65566c0.01223,-0.07873 0.0272,-0.15841 0.04508,-0.23899c-1.20753,-1.03082 -2.43366,-2.03527 -2.87291,-3.49622c-0.77695,-2.5842 -2.55745,-5.90356 -0.91379,-8.04368c0.87874,-1.14415 2.38452,-1.25258 3.9887,-1.11228c-0.54175,-0.44813 -1.08107,-0.8858 -1.61982,-1.31597c-0.67288,-0.14054 -1.18376,-0.63037 -1.49049,-0.57634c0,0 -0.25,0 -0.25,-0.25c0,-0.25 0.25,-0.25 0.25,-0.25c0.05374,0.00483 0.10395,0.01175 0.15111,0.02046c-2.048,-1.59507 -4.10941,-3.11779 -6.28457,-4.73189c0,0 -3.4,-2.55 -0.85,-5.95c2.55,-3.4 5.95,-0.85 5.95,-0.85c1.47371,1.12054 3.21505,1.8505 4.71298,2.93845c1.59044,1.15512 2.43036,2.58141 3.88306,3.82057c2.05214,1.75048 4.90064,3.47335 6.39853,5.80128c1.11082,1.72638 3.11586,3.44337 2.82036,5.47487c-0.51918,3.56934 -2.61235,5.08078 -5.10468,5.59077c0.60806,0.84783 1.19428,1.70913 1.76962,2.57867c1.80818,-1.13729 3.73745,-2.06072 5.84208,-1.96663c1.20082,0.05369 2.41362,0.51847 3.53882,1.19825c0.34503,-1.03775 1.54408,-3.57876 4.88224,-2.91113c4.16747,0.83349 3.33397,5.00096 3.33397,5.00096c-0.35091,1.68541 -0.52858,3.41746 -0.51471,5.13896v2.98622c0,2.34721 -1.90279,4.25 -4.25,4.25c-0.89346,0 -1.72253,-0.2757 -2.40677,-0.74667c-1.67607,2.18226 -4.66156,2.76744 -7.32762,3.11497c-5.65969,0.73777 -11.88465,-1.2622 -17.49219,-1.78554c-0.27672,-0.02582 -0.58196,-0.05537 -0.90783,-0.08596c-2.33301,0.3917 -4.64943,0.76848 -6.86681,1.2124l-2.90017,0.58004c-0.29611,0.06531 -0.60381,0.09974 -0.91955,0.09974c-0.78397,0 -1.51835,-0.21227 -2.14882,-0.58246c-1.5417,0.30212 -2.69781,0.43187 -4.13043,1.23195c-1.16685,0.65166 -1.92807,1.88306 -2.94127,2.74952c0.51932,0.57221 0.95684,1.36946 1.47531,1.88794l1.2448,3.60245c0,0 0,4.25 -4.25,4.25z" fill="#ff0000" stroke="none" stroke-width="0" stroke-linecap="butt"/><path d="M220.50048,214.77011l-0.59725,35.83471" fill="#ff0000" stroke="#000000" stroke-width="5" stroke-linecap="round"/><path d="M249.16824,252.39656l0.59725,-32.84849" fill="#ff0000" stroke="#000000" stroke-width="5" stroke-linecap="round"/><path d="M207.95832,188.49129l-1.19449,41.80717" fill="#ff0000" stroke="#000000" stroke-width="5" stroke-linecap="round"/><path d="M328.39404,163.19978l-108.49081,-0.65356" fill="#ff0000" stroke="#000000" stroke-width="5" stroke-linecap="round"/><path d="M247.58555,176.80659c-0.411,-2.46598 2.05499,-2.87698 2.05499,-2.87698l1.36074,-0.00356c2.76471,-1.82423 4.4855,-3.50751 5.16928,-6.11857c-0.46558,0.13667 -0.92958,0.27707 -1.38842,0.4298c-5.81014,1.934 -11.38748,4.83662 -17.39636,6.30785c-3.67401,0.89956 -8.10164,0.83939 -11.86744,0.84571h-1.16825c0,0 -2.5,0 -2.5,-2.5c0,-2.5 2.5,-2.5 2.5,-2.5h1.16825c3.35926,0.00631 7.44829,0.12584 10.71867,-0.71195c4.0979,-1.04979 7.86931,-2.89229 11.86333,-4.22469c2.9152,-0.97251 6.00483,-1.76233 8.84953,-2.96049c-3.99624,-0.5863 -7.97205,-1.78419 -11.91808,-2.31424c-3.26757,-0.43892 -6.73939,-0.00969 -10.0575,-0.38092c-6.72717,-0.75264 -13.3633,-2.44471 -19.69038,-4.82052c-4.59734,-1.7263 -8.12784,-2.6564 -12.00507,-5.86807c0,0 -1.92055,-1.60046 -0.32009,-3.52101c1.60046,-1.92055 3.52101,-0.32009 3.52101,-0.32009c3.43349,2.88115 6.44519,3.48665 10.58105,5.03557c7.04859,2.63977 14.65185,4.48249 22.21161,4.90231c0.90929,0.0505 5.73939,-0.0735 6.45287,0.02106c3.11364,0.41265 6.23787,1.24668 9.37741,1.86935c-1.36601,-1.09871 -2.74389,-2.18484 -4.1808,-3.20979c-2.8259,-2.01572 -5.36068,-3.38684 -7.84032,-5.86085c-2.97894,-4.17051 -6.68941,-7.89265 -8.60012,-12.78152c-2.46758,-6.31371 -3.86748,-12.81352 -6.24154,-19.10987c-1.8154,-4.81471 -3.50632,-10.31519 -9.26232,-10.85842c0,0 -2.48069,-0.31009 -2.17061,-2.79078c0.31009,-2.48069 2.79078,-2.17061 2.79078,-2.17061c1.23821,0.18046 2.55799,0.06399 3.71464,0.54138c8.93966,3.68969 10.57317,17.08441 12.7908,25.01867c2.03892,7.29484 6.51218,12.92548 10.79346,18.91927c1.4526,1.45722 2.98607,2.43761 4.59262,3.46706c-0.30081,-0.71888 -0.56919,-1.4761 -0.79828,-2.2832c-0.03834,-4.87494 -0.12008,-10.30251 1.23693,-15.04072c1.29433,-4.51936 5.19858,-7.87019 6.63449,-12.12134c0.72403,-2.14357 -0.99225,-4.49488 -1.55122,-6.31844c-0.25411,-0.82899 -0.03678,-1.76619 -0.33849,-2.57907c-1.1805,-3.18059 -3.82332,-5.05341 -6.91859,-5.88735c0,0 -2.40381,-0.6868 -1.71701,-3.09061c0.6868,-2.40381 3.09061,-1.71701 3.09061,-1.71701c4.63784,1.38136 8.36664,4.22983 10.2157,8.91045c0.35594,0.90101 0.15451,1.94711 0.44035,2.87275c0.93833,3.03868 2.565,5.81727 1.56411,9.25819c-1.24576,4.28273 -5.34892,7.61015 -6.60565,12.02243c-1.16223,4.08051 -1.05686,8.7928 -1.09956,12.99721c1.34649,4.66379 4.76988,7.52096 7.3926,11.42131l0.47487,0.08546c0,0 0.60922,0.40615 0.94846,1.10854c1.71703,-0.28775 3.37972,-0.88425 5.10635,-1.11483c4.64541,-0.62039 9.32683,-0.53988 13.57549,-2.84368c1.08899,-0.59049 5.94083,-3.17011 4.71118,-5.40625c-0.73152,-1.33028 -2.27873,-2.00961 -3.35223,-3.0831c0,0 -1.76777,-1.76777 0,-3.53553c1.76777,-1.76777 3.53553,0 3.53553,0c0.6698,0.6698 4.23694,4.17045 4.43609,4.70522c1.42385,3.82344 -1.02226,7.73357 -3.90754,9.95296c-5.74638,4.42017 -13.8366,5.09353 -20.99511,5.96723c-0.06629,0.14357 -0.14875,0.29107 -0.24953,0.44224c-0.2785,0.41775 -0.58497,0.69567 -0.89693,0.87308c2.35559,1.4973 4.78302,2.88272 7.26504,4.03819c7.2275,3.36469 16.3669,3.87377 24.18336,4.85083l0.85816,-0.01931c0,0 2.5,0 2.5,2.5c0,2.5 -2.5,2.5 -2.5,2.5l-1.47833,-0.01931c-8.37909,-1.04739 -17.89608,-1.71576 -25.66185,-5.27398c-3.51028,-1.60839 -6.91872,-3.67756 -10.17406,-5.87813c-0.50633,5.18035 -3.04657,8.44194 -7.63947,11.53037l-3.31225,0.77527c0,0 -2.46598,0.411 -2.87698,-2.05499z" fill="#000000" stroke="none" stroke-width="0.5" stroke-linecap="butt"/><path d="M259.82214,207.17118c-0.79057,2.37171 -3.16228,1.58114 -3.16228,1.58114l-1.49571,-0.52506c-4.03688,-2.0728 -7.49324,-5.24724 -9.87633,-9.11132c-0.4237,0.12116 -0.86426,0.19735 -1.31113,0.22939c0.08248,0.75386 -0.19443,1.40001 -0.19443,1.40001c-1.80559,3.99649 -4.85649,6.27761 -7.92899,9.35011c-0.69938,0.69938 -4.13054,4.19703 -4.70522,4.43609c-1.1349,0.47211 -2.45508,0.12687 -3.68262,0.1903h-1.55766c0,0 -2.5,0 -2.5,-2.5c0,-2.5 2.5,-2.5 2.5,-2.5h1.55766c2.61273,0.28103 2.98432,-1.29395 4.8523,-3.16192c2.48214,-2.48214 5.58742,-4.53753 6.8688,-7.78418c0,0 0.1261,-0.29424 0.39335,-0.62702c-0.24302,-0.17349 -0.47288,-0.3652 -0.6865,-0.5749c-8.04927,-0.0952 -15.90506,-0.6241 -23.96859,0.38384l-0.97093,0.83128c0,0 -2.14373,1.28624 -3.42997,-0.85749c-1.28624,-2.14373 0.85749,-3.42997 0.85749,-3.42997l2.92323,-1.50521c7.31474,-0.91434 14.45959,-0.61332 21.72216,-0.46779c-7.33616,-4.47987 -15.29686,-7.44836 -23.65654,-9.83492l-1.75057,-0.34177c0,0 -2.45145,-0.49029 -1.96116,-2.94174c0.49029,-2.45145 2.94174,-1.96116 2.94174,-1.96116l2.14359,0.43706c9.59973,2.7449 18.69457,6.24728 26.99265,11.71076c0.85207,-0.42804 1.84136,-0.62082 2.83412,-0.59115c2.93477,-3.65702 6.38707,-5.92596 10.94794,-7.89834l2.0034,-0.80216c0,0 2.32119,-0.92848 3.24967,1.39272c0.92848,2.32119 -1.39272,3.24967 -1.39272,3.24967l-1.89076,0.7555c-3.44061,1.45899 -6.04996,3.05932 -8.2924,5.56498c0.57934,0.80579 0.91193,1.81819 0.85667,3.0237c5.5408,0.46428 10.96867,1.913 16.49641,2.59881l0.07933,-0.01931c0,0 2.5,0 2.5,2.5c0,2.5 -2.5,2.5 -2.5,2.5l-0.6995,-0.01931c-4.35993,-0.54877 -8.68377,-1.61463 -13.04335,-2.23244c1.58707,1.71451 3.48158,3.15591 5.51491,4.13575l0.84078,0.25378c0,0 2.37171,0.79057 1.58114,3.16228z" fill="#000000" stroke="none" stroke-width="0.5" stroke-linecap="butt"/><path d="M222.28174,132.24959c2.90779,4.90172 2.41601,10.56545 -1.09843,12.65028c-3.51444,2.08483 -8.72069,-0.19871 -11.62849,-5.10043c-2.90779,-4.90172 -2.41601,-10.56545 1.09843,-12.65028c3.51444,-2.08483 8.72069,0.19871 11.62849,5.10043z" fill="#ffffff" stroke="#000000" stroke-width="5" stroke-linecap="butt"/><path d="M266.65168,140.6903c-4.24202,3.80624 -9.89314,4.42623 -12.62214,1.38478c-2.729,-3.04145 -1.50247,-8.59259 2.73955,-12.39883c4.24202,-3.80624 9.89314,-4.42623 12.62214,-1.38478c2.729,3.04145 1.50247,8.59259 -2.73955,12.39883z" fill="#ffffff" stroke="#000000" stroke-width="5" stroke-linecap="butt"/></g></g></svg>