<svg version="1.1" xmlns="http://www.w3.org/2000/svg" xmlns:xlink="http://www.w3.org/1999/xlink" width="136.08913" height="157.89479" viewBox="0,0,136.08913,157.89479"><g transform="translate(-195.60998,-97.00172)"><g data-paper-data="{&quot;isPaintingLayer&quot;:true}" fill-rule="nonzero" stroke-linejoin="miter" stroke-miterlimit="10" stroke-dasharray="" stroke-dashoffset="0" style="mix-blend-mode: normal"><path d="M311.90972,165.8182c-0.82394,1.17072 -2.03821,2.00793 -2.89399,1.4757c-0.50869,-0.31636 -0.76724,-0.95956 -1.13546,-1.43207c0,0 -0.50843,-0.53622 -1.24386,-0.74961c-0.0021,-0.37955 -0.00326,-0.77977 -0.003,-1.15799c1.03115,-0.85499 2.38879,-2.02116 3.60799,-2.45073c-0.43124,0.44049 -0.70739,1.03878 -0.71892,1.70377c-0.02332,1.3456 1.05601,2.53321 2.38723,2.61092z" data-paper-data="{&quot;noHover&quot;:false,&quot;origItem&quot;:[&quot;Path&quot;,{&quot;applyMatrix&quot;:true,&quot;segments&quot;:[[[217.12172,151.17854],[1.3458,0],[-0.66509,0]],[[215.40431,150.49528],[0.44789,0.42354],[0.45064,1.21157]],[[217.87807,153.99646],[-0.87273,-1.01618],[0.37816,-0.00629]],[[219.01448,153.97425],[-0.37946,0.00868],[0.20062,-0.73902]],[[219.71921,152.73111],[0,0],[0.46606,-0.37635]],[[221.11739,151.60206],[-0.3075,0.51409],[0.51731,-0.86487]],[[219.61958,148.78276],[1.18482,0.80353],[-0.05464,1.33238]]],&quot;closed&quot;:true}]}" fill="#ffffff" stroke="none" stroke-width="0.5" stroke-linecap="butt"/><path d="M228.8942,162.88583c-2.9929,0.03125 -6.0222,0.07323 -9.01058,0.20701c0.55136,-3.03184 1.30805,-7.25037 0.56099,-10.2937c-0.25616,-1.04355 -1.12934,-1.86512 -1.53266,-2.86109c-0.9335,-2.3052 -1.71539,-4.68404 -2.81117,-6.91667c-0.1023,-0.20843 -0.18861,-0.41473 -0.26336,-0.61838c2.06292,2.48683 4.35747,4.78434 6.00242,7.53502c1.48863,2.48927 2.29109,5.45854 3.7945,7.93891c1.20491,1.98787 2.2765,3.38864 3.25985,5.0089z" data-paper-data="{&quot;noHover&quot;:false,&quot;origItem&quot;:[&quot;Path&quot;,{&quot;applyMatrix&quot;:true,&quot;segments&quot;:[[[426.30954,470.33162],[3.93341,-2.47833],[-4.90791,3.09233]],[[410.74664,478.11924],[4.92623,-3.06306],[-5.44353,3.38472]],[[395.87259,490.34837],[4.90144,-4.21139],[0.40465,-0.15653]],[[397.09954,489.79954],[-0.41326,0.21179],[4.42662,-2.2686]],[[410.81288,483.91586],[-4.57736,1.94659],[1.97767,-0.84103]],[[416.41778,480.72968],[-2.07793,0.54841],[6.05987,-1.59933]],[[436.92445,481.57304],[-6.08189,-0.9975],[-0.37108,-5.97122]],[[436.21295,463.63944],[0.1662,5.98382],[-3.20596,2.02253]]],&quot;closed&quot;:true}]}" fill="#eeff66" stroke="none" stroke-width="0.5" stroke-linecap="butt"/><path d="M216.05814,191.89608c2.78693,0.03051 5.63889,-0.29456 8.82975,-0.49335c0.7546,-0.04701 2.64235,0.12985 4.30322,0.30008c-3.41469,4.53908 -8.10363,8.00932 -12.02026,12.05461c-0.11296,-3.93996 -0.54737,-7.96292 -1.11271,-11.86134z" data-paper-data="{&quot;noHover&quot;:false,&quot;origItem&quot;:[&quot;Path&quot;,{&quot;applyMatrix&quot;:true,&quot;segments&quot;:[[[518.35637,485.5462],[-7.87483,0.36239],[-8.22509,-7.69192]],[[493.97841,462.06503],[9.19511,6.67108],[-0.28288,3.32713]],[[493.55393,470.64084],[-0.12015,-1.50735],[0.50808,6.37388]],[[494.81724,488.1705],[-0.03555,-5.57408],[7.7761,-1.26561]]],&quot;closed&quot;:true}]}" fill="#eeff66" stroke="none" stroke-width="0.5" stroke-linecap="butt"/><path d="M249.02197,191.43442c2.60306,-0.19487 5.23026,-0.36681 7.83284,-0.44042c0.2004,-0.00567 0.40237,-0.00898 0.60317,-0.01203c-2.93816,6.40468 -6.19665,12.74494 -10.3891,18.30223c-1.83018,2.426 -3.7128,5.19999 -5.7843,7.4374c-0.30016,0.32421 -0.76178,0.68262 -1.20195,1.05326c0.07455,-0.65637 0.11624,-1.32152 0.2176,-1.97218c0.43342,-2.78251 1.60541,-4.25772 3.07916,-6.63138c4.6242,-5.57928 5.50893,-10.70508 5.64259,-17.73688z" data-paper-data="{&quot;noHover&quot;:false,&quot;origItem&quot;:[&quot;Path&quot;,{&quot;applyMatrix&quot;:true,&quot;segments&quot;:[[[528.28326,432.94021],[-11.31712,-9.05369],[4.79768,2.8648]],[[541.6371,438.88324],[-5.5792,-0.77031],[1.30462,0.18013]],[[545.58491,439.25524],[-1.31512,-0.12634],[-0.75641,-0.86737]],[[543.43551,436.89078],[0.65871,0.589],[-4.54592,-4.06486]],[[528.35388,425.60086],[4.91468,3.57577],[-11.25818,-8.19109]],[[491.57479,405.54401],[12.90925,5.65353],[0.01306,0.40143]],[[491.62141,406.74701],[-0.01828,-0.40053],[0.23737,5.20182]],[[492.78704,422.34508],[-0.47987,-5.19857],[14.06612,0.02364]]],&quot;closed&quot;:true}]}" fill="#eeff66" stroke="none" stroke-width="0.5" stroke-linecap="butt"/><path d="M256.09493,161.94475c-3.80581,0.1391 -7.6568,0.37929 -11.43525,0.5421l0.01292,-0.79096c0.05625,-3.85451 -0.76553,-6.02167 -1.92904,-9.56581c-0.62638,-1.90799 -0.14564,-3.32046 -0.27895,-5.30118c-0.01372,-0.20385 -0.86477,-5.95919 -0.90075,-6.19876c-0.25262,-0.94666 -0.60896,-2.48221 -1.04317,-3.89701c0.38829,0.3214 0.77677,0.72612 0.98778,1.05397c0.38064,0.59139 0.46026,1.32893 0.70299,1.98903c0.22938,0.62378 1.953,5.15325 2.1662,5.4446c1.16192,1.58789 3.17479,2.40751 4.13309,4.12598c1.51579,2.71818 2.53534,5.91493 4.30074,8.52462c0.91621,1.35438 2.12603,2.76147 3.28347,4.07342z" data-paper-data="{&quot;noHover&quot;:false,&quot;origItem&quot;:[&quot;Path&quot;,{&quot;applyMatrix&quot;:true,&quot;segments&quot;:[[[425.52629,415.88008],[2.6766,-1.87907],[-5.15743,3.6207]],[[408.62917,424.87442],[5.38302,-3.12529],[-3.40322,1.97585]],[[400.36032,433.30051],[3.13505,-2.37852],[-0.57522,0.43641]],[[389.53762,437.80752],[1.23942,-0.48029],[-1.31158,0.50825]],[[385.58283,439.27946],[1.16943,-0.78165],[-0.6483,0.43332]],[[383.6803,441.18731],[0.62923,-0.78761],[2.81412,-0.91733]],[[391.43139,438.95817],[-1.88428,0.53797],[0.47782,-0.08027]],[[403.75924,436.91269],[-0.40716,0.0345],[3.95621,-0.33522]],[[414.26611,436.17069],[-3.79369,1.31868],[7.04689,-2.44949]],[[433.27337,432.04537],[-7.70982,0.02107],[0,0]],[[434.85508,432.04537],[0,0],[-0.45647,-7.55011]],[[433.38805,409.278],[0.41002,7.60565],[-2.5834,2.36]]],&quot;closed&quot;:true}]}" fill="#eeff66" stroke="none" stroke-width="0.5" stroke-linecap="butt"/><path d="M311.90972,165.8182c-0.82394,1.17072 -2.03821,2.00793 -2.89399,1.4757c-0.50869,-0.31636 -0.76724,-0.95956 -1.13546,-1.43207c0,0 -0.50843,-0.53622 -1.24386,-0.74961c-0.0021,-0.37955 -0.00326,-0.77977 -0.003,-1.15799c1.03115,-0.85499 2.38879,-2.02116 3.60799,-2.45073c-0.43124,0.44049 -0.70739,1.03878 -0.71892,1.70377c-0.02332,1.3456 1.05601,2.53321 2.38723,2.61092z" data-paper-data="{&quot;noHover&quot;:false,&quot;origItem&quot;:[&quot;Path&quot;,{&quot;applyMatrix&quot;:true,&quot;segments&quot;:[[[217.12172,151.17854],[1.3458,0],[-0.66509,0]],[[215.40431,150.49528],[0.44789,0.42354],[0.45064,1.21157]],[[217.87807,153.99646],[-0.87273,-1.01618],[0.37816,-0.00629]],[[219.01448,153.97425],[-0.37946,0.00868],[0.20062,-0.73902]],[[219.71921,152.73111],[0,0],[0.46606,-0.37635]],[[221.11739,151.60206],[-0.3075,0.51409],[0.51731,-0.86487]],[[219.61958,148.78276],[1.18482,0.80353],[-0.05464,1.33238]]],&quot;closed&quot;:true}]}" fill="#ffffff" stroke="none" stroke-width="0.5" stroke-linecap="butt"/><path d="M228.8942,162.88583c-2.9929,0.03125 -6.0222,0.07323 -9.01058,0.20701c0.55136,-3.03184 1.30805,-7.25037 0.56099,-10.2937c-0.25616,-1.04355 -1.12934,-1.86512 -1.53266,-2.86109c-0.9335,-2.3052 -1.71539,-4.68404 -2.81117,-6.91667c-0.1023,-0.20843 -0.18861,-0.41473 -0.26336,-0.61838c2.06292,2.48683 4.35747,4.78434 6.00242,7.53502c1.48863,2.48927 2.29109,5.45854 3.7945,7.93891c1.20491,1.98787 2.2765,3.38864 3.25985,5.0089z" data-paper-data="{&quot;noHover&quot;:false,&quot;origItem&quot;:[&quot;Path&quot;,{&quot;applyMatrix&quot;:true,&quot;segments&quot;:[[[426.30954,470.33162],[3.93341,-2.47833],[-4.90791,3.09233]],[[410.74664,478.11924],[4.92623,-3.06306],[-5.44353,3.38472]],[[395.87259,490.34837],[4.90144,-4.21139],[0.40465,-0.15653]],[[397.09954,489.79954],[-0.41326,0.21179],[4.42662,-2.2686]],[[410.81288,483.91586],[-4.57736,1.94659],[1.97767,-0.84103]],[[416.41778,480.72968],[-2.07793,0.54841],[6.05987,-1.59933]],[[436.92445,481.57304],[-6.08189,-0.9975],[-0.37108,-5.97122]],[[436.21295,463.63944],[0.1662,5.98382],[-3.20596,2.02253]]],&quot;closed&quot;:true}]}" fill="#ff6666" stroke="none" stroke-width="0.5" stroke-linecap="butt"/><path d="M216.05814,191.89608c2.78693,0.03051 5.63889,-0.29456 8.82975,-0.49335c0.7546,-0.04701 2.64235,0.12985 4.30322,0.30008c-3.41469,4.53908 -8.10363,8.00932 -12.02026,12.05461c-0.11296,-3.93996 -0.54737,-7.96292 -1.11271,-11.86134z" data-paper-data="{&quot;noHover&quot;:false,&quot;origItem&quot;:[&quot;Path&quot;,{&quot;applyMatrix&quot;:true,&quot;segments&quot;:[[[518.35637,485.5462],[-7.87483,0.36239],[-8.22509,-7.69192]],[[493.97841,462.06503],[9.19511,6.67108],[-0.28288,3.32713]],[[493.55393,470.64084],[-0.12015,-1.50735],[0.50808,6.37388]],[[494.81724,488.1705],[-0.03555,-5.57408],[7.7761,-1.26561]]],&quot;closed&quot;:true}]}" fill="#ff6666" stroke="none" stroke-width="0.5" stroke-linecap="butt"/><path d="M249.02197,191.43442c2.60306,-0.19487 5.23026,-0.36681 7.83284,-0.44042c0.2004,-0.00567 0.40237,-0.00898 0.60317,-0.01203c-2.93816,6.40468 -6.19665,12.74494 -10.3891,18.30223c-1.83018,2.426 -3.7128,5.19999 -5.7843,7.4374c-0.30016,0.32421 -0.76178,0.68262 -1.20195,1.05326c0.07455,-0.65637 0.11624,-1.32152 0.2176,-1.97218c0.43342,-2.78251 1.60541,-4.25772 3.07916,-6.63138c4.6242,-5.57928 5.50893,-10.70508 5.64259,-17.73688z" data-paper-data="{&quot;noHover&quot;:false,&quot;origItem&quot;:[&quot;Path&quot;,{&quot;applyMatrix&quot;:true,&quot;segments&quot;:[[[528.28326,432.94021],[-11.31712,-9.05369],[4.79768,2.8648]],[[541.6371,438.88324],[-5.5792,-0.77031],[1.30462,0.18013]],[[545.58491,439.25524],[-1.31512,-0.12634],[-0.75641,-0.86737]],[[543.43551,436.89078],[0.65871,0.589],[-4.54592,-4.06486]],[[528.35388,425.60086],[4.91468,3.57577],[-11.25818,-8.19109]],[[491.57479,405.54401],[12.90925,5.65353],[0.01306,0.40143]],[[491.62141,406.74701],[-0.01828,-0.40053],[0.23737,5.20182]],[[492.78704,422.34508],[-0.47987,-5.19857],[14.06612,0.02364]]],&quot;closed&quot;:true}]}" fill="#ff6666" stroke="none" stroke-width="0.5" stroke-linecap="butt"/><path d="M256.09493,161.94475c-3.80581,0.1391 -7.6568,0.37929 -11.43525,0.5421l0.01292,-0.79096c0.05625,-3.85451 -0.76553,-6.02167 -1.92904,-9.56581c-0.62638,-1.90799 -0.14564,-3.32046 -0.27895,-5.30118c-0.01372,-0.20385 -0.86477,-5.95919 -0.90075,-6.19876c-0.25262,-0.94666 -0.60896,-2.48221 -1.04317,-3.89701c0.38829,0.3214 0.77677,0.72612 0.98778,1.05397c0.38064,0.59139 0.46026,1.32893 0.70299,1.98903c0.22938,0.62378 1.953,5.15325 2.1662,5.4446c1.16192,1.58789 3.17479,2.40751 4.13309,4.12598c1.51579,2.71818 2.53534,5.91493 4.30074,8.52462c0.91621,1.35438 2.12603,2.76147 3.28347,4.07342z" data-paper-data="{&quot;noHover&quot;:false,&quot;origItem&quot;:[&quot;Path&quot;,{&quot;applyMatrix&quot;:true,&quot;segments&quot;:[[[425.52629,415.88008],[2.6766,-1.87907],[-5.15743,3.6207]],[[408.62917,424.87442],[5.38302,-3.12529],[-3.40322,1.97585]],[[400.36032,433.30051],[3.13505,-2.37852],[-0.57522,0.43641]],[[389.53762,437.80752],[1.23942,-0.48029],[-1.31158,0.50825]],[[385.58283,439.27946],[1.16943,-0.78165],[-0.6483,0.43332]],[[383.6803,441.18731],[0.62923,-0.78761],[2.81412,-0.91733]],[[391.43139,438.95817],[-1.88428,0.53797],[0.47782,-0.08027]],[[403.75924,436.91269],[-0.40716,0.0345],[3.95621,-0.33522]],[[414.26611,436.17069],[-3.79369,1.31868],[7.04689,-2.44949]],[[433.27337,432.04537],[-7.70982,0.02107],[0,0]],[[434.85508,432.04537],[0,0],[-0.45647,-7.55011]],[[433.38805,409.278],[0.41002,7.60565],[-2.5834,2.36]]],&quot;closed&quot;:true}]}" fill="#ff6666" stroke="none" stroke-width="0.5" stroke-linecap="butt"/><path d="M261.71038,195.65821v35.23747" fill="none" stroke="#000000" stroke-width="5" stroke-linecap="round"/><path d="M264.09936,192.97062c0,14.6783 -11.76541,26.57741 -26.27879,26.57741c-14.51337,0 -26.27879,-11.89911 -26.27879,-26.57741c0,-14.6783 11.76542,-26.57741 26.27879,-26.57741c14.51337,0 26.27879,11.89911 26.27879,26.57742z" fill="#000000" stroke="#000000" stroke-width="5" stroke-linecap="butt"/><path d="M274.47459,136.45434c0,19.95589 -10.29474,36.13333 -22.99395,36.13333c-12.69921,0 -22.99394,-16.17744 -22.99394,-36.13333c0,-19.95589 10.29474,-36.13334 22.99394,-36.13334c12.6992,0 22.99395,16.17745 22.99395,36.13334z" fill="#000000" stroke="#000000" stroke-width="5" stroke-linecap="butt"/><path d="M249.16826,135.63507c0,19.95589 -10.29473,36.13333 -22.99394,36.13333c-12.69921,0 -22.99395,-16.17744 -22.99395,-36.13333c0,-19.95589 10.29474,-36.13334 22.99395,-36.13334c12.69921,0 22.99394,16.17745 22.99394,36.13334z" fill="#000000" stroke="#000000" stroke-width="5" stroke-linecap="butt"/><path d="M329.1991,160.71936c0,10.39025 -26.87328,18.81323 -60.02315,18.81323c-33.14987,0 -60.02314,-8.42297 -60.02314,-18.81323c0,-10.39025 26.87328,-18.81322 60.02315,-18.81322c33.14987,0 60.02315,8.42297 60.02315,18.81322z" fill="#000000" stroke="#000000" stroke-width="5" stroke-linecap="butt"/><path d="M217.51427,166.46249c-2.58837,0 -3.60035,-1.57639 -3.99601,-2.80903c-2.92809,-2.81694 -5.63683,-5.31952 -4.00256,-10.47516c0.4676,-1.47516 2.53128,-1.78641 3.72181,-2.77502c4.05665,-3.36864 6.91666,-5.10032 12.2194,-6.15675c0.73209,0.02803 1.44675,-0.121 2.15662,-0.3244c0.06742,-0.08667 0.13688,-0.17204 0.20852,-0.25605c1.00153,-1.17434 2.91153,-1.02621 4.35601,-1.56991c1.45134,-0.54629 2.73027,-1.054 3.98874,-1.47596c0.04084,-0.06222 0.08253,-0.12399 0.12511,-0.18528c0.8011,-1.15311 2.40481,-1.4958 3.73288,-1.9515c1.17959,-0.40475 2.40077,-0.59748 3.64525,-0.65566c0.01223,-0.07873 0.0272,-0.15841 0.04508,-0.23899c-1.20753,-1.03082 -2.43366,-2.03526 -2.87291,-3.49622c-0.77695,-2.5842 -2.55746,-5.90355 -0.91379,-8.04367c0.87874,-1.14415 2.38452,-1.25258 3.9887,-1.11228c-0.54174,-0.44813 -1.08107,-0.8858 -1.61982,-1.31597c-0.67288,-0.14054 -1.18375,-0.63038 -1.49049,-0.57635c0,0 -0.25,0 -0.25,-0.25c0,-0.25 0.25,-0.25 0.25,-0.25c0.05373,0.00483 0.10396,0.01176 0.15111,0.02047c-2.048,-1.59507 -4.10941,-3.11779 -6.28457,-4.73189c0,0 -3.4,-2.55 -0.85,-5.95c2.55,-3.4 5.95,-0.85 5.95,-0.85c1.4737,1.12054 3.21505,1.8505 4.71298,2.93844c1.59044,1.15512 2.43036,2.58142 3.88306,3.82057c2.05213,1.75048 4.90064,3.47335 6.39853,5.80128c1.11082,1.72638 3.11585,3.44338 2.82037,5.47487c-0.51918,3.56934 -2.61235,5.08078 -5.10468,5.59076c0.60806,0.84783 1.19428,1.70913 1.76962,2.57867c1.80818,-1.13728 3.73745,-2.06072 5.84208,-1.96663c1.20081,0.05369 2.41362,0.51848 3.53882,1.19826c0.34503,-1.03775 1.54408,-3.57876 4.88223,-2.91113c4.16747,0.83349 3.33398,5.00096 3.33398,5.00096c-0.35091,1.68542 -0.52858,3.41746 -0.51471,5.13896v2.98623c0,2.34721 -1.90279,4.25 -4.25,4.25c-0.89346,0 -1.72253,-0.2757 -2.40677,-0.74667c-1.67607,2.18226 -4.66156,2.76744 -7.32761,3.11497c-5.65969,0.73777 -11.88465,-1.26221 -17.49219,-1.78554c-0.27672,-0.02582 -0.58196,-0.05537 -0.90784,-0.08596c-2.33301,0.3917 -4.64943,0.76847 -6.86681,1.2124l-2.90017,0.58004c-0.29611,0.06531 -0.60381,0.09974 -0.91955,0.09974c-0.78396,0 -1.51835,-0.21227 -2.14882,-0.58246c-1.5417,0.30212 -2.69781,0.43188 -4.13043,1.23195c-1.16685,0.65166 -1.92807,1.88306 -2.94127,2.74951c0.51932,0.57221 0.95683,1.36947 1.47531,1.88794l1.2448,3.60245c0,0 0,4.25 -4.25,4.25z" fill="#000000" stroke="none" stroke-width="0.5" stroke-linecap="butt"/><path d="M219.90325,250.60478l0.59724,-35.83471" fill="none" stroke="#000000" stroke-width="5" stroke-linecap="round"/><path d="M249.76551,219.54803l-0.59725,32.84849" fill="none" stroke="#000000" stroke-width="5" stroke-linecap="round"/><path d="M207.95833,188.49127l-1.19449,41.80717" fill="none" stroke="#000000" stroke-width="5" stroke-linecap="round"/><path d="M214.52804,134.73917c0,2.30894 -0.93589,4.18071 -2.09036,4.18071c-1.15447,0 -2.09036,-1.87177 -2.09036,-4.18071c0,-2.30894 0.93588,-4.18071 2.09036,-4.18071c1.15447,0 2.09036,1.87177 2.09036,4.18071z" fill="#000000" stroke="#0000ff" stroke-width="5" stroke-linecap="butt"/><path d="M267.90488,135.55847c0,2.30894 -0.93588,4.18072 -2.09036,4.18072c-1.15447,0 -2.09036,-1.87178 -2.09036,-4.18072c0,-2.30894 0.93588,-4.18071 2.09036,-4.18071c1.15447,0 2.09036,1.87177 2.09036,4.18071z" fill="#000000" stroke="#0000ff" stroke-width="5" stroke-linecap="butt"/><path d="M328.00462,162.21247l-99.14271,-0.59724" fill="none" stroke="#000000" stroke-width="5" stroke-linecap="round"/><path d="M262.16381,131.72889c0.82831,0 1.56254,0.40283 2.01746,1.02328l0.70254,0.93671c1.41548,0.01968 2.83202,0.0314 4.24989,0.0314h0.9957c0,0 0.75677,0 1.43757,0.41636c0.78616,0.29828 1.26056,0.96244 1.26056,0.96244c0.55221,0.84247 1.28106,1.47449 2.10639,1.99141c0.00954,-0.00182 0.01913,-0.00358 0.02875,-0.00528c0.44726,-0.079 0.86738,-0.07599 1.26235,-0.00508c4.71106,-1.51206 5.79854,1.7147 7.64084,4.45312c0,0 0.5866,0.93856 0.3547,1.95701c0.11207,0.32501 0.20399,0.67397 0.27346,1.04961c0.28939,1.56495 0.55857,3.47936 -0.38814,4.75864c-1.69569,2.29135 -5.60173,2.09318 -8.00229,2.03392c-0.59417,-0.01467 -1.23073,-0.39652 -1.77588,-0.15974c-3.49323,1.51726 -3.32195,6.44795 -5.11078,9.01168c-2.35875,3.38054 -6.79026,4.98785 -10.68805,3.56024c-0.85638,-0.31366 -3.06867,-2.46751 -3.97014,-3.31364c-1.31691,-0.07624 -4.27583,-0.33676 -5.44622,0.03144c-2.07629,0.65319 -2.52107,3.48459 -3.75127,4.7252c-0.97745,0.98572 -2.2276,1.71534 -3.5163,2.23138c-2.47939,0.99283 -5.00703,1.06874 -7.5507,0.42136c-2.23326,-0.56837 -4.56701,-3.02896 -7.01477,-2.58587c-3.31014,0.59921 -6.03927,3.82618 -9.64863,3.30601c-1.21727,-0.17543 -2.07057,-1.35758 -3.21208,-1.81525c-1.84428,-0.73944 -3.98635,-0.78534 -5.6694,-1.84151c-5.67746,-3.56281 -5.60657,-10.03689 -3.54146,-15.61287c2.42178,-3.26847 4.1634,-7.88173 7.17607,-10.63011c4.0571,-3.70119 11.9535,-4.53465 17.06089,-4.93304c10.13031,-0.79019 20.19747,-0.37763 30.30159,-0.13865c0.28264,-1.07075 1.25782,-1.86019 2.41738,-1.86019z" fill="#c90000" stroke="none" stroke-width="0.5" stroke-linecap="butt"/><path d="M218.46235,126.41746c-3.3622,-0.37002 -5.29804,0.16372 -8.60571,0.64694c-1.1033,0.16118 -2.22296,0.256 -3.34232,0.28872c-0.32583,0.00952 -0.72176,-0.35032 -0.95841,-0.163c-0.19627,0.15536 0.25545,0.40935 0.45721,0.55974c0.80727,0.60174 2.00828,0.89656 2.5476,1.68005c0.92747,1.3474 2.1479,2.94649 1.67123,4.44888c-0.09976,0.31444 -5.11752,3.85529 -6.11169,4.89356c-3.17139,3.31204 -1.10503,3.88623 -1.34993,7.97844c-0.06996,1.16899 -2.37743,2.76199 -1.18022,3.37011c2.10115,1.06728 6.67228,0.96792 9.09464,1.19384c13.28199,0.00332 22.18265,-8.18298 35.29275,-9.28434c7.1613,-0.60161 14.01387,-0.38018 21.14746,-0.00782c2.19325,0.11448 4.40058,0.26757 6.5424,0.67827c0.5338,0.10236 1.02974,0.80273 1.4975,0.56476c0.63574,-0.32343 0.53974,-1.15899 0.8096,-1.73849c0.09488,-2.52519 -2.99981,-3.77069 -3.62337,-6.46368c-0.54738,-2.36398 0.03622,-5.13553 1.60738,-7.16651c1.26489,-1.63508 8.42961,-6.75936 2.06157,-8.65505c-7.60836,-2.26491 -12.35038,4.12696 -18.95661,5.76706c-6.6266,1.64515 -12.74911,0.37891 -19.4431,-0.24223c-6.3189,-0.53296 -10.09625,0.80982 -16.12147,1.94567l-1.44387,0.05953c0,0 -0.81376,0 -1.59262,-0.35446zM220.40909,121.79232c3.25858,-0.62792 6.28272,-1.98979 9.61059,-2.32496c2.58494,-0.26034 5.6736,0.11542 8.22894,0.32698c5.85105,0.54321 11.35968,1.81548 17.11055,0.42156c8.50474,-2.06141 12.74454,-9.19808 23.15954,-5.51751c6.44839,2.27881 7.32245,9.2004 3.51298,13.4143c-1.274,1.40925 -3.41398,2.50336 -3.80417,4.23896c-0.68982,3.06843 2.46945,3.69441 3.47034,6.39704c0.48509,1.30984 0.02999,2.74206 0.04499,4.1131c-1.31942,1.63316 -1.98221,3.82373 -3.95826,4.89949c-1.93419,1.05297 -8.63926,-0.62343 -11.03157,-0.74836c-7.82067,-0.40841 -15.68817,-0.84728 -23.52132,0.29731c-5.85413,0.85541 -9.61138,3.26225 -14.52699,5.67792c-5.38984,2.64872 -12.27318,3.31765 -18.35098,3.31895c-3.43259,-0.31728 -10.67931,-0.45602 -13.1554,-2.78894c-1.24084,-1.1691 -1.50371,-2.93509 -1.58672,-4.49598c-0.05192,-0.97628 1.14271,-1.77866 1.20114,-2.75468c0.07772,-1.29821 -0.8458,-2.54148 -0.80627,-3.8409c0.10401,-3.41917 2.96604,-7.11222 6.19472,-9.09065c0.65046,-0.39858 1.59897,-0.34836 2.24818,-0.74836c0.20145,-0.12412 -0.51752,-0.06678 -0.71271,-0.1977c-1.06177,-0.71222 -2.55041,-1.23345 -3.01491,-2.30273c-0.73799,-1.69887 -1.25914,-3.77939 -0.33744,-5.41444c0.74941,-1.32941 2.94895,-1.65679 4.6041,-2.15439c4.15191,-1.24824 9.92869,-1.48611 14.24579,-1.05899c0,0 0.56722,0.05923 1.17487,0.33299z" fill="#cacaca" stroke="none" stroke-width="0.5" stroke-linecap="butt"/><path d="M220.00881,126.75273l1.44447,-0.06091c6.02523,-1.13585 9.83716,-2.50683 16.15606,-1.97387c6.69398,0.62114 12.87064,1.9109 19.49723,0.26575c6.60623,-1.6401 11.3509,-8.02675 18.95926,-5.76184c6.36804,1.89568 -0.79355,7.02975 -2.05844,8.66483c-1.57115,2.03098 -2.15369,4.81284 -1.60631,7.17682c0.62356,2.69298 3.71746,3.94731 3.62258,6.4725c-0.26987,0.5795 -0.17438,1.41757 -0.81012,1.741c-0.46776,0.23797 -0.96363,-0.4627 -1.49743,-0.56506c-2.14182,-0.4107 -4.34948,-0.56243 -6.54273,-0.67691c-7.13359,-0.37236 -14.0019,-0.5684 -21.16319,0.03321c-13.11011,1.10136 -22.08715,9.27415 -35.36914,9.27083c-2.42236,-0.22593 -6.99633,-0.13257 -9.09748,-1.19985c-1.1972,-0.60812 1.10911,-2.20439 1.17907,-3.37338c0.24489,-4.09222 -1.8235,-4.67624 1.34789,-7.98829c0.99418,-1.03827 6.0117,-4.58626 6.11146,-4.9007c0.47668,-1.50239 -0.74301,-3.10834 -1.67048,-4.45573c-0.53932,-0.7835 -1.74,-1.08002 -2.54726,-1.68176c-0.20175,-0.15039 -0.65334,-0.405 -0.45707,-0.56037c0.23665,-0.18733 0.63261,0.17245 0.95843,0.16292c1.11936,-0.03272 2.23942,-0.12914 3.34272,-0.29033c3.30767,-0.48323 5.24544,-1.02278 8.60764,-0.65276c0.77886,0.35446 1.59285,0.3539 1.59285,0.3539z" fill="#ffffff" stroke="none" stroke-width="0.5" stroke-linecap="butt"/><path d="M205.37087,126.6035c0.80258,0.93594 0.47218,2.25755 0.47218,2.25755l-0.65111,2.60446c-0.25265,1.1133 -1.24829,1.9444 -2.43804,1.9444c-1.38071,0 -2.5,-1.11929 -2.5,-2.5v-2.98709l0.06532,0l-0.06049,-0.15534c0.21112,-1.23296 -0.01761,-2.6307 0.63336,-3.69887c2.11798,-3.47535 3.57998,-2.82163 6.84029,-2.96048c0,0 2.5,0 2.5,2.5c0,2.5 -2.5,2.5 -2.5,2.5c-1.60626,-0.13294 -2.15934,-0.24108 -2.36151,0.49537z" fill="#c90000" stroke="none" stroke-width="0.5" stroke-linecap="butt"/><path d="M264.61027,140.97466c-0.00752,-0.02674 -0.01491,-0.05361 -0.02217,-0.08058c-0.11401,0.10393 -0.21536,0.21538 -0.28056,0.34605c-0.0804,0.16112 0.09284,-0.0578 0.30273,-0.26547zM279.59497,146.00028c0.21398,2.31526 -2.14215,2.65185 -2.14215,2.65185l-1.69205,0.15489c-0.88474,0.37027 -1.76948,0.74054 -2.65423,1.11081c-3.7427,0.49847 -15.14439,2.87163 -13.32836,-5.48379c0.05284,-0.24311 0.12237,-0.46653 0.20711,-0.67156c-0.73479,-1.10621 0.33603,-2.69453 0.34686,-4.04199c0.02048,-2.54832 -1.6369,-3.96435 -2.30493,-6.19831l-1.61387,-2.58219c-0.25333,-0.39096 -0.40043,-0.85714 -0.40043,-1.35768c0,-1.38071 1.11929,-2.5 2.5,-2.5c0.61475,0 1.17768,0.22189 1.61307,0.58995l1.97879,1.64899l-0.06398,0.07677l0.23128,0.07601c2.66044,3.19253 5.27756,4.98961 6.44191,9.11677c0.09118,0.3232 0.28598,-0.60864 0.40173,-0.92387c0.58739,-1.59967 0.40048,-4.0526 1.96941,-4.71775c1.63573,-0.69347 3.53479,0.79658 5.03512,1.74816c1.9887,1.26133 3.97741,5.55345 5.14101,7.58437c0,0 1.24035,2.17061 -0.93026,3.41096c-0.25874,0.14785 -0.50426,0.24724 -0.73604,0.30761z" fill="#c90000" stroke="none" stroke-width="0.5" stroke-linecap="butt"/><path d="M267.96128,127.59091c0,-1.38071 1.11929,-2.5 2.5,-2.5c1.38071,0 2.5,1.11929 2.5,2.5c0,1.38071 -1.11929,2.5 -2.5,2.5c-1.38071,0 -2.5,-1.11929 -2.5,-2.5z" fill="#c90000" stroke="none" stroke-width="0.5" stroke-linecap="butt"/><path d="M239.21436,144.97643c-0.79057,-2.37171 1.58114,-3.16228 1.58114,-3.16228l1.79716,-0.58995c3.87508,-1.61812 7.75939,-2.00269 11.91565,-1.51043c0,0 2.48069,0.31009 2.17061,2.79078c-0.31009,2.48069 -2.79078,2.17061 -2.79078,2.17061c-3.20325,-0.42698 -6.35762,-0.17149 -9.32588,1.14476l-2.18562,0.73764c0,0 -2.37171,0.79057 -3.16228,-1.58114z" fill="#c90000" stroke="none" stroke-width="0.5" stroke-linecap="butt"/></g></g></svg>