<svg version="1.1" xmlns="http://www.w3.org/2000/svg" xmlns:xlink="http://www.w3.org/1999/xlink" width="176.49742" height="155.04682" viewBox="0,0,176.49742,155.04682"><g transform="translate(-151.75129,-74.17341)"><g data-paper-data="{&quot;isPaintingLayer&quot;:true}" fill-rule="nonzero" stroke="none" stroke-linecap="butt" stroke-linejoin="miter" stroke-miterlimit="10" stroke-dasharray="" stroke-dashoffset="0" style="mix-blend-mode: normal"><path d="M244.26687,140.76539c0.75,1 -0.25,1.75 -0.25,1.75l-1.16619,0.77159c-3.31223,0.24012 -2.92269,-0.4962 -2.92269,-3.48067c0,0 0,-1.25 1.25,-1.25c1.25,0 1.25,1.25 1.25,1.25c0,0.33554 -0.07838,0.69102 -0.16699,0.97567l0.25587,-0.26659c0,0 1,-0.75 1.75,0.25z" fill="#aa7316" stroke-width="0.5"/><path d="M248.7739,144.01539l-1.36323,-0.00487c-1.61614,0.10038 -3.1937,0.15389 -4.77381,0.14882c1.30003,1.82328 2.58837,3.64775 3.82537,5.4917c9.2504,13.78929 17.35028,28.23293 26.34901,42.14907c3.58687,4.57934 7.47918,8.95161 11.87862,12.7798c4.39578,3.825 9.17993,7.27391 13.67051,11.02528c-0.61304,-1.58127 -1.396,-3.09889 -1.98177,-4.69168c-1.39427,-3.79125 -2.00813,-7.74117 -3.07331,-11.56883c-3.52292,-12.65949 -5.39945,-25.75805 -5.41256,-38.95773c0.01511,-8.89486 -0.94345,-17.56345 0.85481,-26.17308c-11.87898,5.1087 -24.70439,6.64238 -37.51729,7.84441c-0.33283,1.95711 -2.45634,1.95711 -2.45634,1.95711zM154.45516,141.64017c0.82384,-0.72271 2.117,-0.56779 3.1755,-0.85168c0,0 0.0383,-0.00884 0.1064,-0.0195c7.91108,-3.78611 15.85639,-6.26685 24.16127,-8.60724c-0.00576,-0.45784 0.09057,-0.79499 0.09057,-0.79499l0.00001,0.00004l0.63001,-2.18886c1.30511,-5.873 1.57585,-11.91806 3.01511,-17.73068c1.40614,-5.62264 1.76492,-13.25301 5.03124,-18.14234c1.79498,-2.68688 5.36901,-4.59251 7.84578,-6.54748c3.428,-2.7058 7.4862,-6.70699 11.59162,-8.34688c8.65328,-3.45649 16.86782,-5.02467 26.11205,-3.85214c6.41796,-0.00216 13.41035,0.67581 19.07485,3.98546c4.97221,2.90516 8.23766,7.86719 11.73769,12.30115c5.34731,6.77417 10.71001,13.54162 13.70671,21.71696c3.93803,-0.53923 7.88924,-0.94496 11.94002,-1.00786c10.53942,-0.16367 20.47477,1.73892 30.84443,3.04197l2.81396,0.6988c0,0 2.42536,0.60634 1.81902,3.03169c-0.33138,1.32553 -1.20609,1.7455 -1.93126,1.85382c0.0039,0.06687 0.00591,0.13568 0.00591,0.2065c0,2.5 -2.5,2.5 -2.5,2.5c-6.30894,-0.03934 -10.50945,3.74326 -16.22569,5.54373c-3.20611,1.00985 -6.28587,1.31747 -9.5125,2.61079l-1.13791,0.38385c0,0 -1.16272,0.38757 -2.13131,-0.19413c-3.26246,9.51104 -1.84101,19.30453 -1.82592,29.15575c-0.01486,13.7702 2.48622,27.16377 5.60473,40.44698c1.32339,5.63694 3.53449,11.33937 5.58657,16.72238c0.55532,1.45671 1.71699,2.70456 1.96639,4.24345c0.00748,0.04616 0.01465,0.09235 0.02151,0.13856l0.02584,-0.00861l1.31488,3.94464c0.09499,0.2642 0.14675,0.54902 0.14675,0.84593c0,1.38071 -1.11929,2.5 -2.5,2.5c-1.05134,0 -1.9511,-0.64897 -2.32056,-1.56816l-0.85489,-1.99474c-6.01973,-6.55859 -13.78249,-11.47152 -20.47779,-17.30689c-4.69806,-4.09464 -8.83265,-8.75394 -12.66608,-13.64768c-9.02817,-13.94426 -17.14601,-28.42384 -26.41684,-42.24663c-1.93522,-2.88541 -3.97709,-5.7218 -5.99482,-8.57609c-0.46987,0.83551 -1.39121,1.18101 -1.39121,1.18101c-4.95201,1.83864 -9.7191,1.82753 -14.89124,2.47196c-3.47136,0.43252 -6.8424,1.52223 -10.30371,1.996c-5.19816,0.7115 -10.33156,0.6182 -15.51729,1.01907c-8.1798,0.63231 -15.94106,2.00549 -24.16557,2.00549c-4.06816,-0.00696 -8.19842,-0.27769 -12.24876,-0.67907l-1.54181,-0.44922c0,0 -1.98235,-0.66078 -1.71825,-2.58646c-2.93302,-1.47289 -4.41585,-3.40851 -0.09542,-7.19864zM159.84985,145.63854l1.33828,0.75932c0,0 0.48958,0.29375 0.86042,0.83444c2.66995,0.2029 5.35843,0.32637 8.01085,0.32127c8.11024,0 15.76056,-1.3808 23.83443,-1.99451c7.35529,-0.55909 14.39986,-0.90912 21.6968,-2.29448c5.88513,-1.11732 11.9434,-0.74276 17.59096,-2.88517c0,0 0.24602,-0.09226 0.60846,-0.1372c-3.10491,-4.53246 -6.01315,-9.17929 -8.21569,-14.20097c-12.45255,2.66647 -24.62589,6.04716 -36.94815,9.44198c-10.1557,2.79793 -19.67409,5.39591 -29.15049,9.99745c0.12383,0.05627 0.24832,0.10978 0.37412,0.15787zM263.0915,93.92882c-3.02303,-3.82866 -5.94219,-8.56011 -10.26231,-11.03218c-5.04893,-2.88911 -11.24477,-3.34598 -16.92515,-3.34788c-8.65794,-1.06773 -15.72477,0.41612 -23.88795,3.4812c-3.609,1.35509 -7.42675,5.29876 -10.40838,7.65312c-1.92167,1.5174 -5.40107,3.31577 -6.82089,5.45252c-1.06569,1.6038 -1.20375,3.34361 -1.62766,5.15904c-0.88473,3.78899 -1.73098,7.59024 -2.67443,11.36529c-1.4528,5.74838 -1.69106,11.78044 -2.98489,17.60265l-0.10614,0.37394c15.35183,-4.22807 30.47687,-8.42391 46.18476,-11.27844c12.033,-1.71826 24.07526,-3.28111 36.10698,-5.1097c2.01235,-0.30584 4.00755,-0.62737 5.99669,-0.93772c-2.83339,-7.24897 -7.80076,-13.31547 -12.59064,-19.38185zM243.78639,137.96158l1.71333,-0.39771c15.13145,-1.36526 30.62417,-2.4913 44.44164,-9.413c0,0 0.29945,-0.14973 0.73398,-0.23001l0.81465,-1.65196c0,0 1.11803,-2.23607 3.3541,-1.11803c0.69296,0.34648 1.06379,0.80033 1.24561,1.26173l0.04121,-0.01352c3.28971,-1.31333 6.56103,-1.71392 9.82084,-2.72254c4.32846,-1.33927 7.77902,-3.54552 11.77922,-4.81275c-8.30194,-1.15524 -16.41934,-2.44516 -24.95286,-2.31073c-7.60958,0.11988 -14.85083,1.50164 -22.34478,2.63909c-12.01502,1.82366 -24.03875,3.3879 -36.05432,5.10144c-1.26746,0.23057 -2.53108,0.47001 -3.7913,0.71762c2.26353,4.94602 5.25666,9.52955 8.40137,14.01776c1.06942,0.07502 2.11852,0.11655 3.1635,0.12906c0.53297,-0.92123 1.6338,-1.19645 1.6338,-1.19645z" fill="#000000" stroke-width="0.5"/><path d="M242.10544,139.17468c-1.04498,-0.01251 -2.09459,-0.05555 -3.16401,-0.13057c-3.14471,-4.4882 -6.14009,-9.09014 -8.40362,-14.03616c1.26022,-0.24761 2.52393,-0.48825 3.79139,-0.71882c12.01557,-1.71354 24.06934,-3.31925 36.08436,-5.14291c7.49395,-1.13745 14.79771,-2.49922 22.40729,-2.6191c8.53352,-0.13443 16.65714,1.17133 24.95908,2.32657c-4.0002,1.26723 -7.45015,3.47707 -11.77861,4.81634c-3.25981,1.00862 -6.53081,1.41242 -9.82052,2.72575l-0.14099,0.02009c-0.18182,-0.4614 -0.55234,-0.91205 -1.2453,-1.25853c-2.23607,-1.11804 -3.25473,1.10701 -3.25473,1.10701l-0.81444,1.65672c-0.43453,0.08028 -0.73399,0.23075 -0.73399,0.23075c-13.81747,6.9217 -29.40754,8.06284 -44.53899,9.4281l-1.61854,0.36587c0,0 -1.19541,0.30766 -1.72839,1.22889z" data-paper-data="{&quot;noHover&quot;:false,&quot;origItem&quot;:[&quot;Path&quot;,{&quot;applyMatrix&quot;:true,&quot;segments&quot;:[[253.56034,184.74131],[[255.27367,184.3436],[0,0],[15.13145,-1.36526]],[[299.71531,174.9306],[-13.81747,6.9217],[0,0]],[[300.44928,174.70059],[-0.43453,0.08028],[0,0]],[301.26394,173.04863],[[304.61804,171.9306],[-2.23607,-1.11804],[0.69296,0.34648]],[[305.86365,173.19233],[-0.18182,-0.4614],[0,0]],[[305.90486,173.17881],[0,0],[3.28971,-1.31333]],[[315.72569,170.45627],[-3.25981,1.00862],[4.32846,-1.33927]],[[327.50492,165.64352],[-4.0002,1.26723],[-8.30194,-1.15524]],[[302.55206,163.33279],[8.53352,-0.13443],[-7.60958,0.11988]],[[280.20728,165.97188],[7.49395,-1.13745],[-12.01502,1.82366]],[[244.15296,171.07332],[12.01557,-1.71354],[-1.26746,0.23057]],[[240.36166,171.79094],[1.26022,-0.24761],[2.26353,4.94602]],[[248.76303,185.8087],[-3.14471,-4.4882],[1.06942,0.07502]],[[251.92653,185.93776],[-1.04498,-0.01251],[0.53297,-0.92123]]],&quot;closed&quot;:true}]}" fill="#aa7316" stroke-width="0.5"/><path d="M159.42703,145.49205c9.47639,-4.60154 18.99414,-7.219 29.14983,-10.01693c12.32226,-3.39482 24.59181,-6.78483 37.04436,-9.4513c2.20254,5.02168 5.1137,9.69054 8.21861,14.223c-0.36244,0.04494 -0.60848,0.13746 -0.60848,0.13746c-5.64756,2.14241 -11.70827,1.77912 -17.5934,2.89644c-7.29694,1.38536 -14.40375,1.76697 -21.75904,2.32606c-8.07387,0.61371 -15.75562,1.96555 -23.86586,1.96555c-2.65242,0.0051 -5.34242,-0.12268 -8.01237,-0.32558c-0.37085,-0.54069 -0.86082,-0.83581 -0.86082,-0.83581l-1.33863,-0.76071c-0.12581,-0.04809 -0.25037,-0.1019 -0.3742,-0.15818z" data-paper-data="{&quot;noHover&quot;:false,&quot;origItem&quot;:[&quot;Path&quot;,{&quot;applyMatrix&quot;:true,&quot;segments&quot;:[[[169.6238,192.41827],[-0.12581,-0.04809],[0,0]],[170.96208,193.1776],[[171.8225,194.01204],[-0.37085,-0.54069],[2.66995,0.2029]],[[179.83335,194.3333],[-2.65242,0.0051],[8.11024,0]],[[203.66778,192.33879],[-8.07387,0.61371],[7.35529,-0.55909]],[[225.36458,190.04431],[-7.29694,1.38536],[5.88513,-1.11732]],[[242.95554,187.15914],[-5.64756,2.14241],[0,0]],[[243.564,187.02194],[-0.36244,0.04494],[-3.10491,-4.53246]],[[235.34831,172.82097],[2.20254,5.02168],[-12.45255,2.66647]],[[198.40016,182.26295],[12.32226,-3.39482],[-10.1557,2.79793]],[[169.24967,192.2604],[9.47639,-4.60154],[0.12383,0.05627]]],&quot;closed&quot;:true}]}" fill="#aa7316" stroke-width="0.5"/><path d="M263.13871,93.91237c4.78988,6.06638 9.75915,12.15867 12.59254,19.40764c-1.98914,0.31035 -3.98489,0.63442 -5.99724,0.94026c-12.03172,1.82859 -24.11556,3.42907 -36.14856,5.14733c-15.70789,2.85453 -30.88313,7.02603 -46.23496,11.2541l0.10601,-0.37417c1.29383,-5.82221 1.52629,-11.86995 2.97909,-17.61833c0.94345,-3.77505 1.78905,-7.59026 2.67378,-11.37925c0.42391,-1.81543 0.56312,-3.56216 1.62881,-5.16596c1.41982,-2.13675 4.90269,-3.94497 6.82437,-5.46238c2.98163,-2.35436 6.81125,-6.31386 10.42025,-7.66895c8.16318,-3.06508 15.27177,-4.56089 23.92971,-3.49316c5.68038,0.0019 11.90249,0.4721 16.95142,3.36121c4.32012,2.47207 7.25174,7.22302 10.27477,11.05168z" data-paper-data="{&quot;noHover&quot;:false,&quot;origItem&quot;:[&quot;Path&quot;,{&quot;applyMatrix&quot;:true,&quot;segments&quot;:[[[545.73091,281.41712],[0,0],[-6.04606,-7.65732]],[[525.20629,259.35276],[8.64024,4.94414],[-10.09786,-5.77822]],[[491.35599,252.657],[11.36076,0.0038],[-17.31588,-2.13546]],[[443.58009,259.6194],[16.32636,-6.13016],[-7.218,2.71018]],[[422.76333,274.92564],[5.96326,-4.70872],[-3.84334,3.0348]],[[409.12155,285.83068],[2.83964,-4.2735],[-2.13138,3.2076]],[[405.86623,296.14876],[0.84782,-3.63086],[-1.76946,7.57798]],[[400.51737,318.87934],[1.8869,-7.5501],[-2.9056,11.49676]],[[394.54759,354.08464],[2.58766,-11.64442],[0,0]],[[394.33531,354.83252],[0,0],[30.70366,-8.45614]],[[486.70483,332.27564],[-31.41578,5.70906],[24.066,-3.43652]],[[558.91879,322.05624],[-24.06344,3.65718],[4.0247,-0.61168]],[[570.91217,320.1808],[-3.97828,0.6207],[-5.66678,-14.49794]],[[545.73089,281.4171],[9.57976,12.13276],[0,0]]],&quot;closed&quot;:true,&quot;fillColor&quot;:[0,0,0],&quot;strokeWidth&quot;:0.5}]}" fill="#aa7316" stroke-width="0.25"/></g></g></svg>