<svg version="1.1" xmlns="http://www.w3.org/2000/svg" xmlns:xlink="http://www.w3.org/1999/xlink" width="541.74469" height="417.66272" viewBox="0,0,541.74469,417.66272"><g transform="translate(23.27945,41.69403)"><g data-paper-data="{&quot;isPaintingLayer&quot;:true}" fill-rule="nonzero" stroke="none" stroke-width="0.5" stroke-linecap="butt" stroke-linejoin="miter" stroke-miterlimit="10" stroke-dasharray="" stroke-dashoffset="0" style="mix-blend-mode: normal"><path d="M294.87135,63.72195c-0.25498,-0.08573 -0.47165,-0.23177 -0.66745,-0.41157c-3.91757,-0.81585 -7.58791,-3.29995 -11.5048,-3.90625c-0.98823,-0.15297 -2.01511,0.17316 -3,0c-3.85429,-0.67762 -6.92232,-2.13988 -9.7606,-4.53389c-0.41183,-0.02414 -0.82433,-0.04671 -1.23747,-0.06775c-1.59515,-0.78924 -3.04337,-1.36778 -4.10471,-1.53207c-3.11535,-0.48224 -5.98385,0.0583 -8.44569,1.28989c-11.71533,0.07565 -23.60906,0.81493 -34.8121,0.81493c-1.43063,0 -2.81316,0.79813 -4.21923,1.03066c-7.60985,-1.13186 -15.79346,-1.33339 -23.4801,0.06831c-0.2021,-0.2804 -0.4117,-0.55747 -0.62844,-0.831c-2.32999,-0.21821 -4.6891,-0.57903 -6.70984,-0.23907c-2.07897,0.34976 -3.91655,1.67799 -6,2c-0.63044,0.09744 -1.29838,-0.56077 -1.8875,-0.31604c-0.63981,0.26579 -0.69301,1.27351 -1.28476,1.63385c-1.03872,0.63253 -2.28794,0.82554 -3.4319,1.23832c-4.33464,2.94093 -9.08439,7.60316 -12.33004,11.67837c-1.49749,1.88023 -2.49543,4.12542 -4,6c-1.04364,1.3003 -2.80147,2.00247 -3.61346,3.45871c-1.42749,2.56011 -2.42992,4.99574 -3.76168,7.5681c-1.73494,3.35113 -2.557,3.92067 -4.95604,6.33878c-0.66266,0.66792 -1.38182,1.10787 -1.90378,1.55286c-0.03984,0.28245 -0.08309,0.56365 -0.13038,0.84336c-0.42153,2.49318 -1.45415,4.84545 -2.06742,7.29851c-2.22336,6.54659 -6.90141,15.69869 -13.08597,19.42766c-2.60101,1.56828 -6.62818,2.27995 -9.52376,3.24508c-6.8489,2.28282 -13.70322,4.67644 -20.28134,7.66696c-0.20002,0.09093 -0.39831,0.18442 -0.59499,0.28026c-6.36339,-2.35878 -13.80405,-3.21012 -19.86586,-6.07973c-3.98932,-1.88851 -6.21124,-4.74575 -9.47544,-7.37711c-1.31188,-1.05754 -2.98572,-1.64516 -3.79019,-3.3016c-1.44114,-2.96735 -0.70436,-9.12658 -0.81641,-11.0918c-0.1475,-2.58708 -1.95714,-5.71817 -2,-8.10524c-0.09458,-5.26701 1.07802,-12.68698 0.81377,-19.52438c0.06985,-0.43997 0.12057,-0.88632 0.15127,-1.33815c0.0228,-0.00061 0.04567,-0.00092 0.06862,-0.00092c0.69036,0 1.31536,0.27982 1.76777,0.73223l1.43734,1.43734c2.4169,-0.17892 5.05323,0.26731 7.39443,-0.1373c5.35539,-0.92552 10.64078,-2.1068 16,-3c0.98639,-0.1644 2.01274,0.15909 3,0c3.48327,-0.5613 8.14483,-2.81219 10.63269,-5.30005c2.22171,-2.22171 3.94104,-5.99908 5.68764,-8.61898c3.53126,-5.29689 7.2523,-10.69272 9.77043,-16.56996c0.83026,-1.93781 1.16203,-4.06551 2,-6c0.53997,-1.24655 1.55026,-2.29897 1.87658,-3.61767c0.30636,-1.23807 -0.2132,-2.56323 -0.0346,-3.82607c0.14761,-1.04371 0.82049,-1.9613 1,-3c0.50736,-2.93576 0.35407,-7.35674 -0.01355,-10.29409c-0.34136,-2.72746 -1.65942,-5.27244 -2,-8c-0.45336,-3.63078 -0.01873,-7.63582 -0.01873,-11.30546c0,0 0,-2.20075 2.06483,-2.47257c-0.06483,-0.3084 -0.06483,-0.52743 -0.06483,-0.52743l0.00002,0.00001l0.12829,-2.79057c0.53465,-1.32573 0.6206,-2.93967 1.60394,-3.9772c0.85097,-0.89786 2.39267,-0.7224 3.45344,-1.35886c1.6169,-0.97014 2.39273,-3.01398 4,-4c0.96749,-0.59353 2.19665,-0.61982 3.21595,-1.11916c2.54119,-1.24489 4.37396,-3.56533 6.33061,-5.52198c1.74075,-1.74075 4.38383,-3.64411 5.73966,-5.69401c0.86678,-1.31049 1.13344,-2.99801 2.15391,-4.19273c0.2031,-0.23778 5.31149,-3.70942 6.14086,-4.08163c7.54964,-3.3882 14.68161,-2.25327 22.59509,-2.76004c8.7684,-0.56152 17.20238,-3.16961 25.94762,-3.99655c5.78704,-0.54721 11.96997,0.09545 17.65374,1.03599c14.08583,2.96359 28.29093,5.96133 42.69223,6.96156c8.92088,0.61959 18.02685,0.41733 26.97804,0.79039c9.61363,0.40067 19.24456,1.20669 28.86661,1.20478c10.87675,0 21.09746,1.85406 31.80519,3.72792c8.2295,1.44016 16.52568,2.67939 24.71584,4.32698c5.72601,1.15189 11.28337,3.14821 17.01186,4.28503c5.00333,0.99291 9.77492,0.13168 14.77257,0.67881c2.62217,0.28707 5.21434,0.99487 7.85215,0.98355c10.0433,0.00551 20.00666,0.74103 30.0382,0.99877c0.41531,0.01067 9.82166,0.00317 10.1035,0.02212c6.35317,0.4272 12.65639,1.79742 19.01221,2.3291c5.9954,0.50153 15.82347,-0.33936 20.45625,4.37995c1.3631,1.38856 2.17332,3.31082 2.66536,5.19338c0.40881,1.56415 -0.42155,3.2788 -0.04039,4.84992c0.25295,1.04266 1.3813,1.66771 1.85512,2.63031c1.18796,2.41345 1.74502,6.33773 2.23142,8.77288c0.57088,9.36608 2.68111,18.34452 4.07432,27.61445c0.97988,6.51977 1.44405,13.10876 3.0026,19.53973c2.24927,9.28109 6.40024,18.38911 7.92142,27.83324c1.24074,7.70307 -0.34956,16.40321 -1.33931,24.04011c-2.863,11.20135 -6.61352,22.51298 -8.69443,33.88098c-2.04202,11.15551 -2.241,23.22576 -2.94704,34.53864c-0.37651,6.03283 0.56407,12.20434 -0.02855,18.2189c-0.4579,4.64727 -1.28263,9.14531 -1.6184,13.84605c-0.70268,9.56011 -3.59382,19.83594 -6.61893,28.95046c-0.49156,1.48105 -1.44039,2.80753 -1.77606,4.33149c-0.83054,3.77074 0.36126,8.11627 -0.20158,12.01455c-1.06463,7.37364 -3.72957,14.49731 -4.77204,21.81814c-0.15363,1.07888 0.24816,2.22022 -0.04815,3.26892c-0.77732,2.75118 -2.32514,5.25576 -3.00777,8.03196c0,0 -0.59233,2.36933 -2.94789,1.83893c-0.28182,0.05473 -0.47746,0.05473 -0.47746,0.05473l-1.79057,-0.12829c-3.17707,-1.10045 -5.36062,-0.37994 -8.60989,-0.90399c-1.87002,-0.3016 -3.70551,-0.99124 -5.59954,-0.96772c-2.49063,-0.01827 -4.92892,-0.72386 -7.40046,-1.03228c-4.28828,-0.53513 -8.7199,-0.37304 -13,-1c-4.19238,-0.61411 -8.26743,-2.83037 -12.26607,-4.05821c-3.75137,-1.1519 -8.61525,-1.63962 -12.5107,-1.9158c-7.28459,-0.51646 -15.09355,0.16434 -22.18111,1.92254c-3.48184,0.86373 -6.2973,3.36154 -9.8511,3.95546l-0.19552,0.06517c0.27039,-0.93018 0.46474,-1.86454 0.46474,-2.8067c0,-5.02657 -0.14684,-10.05314 -0.09346,-15.07944c0.03859,-3.63352 3.73803,-9.8081 5.125,-12.58204c1.88207,-3.76414 2.50929,-8.80532 4.10525,-12.75658c0.63629,-1.57533 0.51048,-3.39169 1.15117,-4.96524c1.13414,-2.78546 3.30556,-5.15227 4.03499,-8.06997c1.54681,-6.18724 2.05385,-12.89695 4.81308,-18.62616c1.52978,-3.17641 3.3751,-5.54121 4.89551,-8.58204c0.93337,-1.86674 0.7445,-3.95994 1.52562,-5.84573c0.64024,-1.54567 1.90625,-2.5419 2.76579,-3.94607c2.94204,-4.80618 5.639,-11.556 7,-17c1.52139,-6.08557 3.48499,-14.4941 2.54842,-21.74347c-0.09416,-1.3813 -0.37532,-2.71125 -0.81836,-3.96473c0.55276,-1.56389 0.85353,-3.24682 0.85353,-5c0,-2.93655 -0.84384,-5.67602 -2.30226,-7.98913c0.1982,-0.9727 0.30226,-1.97963 0.30226,-3.01087c0,-1.18882 -0.1383,-2.34534 -0.39968,-3.45434c0.14822,-1.54896 0.15545,-3.11427 -0.04791,-4.70891c-0.17386,-1.36333 -0.85105,-2.63373 -1,-4c-0.17092,-1.56782 0.38555,-3.19048 0.04815,-4.73108c-0.29063,-1.32702 -1.33966,-2.36981 -1.87658,-3.61767c-0.36438,-0.84686 -0.35034,-1.84724 -0.81693,-2.64238c-1.09605,-1.86784 -3.11251,-3.01247 -4.64114,-4.54656c-3.21792,-3.22942 -8.03307,-5.65433 -12.63269,-6.30005c-4.72747,-0.66366 -9.10417,0.34207 -13.73569,-0.65308c0.07808,0.27611 0.16879,0.542 0.26817,0.79635c-1.13719,0.1363 -2.26315,0.39521 -3.34146,0.76071c-3.38921,1.14881 -6.40734,1.54121 -9.34664,3.66914c-3.36298,2.43466 -6.5843,4.61785 -9.51058,7.54412c-1.30117,1.91684 -1.72958,4.29909 -2.64707,6.42641c-1.80358,4.18184 -5.0302,7.67771 -5.81857,12.38907c-0.1875,1.12055 -0.28139,2.25186 -0.30348,3.3894c-1.25052,1.15783 -2.91371,2.28787 -3.77578,3.29362c-5.19786,6.06417 -5.1384,17.26519 -5.42212,24.74052c-0.09289,2.44756 -1.84813,4.66342 -2.41641,6.93653c-0.60449,2.41797 -1.01907,8.82035 -3.86786,9.77927c-4.41833,1.48724 -10.00592,2.10877 -14.63369,1.92893c-1.47258,-0.05723 -2.9701,-0.20266 -4.47243,-0.35471c-1.71112,-2.30762 -3.4246,-4.60127 -4.4846,-7.14528c-0.57116,-1.37079 -2.92553,-2.16426 -3.125,-3.61842c-0.50027,-3.647 0.09346,-7.3619 0.09346,-11.04305c0,-1.66796 -1.07953,-3.26924 -1.09346,-4.92056c-0.12594,-14.92879 0.88214,-16.69286 -2.27051,-28c-0.5388,-1.93244 -0.74366,-4.38942 -1.19602,-6.65163c0.60331,-1.7852 1.08959,-3.57009 1.46653,-5.26633c0.06108,-0.27483 0.1182,-0.55029 0.17145,-0.82635c-0.03202,-0.12703 -0.06742,-0.25147 -0.10688,-0.37274c-0.71006,-2.18195 -1.04279,-4.50644 -1.06457,-6.80091c-0.03794,-3.99644 -0.04962,-8.0037 0,-12c0.00692,-0.5571 0.29484,-2.6212 -0.25326,-3.37134c-0.55622,-0.76126 -1.51722,-1.19018 -2,-2c-1.22917,-2.06178 -1.90684,-4.43467 -3.23832,-6.4319c-1.33285,-3.84961 -2.23606,-8.33539 -4,-12c-1.08335,-2.25067 -3.32995,-3.93099 -5.04396,-5.66122c-0.00556,-0.00561 -0.50371,-0.5352 -1.09093,-1.12841c-1.20066,-0.25216 -2.53681,-0.66118 -4.00219,-1.15388zM290.30091,40.53326c1.97228,0.33181 4.02692,-0.32704 6,0c0.77718,0.12882 7.30013,2.36294 7.82774,2.68218c5.70081,3.44938 9.15798,10.86836 13.6246,15.6246c1.38749,4.16247 4.35648,7.39056 6.23832,11.4319c1.06031,2.27706 1.05962,4.91358 1.44386,7.39584c0.47261,3.0532 2.48975,5.92157 3,9c0.32704,1.97308 -0.35416,4.0316 0,6c0.6121,3.40201 1.55365,6.71667 2.02711,10.19c0.05228,0.38349 0.09494,0.77128 0.12936,1.16257c1.96485,-1.01978 3.7968,-2.40637 5.17397,-3.78812c0.83238,-0.83515 1.11777,-2.1166 1.95163,-2.95027c1.17865,-1.17838 2.8199,-1.82308 4,-3c1.98261,-1.97727 3.74322,-4.76607 4.57035,-7.38034c2.57437,-3.86009 2.67881,-5.96819 3.82954,-10.54329c0.46269,-1.83959 1.95411,-3.46182 1.91625,-5.35833c-0.01846,-0.92442 -0.81026,-1.68844 -0.96772,-2.59954c-0.34529,-1.99797 -0.66821,-3.99974 -1,-6c-0.57951,-3.49364 -0.63581,-5.58894 -2.61938,-9.02423c-3.04485,-5.27329 -8.96472,-7.66294 -13.49787,-11.44287c-2.13287,-1.77847 -3.61631,-4.29211 -5.8768,-5.90525c-3.20322,-2.2859 -7.5639,-3.73403 -11.28993,-4.82435c-1.51469,-0.29322 -7.88263,-1.56597 -9.45449,-1.71227c-4.03754,-0.37582 -7.60893,0.63633 -11.5876,1c-4.55903,0.41671 -8.71591,0.8519 -12.74443,3.53662c-0.98176,0.65427 -2.35919,1.90157 -3.5365,3.14608c3.61352,1.29138 7.25146,2.75502 10.84198,3.35907z" fill="#f30000"/><path d="M294.03368,366c0,2.5 -2.5,2.5 -2.5,2.5h-3c-4.44786,-0.05523 -8.2677,2.2336 -12.59954,2.96772c-0.98594,0.16709 -2.01274,-0.15909 -3,0c-3.07133,0.49492 -5.9158,2.48754 -9,3c-4.73797,0.78724 -9.3265,0.05535 -14.15411,1.02011c-7.96228,0.02984 -16.76081,1.07989 -24.6468,-0.02011c-1.04398,-0.14562 -1.9613,-0.82049 -3,-1c-5.0988,-0.88118 -11.44077,0.03228 -16.59954,0.03228c-11.66667,0 -23.33333,0 -35,0c-9.22852,0 -19.3227,1.11486 -28.49632,-0.06387c-3.27398,-0.42068 -6.42244,-1.64686 -9.70988,-1.94465c-1.36085,-0.12327 -2.74148,0.14328 -4.09926,-0.01021c-6.12395,-0.6923 -11.93616,-3.13359 -18,-4c-2.53907,-0.36279 -5.12986,0.04839 -7.69454,0.01873c-1.42553,-0.01649 -2.89344,-0.45688 -4.27554,-0.10727c-1.03864,0.26273 -1.66751,1.37459 -2.62608,1.85306c-1.78494,0.89094 -6.07181,1.81202 -7.79292,2.23548c-9.80132,0.05554 -19.60595,0.049 -29.40744,0.01836c-3.3956,-0.01062 -6.76854,-0.57896 -10.13656,-1.01103c-2.99042,-0.38363 -4.22042,0.64177 -7.51511,0.99924c-4.50264,0.48853 -9.39821,-0.78882 -13.84589,-0.02011c-1.03615,0.17908 -1.95501,0.82616 -2.99227,0.99873c-3.90833,0.65025 -8.10088,0.44924 -12.00773,1.00127c-1.14247,0.16143 -2.1507,1.02841 -3.30451,1.03044c-1.50578,0.00265 -2.93427,-0.67793 -4.4014,-1.01689c-2.89631,0.02013 -5.79845,0.06493 -8.69454,0.01873c-1.24184,-0.01981 -2.56094,0.32723 -3.72446,-0.10727c-5.44291,-2.03256 -5.27711,-6.30686 -7.32467,-10.90675c-0.68619,-1.54153 -1.60347,-2.97512 -2.26057,-4.52927c-0.87668,-2.0735 -0.85321,-4.42266 -1.17157,-6.65125c-0.19436,-1.36056 -0.81018,-2.6388 -1,-4c-0.55109,-3.95194 -0.01873,-8.31362 -0.01873,-12.30546c0,-10.69804 -0.68973,-21.2001 -1.58075,-31.85914c-0.57088,-6.84637 -2.5141,-14.67528 -1.38697,-21.54131c0.56908,-3.4666 2.21596,-6.91893 3.06968,-10.33376c1.14499,-4.57987 1.84965,-9.28799 2.97434,-13.87872c1.79025,-7.30741 4.68755,-14.52252 5.971,-21.94131c1.38842,-8.02554 1.37744,-16.58282 2.0568,-24.70419c0.98294,-10.81268 0.83433,-21.65457 -0.0921,-32.49683c-0.37078,-4.33933 -1.46861,-8.6419 -1.99635,-12.96537c-1.43617,-11.76572 -2.00091,-23.96172 -2.01537,-35.81078l-0.29086,-0.09687c0,0 -2.37171,-0.79057 -1.58114,-3.16228c0.79057,-2.37171 3.16228,-1.58114 3.16228,-1.58114l3.05756,1.01997c6.28134,2.45235 12.87725,3.81087 19.45733,4.87047c2.08671,0.33603 4.21237,-1.43957 6.26892,-0.95185c4.2307,1.00332 5.56277,6.37329 6.74536,9.50104c0.93939,2.48453 2.87061,4.49204 3.96317,6.91313c2.0351,4.50973 2.45155,9.48507 4.02678,14.06225c1.34086,3.89618 3.65658,2.71308 6.58801,3.67339c3.00334,0.98387 6.71245,3.68801 9.32879,5.42969c5.20373,3.46964 10.26962,7.10085 15.2735,10.85363c3.18873,2.39146 6.80221,6.14644 10.51138,7.71371c1.98636,0.83932 4.06581,1.78129 6.22218,1.77059c4.99671,-0.02478 9.55466,-3.23847 14.36598,-3.95203c1.31891,-0.1956 2.67987,0.18715 4,0c0.9943,-0.14096 1.86873,-0.76645 2.85184,-0.97134c4.58424,-0.95543 9.18899,-1.20116 13.6423,-2.89087c3.98907,-1.51357 7.0032,-4.50364 10.8026,-6.39802c8.94261,-4.33425 17.80194,-8.03196 25.51873,-14.2054c1.43332,-1.14665 3.64858,-1.62799 4.40947,-3.29839c0.50503,-1.1087 0.43905,-2.4032 0.80585,-3.56498c1.29951,-4.116 3.52845,-8.00435 5.02218,-12.06317c0.28188,-0.76594 1.65313,-4.99494 2.4629,-7.4261c2.03435,-2.30954 3.71408,-4.95261 6.51848,-7.07531c2.7952,-2.11573 6.16287,-3.35172 8.93904,-5.56342c2.27775,-1.81463 5.1307,-5.074 6.97128,-7.22135c1.33805,-1.56106 1.75426,-4.02698 3.15372,-5.65365c1.51605,-1.76219 5.67334,-1.4563 7.65366,-3.15372c2.33531,-2.00169 4.85072,-5.35884 7.52295,-6.76148c3.14543,-1.65102 8.32229,-3.26015 13.36276,-5.20564c1.93474,-0.28175 3.87225,-0.58299 5.81108,-0.61077c3.69289,-0.05292 7.38616,0.09346 11.07943,0.09346c3.63325,0 7.29871,-2.04484 10.92057,-2.09346c3.82758,-0.05138 7.65654,-0.07238 11.48379,0c4.67023,0.08832 8.75129,5.92349 11.82756,8.60661c1.21241,1.05746 2.9744,1.78799 3.79019,3.3016c0.02944,0.05463 0.0586,0.109 0.08748,0.16315c0.4391,1.46844 0.17279,3.26645 0.49868,4.67207c0.26951,1.16245 1.18579,2.16937 1.23025,3.36182c0.14397,3.86087 -0.55422,8.06545 -0.74995,12.15274c-0.16422,0.889 -0.25005,1.80549 -0.25005,2.74202c0,1.71133 0.28659,3.35573 0.81438,4.88782c-1.84226,9.41333 1.0995,15.08067 3.02152,23.45586c0.54677,2.38254 0.46584,4.97679 0.93383,7.39973c1.22372,6.33567 3.45675,12.27487 5.78659,18.16331c-1.19771,0.29381 -2.70002,0.09145 -3.92314,0.0923c-1.05409,0.00074 -1.9565,-0.85093 -3,-1c-1.28859,-0.18409 -2.61335,0.17473 -3.905,0.01355c-1.36379,-0.17018 -2.63667,-0.82614 -4,-1c-3.79473,-0.48393 -9.56198,-0.64786 -13.3056,-0.01171c-1.06802,0.18149 -2.01759,0.86425 -3.09243,0.99962c-1.70078,0.21422 -3.43696,-0.13445 -5.14252,0.03759c-4.2056,0.42424 -8.47523,1.55791 -12.45502,2.89352c-1.15574,0.2584 -2.41066,0.24024 -3.46722,0.7752c-0.81353,0.4119 -1.13424,1.48409 -1.91742,1.95113c-0.83773,0.49956 -2.02401,0.2651 -2.79684,0.86014c-1.75565,1.35176 -2.19848,3.86918 -3.58413,5.59821c-1.17919,1.47141 -2.81026,2.5371 -4,4c-1.34181,1.64989 -1.70678,3.90928 -2.80673,5.72936c-0.42226,0.69872 -1.50982,0.88594 -1.81693,1.64238c-0.30706,0.75633 0.2876,1.63781 0.15802,2.44375c-0.62111,3.86301 -3.29535,7.72447 -2.07499,11.87508c0.29694,1.00992 1.34374,1.64057 1.82759,2.57546c2.90148,5.60627 5.15121,11.14571 8.61798,16.45469c1.15577,0.91892 2.5065,1.63556 3.46731,2.75675c1.1156,1.3018 1.66987,3.00292 2.66491,4.39903c1.58295,2.22097 4.57,3.84366 6.63464,5.62189c2.19547,1.89092 3.09698,1.51504 6.2421,3.11651c3.82149,1.94587 6.84564,4.01156 10.95087,5.43095c1.37046,0.47384 2.88009,0.5125 4.21327,1.08289c1.13404,0.4852 1.98565,1.48506 3.08699,2.0405c3.23664,1.63231 5.87556,1.28857 9.30208,1.77807c3.33201,0.476 5.63468,1.39284 9.19909,1c1.55649,-0.17154 2.63536,-1.69237 3.93868,-2.56039c1.30875,-0.87163 2.80464,-1.42278 4.20696,-2.13417c5.46936,-3.64509 13.0658,-4.93665 17.21783,-10.28709c2.08593,-2.688 2.91005,-6.87863 4.49429,-9.95051c3.07542,-5.96331 6.41908,-11.78885 9.81359,-17.57715c0.8312,-1.41737 1.70076,-2.81195 2.5376,-4.226c0.96812,-1.63587 1.31514,-3.84039 2.87719,-4.9236c0.57398,-0.39803 1.19917,-0.63948 1.86038,-0.75684c0.86928,0.04051 1.71859,0.06155 2.5536,0.06567c3.71298,0.70084 7.88171,3.60818 10.47473,4.38467c1.9876,0.5952 4.69129,-0.00595 6.81053,-0.64675c0.37705,0.24331 0.73934,0.46834 1.08141,0.67357c0.29006,0.17404 0.58526,0.33339 0.8851,0.47943c0.00605,0.00401 0.01209,0.00801 0.01815,0.01201c2.34385,2.33953 5.45778,3.90784 8.9287,4.29186c1.59395,0.80053 3.00648,1.69943 3.9954,2.85867c0.90091,1.05608 1.52639,4.15688 2.25135,5.54784c1.62099,3.11013 3.22456,10.59844 2.03987,13.90701c-2.13262,5.95594 -8.53403,10.21513 -6.76573,17.34255c-1.74211,3.74034 -3.4382,7.94665 -3.96263,11.64543c-0.23397,1.65016 0.20672,3.3462 0,5c-0.13074,1.04595 -0.82671,1.96025 -1,3c-0.1644,0.98639 0.14347,2.01034 0,3c-0.43036,2.9687 -1.77934,6.45124 -3.35215,9.44876c-1.56739,0.42196 -3.17518,0.73107 -4.7138,1.24445c-4.74641,1.5837 -9.4386,3.46822 -14.43933,4.09592c-3.29417,0.41349 -6.77273,-0.46612 -10.04578,0.01364c-2.3321,0.34183 -4.66604,0.67108 -7,1c-6.603,0.93054 -11.77844,4.72462 -17.99113,6.64536c-0.94361,1.00131 -2.50224,1.54921 -3.00463,2.83008c-0.24977,0.63681 0.16877,1.35959 0.1903,2.04329c0.10462,3.32236 0,6.67489 0,10c0,13.66667 0,27.33333 0,41v1.95588c0.53143,0.34804 1,0.9618 1,2.04412z" fill="#f30000"/><path d="M374.62499,190.96869c0.34755,-0.6951 0.57412,-1.44451 0.74376,-2.21928c0.01273,-0.02129 0.02549,-0.04254 0.0383,-0.06375c0.54388,-0.90086 1.53703,-1.44802 2.19327,-2.27064c4.36112,-5.46681 7.44199,-10.96207 7.50023,-17.98941c1.60246,-3.30717 2.45079,-6.97462 4.06141,-10.21619c0.80393,-1.61801 1.00812,-4.39157 2.79733,-4.64255c2.00397,-0.28111 3.94901,1.78339 4.9171,3.56039c0.828,1.51984 -0.00389,3.46551 -0.14992,5.19009c-0.2549,3.01034 -0.82121,5.9868 -1.15593,8.98931c-0.09303,0.83452 -0.19921,1.66553 -0.3171,2.49343c-2.35229,1.56741 -3.3797,4.13594 -3.3797,4.13594c-1.0575,2.6486 -1.83365,5.65282 -2.77027,8.51074c-0.42711,0.90592 -0.86462,1.82062 -1.34062,2.75704c-0.56796,1.11733 -1.90893,1.61546 -2.38785,2.76488c-0.28175,0.6762 -0.53429,1.37758 -0.76884,2.09489c-1.77945,-0.08394 -3.50525,-0.16561 -5.56514,-0.59488c-0.99246,-0.20682 -2.82371,-0.91821 -4.83239,-1.69654c0.14339,-0.26734 0.28223,-0.53522 0.41636,-0.80347z" fill="#f30000"/><path d="M307.5,52.4687c-5.45564,0 -9.98365,-3.97168 -10.85037,-9.18141c-2.55984,0.70532 -5.05013,1.74326 -7.67112,2.61693c0,0 -10.43552,3.47851 -13.91402,-6.95701c-3.47851,-10.43552 6.95701,-13.91402 6.95701,-13.91402c5.91337,-1.97112 12.01639,-4.0012 18.2428,-4.73333c2.26971,-0.83115 4.23571,-0.83115 4.23571,-0.83115h1c6.31154,0.18826 11.59606,1.47287 16.24178,5.79537c2.33398,1.0883 4.7286,2.10235 6.73209,3.69786c2.2323,1.77773 3.77819,4.28243 5.53289,6.53289c1.4493,1.85878 3.48197,3.19691 5,5c2.89727,3.44131 5.5729,7.18639 8,11c6.56852,6.90868 10.35497,17.17596 9.3512,26.73588c-0.11007,1.04833 -0.82489,1.96055 -1,3c-0.54564,3.23888 -0.61873,6.62268 -1.7983,9.68808c-0.48164,1.25166 -1.57372,2.18559 -2.17819,3.38278c-0.63613,1.25987 -0.76157,2.76267 -1.52431,3.95018c-1.61809,2.51921 -8.49211,8.96001 -10.82988,8.9227c-5.12709,-0.08183 -10.62013,-1.86532 -14.45095,-5.27393c-2.405,-2.13994 -1.5524,-6.25552 -2.07634,-9.43181c-0.66209,-4.0138 -0.41356,-8.18231 -0.85796,-12.238c-0.11482,-1.04782 -0.90992,-1.94976 -1,-3c-0.0253,-0.29494 0.83002,-0.2889 0.69529,-0.55249c-0.42911,-0.8395 -1.33333,-1.33333 -2,-2c-1.09188,-8.55478 -5.03892,-15.10803 -8.4479,-22.74161c-1.06765,0.34545 -2.20674,0.53209 -3.38942,0.53209zM331.20107,86.53466c-0.15498,0.05019 -0.3146,0.10218 -0.47925,0.15586c-0.13343,0.04351 0.36488,0.12376 0.42102,-0.00487c0.02163,-0.04957 0.04092,-0.09995 0.05823,-0.151z" fill="#f30000"/></g></g></svg>