<svg version="1.1" xmlns="http://www.w3.org/2000/svg" xmlns:xlink="http://www.w3.org/1999/xlink" width="393.06682" height="474.87022" viewBox="0,0,393.06682,474.87022"><g transform="translate(-69.65631,61.48601)"><g data-paper-data="{&quot;isPaintingLayer&quot;:true}" fill-rule="nonzero" stroke-width="9.5" stroke-linejoin="miter" stroke-miterlimit="10" stroke-dasharray="" stroke-dashoffset="0" style="mix-blend-mode: normal"><path d="M252.55583,235.93823v107.25329" fill="none" stroke="#000000" stroke-linecap="round"/><path d="M259.82723,227.75788c0,44.67676 -35.81074,80.89442 -79.9855,80.89442c-44.17476,0 -79.9855,-36.21766 -79.9855,-80.89442c0,-44.67676 35.81071,-80.89442 79.9855,-80.89442c44.17476,0 79.9855,36.21766 79.9855,80.89445z" fill="#a50000" stroke="#000000" stroke-linecap="butt"/><path d="M291.40656,55.73773c0,60.74031 -31.33439,109.98007 -69.98731,109.98007c-38.65295,0 -69.98731,-49.23976 -69.98731,-109.98007c0,-60.74031 31.33439,-109.98007 69.98731,-109.98007c38.65295,0 69.98731,49.23976 69.98731,109.98007z" fill="#a50000" stroke="#000000" stroke-linecap="butt"/><path d="M214.38093,53.24406c0,60.74031 -31.33439,109.98004 -69.98731,109.98004c-38.65295,0 -69.98731,-49.23973 -69.98731,-109.98004c0,-60.74031 31.33439,-109.98007 69.98731,-109.98007c38.65295,0 69.98731,49.23976 69.98731,109.98007z" fill="#a50000" stroke="#000000" stroke-linecap="butt"/><path d="M457.97313,129.59386c0,31.6251 -81.79497,57.26233 -182.69417,57.26233c-100.8992,0 -182.69414,-25.63723 -182.69414,-57.26233c0,-31.6251 81.79494,-57.26233 182.69414,-57.26233c100.8992,0 182.69417,25.63723 182.69417,57.26233z" fill="#a50000" stroke="#000000" stroke-linecap="butt"/><path d="M118.03475,147.07433c-7.8783,0 -10.95849,-4.7981 -12.16277,-8.54992c-8.91231,-8.574 -17.15698,-16.19117 -12.18271,-31.88354c1.42328,-4.48996 7.70453,-5.43735 11.32818,-8.44641c12.34734,-10.25323 21.0524,-15.52399 37.19254,-18.73948c2.22828,0.08532 4.40351,-0.36832 6.5642,-0.98739c0.20518,-0.26377 0.41663,-0.52364 0.63468,-0.77932c3.04842,-3.5744 8.86191,-3.1235 13.25851,-4.77838c4.41748,-1.66276 8.31017,-3.20806 12.14064,-4.49242c0.12431,-0.18938 0.2512,-0.37739 0.3808,-0.56394c2.4383,-3.50975 7.31959,-4.55281 11.36187,-5.93984c3.59035,-1.23195 7.30729,-1.81857 11.09518,-1.99565c0.03722,-0.23963 0.08279,-0.48216 0.13721,-0.72742c-3.67539,-3.13754 -7.4074,-6.19481 -8.74436,-10.64154c-2.36482,-7.8656 -7.78418,-17.96883 -2.78133,-24.48278c2.67465,-3.48248 7.25783,-3.81251 12.14052,-3.38548c-1.64894,-1.36399 -3.29048,-2.69613 -4.93029,-4.00546c-2.04806,-0.42777 -3.60304,-1.91868 -4.53665,-1.75422c0,0 -0.76093,0 -0.76093,-0.76093c0,-0.76093 0.76093,-0.76093 0.76093,-0.76093c0.16357,0.0147 0.3164,0.03576 0.45994,0.06227c-6.23356,-4.85496 -12.50793,-9.48971 -19.12852,-14.40259c0,0 -10.34868,-7.76151 -2.58717,-18.11018c7.76151,-10.34868 18.11018,-2.58717 18.11018,-2.58717c4.48557,3.41062 9.78574,5.63242 14.34503,8.94384c4.84087,3.51587 7.39736,7.85711 11.81898,11.62878c6.24616,5.32799 14.91622,10.57193 19.47539,17.65752c3.38103,5.25463 9.48383,10.48068 8.58441,16.66402c-1.58024,10.8641 -7.95128,15.46451 -15.53726,17.01679c1.85077,2.58056 3.63506,5.20213 5.38624,7.84877c5.50361,-3.4616 11.37578,-6.27227 17.78171,-5.98589c3.65497,0.16342 7.3464,1.57808 10.77121,3.64715c1.05018,-3.15863 4.69976,-10.89277 14.86021,-8.86069c12.68465,2.53692 10.1477,15.22156 10.1477,15.22156c-1.06807,5.12993 -1.60885,10.40182 -1.56664,15.6416v9.08924c0,7.14427 -5.79158,12.93585 -12.93585,12.93585c-2.71945,0 -5.24291,-0.83916 -7.32555,-2.27266c-5.1015,6.64221 -14.18852,8.42334 -22.30329,9.48112c-17.22656,2.24557 -36.17365,-3.84179 -53.24148,-5.4347c-0.84226,-0.07859 -1.77133,-0.16853 -2.76319,-0.26164c-7.10105,1.19223 -14.1516,2.33904 -20.9007,3.69022l-8.82733,1.76548c-0.90128,0.19879 -1.83783,0.30358 -2.79886,0.30358c-2.38619,0 -4.62145,-0.64609 -6.54042,-1.77285c-4.69252,0.91957 -8.2114,1.3145 -12.57191,3.74972c-3.55157,1.98348 -5.86852,5.73152 -8.95243,8.36879c1.58067,1.74165 2.91236,4.16826 4.49044,5.74638l3.78883,10.96488c0,0 0,12.93585 -12.93585,12.93585z" fill="#a50000" stroke="none" stroke-linecap="butt"/><path d="M125.30616,403.18061l1.81787,-109.07113" fill="none" stroke="#000000" stroke-linecap="round"/><path d="M216.19877,308.65233l-1.81787,99.98188" fill="none" stroke="#000000" stroke-linecap="round"/><path d="M88.94912,214.12398l-3.6357,127.24967" fill="none" stroke="#000000" stroke-linecap="round"/><path d="M108.94548,50.51728c0,7.02782 -2.8486,12.72498 -6.36249,12.72498c-3.51389,0 -6.36249,-5.69716 -6.36249,-12.72498c0,-7.02782 2.8486,-12.72498 6.36249,-12.72498c3.51389,0 6.36249,5.69716 6.36249,12.72498z" fill="#000000" stroke="#000000" stroke-linecap="butt"/><path d="M271.41017,53.01094c0,7.02779 -2.84856,12.72498 -6.36246,12.72498c-3.51392,0 -6.36249,-5.69719 -6.36249,-12.72498c0,-7.02779 2.84856,-12.72498 6.36249,-12.72498c3.51389,0 6.36246,5.69716 6.36246,12.72498z" fill="#000000" stroke="#000000" stroke-linecap="butt"/><path d="M454.33743,134.13848l-301.76349,-1.81787" fill="none" stroke="#000000" stroke-linecap="round"/></g></g></svg>