<svg version="1.1" xmlns="http://www.w3.org/2000/svg" xmlns:xlink="http://www.w3.org/1999/xlink" width="131.01872" height="157.50538" viewBox="0,0,131.01872,157.50538"><g transform="translate(-201.06979,-97.39118)"><g data-paper-data="{&quot;isPaintingLayer&quot;:true}" fill-rule="nonzero" stroke-linejoin="miter" stroke-miterlimit="10" stroke-dasharray="" stroke-dashoffset="0" style="mix-blend-mode: normal"><path d="M220.50049,214.77011l-0.59725,35.83471" fill="#066100" stroke="#000000" stroke-width="5" stroke-linecap="round"/><path d="M249.7655,219.54807l-0.59725,32.84849" fill="#066100" stroke="#000000" stroke-width="5" stroke-linecap="round"/><path d="M261.71038,195.65827v35.23747" fill="#066100" stroke="#000000" stroke-width="5" stroke-linecap="round"/><path d="M264.48877,193.36003c0,14.6783 -11.76542,26.57741 -26.27879,26.57741c-14.51337,0 -26.27879,-11.89911 -26.27879,-26.57741c0,-14.6783 11.76541,-26.57741 26.27879,-26.57741c14.51337,0 26.27879,11.89911 26.27879,26.57742z" fill="#066100" stroke="#000000" stroke-width="5" stroke-linecap="butt"/><g stroke="none" stroke-width="0.5" stroke-linecap="butt"><path d="M256.82871,211.52953c0.30404,0 0.57111,0.03698 0.8057,0.10194c1.80614,-2.35119 2.82404,-5.38486 3.52181,-7.93964c0.62043,-2.23581 0.92088,-4.25354 0.99627,-6.47106c-3.31826,0.32152 -6.61457,0.56421 -9.90461,0.74621c-0.42472,0.66083 -1.31134,1.48689 -2.99568,1.10399c-0.777,-0.17663 -1.27106,-0.50762 -1.5811,-0.88806c-5.92499,0.23354 -11.85334,0.29726 -17.87698,0.29726c-3.43942,0 -7.06053,0.24736 -10.45454,-0.38801c-1.14435,-0.21423 -2.26508,-0.5604 -3.3263,-1.0048c-0.3306,-0.13844 -0.58059,-0.99381 -0.76501,-0.70848c-0.26514,0.41022 0.41494,0.92971 0.31961,1.39757c-0.52376,2.5705 -1.32565,4.07553 -1.31976,6.85443c-0.03596,1.38284 0.29435,2.53434 0.89077,3.50426c0.63037,0.31972 0.94762,0.87315 1.10727,1.34923c2.59685,2.46026 7.23958,3.43432 10.98869,4.38241c6.41839,1.6231 13.25355,1.86477 19.95198,1.57772c2.07003,-0.08871 5.0674,-0.12628 7.14188,-1.01952v-0.39545c0,0 0,-2.5 2.5,-2.5zM259.32871,221.34936c-0.00732,4.77323 0.05684,9.88162 -0.33272,14.63966c-0.11863,1.44895 0.32376,3.21541 -0.62581,4.31626c-0.92142,1.06822 -2.71318,0.77462 -4.0769,1.13571c-3.41847,0.90514 -10.93032,1.91203 -13.27465,-1.87905c-1.15136,-1.8619 0.00323,-4.37826 0.00131,-6.56739c-0.00374,-4.25782 0.01845,-8.2887 0.59135,-12.42376c-3.74919,-0.0148 -7.51058,-0.30476 -11.15834,-0.91108c0.39641,6.06075 2.21974,13.66465 -0.70137,18.84358c-0.68186,1.2089 -1.56772,2.44875 -2.80539,3.0769c-1.816,0.92168 -7.28194,0.32145 -9.37837,0.23603c-1.27087,-0.05178 -2.72693,0.39674 -3.80571,-0.27708c-1.39001,-0.86823 -2.38266,-2.39837 -2.94319,-3.93842c-0.39225,-1.07769 0.21204,-2.28483 0.26109,-3.43063c0.16442,-3.8407 0.32789,-7.6361 0.32789,-11.48983c0,-3.589 0,-7.178 0,-10.767c-1.61308,-1.85455 -2.60401,-4.21011 -2.65853,-7.28234c0.00596,-3.15729 0.26972,-5.52804 1.6075,-8.45067c0.59833,-1.30717 0.46883,-3.16687 1.78325,-3.92594c1.43215,-0.82707 3.40602,-0.23428 5.08951,-0.04304c2.57665,0.2927 4.75562,0.9213 7.25018,1.16729c-0.0528,-6.93143 -0.72008,-12.70492 -5.33882,-18.57017c0,0 -1.59804,-2.03434 0.63922,-3.48743c2.23726,-1.45309 3.8353,0.58124 3.8353,0.58124c5.32219,6.79058 6.27435,13.54456 6.3599,21.57291c6.06569,-0.01633 12.06569,-0.07997 18.07074,-0.32308c1.74182,-6.42308 0.22848,-13.58179 0.22123,-20.12946c0,0 0,-2.5 2.74937,-2.5c2.74937,0 2.74937,2.5 2.74937,2.5c-0.00781,6.54202 1.20054,13.35572 -0.05219,19.84283c2.8938,-0.17753 5.79392,-0.40622 8.70823,-0.70077c0,0 0.84407,-0.08528 1.64611,0.26552c1.48626,-0.09309 2.40875,1.16515 2.40875,1.16515l1.19357,2.38491c-0.00469,3.12534 -0.35231,5.88958 -1.17981,8.92433c-1.1771,4.25598 -3.21392,9.49835 -7.16207,12.47838c0,1.45831 0,2.95281 0,3.96646zM246.01994,232.99454c-0.00078,0.93903 0.14605,1.89026 -0.00483,2.8171c-0.07629,0.4686 -0.71929,0.79156 -0.65931,1.26253c0.0344,0.27009 0.52558,-0.18185 0.79778,-0.17536c2.59908,0.06202 4.70445,-0.25791 7.22161,-0.37282c0.44366,-0.02025 0.91072,0.76082 1.24661,0.47027c0.29895,-0.25859 -0.56932,-0.61603 -0.62581,-1.00725c-0.15848,-1.09769 0,-2.21813 0,-3.3272c0,-3.79562 0.33916,-7.53085 0.33272,-11.31246c0,-0.55587 0,-1.11173 0,-1.6676c-1.05544,0.18514 -2.18207,0.23794 -3.72146,0.40795c-1.29494,0.14302 -2.60422,0.25555 -3.92221,0.33576c-0.67211,4.20439 -0.66151,8.25269 -0.6651,12.56906zM216.40791,222.68024c0,4.58145 -0.70681,9.18551 -0.74189,13.69339c-0.01033,1.32682 1.32037,0.47828 1.90181,0.44258c1.64798,-0.10119 7.14109,1.06994 7.7794,-0.67971c1.93446,-5.3024 0.22869,-11.89525 0.04972,-17.54497c-3.16152,-0.80575 -6.30183,-1.71769 -8.98904,-3.03218c0,2.47642 0,5.01829 0,7.1209z" fill="#000000"/><path d="M246.01072,222.1569l0.01931,-0.64281c0.28671,-2.26418 0.66548,-3.86202 1.24558,-5.38564l-0.23271,-0.03878l0.65868,-3.9521c0.179,-1.20503 1.21791,-2.12954 2.47274,-2.12954c0.49752,0 0.9611,0.14533 1.3506,0.39586c0.19419,-0.04067 0.40872,-0.06314 0.64572,-0.06314c2.5,0 2.5,2.5 2.5,2.5c0,2.93536 -0.00033,5.87069 -0.00483,8.80605l-0.0729,0.14744l0.05842,0.0073l-0.32861,2.62885c-0.00789,0.07149 -0.01878,0.14207 -0.03257,0.21161c-0.0947,2.68267 -0.25996,5.37416 -0.25996,8.05628c0,1.10906 -0.16943,2.2373 -0.01094,3.33499c0.05649,0.39122 0.92515,0.74845 0.62619,1.00704c-0.3359,0.29055 -0.80747,-0.48838 -1.25113,-0.46813c-2.51716,0.1149 -4.6624,0.43414 -7.26148,0.37212c-0.2722,-0.0065 -0.76635,0.44397 -0.80075,0.17388c-0.05999,-0.47097 0.58292,-0.79398 0.65921,-1.26258c0.15088,-0.92684 -0.00505,-1.88439 -0.00427,-2.82342c0.00274,-3.29858 0.00518,-6.48955 0.30614,-9.6874c-0.28245,-0.60362 -0.28245,-1.18788 -0.28245,-1.18788z" fill="#0048c1"/><path d="M216.10849,216.627c-0.78411,-2.59769 -0.37523,-5.77077 -0.37523,-8.44431c0,0 0,-2.5 2.5,-2.5c1.93938,0 2.37428,1.50447 2.47181,2.17923c0.42134,-0.3234 0.94863,-0.51563 1.52083,-0.51563c0.94657,0 1.77027,0.52607 2.19469,1.30179l1.3068,2.2869l-0.05943,0.03396c0.07164,0.08952 0.14123,0.18089 0.20857,0.2743c1.67941,2.32973 0.81102,6.65302 0.49367,9.22744l-0.33272,2.66176c0,0 -0.03695,0.29564 -0.18741,0.67004c0.4413,4.24998 0.87639,8.65515 -0.48242,12.37968c-0.63832,1.74965 -6.16726,0.58044 -7.81524,0.68163c-0.58144,0.03571 -1.92006,0.8809 -1.90973,-0.44592c0.03509,-4.50788 0.72625,-9.18747 0.72625,-13.76891c0,-1.44041 0.00916,-3.0939 0.01493,-4.7887c-0.08034,-0.43214 -0.16138,-0.85562 -0.27537,-1.23324z" fill="#0048c1"/><path d="M261.20598,203.68698c-0.9624,3.52374 -2.53839,7.98468 -5.94711,10.28316c-2.01551,1.35904 -5.6493,1.40836 -8.0377,1.51071c-6.69843,0.28706 -13.60845,0.03835 -20.02683,-1.58474c-5.58459,-1.41225 -13.16138,-2.91414 -12.99615,-9.26792c-0.00589,-2.7789 0.79888,-4.29816 1.32265,-6.86866c0.09533,-0.46786 -0.58388,-0.98961 -0.31874,-1.39983c0.18443,-0.28533 0.527,0.60778 0.85761,0.74622c1.06122,0.44439 2.08935,0.75285 3.2337,0.96708c3.39401,0.63538 7.02388,0.37403 10.4633,0.37403c6.02364,0 12.02809,-0.06221 17.95308,-0.29575c0.31004,0.38044 0.80789,0.71672 1.58489,0.89335c1.68434,0.38289 2.57197,-0.44145 2.99669,-1.10228c3.29005,-0.182 6.58985,-0.41712 9.90812,-0.73864c-0.07539,2.21751 -0.37307,4.24748 -0.9935,6.48328z" data-paper-data="{&quot;noHover&quot;:false,&quot;origItem&quot;:[&quot;Path&quot;,{&quot;applyMatrix&quot;:true,&quot;segments&quot;:[[[524.30499,398.05296],[-0.15078,4.43503],[-6.63653,0.64303]],[[504.49576,399.54538],[6.58009,-0.364],[-0.84945,1.32166]],[[498.5044,401.75337],[3.36867,0.76579],[-1.554,-0.35326]],[[495.34219,399.97726],[0.62008,0.76087],[-11.84999,0.46708]],[[459.58823,400.57178],[12.04728,0],[-6.87885,0]],[[438.67915,399.79575],[6.78802,1.27075],[-2.2887,-0.42846]],[[432.02654,397.78616],[2.12244,0.88879],[-0.66121,-0.27689]],[[430.49652,396.3692],[0.36885,-0.57066],[-0.53029,0.82044]],[[431.13575,399.16433],[0.19066,-0.93572],[-1.04753,5.14101]],[[428.49623,412.87319],[-0.01178,-5.5578],[-0.33047,12.70757]],[[454.4697,431.34497],[-11.16918,-2.82449],[12.83677,3.2462]],[[494.37366,434.5004],[-13.39687,0.57411],[4.7768,-0.2047]],[[510.42729,431.50905],[-4.03102,2.71808],[6.81744,-4.59695]],[[522.31244,410.99507],[-1.92481,7.04748],[1.24085,-4.47162]]],&quot;closed&quot;:true}]}" fill="#0048c1"/><path d="M224.39294,199.7226c0,-1.38071 1.11929,-2.5 2.5,-2.5c1.38071,0 2.5,1.11929 2.5,2.5c0,1.38071 -1.11929,2.5 -2.5,2.5c-1.38071,0 -2.5,-1.11929 -2.5,-2.5z" fill="#eaef00"/><path d="M247.01786,200.05532c0,-1.38071 1.11929,-2.5 2.5,-2.5c1.38071,0 2.5,1.11929 2.5,2.5c0,1.38071 -1.11929,2.5 -2.5,2.5c-1.38071,0 -2.5,-1.11929 -2.5,-2.5z" fill="#eaef00"/></g><path d="M274.86401,136.84376c0,19.95589 -10.29474,36.13334 -22.99394,36.13334c-12.69921,0 -22.99394,-16.17745 -22.99394,-36.13334c0,-19.95589 10.29474,-36.13334 22.99394,-36.13334c12.69921,0 22.99394,16.17745 22.99394,36.13334z" fill="#066100" stroke="#000000" stroke-width="5" stroke-linecap="butt"/><path d="M249.55768,136.02452c0,19.95589 -10.29474,36.13333 -22.99394,36.13333c-12.69921,0 -22.99394,-16.17744 -22.99394,-36.13333c0,-19.95589 10.29474,-36.13334 22.99394,-36.13334c12.69921,0 22.99394,16.17745 22.99394,36.13334z" fill="#066100" stroke="#000000" stroke-width="5" stroke-linecap="butt"/><path d="M329.58851,161.10879c0,10.39025 -26.87328,18.81322 -60.02315,18.81322c-33.14987,0 -60.02314,-8.42297 -60.02314,-18.81322c0,-10.39025 26.87327,-18.81322 60.02314,-18.81322c33.14987,0 60.02315,8.42297 60.02315,18.81322z" fill="#066100" stroke="#000000" stroke-width="5" stroke-linecap="butt"/><path d="M217.51426,166.46249c-2.58837,0 -3.60035,-1.57639 -3.99601,-2.80903c-2.92809,-2.81694 -5.63683,-5.31952 -4.00256,-10.47516c0.46761,-1.47515 2.53128,-1.78641 3.72181,-2.77502c4.05665,-3.36864 6.91665,-5.10032 12.2194,-6.15675c0.73209,0.02803 1.44675,-0.12101 2.15663,-0.3244c0.06741,-0.08666 0.13688,-0.17204 0.20852,-0.25604c1.00154,-1.17435 2.91153,-1.02621 4.35601,-1.56991c1.45134,-0.54629 2.73026,-1.05399 3.98874,-1.47596c0.04084,-0.06222 0.08253,-0.12399 0.12511,-0.18528c0.80109,-1.15311 2.40481,-1.4958 3.73288,-1.9515c1.17959,-0.40475 2.40077,-0.59748 3.64526,-0.65566c0.01223,-0.07873 0.0272,-0.15841 0.04508,-0.23899c-1.20753,-1.03082 -2.43366,-2.03527 -2.87291,-3.49622c-0.77695,-2.5842 -2.55745,-5.90356 -0.91379,-8.04368c0.87874,-1.14415 2.38452,-1.25258 3.9887,-1.11228c-0.54175,-0.44813 -1.08107,-0.8858 -1.61982,-1.31597c-0.67288,-0.14054 -1.18376,-0.63037 -1.49049,-0.57634c0,0 -0.25,0 -0.25,-0.25c0,-0.25 0.25,-0.25 0.25,-0.25c0.05374,0.00483 0.10395,0.01175 0.15111,0.02046c-2.048,-1.59507 -4.10941,-3.11779 -6.28457,-4.73189c0,0 -3.4,-2.55 -0.85,-5.95c2.55,-3.4 5.95,-0.85 5.95,-0.85c1.47371,1.12054 3.21505,1.8505 4.71298,2.93845c1.59044,1.15512 2.43036,2.58141 3.88306,3.82057c2.05214,1.75048 4.90064,3.47335 6.39853,5.80128c1.11082,1.72638 3.11586,3.44337 2.82036,5.47487c-0.51918,3.56934 -2.61235,5.08078 -5.10468,5.59077c0.60806,0.84783 1.19428,1.70913 1.76962,2.57867c1.80818,-1.13729 3.73745,-2.06072 5.84208,-1.96663c1.20082,0.05369 2.41362,0.51847 3.53882,1.19825c0.34503,-1.03775 1.54408,-3.57876 4.88224,-2.91113c4.16747,0.83349 3.33397,5.00096 3.33397,5.00096c-0.35091,1.68541 -0.52858,3.41746 -0.51471,5.13896v2.98622c0,2.34721 -1.90279,4.25 -4.25,4.25c-0.89346,0 -1.72253,-0.2757 -2.40677,-0.74667c-1.67607,2.18226 -4.66156,2.76744 -7.32762,3.11497c-5.65969,0.73777 -11.88465,-1.2622 -17.49219,-1.78554c-0.27672,-0.02582 -0.58196,-0.05537 -0.90783,-0.08596c-2.33301,0.3917 -4.64943,0.76848 -6.86681,1.2124l-2.90017,0.58004c-0.29611,0.06531 -0.60381,0.09974 -0.91955,0.09974c-0.78397,0 -1.51835,-0.21227 -2.14882,-0.58246c-1.5417,0.30212 -2.69781,0.43187 -4.13043,1.23195c-1.16685,0.65166 -1.92807,1.88306 -2.94127,2.74952c0.51932,0.57221 0.95684,1.36946 1.47531,1.88794l1.2448,3.60245c0,0 0,4.25 -4.25,4.25z" fill="#066100" stroke="none" stroke-width="0" stroke-linecap="butt"/><path d="M207.95833,188.49129l-1.19449,41.80717" fill="#066100" stroke="#000000" stroke-width="5" stroke-linecap="round"/><path d="M214.91745,135.12859c0,2.30895 -0.93589,4.18072 -2.09036,4.18072c-1.15447,0 -2.09036,-1.87177 -2.09036,-4.18072c0,-2.30895 0.93589,-4.18072 2.09036,-4.18072c1.15447,0 2.09036,1.87177 2.09036,4.18072z" fill="#066100" stroke="#000000" stroke-width="5" stroke-linecap="butt"/><path d="M268.29429,135.94789c0,2.30894 -0.93588,4.18072 -2.09035,4.18072c-1.15448,0 -2.09036,-1.87178 -2.09036,-4.18072c0,-2.30894 0.93588,-4.18072 2.09036,-4.18072c1.15447,0 2.09035,1.87177 2.09035,4.18072z" fill="#066100" stroke="#000000" stroke-width="5" stroke-linecap="butt"/><path d="M328.39403,162.6019l-99.14271,-0.59725" fill="#066100" stroke="#000000" stroke-width="5" stroke-linecap="round"/></g></g></svg>