<svg version="1.1" xmlns="http://www.w3.org/2000/svg" xmlns:xlink="http://www.w3.org/1999/xlink" width="393.45217" height="247.14666" viewBox="0,0,393.45217,247.14666"><g transform="translate(10.40613,-77.05152)"><g data-paper-data="{&quot;isPaintingLayer&quot;:true}" fill="none" fill-rule="nonzero" stroke="#000000" stroke-width="6" stroke-linecap="round" stroke-linejoin="miter" stroke-miterlimit="10" stroke-dasharray="" stroke-dashoffset="0" style="mix-blend-mode: normal"><path d="M-7.40613,180.78709c0,0 77.73398,-15.90815 124.13977,-35.56087c46.40579,-19.65272 112.50167,-64.65613 112.50167,-64.65613c0,0 84.78041,-6.32657 121.55353,25.21589c36.77312,31.54246 28.4487,103.44981 28.4487,103.44981c0,0 -0.761,2.23112 -1.24808,3.65916c-0.48708,1.42803 0.51829,62.0568 -27.20062,79.74725c-27.7189,17.69045 -84.60854,33.41347 -140.30381,27.15558c-55.69527,-6.25789 -67.78624,-17.57391 -89.87202,-53.01803c-22.08578,-35.44412 -9.16729,-55.23716 9.69842,-75.64767c18.86571,-20.41051 58.34263,-47.47553 103.44981,-51.07834c45.10718,-3.60281 62.46896,-3.98474 88.5789,28.4487c26.10993,32.43343 -5.81905,74.35455 -5.81905,74.35455l-106.68262,1.29312l-2.58625,-58.19052l69.18206,5.81905"/></g></g></svg>