<svg version="1.1" xmlns="http://www.w3.org/2000/svg" xmlns:xlink="http://www.w3.org/1999/xlink" width="131.01874" height="158.00668" viewBox="0,0,131.01874,158.00668"><g transform="translate(-200.68036,-96.88989)"><g data-paper-data="{&quot;isPaintingLayer&quot;:true}" fill-rule="nonzero" stroke-linejoin="miter" stroke-miterlimit="10" stroke-dasharray="" stroke-dashoffset="0" style="mix-blend-mode: normal"><path d="M261.71038,230.89575v-35.23747" fill="none" stroke="#bd0000" stroke-width="5" stroke-linecap="round"/><path d="M264.09936,192.97064c0,14.6783 -11.76542,26.57741 -26.27879,26.57741c-14.51337,0 -26.27879,-11.89911 -26.27879,-26.57741c0,-14.6783 11.76541,-26.57741 26.27879,-26.57741c14.51337,0 26.27879,11.89911 26.27879,26.57742z" fill="#ff0000" stroke="#bd0000" stroke-width="5" stroke-linecap="butt"/><path d="M274.47458,136.45434c0,19.95589 -10.29474,36.13334 -22.99394,36.13334c-12.69921,0 -22.99394,-16.17745 -22.99394,-36.13334c0,-19.95589 10.29474,-36.13334 22.99394,-36.13334c12.69921,0 22.99394,16.17745 22.99394,36.13334z" fill="#ff0000" stroke="#bd0000" stroke-width="5" stroke-linecap="butt"/><path d="M244.07661,109.27997c-1.18586,-0.39529 -0.79056,-1.58114 -0.79056,-1.58114l0.31723,-0.74884c2.21454,-2.76906 6.77198,-3.38638 10.19623,-3.39024c0,0 1.25,0 1.25,1.25c0,1.25 -1.25,1.25 -1.25,1.25c-2.39022,-0.00297 -6.79339,0.2919 -8.19623,2.39024l0.05448,0.03941c0,0 -0.39529,1.18586 -1.58114,0.79057z" fill="#ffdede" stroke="none" stroke-width="0.5" stroke-linecap="butt"/><path d="M236.56047,178.23507c0.94441,0 1.76651,0.52367 2.19177,1.29648c0.33164,-0.04433 0.63641,-0.08445 0.90055,-0.12273c0,0 2.47487,-0.35356 2.82843,2.12132c0.35356,2.47487 -2.12132,2.82843 -2.12132,2.82843c-1.39304,0.19575 -3.10584,-0.27754 -4.17121,0.64108c-0.5258,0.45337 -0.55979,1.27129 -0.86991,1.89244c-1.38843,2.7809 -1.91383,8.0882 -1.30257,11.26372c0.39901,2.07287 3.54416,4.0818 4.63652,5.71489c3.01199,4.50297 4.72967,9.73959 2.44106,14.73841l-2.61895,1.38197c0,0 -0.28882,-0.00001 -0.67012,-0.09817c-0.34711,0.11171 -0.7665,0.14846 -1.27238,0.06415c-2.46598,-0.411 -2.05498,-2.87698 -2.05498,-2.87698l0.34886,-1.88625c0.16871,-5.31204 -4.35937,-5.75866 -6.60166,-9.9345c-1.51277,-2.81724 -0.85804,-3.53113 -1.04955,-6.35191c-0.11995,-1.76675 -0.89358,-3.43586 -1.13075,-5.19072c-0.80436,-5.95168 0.99582,-12.327 6.33518,-15.2177c0,0 1.52552,-0.76276 2.6865,0.2318c0.41689,-0.31137 0.93419,-0.49572 1.49454,-0.49572z" fill="#ffd200" stroke="none" stroke-width="0.5" stroke-linecap="butt"/><path d="M249.16824,135.63512c0,19.95589 -10.29474,36.13333 -22.99394,36.13333c-12.69921,0 -22.99394,-16.17744 -22.99394,-36.13333c0,-19.95589 10.29474,-36.13334 22.99394,-36.13334c12.69921,0 22.99394,16.17745 22.99394,36.13334z" fill="#ff0000" stroke="#bd0000" stroke-width="5" stroke-linecap="butt"/><path d="M329.1991,160.71938c0,10.39025 -26.87328,18.81322 -60.02315,18.81322c-33.14987,0 -60.02314,-8.42297 -60.02314,-18.81322c0,-10.39025 26.87327,-18.81322 60.02314,-18.81322c33.14987,0 60.02315,8.42297 60.02315,18.81322z" fill="#ff0000" stroke="#bd0000" stroke-width="5" stroke-linecap="butt"/><path d="M217.51424,166.46249c-2.58837,0 -3.60035,-1.57639 -3.99601,-2.80903c-2.92809,-2.81694 -5.63683,-5.31952 -4.00256,-10.47516c0.46761,-1.47515 2.53128,-1.78641 3.72181,-2.77502c4.05665,-3.36864 6.91665,-5.10032 12.2194,-6.15675c0.73209,0.02803 1.44675,-0.12101 2.15663,-0.3244c0.06741,-0.08666 0.13688,-0.17204 0.20852,-0.25604c1.00154,-1.17435 2.91153,-1.02621 4.35601,-1.56991c1.45134,-0.54629 2.73026,-1.05399 3.98874,-1.47596c0.04084,-0.06222 0.08253,-0.12399 0.12511,-0.18528c0.80109,-1.15311 2.40481,-1.4958 3.73288,-1.9515c1.17959,-0.40475 2.40077,-0.59748 3.64526,-0.65566c0.01223,-0.07873 0.0272,-0.15841 0.04508,-0.23899c-1.20753,-1.03082 -2.43366,-2.03527 -2.87291,-3.49622c-0.77695,-2.5842 -2.55745,-5.90356 -0.91379,-8.04368c0.87874,-1.14415 2.38452,-1.25258 3.9887,-1.11228c-0.54175,-0.44813 -1.08107,-0.8858 -1.61982,-1.31597c-0.67288,-0.14054 -1.18376,-0.63037 -1.49049,-0.57634c0,0 -0.25,0 -0.25,-0.25c0,-0.25 0.25,-0.25 0.25,-0.25c0.05374,0.00483 0.10395,0.01175 0.15111,0.02046c-2.048,-1.59507 -4.10941,-3.11779 -6.28457,-4.73189c0,0 -3.4,-2.55 -0.85,-5.95c2.55,-3.4 5.95,-0.85 5.95,-0.85c1.47371,1.12054 3.21505,1.8505 4.71298,2.93845c1.59044,1.15512 2.43036,2.58141 3.88306,3.82057c2.05214,1.75048 4.90064,3.47335 6.39853,5.80128c1.11082,1.72638 3.11586,3.44337 2.82036,5.47487c-0.51918,3.56934 -2.61235,5.08078 -5.10468,5.59077c0.60806,0.84783 1.19428,1.70913 1.76962,2.57867c1.80818,-1.13729 3.73745,-2.06072 5.84208,-1.96663c1.20082,0.05369 2.41362,0.51847 3.53882,1.19825c0.34503,-1.03775 1.54408,-3.57876 4.88224,-2.91113c4.16747,0.83349 3.33397,5.00096 3.33397,5.00096c-0.35091,1.68541 -0.52858,3.41746 -0.51471,5.13896v2.98622c0,2.34721 -1.90279,4.25 -4.25,4.25c-0.89346,0 -1.72253,-0.2757 -2.40677,-0.74667c-1.67607,2.18226 -4.66156,2.76744 -7.32762,3.11497c-5.65969,0.73777 -11.88465,-1.2622 -17.49219,-1.78554c-0.27672,-0.02582 -0.58196,-0.05537 -0.90783,-0.08596c-2.33301,0.3917 -4.64943,0.76848 -6.86681,1.2124l-2.90017,0.58004c-0.29611,0.06531 -0.60381,0.09974 -0.91955,0.09974c-0.78397,0 -1.51835,-0.21227 -2.14882,-0.58246c-1.5417,0.30212 -2.69781,0.43187 -4.13043,1.23195c-1.16685,0.65166 -1.92807,1.88306 -2.94127,2.74952c0.51932,0.57221 0.95684,1.36946 1.47531,1.88794l1.2448,3.60245c0,0 0,4.25 -4.25,4.25z" fill="#ff0000" stroke="none" stroke-width="0.5" stroke-linecap="butt"/><path d="M219.90322,250.60483l0.59725,-35.83471" fill="none" stroke="#bd0000" stroke-width="5" stroke-linecap="round"/><path d="M249.16823,252.39657l0.59725,-32.84849" fill="none" stroke="#bd0000" stroke-width="5" stroke-linecap="round"/><path d="M207.95832,188.4913l-1.19449,41.80717" fill="none" stroke="#bd0000" stroke-width="5" stroke-linecap="round"/><path d="M214.52801,134.73917c0,2.30895 -0.93589,4.18072 -2.09036,4.18072c-1.15447,0 -2.09036,-1.87177 -2.09036,-4.18072c0,-2.30895 0.93589,-4.18072 2.09036,-4.18072c1.15447,0 2.09036,1.87177 2.09036,4.18072z" fill="#000000" stroke="#7b0000" stroke-width="5" stroke-linecap="butt"/><path d="M267.90488,135.55847c0,2.30894 -0.93588,4.18072 -2.09035,4.18072c-1.15448,0 -2.09036,-1.87178 -2.09036,-4.18072c0,-2.30894 0.93588,-4.18072 2.09036,-4.18072c1.15447,0 2.09035,1.87177 2.09035,4.18072z" fill="#000000" stroke="#7b0000" stroke-width="5" stroke-linecap="butt"/><path d="M205.05815,152.86414c0.55781,-1.92637 1.09208,-4.54167 2.55042,-6.05834c0.7407,-0.77033 1.89463,-0.99197 2.8102,-1.54313c2.98895,-1.79932 5.65041,-2.9438 8.81196,-3.94055c0.62464,-0.64228 0.2845,-2.78074 0.28049,-3.08618c-0.03617,-2.7516 -0.59152,-5.46339 -0.37659,-8.2176c0.32805,-4.2037 2.66264,-6.89682 4.46927,-10.51269c2.39804,-4.79953 4.87575,-10.10057 6.34113,-15.26665c0,0 0.6868,-2.40381 3.09061,-1.71701c0.77763,0.22218 1.23182,0.62405 1.49046,1.06609c0.87322,0.09126 1.61271,0.63201 1.98293,1.38675c0.04726,0.02423 0.09498,0.05008 0.14315,0.07761c2.17061,1.24035 0.93026,3.41096 0.93026,3.41096c-3.74149,6.54276 -8.06334,14.46224 -9.68033,21.87067c-0.97704,4.4764 0.8457,9.65706 -0.43517,13.98658c-1.37492,4.64745 -5.83984,6.75287 -9.83119,8.46515c-1.7235,0.73532 -3.50623,1.32988 -5.29572,1.88563c-0.38994,0.1211 -0.97926,0.06772 -1.14239,0.44203c-0.20368,0.46733 0.1972,1.00032 0.29581,1.50048v0.38288c0,0 0,2.5 -2.5,2.5c-2.5,0 -2.5,-2.5 -2.5,-2.5v-0.38288c0.01877,-0.24485 0.01771,-0.49584 0.00814,-0.74946c-2.07647,-0.78476 -1.44345,-3.00034 -1.44345,-3.00034z" fill="#ffd200" stroke="none" stroke-width="0.5" stroke-linecap="butt"/><path d="M228.17123,152.66075c0.4925,-0.04809 0.99238,-0.07429 1.49749,-0.07832c0.34736,0.02836 0.66027,0.02622 0.94591,-0.00228c1.03857,-0.70571 1.26433,-2.42462 2.17192,-3.38029c1.52683,-1.60772 3.66081,-2.65162 5.78759,-3.2783c2.30507,-1.54337 4.7295,-4.13966 5.5548,-6.89955c1.3793,-4.61249 0.66029,-9.17294 3.287,-13.52715c0.61277,-1.01577 1.17126,-2.10805 2.03927,-2.91663c0.97953,-0.91248 3.22043,-0.66902 3.49442,-1.97938c0.09828,-0.47002 -0.24772,-0.91138 -0.41974,-1.37501c-0.27847,-0.53229 -0.4913,-1.07663 -0.4743,-1.66317c0.01331,-0.45897 0.08961,-0.91372 0.21935,-1.36197c-0.03921,-3.52456 0.69698,-7.27387 3.30627,-9.70123c0.78371,-0.72907 1.88915,-1.007 2.83372,-1.5105c0,0 2.23607,-1.11804 3.35411,1.11803c0.24231,0.48462 0.32707,0.91673 0.31119,1.29632c0.74142,-0.07363 1.73493,0.11581 2.36893,1.3838c1.11804,2.23607 -1.11803,3.35411 -1.11803,3.35411c-0.84011,0.40453 -2.08173,1.08437 -3.20135,1.90939l0.35238,2.81909l-0.33465,0.04183c0.85298,2.39529 1.225,4.96538 0.05814,7.19103c-0.92856,1.77111 -3.59868,1.87261 -5.03092,3.26824c-0.90059,0.87757 -1.36632,2.17203 -1.6319,3.40112c-0.17269,0.79918 0.16248,1.64369 0.04271,2.45249c-0.56479,3.81405 -2.41531,8.23845 -4.00672,11.74142c-0.52101,1.14682 -0.77949,2.47905 -1.62756,3.41041c-2.22949,2.44845 -6.90113,3.14199 -9.63956,4.97168c-1.32473,0.88512 -3.79802,3.58908 -5.11181,4.08716c-1.1016,0.41764 -2.35413,0.09955 -3.53119,0.14932c-2.20336,-0.02282 -3.73775,0.4549 -4.85304,1.31887c-0.08225,0.70296 -0.2628,1.3951 -0.31076,2.10148c-0.16387,2.41374 0.51271,4.84376 -1.49169,6.95079c-0.92217,0.96938 -2.5074,0.93453 -3.76109,1.4018l0.78351,0.24572c0,0 -1.11803,2.23607 -3.3541,1.11803c-1.25895,-0.62948 -1.45468,-1.61336 -1.38534,-2.35304c-0.47009,-0.45455 -0.76237,-1.09185 -0.76237,-1.7974c0,-0.22871 0.03071,-0.45026 0.08824,-0.66073l0.75215,-3.00861l0.14714,0.03679c0.16042,-1.88358 0.55503,-3.66559 1.43547,-5.95651c0.4863,-1.26537 0.474,-2.89166 1.4968,-3.78132c0.68266,-0.59378 5.37877,-1.1749 6.64989,-1.35649l1.1193,-0.02513c0,0 1.21218,0 1.94839,0.84407z" fill="#ffd200" stroke="none" stroke-width="0.5" stroke-linecap="butt"/><path d="M225.44548,118.94896l0.48519,1.69815c0.07282,0.23453 0.11205,0.48385 0.11205,0.74233c0,1.38071 -1.11929,2.5 -2.5,2.5c-0.77872,0 -1.47428,-0.35604 -1.93277,-0.91421l-1.72766,-2.07318c-1.94974,-1.29471 -3.57859,-2.74169 -5.40587,-4.02544c-0.12273,-0.03043 -0.24551,-0.06132 -0.36834,-0.09264l-2.67262,-1.73766c0,0 -0.10234,-0.06823 -0.2465,-0.19712c-0.37162,-0.31257 -0.82164,-0.8327 -0.90296,-1.56037c-0.06514,-0.45637 0.01496,-0.98795 0.37262,-1.57821c0.33504,-0.60339 0.75684,-0.93667 1.1854,-1.10654c0.67214,-0.29042 1.347,-0.15774 1.80277,0.00983c0.18343,0.06121 0.29345,0.11622 0.29345,0.11622c0.97244,0.48838 1.86914,1.03151 2.72512,1.60767c3.60926,0.83121 7.83652,1.32151 10.46983,-1.52224c0,0 1.76777,-1.76776 3.53554,0c0.1225,0.1225 0.22802,0.245 0.31833,0.36691c0.46768,-0.43868 1.8024,-1.42075 3.34311,-0.13682c1.92056,1.60046 0.32009,3.52101 0.32009,3.52101c-2.23033,2.56064 -1.87188,3.64168 -2.53405,6.93984c-0.47261,2.35398 -1.23406,4.34756 -0.4461,6.79503c0.551,1.71143 1.43797,3.30723 1.9319,5.03599c0.38611,1.35141 0.74181,3.34077 1.75907,4.60864l0.74878,0.10697c0.81651,0.10337 1.51022,0.60058 1.88479,1.29525c2.2167,0.40159 5.00877,-0.16893 6.63476,-1.05125l0.87991,-0.60981c0,0 2.08012,-1.38675 3.46687,0.69338c1.38675,2.08013 -0.69338,3.46687 -0.69338,3.46687l-1.41734,0.92169c-1.88488,0.89283 -4.0098,1.3992 -6.09541,1.41256c-2.50893,0.01608 -4.6986,0.25006 -7.01095,-1.11107c-0.20807,-0.12248 -0.40651,-0.25193 -0.59593,-0.38782l-0.1363,-0.01947c-2.57712,0.3991 -5.01053,1.1178 -7.60115,1.49323c0,0 -2.47487,0.35356 -2.82843,-2.12132c-0.35356,-2.47487 2.12132,-2.82843 2.12132,-2.82843c0.7184,-0.10095 1.42557,-0.22491 2.12733,-0.36013c-0.42011,-0.25335 -0.75964,-0.62679 -0.97106,-1.07278l-0.65251,-1.30503c-0.38455,-0.53735 -0.64003,-0.98764 -0.70354,-1.27849c-0.06963,-0.31886 -0.03761,-0.631 0.05316,-0.93926l-0.08544,-0.60982c0,0 0,-1.48856 1.14863,-2.16842c0,-0.86542 0,-1.66033 0,-1.66033c0,-0.74692 0.32755,-1.41733 0.84684,-1.87543c-0.58035,-3.67983 0.06782,-7.96484 1.51827,-11.61692c-0.7711,0.42375 -1.56455,0.74934 -2.3767,0.9907c0.14936,0.71009 -0.07493,1.37925 -0.18015,1.63792z" fill="#ffd200" stroke="none" stroke-width="0.5" stroke-linecap="butt"/><path d="M235.99997,151.28301c0.35356,-2.47487 2.82843,-2.12132 2.82843,-2.12132l2.68013,0.38288c0.06837,0.01049 0.13663,0.02128 0.2048,0.03238c-0.10547,-0.70349 0.04543,-1.60278 1.1179,-2.31776c2.08013,-1.38675 3.46687,0.69338 3.46687,0.69338c2.05579,3.29786 6.95867,5.50625 10.54075,7.03812l2.86687,0.71672c1.1133,0.25265 1.94439,1.24829 1.94439,2.43804c0,1.38071 -1.11929,2.5 -2.5,2.5h-2.68013v-0.15134c-0.21147,0.03465 -0.42522,0.0579 -0.64167,0.06759c-1.19436,0.05346 -2.07932,-1.18367 -3.15285,-1.70986c-3.66981,-1.79879 -7.84257,-3.83904 -11.87404,-4.35751l-2.68013,-0.38288c0,0 -2.47487,-0.35355 -2.12132,-2.82843z" fill="#ffd200" stroke="none" stroke-width="0.5" stroke-linecap="butt"/><path d="M211.24504,112.26161c0.69338,-1.04006 1.73344,-0.34669 1.73344,-0.34669l0.12793,0.12807c1.40858,0.51297 2.67935,1.06342 3.98974,1.78991c2.36389,1.36317 6.85118,0.42579 9.04908,-1.10974c1.50641,-1.05242 2.56775,-3.77259 3.4267,-5.34359c0.83712,-1.53106 0.03419,-3.59846 2.45392,-4.19294c1.60349,-0.39395 3.44656,1.89146 4.46707,2.7844c0,0 0.94072,0.82313 0.11759,1.76385c-0.82313,0.94072 -1.76385,0.11759 -1.76385,0.11759c-0.73172,-0.64026 -1.57208,-1.68483 -2.36442,-2.20784c-0.35981,-0.2375 0.17661,0.87414 0.06874,1.29156c-0.14874,0.57558 -0.4975,1.08025 -0.76781,1.60973c-0.85584,1.67642 -1.83316,3.42714 -3.00335,4.9062c-2.601,3.28749 -9.29797,4.51158 -12.89779,2.56618c-1.19696,-0.66647 -2.3408,-1.15776 -3.62999,-1.62582l-0.66032,-0.39743c0,0 -1.04007,-0.69337 -0.34669,-1.73343z" fill="#fff9de" stroke="none" stroke-width="0.5" stroke-linecap="butt"/><path d="M207.16149,156.24487c-1.25,0 -1.25,-1.25 -1.25,-1.25l0.00432,-0.6293c0.10501,-1.24155 0.08841,-3.23194 0.42977,-4.41374c1.24667,-4.31598 8.46666,-6.35774 12.34956,-6.98217c1.62009,-1.50809 1.27344,-3.10069 1.27344,-5.18488c0,-2.90327 -0.0735,-5.90083 0.2678,-8.78298c0.31665,-2.67405 2.66364,-2.77181 3.1867,-4.92609c0.29614,-1.2197 -0.44386,-2.94107 -0.55912,-4.17609c0,0 -0.11317,-1.24487 1.1317,-1.35804c1.24487,-0.11317 1.35804,1.13169 1.35804,1.13169c0.22614,2.56566 1.26764,4.64893 -0.55524,6.96602c-0.52069,0.66187 -1.5726,0.85551 -1.94715,1.60977c-0.46195,0.93027 -0.16794,2.85109 -0.25607,3.86372c-0.40905,4.70043 1.17765,9.72168 -2.79446,13.09909c-2.90174,0.65766 -6.43791,1.53338 -8.92019,3.20057c-0.68322,0.45888 -1.91722,1.26828 -2.11495,2.16648c-0.26048,1.1833 -0.25764,2.76417 -0.35847,3.99425l0.00431,0.42169c0,0 0,1.25 -1.25,1.25z" fill="#fff9de" stroke="none" stroke-width="0.5" stroke-linecap="butt"/><path d="M242.18207,141.58728c-0.78087,-0.97609 0.19522,-1.75696 0.19522,-1.75696l0.49702,-0.37254c0.73701,-0.84148 1.94117,-1.74842 2.45233,-2.76179c1.76765,-3.50434 0.55934,-7.7755 2.80039,-11.16134c1.21733,-1.09453 2.30506,-2.39214 3.7689,-3.1718c0.6515,-0.34699 1.80574,-0.17418 2.03367,-0.87624c0.10594,-0.32634 -1.18035,-2.86888 -1.23548,-3.22651c-0.76074,-4.9348 1.09216,-12.02759 6.54899,-13.10685c0,0 1.23299,-0.2055 1.43849,1.02749c0.2055,1.23299 -1.02749,1.4385 -1.02749,1.4385c-4.03109,0.47046 -4.95804,7.00757 -4.48648,10.27783c0.20323,1.40934 1.67685,2.86818 1.12927,4.39323c-0.55777,1.55345 -4.87987,3.65402 -6.28391,4.88544c-1.58151,2.34392 -1.37757,6.23757 -1.94909,9.00718c-0.44713,2.16678 -1.92522,3.339 -3.30815,4.92112l-0.81672,0.67846c0,0 -0.97609,0.78087 -1.75696,-0.19522z" fill="#fff9de" stroke="none" stroke-width="0.5" stroke-linecap="butt"/><path d="M217.80284,167.28035c-1.25,0 -1.25,-1.25 -1.25,-1.25l0.0062,-0.78126c0.36118,-3.5728 1.64576,-7.02991 2.79148,-10.41158c3.08927,-1.58157 6.14652,-0.79168 9.36595,-1.82026c4.90473,-1.56701 9.94288,-5.56133 13.74259,-8.94112c0,0 0.93426,-0.83046 1.76471,0.1038c0.83046,0.93426 -0.1038,1.76472 -0.1038,1.76472c-4.0396,3.58824 -9.41952,7.79798 -14.63433,9.45133c-2.74362,0.86987 -5.49274,0.41251 -8.23826,1.06999c-0.46823,3.05942 -1.89242,5.91124 -2.20075,9.03187l0.0062,0.5325c0,0 0,1.25 -1.25,1.25z" fill="#fff9de" stroke="none" stroke-width="0.5" stroke-linecap="butt"/><path d="M241.0155,152.77349c-0.80023,-0.96027 0.16005,-1.76051 0.16005,-1.76051l1.36487,-0.92643c3.82068,-0.64775 6.37227,1.20555 9.52417,3.04036c0,0 1.07972,0.62983 0.44988,1.70956c-0.62984,1.07972 -1.70956,0.44989 -1.70956,0.44989c-2.51433,-1.46952 -4.74239,-3.35079 -7.81728,-2.74013l-0.21162,0.38731c0,0 -0.96028,0.80023 -1.76051,-0.16004z" fill="#fff9de" stroke="none" stroke-width="0.5" stroke-linecap="butt"/><path d="M231.76506,203.85531c-1.04006,0.69338 -1.73343,-0.34669 -1.73343,-0.34669l-0.36496,-0.57982c-0.17829,-0.40133 -0.35657,-0.80267 -0.53486,-1.204c-1.02754,-2.57391 -2.325,-5.41178 -2.83637,-8.1411c-0.66936,-3.57255 1.17427,-12.04184 4.86114,-13.81948c1.01866,-0.49115 2.49023,-0.39825 3.59359,-0.40129c0,0 1.25,0 1.25,1.25c0,1.25 -1.25,1.25 -1.25,1.25c-3.01065,-0.00956 -3.49813,1.17366 -4.62885,3.83415c-2.33926,5.50409 -0.79778,9.78844 1.31375,15.05563c0.17204,0.38691 0.34408,0.77383 0.51613,1.16074l0.16055,0.20842c0,0 0.69337,1.04006 -0.34669,1.73344z" fill="#fff9de" stroke="none" stroke-width="0.5" stroke-linecap="butt"/><path d="M213.36954,109.63752c-0.4924,-1.14893 0.65653,-1.64133 0.65653,-1.64133l0.7689,-0.31705c1.66837,-1.00049 2.96612,-2.504 4.62883,-3.43358c2.32605,-1.30043 5.12341,-1.34096 7.70664,-1.34267c0,0 1.25,0 1.25,1.25c0,1.25 -1.25,1.25 -1.25,1.25c-5.14066,-0.00364 -6.88178,1.91823 -11.04923,4.41998l-1.07034,0.47119c0,0 -1.14893,0.4924 -1.64133,-0.65653z" fill="#ffdede" stroke="none" stroke-width="0.5" stroke-linecap="butt"/><path d="M208.34387,127.99932c-1.25,0 -1.25,-1.25 -1.25,-1.25l0.01325,-1.49527c0.84867,-2.91853 1.74817,-5.68913 2.98472,-8.47138c0,0 0.50768,-1.14227 1.64994,-0.63459c1.14227,0.50768 0.63459,1.64994 0.63459,1.64994c-1.14318,2.57214 -1.96086,5.13952 -2.79576,7.81907l0.01325,1.13223c0,0 0,1.25 -1.25,1.25z" fill="#ffdede" stroke="none" stroke-width="0.5" stroke-linecap="butt"/><path d="M210.44586,134.8308c-1.25,0 -1.25,-1.25 -1.25,-1.25l0.0062,-0.51851c0.33875,-3.17685 1.5719,-5.14329 4.87247,-3.59581c0,0 1.0927,0.60706 0.48564,1.69975c-0.60706,1.09269 -1.69975,0.48565 -1.69975,0.48565c-1.31208,-1.04161 -1.07034,0.56291 -1.17077,1.65918l0.00621,0.26975c0,0 0,1.25 -1.25,1.25z" fill="#ffdede" stroke="none" stroke-width="0.5" stroke-linecap="butt"/><path d="M264.70334,138.38485c0.15596,0.17962 0.73918,0.95428 -0.03549,1.72895c-0.88389,0.88388 -1.76776,0 -1.76776,0l-0.38975,-0.50759c-1.39694,-3.15157 -1.92135,-5.73036 0.27364,-8.74603c0,0 0.75,-1 1.75,-0.25c1,0.75 0.25,1.75 0.25,1.75c-1.66595,2.12874 -1.03339,3.87191 -0.08063,6.02467z" fill="#ffdede" stroke="none" stroke-width="0.5" stroke-linecap="butt"/><path d="M212.67923,185.80417c-1.25,0 -1.25,-1.25 -1.25,-1.25l0.02016,-0.48636c0.65764,-3.50763 3.15001,-5.77346 5.22208,-8.54025c0,0 0.75,-1 1.75,-0.25c1,0.75 0.25,1.75 0.25,1.75c-1.78492,2.37667 -4.23585,4.47666 -4.7624,7.48746l0.02016,0.03914c0,0 0,1.25 -1.25,1.25z" fill="#ffdede" stroke="none" stroke-width="0.5" stroke-linecap="butt"/><path d="M205.09675,145.66105c-1.11803,0.55901 -1.67705,-0.55902 -1.67705,-0.55902l-0.16684,-0.33658c-0.60051,-1.352 -1.17257,-2.49619 -1.50413,-3.94453c-2.19032,-9.91816 -0.13292,-21.80592 5.45698,-30.2009c4.93553,-7.3808 12.8512,-14.43876 22.10848,-13.67301c0,0 1.24568,0.1038 1.14187,1.34948c-0.1038,1.24568 -1.34949,1.14188 -1.34949,1.14188c-8.27409,-0.69491 -15.43973,5.9748 -19.82073,12.5684c-5.20967,7.80563 -7.1632,19.03605 -5.09663,28.27182c0.27343,1.27901 0.81618,2.2752 1.3482,3.47151l0.11838,0.23389c0,0 0.55902,1.11804 -0.55902,1.67705z" fill="#ffdede" stroke="none" stroke-width="0.5" stroke-linecap="butt"/><path d="M328.00461,162.21249l-99.14271,-0.59725" fill="none" stroke="#7b0000" stroke-width="5" stroke-linecap="round"/><path d="M230.74028,163.44479c-0.17677,1.23744 -1.41422,1.06066 -1.41422,1.06066l-1.70542,-0.49617c-0.43132,-0.48948 -0.86264,-0.97896 -1.29396,-1.46844c0.09894,-0.80409 -0.12507,-1.72062 0.2968,-2.41226c1.03651,-1.69932 4.78734,-1.38986 6.44477,-1.39074c6.14395,-0.00327 12.24337,0.57047 18.39751,0.57047c0,0 1.25,0 1.25,1.25c0,1.25 -1.25,1.25 -1.25,1.25c-5.67657,0 -11.31161,-0.57047 -16.97135,-0.57047c-0.62592,0 -5.8521,-0.10565 -5.80866,0.47549c0.23422,0.17606 0.46844,0.35213 0.70266,0.52819l0.29121,-0.21094c0,0 1.23744,0.17678 1.06066,1.41422z" fill="#ffdede" stroke="none" stroke-width="0.5" stroke-linecap="butt"/></g></g></svg>