<svg version="1.1" xmlns="http://www.w3.org/2000/svg" xmlns:xlink="http://www.w3.org/1999/xlink" width="167.81533" height="158.10528" viewBox="0,0,167.81533,158.10528"><g transform="translate(-166.8092,-96.79128)"><g data-paper-data="{&quot;isPaintingLayer&quot;:true}" fill-rule="nonzero" stroke-linejoin="miter" stroke-miterlimit="10" stroke-dasharray="" stroke-dashoffset="0" style="mix-blend-mode: normal"><path d="M238.6252,175.45326l0.42528,0.02513c4.6352,-0.35592 4.35543,-5.01822 5.33753,-8.68601c0.8731,-3.26073 2.38859,-5.42329 3.59992,-8.46316c1.72304,-4.32404 2.75655,-9.40442 3.32932,-14.02105c-0.0138,-9.57084 -0.66458,-18.58193 -5.52656,-27.04911c-0.79389,-1.38256 -1.30172,-3.01654 -2.40497,-4.22493c-4.22993,-4.63303 -11.05878,-7.10211 -16.64896,-9.4979c0,0 -0.1524,-0.06531 -0.36188,-0.20155c-0.13115,0.01427 -0.21099,0.01427 -0.21099,0.01427c-8.96929,-0.0192 -17.97923,1.26928 -26.78856,-0.42828c0.37942,1.91455 0.26693,4.08112 -0.10792,5.11564c-1.30997,3.61527 -6.1171,5.15486 -10.23258,6.08897c1.15205,0.8053 2.15009,1.59257 2.24959,1.7462c0.27759,0.42858 1.23846,6.44316 1.14223,7.11255c-0.89085,6.19704 -6.57837,9.32952 -12.44744,10.93614c1.2858,0.9278 2.21886,2.07528 2.33204,3.28752c0.10326,1.10594 -0.62142,2.04436 -1.35583,2.9808c0.5158,0.24673 1.02175,0.55214 1.55835,0.71983c2.27775,0.71181 4.71652,1.29137 6.61544,2.73668c3.5029,2.66612 6.34735,8.66375 4.71203,13.00383c-0.7008,1.85988 -1.43033,2.74253 -2.42164,3.44554c0.8452,0.34673 1.66445,0.81238 2.3064,1.18258c1.28586,0.74151 3.27794,1.13482 3.63209,2.5763c0.73255,2.98165 -0.66992,4.78146 -2.66885,6.0067c1.12875,0.20444 2.26016,0.39349 3.39557,0.5553c5.97395,0.85136 11.96943,2.40565 17.91161,3.11511c2.13502,0.25491 4.30628,-0.1774 6.45054,-0.01787c4.69372,0.3492 9.0576,1.56318 13.84174,1.55137h0.77883c0,0 0.73407,0 1.40667,0.39778c0.09509,-0.00836 0.151,-0.00836 0.151,-0.00836zM228.70635,98.9405c6.28111,2.6919 13.67307,5.53806 18.39846,10.75172c1.76955,1.95239 1.83103,2.98382 3.04685,5.12105c5.31663,9.34584 6.16985,19.24942 6.15592,29.80559c-0.64757,5.14971 -1.74292,10.74722 -3.68017,15.57454c-0.4603,1.14698 -2.21231,3.61345 -2.70094,4.99768c-1.77235,5.02084 -1.09208,11.72628 -6.6785,14.60884c-1.05055,0.54208 -2.32693,0.41881 -3.49039,0.62822l-1.13238,0.02513c0,0 -0.73407,0 -1.40667,-0.39778c-0.09509,0.00836 -0.151,0.00836 -0.151,0.00836h-0.77883c-2.8539,-0.00618 -6.09849,-0.03692 -8.9139,-0.41358c-1.78612,-0.23896 -3.48439,-1.02842 -5.28229,-1.15037c-2.73484,-0.18551 -3.74168,0.33609 -6.7896,-0.01787c-3.35749,-0.38991 -6.82413,-1.39589 -10.18786,-1.95673c-4.84736,-0.80821 -9.6984,-1.38386 -14.49851,-2.35317c-1.10095,-0.22232 -2.37422,0.12745 -3.33986,-0.44619c-0.12206,-0.07251 -0.24109,-0.14897 -0.35743,-0.22894l-0.03614,0.07228l-2.28805,-1.14403c-0.84561,-0.40086 -1.43041,-1.26228 -1.43041,-2.26029c0,-1.27327 0.95187,-2.32422 2.18283,-2.48007l2.48649,-0.35521c0.89092,-0.33786 1.78288,-0.67301 2.67262,-1.01397c0.50679,-0.19421 1.0037,-0.41501 1.51686,-0.59173c0.1164,-0.04009 0.37152,-0.09774 0.53476,-0.13216c-1.25533,0.17878 -5.15481,-0.68495 -6.08131,-1.2183c-0.11638,-0.067 -0.23053,-0.13713 -0.3427,-0.21004l-0.02991,0.05983l-2.28805,-1.14403c-0.84561,-0.40086 -1.43041,-1.26228 -1.43041,-2.26029c0,-0.99801 0.58479,-1.85943 1.43041,-2.26029l2.25694,-1.12847c1.64522,-0.87799 2.40515,-0.85263 3.09737,-2.5659c1.24075,-3.07093 -2.52214,-7.44074 -5.2168,-8.47047c-2.77417,-1.06012 -3.50235,-0.27721 -6.23012,-1.94686c-0.01657,-0.01014 -0.03311,-0.02033 -0.04962,-0.03055l-0.00362,0.00845l-2.67295,-1.14555c-0.91919,-0.36945 -1.56816,-1.26922 -1.56816,-2.32056c0,-0.99801 0.58479,-1.85943 1.43041,-2.26029l2.23339,-1.11669c-0.24373,-0.25309 -2.08955,-0.34594 -2.42576,-0.4008c-1.23568,-0.20162 -2.64037,0.17262 -3.72966,-0.44465c-0.12835,-0.07273 -0.25318,-0.15015 -0.37491,-0.2317l-0.03507,0.07013l-2.28805,-1.14403c-0.84561,-0.40086 -1.43041,-1.26228 -1.43041,-2.26029c0,-1.28702 0.97254,-2.3469 2.22282,-2.48481l3.08242,-0.3853l0.00069,0.00549l0.01631,-0.00756c3.73093,-0.40831 5.69676,-1.20264 9.12218,-2.57309c2.9999,-1.20021 5.67014,-1.53319 6.21621,-5.39676c0.09706,-0.68673 -0.31032,-1.35514 -0.38587,-2.04456c-0.06343,-0.5788 0.2731,-1.24912 -0.02956,-1.74653c-0.69739,-1.14615 -2.52524,-0.99303 -3.60604,-1.78809l-2.60968,-1.11844c-0.91919,-0.36945 -1.56816,-1.26922 -1.56816,-2.32056c0,-1.16178 0.79247,-2.13847 1.86634,-2.41899l2.67277,-0.76365l0.00677,0.02368l0.0652,-0.04309c2.39369,-0.53155 4.78625,-0.97638 7.09212,-1.84779c1.32546,-0.5009 3.21527,-0.797 3.67432,-2.13753c0.24917,-0.72763 -0.06621,-1.91942 -0.5769,-3.16618l-0.04942,0.04942l-1.94708,-1.94708c-0.45241,-0.45241 -0.73223,-1.07741 -0.73223,-1.76777c0,-1.38071 1.11929,-2.5 2.5,-2.5c0.1348,0 0.26711,0.01067 0.39613,0.03121l2.68334,0.38333l-0.00857,0.06001l0.17641,-0.03016c9.50175,2.69585 19.32911,1.13189 29.07421,1.11327c0,0 0.71479,0 1.37996,0.38221c0.64717,-0.01151 1.1625,0.20934 1.1625,0.20934z" fill="#000000" stroke="none" stroke-width="0.5" stroke-linecap="butt"/><path d="M234.8774,218.50271c1.09712,-2.48782 1.70641,-5.08412 2.66313,-7.65508c0.94334,-2.50113 2.6168,-4.75561 2.89669,-7.49839c0.72028,-7.05844 -2.05703,-12.7242 -4.56874,-18.89229c-1.20693,-2.96391 -2.32649,-7.50214 -4.73094,-9.53799c-1.38118,-1.16944 -1.79499,-0.73987 -3.53124,-1.12628c-2.00351,-0.44589 -3.97233,-1.32064 -5.70446,-2.56364c-6.19606,-0.02982 -12.65596,0.93726 -18.67485,2.46381c0.00791,0.01014 0.0146,0.01981 0.02002,0.02901c0.84614,1.43541 0.71099,3.52972 0.2737,5.18811c-0.60963,2.31198 -3.14844,3.44926 -4.77521,4.39469c-2.03748,1.18411 -4.02063,1.88858 -6.03834,2.45341c2.96795,1.54286 5.35452,4.65962 4.3799,8.2839c-0.25303,0.94091 -1.33175,1.94586 -2.39796,2.45889c0.52824,0.50327 0.99771,1.09769 1.40361,1.72115c1.80856,2.778 1.98254,4.72965 0.50025,7.86875c-1.10002,2.32954 -3.17625,3.62597 -5.55933,4.44326c3.47146,0.53658 7.09615,1.48638 10.16363,2.82875c2.8408,1.24317 5.67941,2.22953 5.48396,6.69509c0.29688,0.07514 0.59383,0.15712 0.88817,0.20033c1.59223,0.23376 3.19978,0.3692 4.80501,0.36729c4.18873,-0.00499 8.37749,0 12.56622,0c3.18839,0 6.22575,-0.05772 9.32934,-0.40028zM233.68731,170.86275c3.18591,2.63422 4.54523,7.57719 6.13714,11.49046c2.82038,6.93314 5.94597,13.65012 4.94083,21.60694c-0.44507,3.52324 -2.05039,5.70373 -3.2166,8.85707c-0.86531,2.30369 -1.46737,4.6069 -2.34199,6.87059c0.41844,0.23034 0.81311,0.67128 1.04789,1.47886c0.68949,2.37171 -1.37898,3.16227 -1.37898,3.16227l-1.40002,0.49258c-4.22991,0.69286 -8.26561,0.80396 -12.53494,0.80396c-5.9355,0 -12.07022,0.51694 -17.95005,-0.41153c-2.31203,-0.36508 -5.71058,-0.24577 -6.64153,-3.8802c-0.27634,-1.07885 1.46563,-1.50369 2.10659,-2.35468c0.09353,-0.12418 -0.28045,0.15824 -0.4179,0.11263c-0.77582,-0.25745 -1.48925,-0.72508 -2.26014,-1.00131c-1.72208,-0.61707 -3.50299,-0.99292 -5.25302,-1.49611c-2.41873,-0.69547 -4.93745,-1.31313 -7.43718,-1.48931c-1.6315,-0.11498 -4.35688,0.25805 -5.96836,-0.41541c-0.02524,-0.01055 -0.05044,-0.02118 -0.07562,-0.03191l-0.00273,0.01564l-3.35667,-0.76975c-1.01908,-0.20987 -1.79237,-1.23165 -1.79237,-2.46053c0,-1.05134 0.56599,-1.95111 1.36766,-2.32056l2.33121,-1.14555l0.02437,0.0652l0.13844,-0.13652c1.93604,-0.56029 4.12099,-1.22695 6.07879,-1.64796c2.3832,-0.51251 5.40578,-0.10092 7.00245,-2.70249c2.00005,-3.25882 -5.57235,-4.78916 -4.63722,-8.74549c0.38863,-1.64424 2.58894,-1.67961 3.9362,-2.39778c0.2717,-0.14484 0.74073,0.12751 0.88617,-0.17287c0.33442,-0.69067 -0.95307,-1.22607 -1.59852,-1.50238c-0.63961,-0.27381 -1.31015,-0.44501 -1.97594,-0.61834c-1.14123,-0.2971 -2.38549,-0.21551 -3.44218,-0.7922c-0.04115,-0.02246 -0.08212,-0.04524 -0.12294,-0.06835l-0.00692,0.02381l-3.00895,-1.15002c-0.89095,-0.31418 -1.53857,-1.26533 -1.53857,-2.38993c0,-1.16178 0.69115,-2.13847 1.62772,-2.419l2.33105,-0.76364l0.00342,0.01373l0.03159,-0.02484c3.17357,-0.90631 6.53055,-0.98515 9.4958,-2.57894c1.25054,-0.67215 2.53049,-1.28813 3.71803,-2.09665c0.45372,-0.30892 1.75767,-1.08239 1.23233,-1.13939c-1.16726,-0.12664 -2.49337,0.80837 -3.51504,0.1488c-0.14684,-0.0948 -0.28881,-0.19716 -0.42666,-0.30596l-0.04748,0.1089l-1.99552,-1.14402c-0.7375,-0.40086 -1.24752,-1.26228 -1.24752,-2.26029c0,-1.27327 0.83017,-2.32422 1.90375,-2.48007l2.23472,-0.36604c10.41846,-3.43006 22.93681,-5.25431 33.67152,-3.52292c0,0 2.15845,0.35355 1.8501,2.82843c-0.00637,0.05115 -0.01353,0.10109 -0.02146,0.14986c0.51772,0.25294 1.02456,0.56748 1.51528,0.97323z" fill="#000000" stroke="none" stroke-width="0.5" stroke-linecap="butt"/><path d="M261.71038,195.65827v35.23747" fill="none" stroke="#000000" stroke-width="5" stroke-linecap="round"/><path d="M264.51207,196.08594c0,14.6783 -14.07973,26.57741 -31.44795,26.57741c-17.36822,0 -31.44795,-11.89911 -31.44795,-26.57741c0,-14.6783 14.07972,-26.57741 31.44795,-26.57741c17.36822,0 31.44795,11.89911 31.44795,26.57742z" fill="#ff9b00" stroke="#000000" stroke-width="5" stroke-linecap="butt"/><path d="M277.40001,138.01201c0,19.95589 -10.29474,36.13334 -22.99394,36.13334c-12.69921,0 -22.99394,-16.17745 -22.99394,-36.13334c0,-19.95589 10.29474,-36.13334 22.99394,-36.13334c12.69921,0 22.99394,16.17745 22.99394,36.13334z" fill="#ff9b00" stroke="#000000" stroke-width="5" stroke-linecap="butt"/><path d="M234.29862,220.34356c-3.10359,0.34257 -6.15257,0.40861 -9.34096,0.40861c-4.18874,0 -8.40138,-0.00163 -12.5901,0.00336c-1.60522,0.00191 -3.2217,-0.1363 -4.81393,-0.37006c-0.29434,-0.04321 -0.59287,-0.12592 -0.88975,-0.20106c0.19546,-4.46555 -2.65601,-5.46173 -5.49682,-6.7049c-3.06749,-1.34237 -6.70075,-2.30537 -10.17221,-2.84195c2.38307,-0.81729 4.45849,-2.11565 5.55851,-4.44519c1.48229,-3.13911 1.30452,-5.10666 -0.50404,-7.88465c-0.40589,-0.62346 -0.87558,-1.22175 -1.40382,-1.72502c1.06621,-0.51303 2.14509,-1.52355 2.39812,-2.46446c0.97462,-3.62428 -1.40921,-6.7546 -4.37716,-8.29746c2.01771,-0.56483 4.00493,-1.27848 6.0424,-2.4626c1.62677,-0.94543 4.17442,-2.09412 4.78406,-4.4061c0.43729,-1.65839 0.57651,-3.75613 -0.26963,-5.19154c-0.00542,-0.0092 -0.0121,-0.01887 -0.02002,-0.02901c6.01889,-1.52655 12.51441,-2.49979 18.71047,-2.46996c1.73214,1.243 3.71182,2.12321 5.71533,2.5691c1.73624,0.38641 2.1553,-0.03884 3.53647,1.1306c2.40445,2.03585 3.53504,6.59011 4.74197,9.55402c2.51171,6.16809 5.29217,11.86885 4.57188,18.92729c-0.27989,2.74278 -1.95811,5.01024 -2.90145,7.51137c-0.95672,2.57096 -1.57308,5.17748 -2.6702,7.6653z" data-paper-data="{&quot;noHover&quot;:false,&quot;origItem&quot;:[&quot;Path&quot;,{&quot;applyMatrix&quot;:true,&quot;segments&quot;:[[[469.7548,437.00542],[0,0],[2.19424,-4.97565]],[[475.08106,421.69526],[-1.91343,5.14192],[1.88668,-5.00226]],[[480.87444,406.69848],[-0.55978,5.48557],[1.44057,-14.11688]],[[471.73697,368.9139],[5.02342,12.33618],[-2.41387,-5.92782]],[[462.27508,349.83792],[4.8089,4.07171],[-2.76235,-2.33889]],[[455.21261,347.58535],[3.47249,0.77282],[-4.00702,-0.89178]],[[443.80368,342.45807],[3.46428,2.486],[-12.39212,-0.05965]],[[406.45397,347.3857],[12.03779,-3.0531],[0.01583,0.02028]],[[406.494,347.44372],[-0.01084,-0.01839],[1.69228,2.87082]],[[407.04141,357.81994],[0.87458,-3.31678],[-1.21927,4.62396]],[[397.49099,366.60931],[3.25354,-1.89085],[-4.07495,2.36823]],[[385.41432,371.51613],[4.03541,-1.12965],[5.93591,3.08572]],[[394.17412,388.08393],[1.94923,-7.24857],[-0.50605,1.88183]],[[389.37819,393.00172],[2.13242,-1.02606],[1.05648,1.00654]],[[392.18541,396.44402],[-0.81179,-1.24692],[3.61713,5.55599]],[[393.1859,412.18153],[2.96459,-6.27821],[-2.20003,4.65908]],[[382.06725,421.06806],[4.76615,-1.63458],[6.94292,1.07316]],[[402.39452,426.72556],[-6.13498,-2.68473],[5.68161,2.48633]],[[413.36243,440.11573],[0.39091,-8.93111],[0.59376,0.15029]],[[415.13877,440.51638],[-0.58868,-0.08642],[3.18445,0.46751]],[[424.74879,441.25097],[-3.21045,0.00382],[8.37746,-0.00998]],[[449.88123,441.25097],[-8.37747,0],[6.37677,0]],[[468.53991,440.4504],[-6.20718,0.68513],[0,0]]],&quot;closed&quot;:true}]}" fill="#ff9b00" stroke="none" stroke-width="0.5" stroke-linecap="butt"/><path d="M252.09367,137.19277c0,19.95589 -10.29474,36.13333 -22.99394,36.13333c-12.69921,0 -22.99394,-16.17744 -22.99394,-36.13333c0,-19.95589 10.29474,-36.13334 22.99394,-36.13334c12.69921,0 22.99394,16.17745 22.99394,36.13334z" fill="#ff9b00" stroke="#000000" stroke-width="5" stroke-linecap="butt"/><path d="M332.12452,162.27704c0,10.39025 -26.87328,18.81322 -60.02315,18.81322c-33.14987,0 -60.02314,-8.42297 -60.02314,-18.81322c0,-10.39025 26.87327,-18.81322 60.02314,-18.81322c33.14987,0 60.02315,8.42297 60.02315,18.81322z" fill="#ff9b00" stroke="#000000" stroke-width="5" stroke-linecap="butt"/><path d="M220.05025,167.63074c-2.58837,0 -3.60035,-1.57639 -3.99601,-2.80903c-2.92809,-2.81694 -5.63683,-5.31952 -4.00256,-10.47516c0.46761,-1.47515 2.53128,-1.78641 3.72181,-2.77502c4.05665,-3.36864 6.91665,-5.10032 12.2194,-6.15675c0.73209,0.02803 1.44675,-0.12101 2.15663,-0.3244c0.06741,-0.08666 0.13688,-0.17204 0.20852,-0.25604c1.00154,-1.17435 2.91153,-1.02621 4.35601,-1.56991c1.45134,-0.54629 2.73026,-1.05399 3.98874,-1.47596c0.04084,-0.06222 0.08253,-0.12399 0.12511,-0.18528c0.80109,-1.15311 2.40481,-1.4958 3.73288,-1.9515c1.17959,-0.40475 2.40077,-0.59748 3.64526,-0.65566c0.01223,-0.07873 0.0272,-0.15841 0.04508,-0.23899c-1.20753,-1.03082 -2.43366,-2.03527 -2.87291,-3.49622c-0.77695,-2.5842 -2.55745,-5.90356 -0.91379,-8.04368c0.87874,-1.14415 2.38452,-1.25258 3.9887,-1.11228c-0.54175,-0.44813 -1.08107,-0.8858 -1.61982,-1.31597c-0.67288,-0.14054 -1.18376,-0.63037 -1.49049,-0.57634c0,0 -0.25,0 -0.25,-0.25c0,-0.25 0.25,-0.25 0.25,-0.25c0.05374,0.00483 0.10395,0.01175 0.15111,0.02046c-2.048,-1.59507 -4.10941,-3.11779 -6.28457,-4.73189c0,0 -3.4,-2.55 -0.85,-5.95c2.55,-3.4 5.95,-0.85 5.95,-0.85c1.47371,1.12054 3.21505,1.8505 4.71298,2.93845c1.59044,1.15512 2.43036,2.58141 3.88306,3.82057c2.05214,1.75048 4.90064,3.47335 6.39853,5.80128c1.11082,1.72638 3.11586,3.44337 2.82036,5.47487c-0.51918,3.56934 -2.61235,5.08078 -5.10468,5.59077c0.60806,0.84783 1.19428,1.70913 1.76962,2.57867c1.80818,-1.13729 3.73745,-2.06072 5.84208,-1.96663c1.20082,0.05369 2.41362,0.51847 3.53882,1.19825c0.34503,-1.03775 1.54408,-3.57876 4.88224,-2.91113c4.16747,0.83349 3.33397,5.00096 3.33397,5.00096c-0.35091,1.68541 -0.52858,3.41746 -0.51471,5.13896v2.98622c0,2.34721 -1.90279,4.25 -4.25,4.25c-0.89346,0 -1.72253,-0.2757 -2.40677,-0.74667c-1.67607,2.18226 -4.66156,2.76744 -7.32762,3.11497c-5.65969,0.73777 -11.88465,-1.2622 -17.49219,-1.78554c-0.27672,-0.02582 -0.58196,-0.05537 -0.90783,-0.08596c-2.33301,0.3917 -4.64943,0.76848 -6.86681,1.2124l-2.90017,0.58004c-0.29611,0.06531 -0.60381,0.09974 -0.91955,0.09974c-0.78397,0 -1.51835,-0.21227 -2.14882,-0.58246c-1.5417,0.30212 -2.69781,0.43187 -4.13043,1.23195c-1.16685,0.65166 -1.92807,1.88306 -2.94127,2.74952c0.51932,0.57221 0.95684,1.36946 1.47531,1.88794l1.2448,3.60245c0,0 0,4.25 -4.25,4.25z" fill="#ff9b00" stroke="none" stroke-width="0" stroke-linecap="butt"/><path d="M220.50048,214.77011l-0.59725,35.83471" fill="none" stroke="#000000" stroke-width="5" stroke-linecap="round"/><path d="M238.50084,175.50393c-0.67259,-0.39778 -1.40766,-0.39716 -1.40766,-0.39716l-0.77953,0.00041c-4.78414,0.01181 -9.16325,-1.19646 -13.85697,-1.54566c-2.14426,-0.15953 -4.32472,0.27373 -6.45975,0.01883c-5.94219,-0.70946 -11.96269,-2.27018 -17.93664,-3.12153c-1.13541,-0.16181 -2.27051,-0.35316 -3.39926,-0.5576c1.99893,-1.22524 3.39982,-3.02617 2.66728,-6.00782c-0.35415,-1.44147 -2.35167,-1.83947 -3.63753,-2.58097c-0.64196,-0.37019 -1.46384,-0.83868 -2.30904,-1.1854c0.99131,-0.70301 1.71967,-1.58707 2.42046,-3.44695c1.63532,-4.34008 -1.2194,-10.36068 -4.7223,-13.0268c-1.89893,-1.44531 -4.33831,-2.03056 -6.61607,-2.74237c-0.5366,-0.16769 -1.0426,-0.47425 -1.55839,-0.72098c0.73441,-0.93645 1.45915,-1.87927 1.3559,-2.98521c-0.11318,-1.21224 -1.0458,-2.36405 -2.33159,-3.29186c5.86907,-1.60662 11.56505,-4.76041 12.4559,-10.95745c0.09623,-0.66939 -0.85976,-6.68992 -1.13735,-7.1185c-0.0995,-0.15362 -1.09782,-0.9406 -2.24986,-1.7459c4.11548,-0.93411 8.93574,-2.48368 10.24571,-6.09895c0.37485,-1.03452 0.49014,-3.20245 0.11072,-5.117c8.80933,1.69756 17.85381,0.40672 26.8231,0.42592c0,0 0.08009,0.00008 0.21124,-0.01419c0.20948,0.13623 0.3624,0.2017 0.3624,0.2017c5.59018,2.39579 12.44056,4.87831 16.67048,9.51134c1.10325,1.20839 1.61514,2.84725 2.40902,4.22981c4.86197,8.46718 5.52182,17.51478 5.53563,27.08563c-0.57276,4.61664 -1.61273,9.71538 -3.33578,14.03942c-1.21132,3.03986 -2.73378,5.2116 -3.60688,8.47233c-0.9821,3.66779 -0.7113,8.33748 -5.3465,8.6934l-0.42562,-0.02491c0,0 -0.05604,0.00008 -0.15113,0.00844z" data-paper-data="{&quot;noHover&quot;:false,&quot;origItem&quot;:[&quot;Path&quot;,{&quot;applyMatrix&quot;:true,&quot;selected&quot;:true,&quot;segments&quot;:[[[238.6252,175.45326],[0,0],[0,0],7],[[239.05047,175.47839],[0,0],[4.6352,-0.35592],7],[[244.38801,166.79237],[-0.9821,3.66779],[0.8731,-3.26073],7],[[247.98792,158.32922],[-1.21132,3.03986],[1.72304,-4.32404],7],[[251.31724,144.30816],[-0.57276,4.61664],[-0.0138,-9.57084],7],[[245.79069,117.25905],[4.86197,8.46718],[-0.79389,-1.38256],7],[[243.38572,113.03412],[1.10325,1.20839],[-4.22993,-4.63303],7],[[226.73676,103.53622],[5.59018,2.39579],[0,0],7],[[226.37488,103.33468],[0.20948,0.13623],[-0.13115,0.01427],7],[[226.16389,103.34894],[0,0],[-8.96929,-0.0192],7],[[199.37533,102.92067],[8.80933,1.69756],[0.37942,1.91455],7],[[199.26741,108.0363],[0.37485,-1.03452],[-1.30997,3.61527],7],[[189.03483,114.12528],[4.11548,-0.93411],[1.15205,0.8053],7],[[191.28442,115.87148],[-0.0995,-0.15362],[0.27759,0.42858],7],[[192.42665,122.98402],[0.09623,-0.66939],[-0.89085,6.19704],7],[[179.97921,133.92016],[5.86907,-1.60662],[1.2858,0.9278],7],[[182.31125,137.20768],[-0.11318,-1.21224],[0.10326,1.10594],7],[[180.95543,140.18848],[0.73441,-0.93645],[0.5158,0.24673],7],[[182.51378,140.90831],[-0.5366,-0.16769],[2.27775,0.71181],7],[[189.12922,143.64499],[-1.89893,-1.44531],[3.5029,2.66612],7],[[193.84125,156.64882],[1.63532,-4.34008],[-0.7008,1.85988],7],[[191.41961,160.09436],[0.99131,-0.70301],[0.8452,0.34673],7],[[193.72601,161.27693],[-0.64196,-0.37019],[1.28586,0.74151],7],[[197.3581,163.85323],[-0.35415,-1.44147],[0.73255,2.98165],7],[[194.68925,169.85993],[1.99893,-1.22524],[1.12875,0.20444],7],[[198.08481,170.41523],[-1.13541,-0.16181],[5.97395,0.85136],7],[[215.99642,173.53035],[-5.94219,-0.70946],[2.13502,0.25491],7],[[222.44696,173.51247],[-2.14426,-0.15953],[4.69372,0.3492],7],[[236.2887,175.06384],[-4.78414,0.01181],[0,0],7],[[237.06753,175.06384],[0,0],[0,0],7],[[238.4742,175.46162],[-0.67259,-0.39778],[0.09509,-0.00836],7]],&quot;closed&quot;:true}]}" fill="#ff9b00" stroke="none" stroke-width="0.5" stroke-linecap="butt"/><path d="M249.16824,252.39656l0.59725,-32.84849" fill="none" stroke="#000000" stroke-width="5" stroke-linecap="round"/><path d="M217.45344,136.29684c0,2.30895 -0.93589,4.18072 -2.09036,4.18072c-1.15447,0 -2.09036,-1.87177 -2.09036,-4.18072c0,-2.30895 0.93589,-4.18072 2.09036,-4.18072c1.15447,0 2.09036,1.87177 2.09036,4.18072z" fill="#000000" stroke="#000000" stroke-width="5" stroke-linecap="butt"/><path d="M270.8303,137.11614c0,2.30894 -0.93588,4.18072 -2.09035,4.18072c-1.15448,0 -2.09036,-1.87178 -2.09036,-4.18072c0,-2.30894 0.93588,-4.18072 2.09036,-4.18072c1.15447,0 2.09035,1.87177 2.09035,4.18072z" fill="#000000" stroke="#000000" stroke-width="5" stroke-linecap="butt"/><path d="M330.93004,163.77015l-99.14271,-0.59725" fill="none" stroke="#000000" stroke-width="5" stroke-linecap="round"/><path d="M207.95833,188.49129l-1.19449,41.80717" fill="none" stroke="#000000" stroke-width="5" stroke-linecap="round"/></g></g></svg>