<svg version="1.1" xmlns="http://www.w3.org/2000/svg" xmlns:xlink="http://www.w3.org/1999/xlink" width="161.84251" height="103.89916" viewBox="0,0,161.84251,103.89916"><g transform="translate(-159.07876,-128.05043)"><g data-paper-data="{&quot;isPaintingLayer&quot;:true}" fill-rule="nonzero" stroke="none" stroke-linecap="butt" stroke-linejoin="miter" stroke-miterlimit="10" stroke-dasharray="" stroke-dashoffset="0" style="mix-blend-mode: normal"><path d="M159.51321,161.79634c1.32319,-2.12112 3.44431,-0.79794 3.44431,-0.79794l2.39957,1.49689c2.52671,1.57856 5.15435,2.92344 7.68367,4.49905c0,0 0.12057,0.07521 0.28627,0.2185c3.89921,-1.92417 8.43919,-2.10166 12.83829,-2.12552c-0.90807,-6.15245 -1.7288,-12.41364 -1.72751,-18.63125l-0.09673,0.03676l-0.90775,-2.38859c-0.12341,-0.30341 -0.18887,-0.63623 -0.18283,-0.98444c0.02392,-1.3805 1.16243,-2.48023 2.54294,-2.45631c0.92647,0.01605 1.72649,0.53411 2.14528,1.29041l1.32718,2.30144c1.16519,1.51732 2.06538,3.22488 3.20462,4.76199c0.80605,1.08755 4.6811,4.3441 5.00824,4.66534c3.49341,3.43038 6.51523,7.18004 9.32169,11.17433c0,0 0.0479,0.06833 0.11374,0.18878c0.79511,-0.00932 1.57193,-0.05933 2.31436,-0.17394c1.77273,-0.27368 3.49821,-0.71488 5.24625,-1.094c-0.3549,-1.14613 0.40126,-2.11197 0.64926,-2.38874c0.44422,-2.24739 1.07098,-5.31199 0.52959,-7.33835c-0.2095,-0.7841 -0.97233,-1.31989 -1.2814,-2.07035c-0.58411,-1.41822 -0.80014,-2.96954 -1.37923,-4.38981c-1.23107,-3.01927 -3.64339,-5.71419 -2.97747,-9.34312c0.02134,-0.11626 0.04526,-0.23176 0.07157,-0.34658l-0.04032,-0.00647l0.53795,-3.35c0.17715,-1.22808 1.24444,-2.16159 2.51751,-2.13954c0.69026,0.01196 1.31031,0.30258 1.75482,0.76276l1.90622,1.97343l-0.07014,0.06774l0.26888,0.16496c2.57238,4.41553 6.53024,7.69184 9.14449,11.99207c1.49809,2.46423 2.23224,5.34207 3.73198,7.8053c1.70807,2.80537 3.29332,4.80988 4.65772,7.59556c1.59194,-0.03359 3.1847,-0.08276 4.7784,-0.16162c0.1317,-0.00198 0.26346,-0.00415 0.39529,-0.00649l0.01797,-1.03719c0.0729,-3.55995 -0.67511,-4.66854 -1.67944,-7.98769c-1.10362,-3.64729 -0.74923,-8.08105 -1.31066,-11.88851c-0.48507,-1.81467 -1.04281,-3.61233 -1.68902,-5.37606c-0.53156,-1.45082 -2.07674,-2.90398 -1.56685,-4.36257c2.9629,-8.47573 9.93455,-0.51656 12.26311,3.11738c1.28817,2.0103 1.26887,5.36185 2.70637,7.21009c1.31884,1.69566 3.34354,2.82472 4.43717,4.67367c1.50113,2.53789 2.42852,5.63758 4.09338,8.11455c1.54841,2.30371 3.84471,4.49423 5.57876,6.72586c3.80775,0.02222 7.58989,0.23592 11.30928,0.81028c-0.78332,-1.75882 -1.0859,-3.6877 -1.50565,-5.78356c-0.64315,-3.21143 -1.7757,-6.30514 -2.66233,-9.45804c-0.63494,-2.25784 -2.55779,-7.0502 -1.8298,-9.24698c0.7955,-2.40052 4.36502,-5.00465 6.28072,-6.50966c6.04243,-4.74707 14.33327,-4.23994 21.20296,-1.36405c2.78367,1.92495 3.95861,2.41617 6.05372,5.14493c2.1848,2.84556 2.59044,6.21498 3.62581,9.5246c1.3189,4.21591 1.62991,8.42825 1.69014,12.69677c0.28348,-0.18632 0.57957,-0.35097 0.89447,-0.48358c1.34771,-0.5675 2.88267,-0.84236 4.33511,-0.67263c10.9746,1.28254 4.76402,18.84497 -4.88219,15.38551c0.22776,2.30288 0.53891,4.58521 0.83601,6.87231c0.54805,-0.47073 0.99171,-0.80828 1.1883,-0.85806c4.72326,-1.19618 11.17494,4.35501 11.79698,8.91052c0.41752,3.05766 -1.15882,5.96257 -3.52652,7.74953c-0.99035,0.74744 -2.24404,1.14191 -3.46595,1.35731c-2.58161,0.45507 -3.56553,0.11659 -5.23654,-0.5966c-0.37702,5.62594 -1.33242,11.15939 -2.37305,16.78241c-3.78792,6.51172 -7.99691,17.09177 -16.08847,19.25372c-3.47127,0.92748 -7.64816,1.06529 -10.76481,-0.99211c-0.1696,-0.11197 -4.02735,-4.06577 -4.29167,-4.37504c-6.1084,-7.14727 -10.84938,-19.07808 -7.16599,-28.12808c0.68344,-1.03784 1.12464,-2.28447 2.05033,-3.11349c1.54697,-1.38541 3.84376,-1.77947 5.32306,-3.23693c0.80039,-0.78857 1.54391,-1.63262 2.29116,-2.47295c-0.27162,-0.02659 -0.54212,-0.04133 -0.80952,-0.02923c-4.01491,0.18174 -7.88243,0.92991 -11.80301,1.68834c-0.67329,0.13024 -1.35233,0.21497 -2.03499,0.27007c-0.03643,0.10863 -0.06441,0.17091 -0.06441,0.17091c-2.43392,5.41717 -4.91122,11.85007 -8.26251,16.74178c-1.70305,2.48584 -4.1568,4.80595 -5.99564,7.24408c-1.93604,2.56701 -3.54176,5.97947 -6.45419,7.68762c-4.25671,2.4966 -6.13853,3.1217 -7.36478,-2.73228c-1.03823,-4.95645 2.10656,-9.92008 4.54491,-13.81255c3.90605,-4.71282 4.51669,-8.51623 4.65065,-14.35797c-3.03586,0.20763 -6.07353,0.35836 -9.11452,0.30999c-4.62967,7.45787 -12.68852,11.57105 -17.35338,18.77376l-0.46267,2.50733c-0.19985,1.20176 -1.25462,2.10812 -2.50926,2.08638c-1.3805,-0.02392 -2.48023,-1.16243 -2.45631,-2.54294l0.05042,-2.90973c-0.08204,-0.33853 0.16028,-5.41489 0.11419,-6.09812c-0.2694,-3.99399 -0.63016,-7.96528 -1.22285,-11.9439l-0.01285,-0.62311c-1.03507,-0.21297 -2.09784,-0.50337 -3.20559,-0.89161c-0.04391,-0.01842 -0.08778,-0.03687 -0.13165,-0.05529c-0.78326,2.71542 -1.14958,5.4338 -2.11284,8.1613c-2.25129,6.37461 -5.44328,12.91594 -8.23881,19.12382l-0.13408,0.11587l0.04935,0.03078l-1.47264,2.36069c-0.44474,0.74135 -1.26222,1.23137 -2.18868,1.21531c-1.27308,-0.02206 -2.30738,-0.99199 -2.44188,-2.22547l-0.42158,-3.36662l0.04791,-0.006c-0.02456,-0.10804 -0.04702,-0.2167 -0.06719,-0.32601c-0.40056,-2.17155 0.74491,-4.39267 0.60783,-6.59659c-0.11316,-1.81926 -1.2333,-3.47862 -1.35755,-5.29715c-0.21809,-3.19191 1.27195,-6.4846 1.13136,-9.7739c-0.16431,-3.84447 -2.5759,-7.05803 -3.17776,-10.97859l0.00998,-1.87317c-2.0134,-0.6799 -4.147,-0.84473 -6.10841,-1.63329c-1.88492,-0.7578 -3.17503,-2.53723 -4.81367,-3.73809c-0.85643,-0.62763 -2.88115,-0.93794 -4.05434,-1.12262c-0.38077,0.70852 -1.04387,1.09092 -1.04387,1.09092c-1.61469,0.92659 -3.15815,1.98346 -4.62961,3.1239l-3.99577,0.47868c0,0 -2.49962,-0.04331 -2.45631,-2.54294c0.04331,-2.49962 2.54294,-2.45631 2.54294,-2.45631l0.85379,0.56271c1.33045,-1.02342 2.71066,-1.9881 4.1396,-2.87058c-0.10936,-0.28841 -0.16682,-0.60202 -0.16115,-0.92924c0.00581,-0.33551 0.07746,-0.65444 0.20242,-0.94467c-1.90195,-1.10366 -3.83105,-2.1449 -5.70612,-3.31295l-2.39957,-1.49689c0,0 -2.12112,-1.32319 -0.79794,-3.44431zM314.52881,186.06819c0.2642,0.00458 0.51811,0.04998 0.75583,0.13008c-0.51465,-0.76564 -1.22526,-1.43851 -1.88246,-2.07285c-0.03076,-0.0297 -2.42905,-1.66971 -2.9018,-1.49229c-0.87915,0.32994 -1.41124,1.15821 -1.96018,1.97482c0.09379,1.07703 0.16645,2.15978 0.20813,3.2508c0.01407,0.36842 0.02489,0.73614 0.03256,1.1032c0.31892,0.28432 0.49209,0.55409 0.49209,0.55409l-0.19059,0.51743c0.65155,0.29011 1.2597,0.70997 1.95465,0.87034c0.62378,0.14395 1.47748,0.10585 2.30078,-0.11437c-0.81712,-0.4229 -1.36898,-1.28267 -1.35196,-2.26494c0.02392,-1.3805 1.16243,-2.48023 2.54294,-2.45631zM309.51309,163.25637c0.01152,-0.66499 0.28168,-1.26483 0.71291,-1.7053c-1.2192,0.42958 -2.51237,1.55774 -3.54351,2.41272c-0.00026,0.37821 0.0004,0.75707 0.00251,1.13662c0.73543,0.21339 1.23074,0.72616 1.23074,0.72616c0.36822,0.47251 0.59597,1.10117 1.10466,1.41753c0.85578,0.53222 2.02089,-0.27802 2.84483,-1.44874c-1.33123,-0.07772 -2.37546,-1.1934 -2.35215,-2.539zM196.1018,193.61581c0.2003,3.21031 -1.38999,6.56617 -1.14458,9.59073c0.05953,0.73371 0.67695,1.32156 0.85694,2.03534c0.14041,0.55685 0.2784,1.18888 0.39573,1.86454c0.6893,-1.76117 1.42332,-3.49952 2.29015,-5.16595c1.29852,-2.49633 2.68254,-4.8196 3.32946,-7.63106c0.44484,-1.93325 0.73834,-3.91133 1.27357,-5.81891c-3.37699,-1.48825 -6.65383,-3.03234 -9.91571,-4.76013c0.86191,3.41614 2.68062,6.13812 2.91443,9.88546zM193.96948,157.2443c-1.20365,-1.17999 -2.89016,-2.46855 -4.25888,-3.83138c0.45339,3.8786 0.92946,7.76681 1.50149,11.62171c0.11402,-0.00403 0.2277,-0.0084 0.34103,-0.01315c2.63105,-0.11043 5.25928,-0.3958 7.89227,-0.35145c0.34659,0.00584 0.69994,0.01881 1.05847,0.03657c-2.00332,-2.62973 -4.15208,-5.12679 -6.53438,-7.4623zM217.20365,203.71967c3.91663,-4.0453 8.53531,-7.44466 11.95,-11.98375c-1.66087,-0.17024 -3.52898,-0.33351 -4.28359,-0.2865c-3.19086,0.19879 -5.98753,0.51022 -8.77446,0.47972c0.56535,3.89843 0.9951,7.85057 1.10805,11.79053zM225.60715,157.83495c-1.50342,-2.48038 -2.26979,-5.35847 -3.75841,-7.84774c-1.64495,-2.75068 -3.92188,-5.05501 -5.9848,-7.54185c0.07474,0.20366 0.16145,0.40971 0.26375,0.61813c1.09578,2.23263 1.88911,4.60141 2.82261,6.90661c0.40332,0.99597 1.28814,1.78607 1.5443,2.82963c0.74706,3.04333 -0.04789,7.21264 -0.59925,10.24449c2.98838,-0.13379 5.97872,-0.1691 8.97162,-0.20035c-0.98335,-1.62026 -2.05489,-3.02105 -3.2598,-5.00893zM252.83562,157.91507c-1.7654,-2.60969 -2.83434,-5.80703 -4.35013,-8.5252c-0.95829,-1.71847 -2.97887,-2.6189 -4.14078,-4.20679c-0.21319,-0.29135 -1.93004,-4.8258 -2.15942,-5.44958c-0.24272,-0.66009 -0.32096,-1.39845 -0.7016,-1.98985c-0.21101,-0.32785 -0.54901,-0.64626 -0.93731,-0.96765c0.43421,1.4148 0.79464,2.94762 1.04726,3.89428c0.03598,0.23957 0.90208,5.97687 0.9158,6.18071c0.13331,1.98071 -0.34645,3.35109 0.27993,5.25908c1.16352,3.54414 1.95395,5.68342 1.8977,9.53794l-0.0137,0.79073c3.77845,-0.1628 7.58888,-0.39708 11.39468,-0.53618c-1.15744,-1.31195 -2.31623,-2.6331 -3.23244,-3.98748zM243.41671,209.13806c-1.47374,2.37366 -2.65332,3.84193 -3.08675,6.62444c-0.10136,0.65065 -0.14562,1.31402 -0.22017,1.97039c0.44017,-0.37063 0.90051,-0.72985 1.20067,-1.05406c2.0715,-2.23741 3.94457,-5.01589 5.77476,-7.44189c4.19245,-5.55729 7.40735,-11.80836 10.34551,-18.21304c-0.2008,0.00305 -0.40142,0.00722 -0.60181,0.01289c-2.60258,0.0736 -5.20491,0.25274 -7.80797,0.44761c-0.13366,7.0318 -0.98005,12.07438 -5.60425,17.65367zM284.43921,164.92035c0.49233,0.21418 1.01892,0.61054 1.25639,1.34384c0.19381,0.43831 0.27327,0.98419 0.04799,1.61966c-0.15658,0.65579 -0.52017,1.07065 -0.92119,1.33305c-0.63727,0.51802 -1.34192,0.53655 -1.88754,0.4254l-1.89657,-0.14135c-2.63804,-0.93043 -5.28843,-2.17496 -8.10499,-2.44615c-7.46004,-0.71832 -15.05434,0.34893 -22.4998,0.5867c-3.64703,0.11646 -7.34707,-0.09382 -10.9983,-0.03902c-2.01358,0.09882 -4.0251,0.15139 -6.03508,0.18543c-0.42489,0.10557 -0.7965,0.0966 -1.11817,0.0172c-4.28099,0.05991 -8.55555,0.05909 -12.82905,0.26563c-3.31825,0.16038 -6.30909,1.2875 -9.50908,1.74965c-3.3467,0.48334 -7.20333,-0.09083 -10.58503,-0.15113c-3.74171,-0.06671 -7.41623,0.35837 -11.1624,0.29169c-2.98222,-0.05308 -6.12067,-0.02546 -9.04079,0.72107c-0.12869,0.0329 -0.30292,0.09191 -0.51001,0.16904c0.38697,0.18452 0.78313,0.40798 1.19793,0.68369c2.05444,1.36555 1.58628,2.41341 3.7979,3.20255c1.88223,0.67159 3.92542,0.83612 5.7904,1.55421c3.19209,1.22906 5.63214,3.39639 8.72288,4.83258c3.74795,1.74159 7.67577,3.13166 11.48562,4.73452c5.35887,1.90425 9.47132,0.91215 14.95966,0.59811c4.21549,-0.2412 8.39479,0.85296 12.64052,0.70159c8.0713,-0.28775 16.13306,-0.6944 24.20499,-1.03121c2.18059,-0.09099 4.48538,-0.97912 6.57809,-1.31041c4.54393,-0.71935 8.47024,-0.97399 12.57618,-0.36729l0.00735,-0.42431l2.90974,0.05042c1.3805,0.02392 2.48023,1.16243 2.45631,2.54294c-0.01196,0.69026 -0.30258,1.31031 -0.76276,1.75481l-1.97343,1.90622c-1.56622,1.50935 -2.87221,3.27523 -4.44864,4.77393c-2.27271,2.16068 -4.92007,2.39641 -6.40706,5.05324c-1.77184,4.00015 -0.56203,7.67914 0.86104,11.58337c2.59217,7.11168 6.52256,16.91184 15.65771,14.7751c6.03187,-1.41088 9.85319,-11.55107 12.66081,-16.14566c1.147,-7.49753 2.48123,-14.67314 2.19015,-22.2982c-0.03617,-0.94752 -0.09559,-1.889 -0.17186,-2.82608c-0.39346,-0.68147 -0.34759,-1.32606 -0.16987,-1.83716c-0.57951,-5.64885 -1.62427,-11.17559 -1.71114,-16.94584c-0.16473,-10.94152 1.36146,-24.76342 -8.78635,-31.79198c-4.96716,-2.09971 -11.39404,-2.5175 -15.70411,0.90706c-0.09711,0.07716 -4.29475,3.2868 -4.57317,3.9745c-0.20683,0.51084 0.27334,1.06904 0.45222,1.59033c0.56337,1.64181 0.9457,3.34027 1.41559,5.01123c0.91621,3.25808 2.06704,6.46025 2.73414,9.77832c0.44275,2.20219 0.41321,4.80178 2.40932,6.36807c1.43893,1.12909 3.22122,1.73468 4.79347,2.67066z" fill="#ffffff" stroke-width="0.5"/><path d="M309.52267,163.20728c-0.02331,1.3456 1.05593,2.53297 2.38716,2.61069c-0.82394,1.17072 -2.03821,2.00813 -2.89399,1.47591c-0.50869,-0.31636 -0.76739,-0.95962 -1.13561,-1.43213c0,0 -0.50842,-0.53633 -1.24385,-0.74972c-0.00211,-0.37955 -0.00318,-0.77983 -0.00292,-1.15804c1.03114,-0.85498 2.3888,-2.02091 3.608,-2.45049c-0.43123,0.44047 -0.72643,1.13693 -0.73795,1.80192z" data-paper-data="{&quot;noHover&quot;:false,&quot;origItem&quot;:[&quot;Path&quot;,{&quot;applyMatrix&quot;:true,&quot;segments&quot;:[[[309.51309,163.25637],[0,0],[0.01152,-0.66499]],[[310.226,161.55107],[-0.43123,0.44047],[-1.2192,0.42958]],[[306.68249,163.96379],[1.03114,-0.85498],[-0.00026,0.37821]],[[306.685,165.10041],[-0.00211,-0.37955],[0.73543,0.21339]],[[307.91574,165.82657],[0,0],[0.36822,0.47251]],[[309.0204,167.2441],[-0.50869,-0.31636],[0.85578,0.53222]],[[311.86523,165.79536],[-0.82394,1.17072],[-1.33123,-0.07772]],[[309.51308,163.25636],[-0.02331,1.3456],[0,0]]],&quot;closed&quot;:true,&quot;fillColor&quot;:[0,0,0,1],&quot;strokeWidth&quot;:0.5}]}" fill="#000000" stroke-width="0.25"/><path d="M314.57693,186.05464c-1.38051,-0.02392 -2.56502,1.13931 -2.58894,2.51981c-0.01702,0.98227 0.54955,1.83916 1.36667,2.26206c-0.8233,0.22022 -1.70428,0.26014 -2.32806,0.11619c-0.69495,-0.16037 -1.32561,-0.59153 -1.97716,-0.88164l0.18867,-0.5192c0,0 -0.17947,-0.27723 -0.49839,-0.56155c-0.00767,-0.36706 -0.02475,-0.74734 -0.03882,-1.11576c-0.04168,-1.09102 -0.1088,-2.21687 -0.20259,-3.2939c0.54894,-0.81661 1.10689,-1.66495 1.98604,-1.99489c0.47275,-0.17742 2.91137,1.46625 2.94213,1.49595c0.6572,0.63434 1.39272,1.34206 1.90737,2.1077c-0.23772,-0.0801 -0.58897,-0.10311 -0.85317,-0.10769z" data-paper-data="{&quot;noHover&quot;:false,&quot;origItem&quot;:[&quot;Path&quot;,{&quot;applyMatrix&quot;:true,&quot;segments&quot;:[[[314.52881,186.06819],[0,0],[0.2642,0.00458]],[[315.28464,186.19827],[-0.23772,-0.0801],[-0.51465,-0.76564]],[[313.40218,184.12542],[0.6572,0.63434],[-0.03076,-0.0297]],[[310.50038,182.63313],[0.47275,-0.17742],[-0.87915,0.32994]],[[308.5402,184.60795],[0.54894,-0.81661],[0.09379,1.07703]],[[308.74833,187.85875],[-0.04168,-1.09102],[0.01407,0.36842]],[[308.78089,188.96195],[-0.00767,-0.36706],[0.31892,0.28432]],[309.27298,189.51604],[[309.08239,190.03347],[0,0],[0.65155,0.29011]],[[311.03704,190.90381],[-0.69495,-0.16037],[0.62378,0.14395]],[[313.33782,190.78944],[-0.8233,0.22022],[-0.81712,-0.4229]],[[311.98586,188.5245],[-0.01702,0.98227],[0.02392,-1.3805]],[[314.5288,186.06819],[-1.38051,-0.02392],[0,0]]],&quot;closed&quot;:true,&quot;fillColor&quot;:[0,0,0,1],&quot;strokeWidth&quot;:0.5}]}" fill="#000000" stroke-width="0.25"/><path d="M243.37933,209.17129c4.6242,-5.57929 5.50893,-10.70508 5.64259,-17.73688c2.60306,-0.19487 5.23027,-0.36682 7.83285,-0.44042c0.20039,-0.00567 0.40236,-0.00899 0.60316,-0.01204c-2.93816,6.40468 -6.19665,12.74494 -10.3891,18.30223c-1.83019,2.426 -3.7128,5.19999 -5.7843,7.4374c-0.30016,0.32421 -0.76178,0.68263 -1.20195,1.05326c0.07455,-0.65637 0.11624,-1.32153 0.2176,-1.97218c0.43343,-2.78251 1.60542,-4.25772 3.07916,-6.63138z" data-paper-data="{&quot;noHover&quot;:false,&quot;origItem&quot;:[&quot;Path&quot;,{&quot;applyMatrix&quot;:true,&quot;segments&quot;:[[[243.41671,209.13806],[0,0],[-1.47374,2.37366]],[[240.32996,215.7625],[0.43343,-2.78251],[-0.10136,0.65065]],[[240.10979,217.73289],[0.07455,-0.65637],[0.44017,-0.37063]],[[241.31046,216.67883],[-0.30016,0.32421],[2.0715,-2.23741]],[[247.08522,209.23694],[-1.83019,2.426],[4.19245,-5.55729]],[[257.43073,191.0239],[-2.93816,6.40468],[-0.2008,0.00305]],[[256.82892,191.03679],[0.20039,-0.00567],[-2.60258,0.0736]],[[249.02095,191.4844],[2.60306,-0.19487],[-0.13366,7.0318]],[[243.4167,209.13807],[4.6242,-5.57929],[0,0]]],&quot;closed&quot;:true,&quot;fillColor&quot;:[0,0,0,1],&quot;strokeWidth&quot;:0.5}]}" fill="#000000" stroke-width="0.25"/><path d="M216.0578,191.89641c2.78693,0.0305 5.6386,-0.29516 8.82946,-0.49395c0.75461,-0.04701 2.64278,0.12986 4.30365,0.3001c-3.41469,4.53909 -8.10372,8.00928 -12.02035,12.05458c-0.11295,-3.93996 -0.54741,-7.9623 -1.11276,-11.86073z" data-paper-data="{&quot;noHover&quot;:false,&quot;origItem&quot;:[&quot;Path&quot;,{&quot;applyMatrix&quot;:true,&quot;segments&quot;:[[[217.20365,203.71967],[-0.11295,-3.93996],[3.91663,-4.0453]],[[229.15365,191.73592],[-3.41469,4.53909],[-1.66087,-0.17024]],[[224.87006,191.44942],[0.75461,-0.04701],[-3.19086,0.19879]],[[216.0956,191.92914],[2.78693,0.0305],[0.56535,3.89843]]],&quot;closed&quot;:true,&quot;fillColor&quot;:[0,0,0,1],&quot;strokeWidth&quot;:0.5}]}" fill="#000000" stroke-width="0.25"/><path d="M196.06429,193.58275c-0.23381,-3.74734 -2.03455,-6.48227 -2.89646,-9.89841c3.26188,1.72779 6.58734,3.27725 9.96433,4.7655c-0.53523,1.90758 -0.80995,3.91191 -1.25479,5.84516c-0.64692,2.81146 -2.0761,5.19907 -3.37462,7.6954c-0.86683,1.66643 -1.61173,3.40418 -2.30103,5.16535c-0.11733,-0.67566 -0.2587,-1.30837 -0.39911,-1.86522c-0.17999,-0.71378 -0.80481,-1.30401 -0.86434,-2.03772c-0.24541,-3.02456 1.32633,-6.45977 1.12603,-9.67008z" data-paper-data="{&quot;noHover&quot;:false,&quot;origItem&quot;:[&quot;Path&quot;,{&quot;applyMatrix&quot;:true,&quot;segments&quot;:[[[196.1018,193.61581],[0,0],[0.2003,3.21031]],[[194.95722,203.20654],[-0.24541,-3.02456],[0.05953,0.73371]],[[195.81416,205.24188],[-0.17999,-0.71378],[0.14041,0.55685]],[[196.20989,207.10642],[-0.11733,-0.67566],[0.6893,-1.76117]],[[198.50004,201.94047],[-0.86683,1.66643],[1.29852,-2.49633]],[[201.8295,194.30941],[-0.64692,2.81146],[0.44484,-1.93325]],[[203.10307,188.4905],[-0.53523,1.90758],[-3.37699,-1.48825]],[[193.18736,183.73037],[3.26188,1.72779],[0.86191,3.41614]],[[196.10179,193.61583],[-0.23381,-3.74734],[0,0]]],&quot;closed&quot;:true,&quot;fillColor&quot;:[0,0,0,1],&quot;strokeWidth&quot;:0.5}]}" fill="#000000" stroke-width="0.25"/><path d="M200.53893,164.74223c-0.35853,-0.01776 -0.7158,-0.02725 -1.06239,-0.03309c-2.63299,-0.04435 -5.3185,0.24454 -7.94955,0.35497c-0.11333,0.00475 -0.22872,0.00802 -0.34274,0.01205c-0.57203,-3.8549 -1.05429,-7.82128 -1.50768,-11.69988c1.36872,1.36283 3.06434,2.64468 4.26799,3.82467c2.3823,2.33551 4.59105,4.91155 6.59437,7.54128z" data-paper-data="{&quot;noHover&quot;:false,&quot;origItem&quot;:[&quot;Path&quot;,{&quot;applyMatrix&quot;:true,&quot;segments&quot;:[[[193.96948,157.2443],[2.3823,2.33551],[-1.20365,-1.17999]],[[189.7106,153.41292],[1.36872,1.36283],[0.45339,3.8786]],[[191.21209,165.03463],[-0.57203,-3.8549],[0.11402,-0.00403]],[[191.55312,165.02148],[-0.11333,0.00475],[2.63105,-0.11043]],[[199.44539,164.67003],[-2.63299,-0.04435],[0.34659,0.00584]],[[200.50386,164.7066],[-0.35853,-0.01776],[-2.00332,-2.62973]]],&quot;closed&quot;:true,&quot;fillColor&quot;:[0,0,0,1],&quot;strokeWidth&quot;:0.5}]}" fill="#000000" stroke-width="0.25"/><path d="M225.58031,157.79276c1.20491,1.98788 2.33037,3.47288 3.31372,5.09314c-2.9929,0.03125 -6.02197,0.07314 -9.01035,0.20693c0.55136,-3.03185 1.30799,-7.24831 0.56093,-10.29164c-0.25616,-1.04356 -1.12981,-1.86666 -1.53313,-2.86263c-0.9335,-2.3052 -1.7151,-4.68448 -2.81088,-6.91711c-0.1023,-0.20842 -0.18862,-0.41472 -0.26336,-0.61838c2.06292,2.48684 4.35733,4.78431 6.00228,7.53499c1.48862,2.48927 2.29106,5.45868 3.79448,7.93906z" data-paper-data="{&quot;noHover&quot;:false,&quot;origItem&quot;:[&quot;Path&quot;,{&quot;applyMatrix&quot;:true,&quot;segments&quot;:[[[225.60715,157.83495],[0,0],[-1.50342,-2.48038]],[[221.84874,149.98721],[1.48862,2.48927],[-1.64495,-2.75068]],[[215.86394,142.44536],[2.06292,2.48684],[0.07474,0.20366]],[[216.12769,143.06349],[-0.1023,-0.20842],[1.09578,2.23263]],[[218.9503,149.9701],[-0.9335,-2.3052],[0.40332,0.99597]],[[220.4946,152.79973],[-0.25616,-1.04356],[0.74706,3.04333]],[[219.89535,163.04422],[0.55136,-3.03185],[2.98838,-0.13379]],[[228.86697,162.84387],[-2.9929,0.03125],[-0.98335,-1.62026]],[[225.60717,157.83494],[1.20491,1.98788],[0,0]]],&quot;closed&quot;:true,&quot;fillColor&quot;:[0,0,0,1],&quot;strokeWidth&quot;:0.5}]}" fill="#000000" stroke-width="0.25"/><path d="M252.81168,157.87118c0.91621,1.35438 2.12562,2.76171 3.28306,4.07366c-3.8058,0.1391 -7.65654,0.37921 -11.43499,0.54201l0.01293,-0.79096c0.05625,-3.85452 -0.76532,-6.02103 -1.92884,-9.56517c-0.62638,-1.90799 -0.14624,-3.32049 -0.27955,-5.3012c-0.01372,-0.20384 -0.86469,-5.95965 -0.90067,-6.19922c-0.25262,-0.94666 -0.6089,-2.48229 -1.04311,-3.89709c0.3883,0.32139 0.77711,0.72593 0.98812,1.05378c0.38064,0.5914 0.4603,1.32891 0.70302,1.989c0.22938,0.62378 1.95324,5.15298 2.16643,5.44433c1.16191,1.58789 3.18083,2.4124 4.13912,4.13087c1.51579,2.71817 2.57696,5.99808 4.34236,8.60777z" data-paper-data="{&quot;noHover&quot;:false,&quot;origItem&quot;:[&quot;Path&quot;,{&quot;applyMatrix&quot;:true,&quot;segments&quot;:[[[252.83562,157.91507],[0,0],[-1.7654,-2.60969]],[[248.48549,149.38987],[1.51579,2.71817],[-0.95829,-1.71847]],[[244.34471,145.18308],[1.16191,1.58789],[-0.21319,-0.29135]],[[242.18529,139.7335],[0.22938,0.62378],[-0.24272,-0.66009]],[[241.48369,137.74365],[0.38064,0.5914],[-0.21101,-0.32785]],[[240.54638,136.776],[0.3883,0.32139],[0.43421,1.4148]],[[241.59364,140.67028],[-0.25262,-0.94666],[0.03598,0.23957]],[[242.50944,146.85099],[-0.01372,-0.20384],[0.13331,1.98071]],[[242.78937,152.11007],[-0.62638,-1.90799],[1.16352,3.54414]],[[244.68707,161.64801],[0.05625,-3.85452],[0,0]],[[244.67337,162.43874],[0,0],[3.77845,-0.1628]],[[256.06805,161.90256],[-3.8058,0.1391],[-1.15744,-1.31195]],[[252.83561,157.91508],[0.91621,1.35438],[0,0]]],&quot;closed&quot;:true,&quot;fillColor&quot;:[0,0,0,1],&quot;strokeWidth&quot;:0.5}]}" fill="#000000" stroke-width="0.25"/><path d="M284.39197,164.93672c-1.57225,-0.93598 -3.35274,-1.53707 -4.79167,-2.66616c-1.99611,-1.56629 -1.96273,-4.15901 -2.40548,-6.3612c-0.6671,-3.31807 -1.81141,-6.51235 -2.72762,-9.77043c-0.46989,-1.67096 -0.84887,-3.3664 -1.41224,-5.00821c-0.17888,-0.52129 -0.65801,-1.07866 -0.45118,-1.5895c0.27842,-0.6877 4.53827,-3.97563 4.63538,-4.05279c4.31007,-3.42456 10.74306,-3.00088 15.71022,-0.90117c10.14781,7.02856 8.63281,20.87253 8.79754,31.81405c0.08687,5.77025 1.13275,11.31065 1.71226,16.9595c-0.17772,0.5111 -0.22369,1.15714 0.16977,1.83861c0.07627,0.93708 0.13545,1.88077 0.17162,2.82829c0.29108,7.62506 -1.04809,14.81673 -2.19509,22.31426c-2.80762,4.59459 -6.63782,14.7472 -12.66969,16.15808c-9.13515,2.13674 -13.13678,-7.7336 -15.72895,-14.84528c-1.42307,-3.90423 -2.63935,-7.5752 -0.86751,-11.57535c1.48699,-2.65683 4.12993,-2.88406 6.40264,-5.04474c1.57643,-1.4987 2.88025,-3.25787 4.44647,-4.76722l1.97287,-1.90369c0.46018,-0.4445 0.75045,-1.06252 0.76241,-1.75278c0.02392,-1.38051 -1.07612,-2.51651 -2.45662,-2.54043l-2.81026,-0.04025l-0.00741,0.42484c-4.10594,-0.6067 -8.03274,-0.34877 -12.57667,0.37058c-2.09271,0.33129 -4.3989,1.22512 -6.57949,1.31611c-8.07193,0.33681 -16.20545,0.77258 -24.27675,1.06033c-4.24573,0.15137 -8.44754,-0.96827 -12.66303,-0.72707c-5.48834,0.31404 -9.60343,1.29704 -14.9623,-0.60721c-3.80985,-1.60286 -7.73852,-3.00079 -11.48647,-4.74238c-3.09074,-1.43619 -5.53069,-3.60842 -8.72278,-4.83748c-1.86498,-0.71809 -3.90809,-0.88361 -5.79032,-1.5552c-2.21162,-0.78914 -1.7432,-1.83929 -3.79764,-3.20484c-0.4148,-0.27571 -0.8109,-0.49957 -1.19787,-0.68409c0.20709,-0.07713 0.38135,-0.13633 0.51004,-0.16923c2.92012,-0.74653 6.05888,-0.77601 9.0411,-0.72293c3.74617,0.06668 7.42126,-0.36105 11.16297,-0.29434c3.3817,0.0603 7.23931,0.63101 10.58601,0.14767c3.19999,-0.46215 6.19448,-1.5978 9.51273,-1.75818c4.2735,-0.20654 8.56226,-0.22207 12.84325,-0.28198c0.32167,0.0794 0.69588,0.08657 1.12077,-0.019c2.00998,-0.03404 4.04146,-0.0941 6.05504,-0.19292c3.65123,-0.0548 7.38853,0.16502 11.03556,0.04856c7.44546,-0.23777 15.05604,-1.28382 22.51608,-0.5655c2.81656,0.27119 5.46898,1.52185 8.10702,2.45228l1.89675,0.14204c0.54562,0.11115 1.15314,0.11642 1.79041,-0.4016c0.40102,-0.2624 0.7649,-0.67613 0.92148,-1.33192c0.22528,-0.63547 0.14629,-1.17972 -0.04752,-1.61803c-0.23747,-0.7333 -0.7635,-1.12794 -1.25583,-1.34212z" data-paper-data="{&quot;noHover&quot;:false,&quot;origItem&quot;:[&quot;Path&quot;,{&quot;applyMatrix&quot;:true,&quot;segments&quot;:[[[284.43921,164.92035],[0,0],[0.49233,0.21418]],[[285.6956,166.26419],[-0.23747,-0.7333],[0.19381,0.43831]],[[285.74359,167.88385],[0.22528,-0.63547],[-0.15658,0.65579]],[[284.8224,169.2169],[0.40102,-0.2624],[-0.63727,0.51802]],[[282.93486,169.6423],[0.54562,0.11115],[0,0]],[[281.03829,169.50095],[0,0],[-2.63804,-0.93043]],[[272.9333,167.0548],[2.81656,0.27119],[-7.46004,-0.71832]],[[250.4335,167.6415],[7.44546,-0.23777],[-3.64703,0.11646]],[[239.4352,167.60248],[3.65123,-0.0548],[-2.01358,0.09882]],[[233.40012,167.78791],[2.00998,-0.03404],[-0.42489,0.10557]],[[232.28195,167.80511],[0.32167,0.0794],[-4.28099,0.05991]],[[219.4529,168.07074],[4.2735,-0.20654],[-3.31825,0.16038]],[[209.94382,169.82039],[3.19999,-0.46215],[-3.3467,0.48334]],[[199.35879,169.66926],[3.3817,0.0603],[-3.74171,-0.06671]],[[188.19639,169.96095],[3.74617,0.06668],[-2.98222,-0.05308]],[[179.1556,170.68202],[2.92012,-0.74653],[-0.12869,0.0329]],[[178.64559,170.85106],[0.20709,-0.07713],[0.38697,0.18452]],[[179.84352,171.53475],[-0.4148,-0.27571],[2.05444,1.36555]],[[183.64142,174.7373],[-2.21162,-0.78914],[1.88223,0.67159]],[[189.43182,176.29151],[-1.86498,-0.71809],[3.19209,1.22906]],[[198.1547,181.12409],[-3.09074,-1.43619],[3.74795,1.74159]],[[209.64032,185.85861],[-3.80985,-1.60286],[5.35887,1.90425]],[[224.59998,186.45672],[-5.48834,0.31404],[4.21549,-0.2412]],[[237.2405,187.15831],[-4.24573,0.15137],[8.0713,-0.28775]],[[261.44549,186.1271],[-8.07193,0.33681],[2.18059,-0.09099]],[[268.02358,184.81669],[-2.09271,0.33129],[4.54393,-0.71935]],[[280.59976,184.4494],[-4.10594,-0.6067],[0,0]],[280.60711,184.02509],[[283.51685,184.07551],[0,0],[1.3805,0.02392]],[[285.97316,186.61845],[0.02392,-1.38051],[-0.01196,0.69026]],[[285.2104,188.37326],[0.46018,-0.4445],[0,0]],[[283.23697,190.27948],[0,0],[-1.56622,1.50935]],[[278.78833,195.05341],[1.57643,-1.4987],[-2.27271,2.16068]],[[272.38127,200.10665],[1.48699,-2.65683],[-1.77184,4.00015]],[[273.24231,211.69002],[-1.42307,-3.90423],[2.59217,7.11168]],[[288.90002,226.46512],[-9.13515,2.13674],[6.03187,-1.41088]],[[301.56083,210.31946],[-2.80762,4.59459],[1.147,-7.49753]],[[303.75098,188.02126],[0.29108,7.62506],[-0.03617,-0.94752]],[[303.57912,185.19518],[0.07627,0.93708],[-0.39346,-0.68147]],[[303.40925,183.35802],[-0.17772,0.5111],[-0.57951,-5.64885]],[[301.69811,166.41218],[0.08687,5.77025],[-0.16473,-10.94152]],[[292.91176,134.6202],[10.14781,7.02856],[-4.96716,-2.09971]],[[277.20765,135.52726],[4.31007,-3.42456],[-0.09711,0.07716]],[[272.63448,139.50176],[0.27842,-0.6877],[-0.20683,0.51084]],[[273.0867,141.09209],[-0.17888,-0.52129],[0.56337,1.64181]],[[274.50229,146.10332],[-0.46989,-1.67096],[0.91621,3.25808]],[[277.23643,155.88164],[-0.6671,-3.31807],[0.44275,2.20219]],[[279.64575,162.24971],[-1.99611,-1.56629],[1.43893,1.12909]],[[284.43922,164.92037],[-1.57225,-0.93598],[0,0]]],&quot;closed&quot;:true,&quot;fillColor&quot;:[0,0,0,1],&quot;strokeWidth&quot;:0.5}]}" fill="#000000" stroke-width="0.25"/></g></g></svg>