<svg version="1.1" xmlns="http://www.w3.org/2000/svg" xmlns:xlink="http://www.w3.org/1999/xlink" width="453" height="277" viewBox="0,0,453,277"><g transform="translate(-15.53368,-37)"><g data-paper-data="{&quot;isPaintingLayer&quot;:true}" fill="#bb00b5" fill-rule="nonzero" stroke="none" stroke-width="0" stroke-linecap="butt" stroke-linejoin="miter" stroke-miterlimit="10" stroke-dasharray="" stroke-dashoffset="0" style="mix-blend-mode: normal"><path d="M263.0562,248v-152h157.47748v152z"/><path d="M94.53368,160v-59h76v59z"/><path d="M15.53368,314v-54h70v54z"/><path d="M124.53368,297v-113h105v113z"/><path d="M445.53368,253v-104h23v104z"/><path d="M430.53368,59.5c0,12.42641 -51.48725,22.5 -115,22.5c-63.51275,0 -115,-10.07359 -115,-22.5c0,-12.42641 51.48725,-22.5 115,-22.5c63.51275,0 115,10.07359 115,22.5z"/><path d="M87.53368,184c0,27.61424 -14.55075,50 -32.5,50c-17.94925,0 -32.5,-22.38576 -32.5,-50c0,-27.61424 14.55075,-50 32.5,-50c17.94925,0 32.5,22.38576 32.5,50z"/></g></g></svg>