<svg version="1.1" xmlns="http://www.w3.org/2000/svg" xmlns:xlink="http://www.w3.org/1999/xlink" width="381" height="301" viewBox="0,0,381,301"><g transform="translate(-40.53368,2)"><g data-paper-data="{&quot;isPaintingLayer&quot;:true}" fill="#000000" fill-rule="nonzero" stroke="none" stroke-width="0" stroke-linecap="butt" stroke-linejoin="miter" stroke-miterlimit="10" stroke-dasharray="" stroke-dashoffset="0" style="mix-blend-mode: normal"><path d="M105.53368,161v-163h11v163z"/><path d="M105.53368,160v-11h171v11z"/><path d="M269.53368,156v-69h8v69z"/><path d="M164.53368,94v-11h113v11z"/><path d="M194.53368,299v-141h9v141z"/><path d="M275.53368,128v-11h136v11z"/><path d="M322.53368,237v-113h8v113z"/><path d="M267.53368,237v-10h62v10z"/><path d="M199.53368,298v-10h209v10z"/><path d="M329.53368,198v-9h92v9z"/><path d="M129.53368,253v-95h8v95z"/><path d="M132.53368,254v-7h32v7z"/><path d="M40.53368,204v-8h90v8z"/></g></g></svg>