<svg version="1.1" xmlns="http://www.w3.org/2000/svg" xmlns:xlink="http://www.w3.org/1999/xlink" width="179.0844" height="177.94543" viewBox="0,0,179.0844,177.94543"><g transform="translate(-152.61471,-76.95116)"><g data-paper-data="{&quot;isPaintingLayer&quot;:true}" fill-rule="nonzero" stroke-linejoin="miter" stroke-miterlimit="10" stroke-dasharray="" stroke-dashoffset="0" style="mix-blend-mode: normal"><path d="M282.55749,115.0827c0.50911,0.55694 0.9556,1.17212 1.31727,1.74489c0.8279,1.31113 0.40199,3.10872 0.20849,4.64724c-0.28579,2.27234 -0.60852,3.64584 -1.57102,4.46538c-0.94086,2.07096 -2.35661,3.74334 -4.17105,4.23781c-4.12987,1.12547 -5.64466,0.23178 -5.96473,-1.52361c-1.73957,-0.52967 -2.44068,-1.9537 -2.61023,-3.53701c-0.15233,-0.20884 -0.29858,-0.43863 -0.43806,-0.69063c-0.27477,-0.49645 -0.37504,-1.02868 -0.33795,-1.57331c-0.22003,-0.54924 -0.22003,-1.04389 -0.22003,-1.04389l0.46567,-2.97192c1.22253,-1.70013 2.24463,-3.54098 3.22231,-5.39278c1.45228,-0.77858 2.70938,-2.30094 4.35684,-2.33575c1.26932,-0.02682 2.34805,0.96082 3.3399,1.82998c0.7609,0.01185 1.99781,0.29706 2.36493,1.94909c0.01472,0.06623 0.02724,0.13105 0.03767,0.19451z" fill="#7a4100" stroke="none" stroke-width="0.5" stroke-linecap="butt"/><path d="M197.69966,148.51401c-1.40499,0.54747 -3.2933,0.21841 -6.01755,-1.62511c-1.32104,-0.89396 -0.91226,-2.82997 -1.09119,-4.28509c-0.08282,-0.67354 -0.10724,-1.46692 -0.06409,-2.32963c-1.31478,-4.41941 -1.79334,-10.20246 2.79654,-12.69335c3.42175,-1.85696 5.54284,-1.13484 6.84686,0.55743c1.72837,0.13104 3.05317,0.91296 4.01721,2.06179c0.16708,0.12289 0.33573,0.25514 0.50591,0.39707c0.26224,0.16036 0.51622,0.3811 0.74961,0.67923c1.17321,1.16672 1.03124,2.98769 1.5533,4.47833c0,4.31213 0.10478,10.10633 -5.46643,12.3329c-1.09977,0.43953 -2.46538,0.57491 -3.83017,0.42644z" fill="#7a4100" stroke="none" stroke-width="0.5" stroke-linecap="butt"/><path d="M311.90972,165.81824c-0.82394,1.17072 -2.03821,2.00793 -2.89399,1.4757c-0.50869,-0.31636 -0.76724,-0.95956 -1.13546,-1.43207c0,0 -0.50843,-0.53622 -1.24386,-0.74961c-0.0021,-0.37955 -0.00326,-0.77977 -0.003,-1.15799c1.03115,-0.85499 2.38879,-2.02116 3.60799,-2.45073c-0.43124,0.44049 -0.70739,1.03878 -0.71892,1.70377c-0.02332,1.3456 1.05601,2.53321 2.38723,2.61092z" data-paper-data="{&quot;noHover&quot;:false,&quot;origItem&quot;:[&quot;Path&quot;,{&quot;applyMatrix&quot;:true,&quot;segments&quot;:[[[217.12172,151.17854],[1.3458,0],[-0.66509,0]],[[215.40431,150.49528],[0.44789,0.42354],[0.45064,1.21157]],[[217.87807,153.99646],[-0.87273,-1.01618],[0.37816,-0.00629]],[[219.01448,153.97425],[-0.37946,0.00868],[0.20062,-0.73902]],[[219.71921,152.73111],[0,0],[0.46606,-0.37635]],[[221.11739,151.60206],[-0.3075,0.51409],[0.51731,-0.86487]],[[219.61958,148.78276],[1.18482,0.80353],[-0.05464,1.33238]]],&quot;closed&quot;:true}]}" fill="#ffffff" stroke="none" stroke-width="0.5" stroke-linecap="butt"/><path d="M228.89424,162.88583c-2.9929,0.03125 -6.0222,0.07323 -9.01058,0.20701c0.55136,-3.03184 1.30805,-7.25037 0.56099,-10.2937c-0.25616,-1.04355 -1.12934,-1.86512 -1.53266,-2.86109c-0.9335,-2.3052 -1.71539,-4.68404 -2.81117,-6.91667c-0.1023,-0.20843 -0.18861,-0.41473 -0.26336,-0.61838c2.06292,2.48683 4.35747,4.78434 6.00242,7.53502c1.48863,2.48927 2.29109,5.45854 3.7945,7.93891c1.20491,1.98787 2.2765,3.38864 3.25985,5.0089z" data-paper-data="{&quot;noHover&quot;:false,&quot;origItem&quot;:[&quot;Path&quot;,{&quot;applyMatrix&quot;:true,&quot;segments&quot;:[[[426.30954,470.33162],[3.93341,-2.47833],[-4.90791,3.09233]],[[410.74664,478.11924],[4.92623,-3.06306],[-5.44353,3.38472]],[[395.87259,490.34837],[4.90144,-4.21139],[0.40465,-0.15653]],[[397.09954,489.79954],[-0.41326,0.21179],[4.42662,-2.2686]],[[410.81288,483.91586],[-4.57736,1.94659],[1.97767,-0.84103]],[[416.41778,480.72968],[-2.07793,0.54841],[6.05987,-1.59933]],[[436.92445,481.57304],[-6.08189,-0.9975],[-0.37108,-5.97122]],[[436.21295,463.63944],[0.1662,5.98382],[-3.20596,2.02253]]],&quot;closed&quot;:true}]}" fill="#ffffff" stroke="none" stroke-width="0.5" stroke-linecap="butt"/><path d="M216.05818,191.89616c2.78693,0.03051 5.63889,-0.29456 8.82975,-0.49335c0.7546,-0.04701 2.64235,0.12985 4.30322,0.30008c-3.41469,4.53908 -8.10363,8.00932 -12.02026,12.05461c-0.11296,-3.93996 -0.54737,-7.96292 -1.11271,-11.86134z" data-paper-data="{&quot;noHover&quot;:false,&quot;origItem&quot;:[&quot;Path&quot;,{&quot;applyMatrix&quot;:true,&quot;segments&quot;:[[[518.35637,485.5462],[-7.87483,0.36239],[-8.22509,-7.69192]],[[493.97841,462.06503],[9.19511,6.67108],[-0.28288,3.32713]],[[493.55393,470.64084],[-0.12015,-1.50735],[0.50808,6.37388]],[[494.81724,488.1705],[-0.03555,-5.57408],[7.7761,-1.26561]]],&quot;closed&quot;:true}]}" fill="#ffffff" stroke="none" stroke-width="0.5" stroke-linecap="butt"/><path d="M249.02201,191.43448c2.60306,-0.19487 5.23026,-0.36681 7.83284,-0.44042c0.2004,-0.00567 0.40237,-0.00898 0.60317,-0.01203c-2.93816,6.40468 -6.19665,12.74494 -10.3891,18.30223c-1.83018,2.426 -3.7128,5.19999 -5.7843,7.4374c-0.30016,0.32421 -0.76178,0.68262 -1.20195,1.05326c0.07455,-0.65637 0.11624,-1.32152 0.2176,-1.97218c0.43342,-2.78251 1.60541,-4.25772 3.07916,-6.63138c4.6242,-5.57928 5.50893,-10.70508 5.64259,-17.73688z" data-paper-data="{&quot;noHover&quot;:false,&quot;origItem&quot;:[&quot;Path&quot;,{&quot;applyMatrix&quot;:true,&quot;segments&quot;:[[[528.28326,432.94021],[-11.31712,-9.05369],[4.79768,2.8648]],[[541.6371,438.88324],[-5.5792,-0.77031],[1.30462,0.18013]],[[545.58491,439.25524],[-1.31512,-0.12634],[-0.75641,-0.86737]],[[543.43551,436.89078],[0.65871,0.589],[-4.54592,-4.06486]],[[528.35388,425.60086],[4.91468,3.57577],[-11.25818,-8.19109]],[[491.57479,405.54401],[12.90925,5.65353],[0.01306,0.40143]],[[491.62141,406.74701],[-0.01828,-0.40053],[0.23737,5.20182]],[[492.78704,422.34508],[-0.47987,-5.19857],[14.06612,0.02364]]],&quot;closed&quot;:true}]}" fill="#ffffff" stroke="none" stroke-width="0.5" stroke-linecap="butt"/><path d="M256.09497,161.94475c-3.80581,0.1391 -7.6568,0.37929 -11.43525,0.5421l0.01292,-0.79096c0.05625,-3.85451 -0.76553,-6.02167 -1.92904,-9.56581c-0.62638,-1.90799 -0.14564,-3.32046 -0.27895,-5.30118c-0.01372,-0.20385 -0.86477,-5.95919 -0.90075,-6.19876c-0.25262,-0.94666 -0.60896,-2.48221 -1.04317,-3.89701c0.38829,0.3214 0.77677,0.72612 0.98778,1.05397c0.38064,0.59139 0.46026,1.32893 0.70299,1.98903c0.22938,0.62378 1.953,5.15325 2.1662,5.4446c1.16192,1.58789 3.17479,2.40751 4.13309,4.12598c1.51579,2.71818 2.53534,5.91493 4.30074,8.52462c0.91621,1.35438 2.12603,2.76147 3.28347,4.07342z" data-paper-data="{&quot;noHover&quot;:false,&quot;origItem&quot;:[&quot;Path&quot;,{&quot;applyMatrix&quot;:true,&quot;segments&quot;:[[[425.52629,415.88008],[2.6766,-1.87907],[-5.15743,3.6207]],[[408.62917,424.87442],[5.38302,-3.12529],[-3.40322,1.97585]],[[400.36032,433.30051],[3.13505,-2.37852],[-0.57522,0.43641]],[[389.53762,437.80752],[1.23942,-0.48029],[-1.31158,0.50825]],[[385.58283,439.27946],[1.16943,-0.78165],[-0.6483,0.43332]],[[383.6803,441.18731],[0.62923,-0.78761],[2.81412,-0.91733]],[[391.43139,438.95817],[-1.88428,0.53797],[0.47782,-0.08027]],[[403.75924,436.91269],[-0.40716,0.0345],[3.95621,-0.33522]],[[414.26611,436.17069],[-3.79369,1.31868],[7.04689,-2.44949]],[[433.27337,432.04537],[-7.70982,0.02107],[0,0]],[[434.85508,432.04537],[0,0],[-0.45647,-7.55011]],[[433.38805,409.278],[0.41002,7.60565],[-2.5834,2.36]]],&quot;closed&quot;:true}]}" fill="#ffffff" stroke="none" stroke-width="0.5" stroke-linecap="butt"/><path d="M311.90972,165.81824c-0.82394,1.17072 -2.03821,2.00793 -2.89399,1.4757c-0.50869,-0.31636 -0.76724,-0.95956 -1.13546,-1.43207c0,0 -0.50843,-0.53622 -1.24386,-0.74961c-0.0021,-0.37955 -0.00326,-0.77977 -0.003,-1.15799c1.03115,-0.85499 2.38879,-2.02116 3.60799,-2.45073c-0.43124,0.44049 -0.70739,1.03878 -0.71892,1.70377c-0.02332,1.3456 1.05601,2.53321 2.38723,2.61092z" data-paper-data="{&quot;noHover&quot;:false,&quot;origItem&quot;:[&quot;Path&quot;,{&quot;applyMatrix&quot;:true,&quot;segments&quot;:[[[217.12172,151.17854],[1.3458,0],[-0.66509,0]],[[215.40431,150.49528],[0.44789,0.42354],[0.45064,1.21157]],[[217.87807,153.99646],[-0.87273,-1.01618],[0.37816,-0.00629]],[[219.01448,153.97425],[-0.37946,0.00868],[0.20062,-0.73902]],[[219.71921,152.73111],[0,0],[0.46606,-0.37635]],[[221.11739,151.60206],[-0.3075,0.51409],[0.51731,-0.86487]],[[219.61958,148.78276],[1.18482,0.80353],[-0.05464,1.33238]]],&quot;closed&quot;:true}]}" fill="#ffffff" stroke="none" stroke-width="0.5" stroke-linecap="butt"/><path d="M228.89424,162.88583c-2.9929,0.03125 -6.0222,0.07323 -9.01058,0.20701c0.55136,-3.03184 1.30805,-7.25037 0.56099,-10.2937c-0.25616,-1.04355 -1.12934,-1.86512 -1.53266,-2.86109c-0.9335,-2.3052 -1.71539,-4.68404 -2.81117,-6.91667c-0.1023,-0.20843 -0.18861,-0.41473 -0.26336,-0.61838c2.06292,2.48683 4.35747,4.78434 6.00242,7.53502c1.48863,2.48927 2.29109,5.45854 3.7945,7.93891c1.20491,1.98787 2.2765,3.38864 3.25985,5.0089z" data-paper-data="{&quot;noHover&quot;:false,&quot;origItem&quot;:[&quot;Path&quot;,{&quot;applyMatrix&quot;:true,&quot;segments&quot;:[[[426.30954,470.33162],[3.93341,-2.47833],[-4.90791,3.09233]],[[410.74664,478.11924],[4.92623,-3.06306],[-5.44353,3.38472]],[[395.87259,490.34837],[4.90144,-4.21139],[0.40465,-0.15653]],[[397.09954,489.79954],[-0.41326,0.21179],[4.42662,-2.2686]],[[410.81288,483.91586],[-4.57736,1.94659],[1.97767,-0.84103]],[[416.41778,480.72968],[-2.07793,0.54841],[6.05987,-1.59933]],[[436.92445,481.57304],[-6.08189,-0.9975],[-0.37108,-5.97122]],[[436.21295,463.63944],[0.1662,5.98382],[-3.20596,2.02253]]],&quot;closed&quot;:true}]}" fill="#ff6666" stroke="none" stroke-width="0.5" stroke-linecap="butt"/><path d="M216.05818,191.89616c2.78693,0.03051 5.63889,-0.29456 8.82975,-0.49335c0.7546,-0.04701 2.64235,0.12985 4.30322,0.30008c-3.41469,4.53908 -8.10363,8.00932 -12.02026,12.05461c-0.11296,-3.93996 -0.54737,-7.96292 -1.11271,-11.86134z" data-paper-data="{&quot;noHover&quot;:false,&quot;origItem&quot;:[&quot;Path&quot;,{&quot;applyMatrix&quot;:true,&quot;segments&quot;:[[[518.35637,485.5462],[-7.87483,0.36239],[-8.22509,-7.69192]],[[493.97841,462.06503],[9.19511,6.67108],[-0.28288,3.32713]],[[493.55393,470.64084],[-0.12015,-1.50735],[0.50808,6.37388]],[[494.81724,488.1705],[-0.03555,-5.57408],[7.7761,-1.26561]]],&quot;closed&quot;:true}]}" fill="#ff6666" stroke="none" stroke-width="0.5" stroke-linecap="butt"/><path d="M249.02201,191.43448c2.60306,-0.19487 5.23026,-0.36681 7.83284,-0.44042c0.2004,-0.00567 0.40237,-0.00898 0.60317,-0.01203c-2.93816,6.40468 -6.19665,12.74494 -10.3891,18.30223c-1.83018,2.426 -3.7128,5.19999 -5.7843,7.4374c-0.30016,0.32421 -0.76178,0.68262 -1.20195,1.05326c0.07455,-0.65637 0.11624,-1.32152 0.2176,-1.97218c0.43342,-2.78251 1.60541,-4.25772 3.07916,-6.63138c4.6242,-5.57928 5.50893,-10.70508 5.64259,-17.73688z" data-paper-data="{&quot;noHover&quot;:false,&quot;origItem&quot;:[&quot;Path&quot;,{&quot;applyMatrix&quot;:true,&quot;segments&quot;:[[[528.28326,432.94021],[-11.31712,-9.05369],[4.79768,2.8648]],[[541.6371,438.88324],[-5.5792,-0.77031],[1.30462,0.18013]],[[545.58491,439.25524],[-1.31512,-0.12634],[-0.75641,-0.86737]],[[543.43551,436.89078],[0.65871,0.589],[-4.54592,-4.06486]],[[528.35388,425.60086],[4.91468,3.57577],[-11.25818,-8.19109]],[[491.57479,405.54401],[12.90925,5.65353],[0.01306,0.40143]],[[491.62141,406.74701],[-0.01828,-0.40053],[0.23737,5.20182]],[[492.78704,422.34508],[-0.47987,-5.19857],[14.06612,0.02364]]],&quot;closed&quot;:true}]}" fill="#ff6666" stroke="none" stroke-width="0.5" stroke-linecap="butt"/><path d="M256.09497,161.94475c-3.80581,0.1391 -7.6568,0.37929 -11.43525,0.5421l0.01292,-0.79096c0.05625,-3.85451 -0.76553,-6.02167 -1.92904,-9.56581c-0.62638,-1.90799 -0.14564,-3.32046 -0.27895,-5.30118c-0.01372,-0.20385 -0.86477,-5.95919 -0.90075,-6.19876c-0.25262,-0.94666 -0.60896,-2.48221 -1.04317,-3.89701c0.38829,0.3214 0.77677,0.72612 0.98778,1.05397c0.38064,0.59139 0.46026,1.32893 0.70299,1.98903c0.22938,0.62378 1.953,5.15325 2.1662,5.4446c1.16192,1.58789 3.17479,2.40751 4.13309,4.12598c1.51579,2.71818 2.53534,5.91493 4.30074,8.52462c0.91621,1.35438 2.12603,2.76147 3.28347,4.07342z" data-paper-data="{&quot;noHover&quot;:false,&quot;origItem&quot;:[&quot;Path&quot;,{&quot;applyMatrix&quot;:true,&quot;segments&quot;:[[[425.52629,415.88008],[2.6766,-1.87907],[-5.15743,3.6207]],[[408.62917,424.87442],[5.38302,-3.12529],[-3.40322,1.97585]],[[400.36032,433.30051],[3.13505,-2.37852],[-0.57522,0.43641]],[[389.53762,437.80752],[1.23942,-0.48029],[-1.31158,0.50825]],[[385.58283,439.27946],[1.16943,-0.78165],[-0.6483,0.43332]],[[383.6803,441.18731],[0.62923,-0.78761],[2.81412,-0.91733]],[[391.43139,438.95817],[-1.88428,0.53797],[0.47782,-0.08027]],[[403.75924,436.91269],[-0.40716,0.0345],[3.95621,-0.33522]],[[414.26611,436.17069],[-3.79369,1.31868],[7.04689,-2.44949]],[[433.27337,432.04537],[-7.70982,0.02107],[0,0]],[[434.85508,432.04537],[0,0],[-0.45647,-7.55011]],[[433.38805,409.278],[0.41002,7.60565],[-2.5834,2.36]]],&quot;closed&quot;:true}]}" fill="#ff6666" stroke="none" stroke-width="0.5" stroke-linecap="butt"/><path d="M261.71038,195.65828v35.23747" fill="none" stroke="#000000" stroke-width="5" stroke-linecap="round"/><path d="M264.09937,192.97066c0,14.6783 -11.76541,26.57741 -26.27879,26.57741c-14.51337,0 -26.27879,-11.89911 -26.27879,-26.57741c0,-14.6783 11.76542,-26.57741 26.27879,-26.57741c14.51337,0 26.27879,11.89911 26.27879,26.57742z" fill="#0600ff" stroke="#000000" stroke-width="5" stroke-linecap="butt"/><path d="M274.47461,136.45434c0,19.95589 -10.29474,36.13333 -22.99395,36.13333c-12.69921,0 -22.99394,-16.17744 -22.99394,-36.13333c0,-19.95589 10.29474,-36.13334 22.99394,-36.13334c12.6992,0 22.99395,16.17745 22.99395,36.13334z" fill="#0600ff" stroke="#000000" stroke-width="5" stroke-linecap="butt"/><path d="M249.1683,135.63513c0,19.95589 -10.29473,36.13333 -22.99394,36.13333c-12.69921,0 -22.99395,-16.17744 -22.99395,-36.13333c0,-15.10729 5.89992,-28.04915 14.27652,-33.44619c2.1221,-0.09817 4.1985,-0.48494 5.88993,-1.39829c0.55698,-0.30076 1.08658,-0.74856 1.61506,-1.23949c0.40151,-0.03278 0.80574,-0.04937 1.21244,-0.04937c12.69921,0 22.99394,16.17745 22.99394,36.13334z" fill="#0600ff" stroke="#000000" stroke-width="5" stroke-linecap="butt"/><path d="M329.19911,160.71938c0,10.39025 -26.87328,18.81323 -60.02315,18.81323c-33.14987,0 -60.02314,-8.42297 -60.02314,-18.81323c0,-10.39025 26.87328,-18.81322 60.02315,-18.81322c33.14987,0 60.02315,8.42297 60.02315,18.81322z" fill="#0600ff" stroke="#000000" stroke-width="5" stroke-linecap="butt"/><path d="M217.51431,166.46249c-2.58837,0 -3.60035,-1.57639 -3.99601,-2.80903c-2.92809,-2.81694 -5.63683,-5.31952 -4.00256,-10.47516c0.4676,-1.47516 2.53128,-1.78641 3.72181,-2.77502c4.05665,-3.36864 6.91666,-5.10032 12.2194,-6.15675c0.73209,0.02803 1.44675,-0.121 2.15662,-0.3244c0.06742,-0.08667 0.13688,-0.17204 0.20852,-0.25605c1.00153,-1.17434 2.91153,-1.02621 4.35601,-1.56991c1.45134,-0.54629 2.73027,-1.054 3.98874,-1.47596c0.04084,-0.06222 0.08253,-0.12399 0.12511,-0.18528c0.8011,-1.15311 2.40481,-1.4958 3.73288,-1.9515c1.17959,-0.40475 2.40077,-0.59748 3.64525,-0.65566c0.01223,-0.07873 0.0272,-0.15841 0.04508,-0.23899c-1.20753,-1.03082 -2.43366,-2.03526 -2.87291,-3.49622c-0.77695,-2.5842 -2.55746,-5.90355 -0.91379,-8.04367c0.87874,-1.14415 2.38452,-1.25258 3.9887,-1.11228c-0.54174,-0.44813 -1.08107,-0.8858 -1.61982,-1.31597c-0.67288,-0.14054 -1.18375,-0.63038 -1.49049,-0.57635c0,0 -0.25,0 -0.25,-0.25c0,-0.25 0.25,-0.25 0.25,-0.25c0.05373,0.00483 0.10396,0.01176 0.15111,0.02047c-2.048,-1.59507 -4.10941,-3.11779 -6.28457,-4.73189c0,0 -3.4,-2.55 -0.85,-5.95c2.55,-3.4 5.95,-0.85 5.95,-0.85c1.4737,1.12054 3.21505,1.8505 4.71298,2.93844c1.59044,1.15512 2.43036,2.58142 3.88306,3.82057c2.05213,1.75048 4.90064,3.47335 6.39853,5.80128c1.11082,1.72638 3.11585,3.44338 2.82037,5.47487c-0.51918,3.56934 -2.61235,5.08078 -5.10468,5.59076c0.60806,0.84783 1.19428,1.70913 1.76962,2.57867c1.80818,-1.13728 3.73745,-2.06072 5.84208,-1.96663c1.20081,0.05369 2.41362,0.51848 3.53882,1.19826c0.34503,-1.03775 1.54408,-3.57876 4.88223,-2.91113c4.16747,0.83349 3.33398,5.00096 3.33398,5.00096c-0.35091,1.68542 -0.52858,3.41746 -0.51471,5.13896v2.98623c0,2.34721 -1.90279,4.25 -4.25,4.25c-0.89346,0 -1.72253,-0.2757 -2.40677,-0.74667c-1.67607,2.18226 -4.66156,2.76744 -7.32761,3.11497c-5.65969,0.73777 -11.88465,-1.26221 -17.49219,-1.78554c-0.27672,-0.02582 -0.58196,-0.05537 -0.90784,-0.08596c-2.33301,0.3917 -4.64943,0.76847 -6.86681,1.2124l-2.90017,0.58004c-0.29611,0.06531 -0.60381,0.09974 -0.91955,0.09974c-0.78396,0 -1.51835,-0.21227 -2.14882,-0.58246c-1.5417,0.30212 -2.69781,0.43188 -4.13043,1.23195c-1.16685,0.65166 -1.92807,1.88306 -2.94127,2.74951c0.51932,0.57221 0.95683,1.36947 1.47531,1.88794l1.2448,3.60245c0,0 0,4.25 -4.25,4.25z" fill="#0600ff" stroke="none" stroke-width="0.5" stroke-linecap="butt"/><path d="M219.90329,250.60486l0.59724,-35.83471" fill="none" stroke="#000000" stroke-width="5" stroke-linecap="round"/><path d="M249.1683,252.3966l0.59725,-32.84849" fill="none" stroke="#000000" stroke-width="5" stroke-linecap="round"/><path d="M206.76389,230.2985l1.19449,-41.80717" fill="none" stroke="#000000" stroke-width="5" stroke-linecap="round"/><path d="M214.52808,134.73917c0,2.30894 -0.93589,4.18071 -2.09036,4.18071c-1.15447,0 -2.09036,-1.87177 -2.09036,-4.18071c0,-2.30894 0.93588,-4.18071 2.09036,-4.18071c1.15447,0 2.09036,1.87177 2.09036,4.18071z" fill="#000000" stroke="#000000" stroke-width="5" stroke-linecap="butt"/><path d="M267.90489,135.55847c0,2.30894 -0.93588,4.18072 -2.09036,4.18072c-1.15447,0 -2.09036,-1.87178 -2.09036,-4.18072c0,-2.30894 0.93588,-4.18071 2.09036,-4.18071c1.15447,0 2.09036,1.87177 2.09036,4.18071z" fill="#000000" stroke="#000000" stroke-width="5" stroke-linecap="butt"/><path d="M328.00463,162.21249l-99.14271,-0.59724" fill="none" stroke="#000000" stroke-width="5" stroke-linecap="round"/><path d="M288.47022,119.85491l-1.05912,1.55387c-1.01568,2.02462 -1.79367,4.08706 -2.36319,6.17592c2.9018,-0.36389 5.80132,-0.76945 8.63226,-1.5173c5.84926,-1.5452 12.26697,-3.28214 17.96387,-5.38658c1.92275,-0.71027 3.75303,-1.62962 5.58257,-2.55353c-0.70345,-0.09556 -1.4087,-0.1682 -2.11714,-0.2006c-8.78444,-0.4017 -17.51963,0.69223 -26.2782,1.08475c-0.13233,0.50039 -0.36106,0.84347 -0.36106,0.84347zM286.65069,154.17662c0.85558,2.74369 2.14825,5.25506 2.97462,8.0233c0.87455,1.7491 1.42102,3.64384 2.12635,5.46776c1.78535,4.61673 4.6916,8.79326 6.4155,13.46343c2.50734,6.79261 4.69669,13.90658 4.6961,21.17604c-0.00021,2.66634 1.35029,9.38926 -0.92756,11.36026c-1.20295,1.04091 -3.1869,0.38733 -4.76773,0.20972c-3.43391,-0.38579 -6.82921,-2.10312 -10.23707,-2.78357c-8.1862,-2.96957 -16.03066,-6.27592 -23.63474,-10.55486c-3.86922,-2.17727 -7.86978,-3.61819 -11.49202,-6.23773c-4.56678,-3.30261 -8.07436,-7.4429 -12.29089,-11.04602c-2.91785,-2.49337 -6.10157,-4.70741 -9.02915,-7.22242c-10.43742,-7.29893 -19.95914,-15.53459 -29.08604,-24.30661c-10.15708,2.932 -21.07567,1.99699 -31.31662,-0.4482c-5.26904,-1.25806 -9.93948,-1.98056 -14.8475,-4.19085c-0.59299,-0.0278 -1.31766,-0.24472 -1.81274,-1.01204c-0.56295,-0.51888 -1.20224,-1.48713 -0.49343,-2.90474c0.77419,-1.54838 2.08448,-1.48848 2.81719,-1.30519c8.09764,-2.68886 16.26042,-5.29009 24.30243,-8.12047c0.6689,-5.29847 3.07083,-10.13802 3.94122,-15.40121c1.4874,-8.9942 0.6966,-19.27712 6.93448,-26.70348c1.98123,-2.3587 4.53837,-3.84821 7.11354,-5.45199c6.90528,-3.08368 13.19362,-7.11041 20.68521,-8.73951c3.85921,-0.83921 8.15867,-0.36197 12.07936,-0.36197c10.04321,0 19.98868,0.1372 29.53508,3.54202c3.66402,1.87105 5.24366,3.96075 7.68663,7.15869c2.33255,3.0534 5.07071,5.69782 7.1148,8.99319c2.58931,4.17434 3.87371,9.26681 5.42246,13.91081l0.83745,1.93212c0,0 0.3016,0.70374 0.18154,1.49923c0.59744,0.01455 1.1891,0.02322 1.7733,0.02322c10.69022,0.00618 21.32468,-1.73912 32.03352,-1.21123c2.91441,0.14367 5.74659,0.90728 8.64323,1.22652l1.54651,-0.01529c0,0 2.5,0 2.5,2.5c0,1.87026 -1.39915,2.34137 -2.10403,2.46004c-0.48221,0.77389 -1.34075,1.09584 -1.34075,1.09584c-3.87815,1.44814 -7.36785,3.7267 -11.24729,5.16698c-5.85387,2.17332 -12.46263,3.96869 -18.48787,5.54894c-3.54519,0.9298 -7.20472,1.32791 -10.83651,1.78486c-0.84072,7.10809 0.38808,14.40865 2.59143,21.47438zM195.30657,145.7431c-2.90964,-2.91505 -5.16022,-6.35449 -7.77376,-9.50503c-0.76635,0.35724 -1.54657,0.68869 -2.34769,0.98083c-7.1987,2.62509 -14.52862,5.01161 -21.83914,7.40719c2.53947,0.6551 5.11895,1.12881 7.88422,1.78539c8.46443,2.00977 17.45047,2.99979 25.9639,1.21171c-0.63066,-0.62442 -1.25978,-1.25116 -1.88754,-1.88009zM198.86009,142.22565c1.23707,1.23464 2.4786,2.46058 3.72615,3.67683c0.60851,-0.21468 2.21798,-0.5719 3.11221,1.21656c0.395,0.79001 0.37134,1.44046 0.17554,1.95136c8.70287,8.28336 17.7576,16.06266 27.67441,23.01118c2.98467,2.55307 6.23344,4.81173 9.19672,7.35828c5.0885,4.37288 9.2758,9.74176 15.31957,13.04811c9.72277,5.31901 19.80988,9.99621 30.21471,13.79088c1.88465,0.37754 3.71776,0.98165 5.55541,1.54511c1.40407,0.43051 2.88996,0.59986 4.25598,1.13908c0.33364,0.1317 0.6048,1.16307 0.70003,0.81725c0.11145,-0.40474 -0.52943,-0.68502 -0.6238,-1.09408c-0.41603,-1.80334 -0.30362,-4.6104 -0.30376,-6.37905c-0.00097,-12.10982 -6.49744,-21.89359 -10.75945,-32.79624c-0.71199,-1.82134 -1.2518,-3.71866 -2.12635,-5.46776c-0.87051,-2.88791 -2.20306,-5.51286 -3.10067,-8.37998c-2.29083,-7.3173 -3.53999,-14.84487 -2.90223,-22.21685c-0.40364,0.07256 -0.80608,0.14941 -1.20711,0.2314l-1.52231,0.52779c0,0 -2.37171,0.79057 -3.16228,-1.58114c-0.79057,-2.37171 1.58114,-3.16228 1.58114,-3.16228l2.12287,-0.68727c0.98113,-0.19252 1.96952,-0.35587 2.96244,-0.50237c0.66679,-3.08599 1.70853,-6.12852 3.18965,-9.09973l0.01878,-0.02865c-5.12148,-0.03865 -10.94325,-0.79792 -15.94932,-0.02498c-5.49973,0.84915 -11.07878,2.26845 -16.55405,3.31407c-7.01762,1.34016 -14.36699,1.24795 -21.46469,2.16028c-5.49914,0.70686 -10.72804,2.22057 -16.30056,2.71866c-4.47869,1.12961 -9.22106,1.78884 -13.59632,3.24695c-2.48784,0.8291 -4.76734,2.06725 -7.04418,3.31895c2.23216,2.81358 4.25721,5.79842 6.81145,8.34766zM275.81674,112.27214c-1.13738,-3.41387 -2.11212,-7.12953 -3.56184,-10.41567c-1.88002,-4.26152 -5.42987,-7.40843 -8.20206,-11.02995c-1.92117,-2.50977 -2.7805,-4.19627 -5.67901,-5.59942c-8.85204,-3.1664 -18.26026,-3.1408 -27.57264,-3.1408c-3.51372,0 -7.55096,-0.54262 -11.00674,0.24556c-7.03436,1.60438 -12.89166,5.38847 -19.41171,8.27131c-2.02274,1.26957 -4.07089,2.42826 -5.64456,4.26847c-5.52437,6.46005 -4.50726,16.48572 -5.82363,24.32896c-0.71838,4.28024 -2.51997,8.30215 -3.45468,12.50963c4.08614,-1.83976 7.74662,-4.45927 12.0441,-5.89203c4.61748,-1.53945 9.62087,-2.26304 14.35002,-3.43587c5.64675,-0.52155 10.92723,-2.01172 16.50601,-2.7491c6.95524,-0.91931 14.18936,-0.76077 21.06234,-2.09242c5.56339,-1.07791 11.25904,-2.54949 16.86004,-3.36875c3.25006,-0.47538 6.76168,-0.39058 10.23641,-0.24623z" fill="#000000" stroke="none" stroke-width="0.5" stroke-linecap="butt"/><path d="M197.24188,147.63794c-8.51343,1.78808 -17.59295,0.80361 -26.05738,-1.20617c-2.76527,-0.65658 -5.34863,-1.14406 -7.8881,-1.79916c7.31051,-2.39558 14.72443,-4.82489 21.92313,-7.44998c0.80112,-0.29214 1.58505,-0.61966 2.3514,-0.9769c2.61355,3.15054 4.87479,6.63318 7.78444,9.54822c0.62776,0.62893 1.25585,1.25956 1.88651,1.88398z" data-paper-data="{&quot;noHover&quot;:false,&quot;origItem&quot;:[&quot;Path&quot;,{&quot;applyMatrix&quot;:true,&quot;segments&quot;:[[[195.30657,145.7431],[0.62776,0.62893],[-2.90964,-2.91505]],[[187.5328,136.23807],[2.61355,3.15054],[-0.76635,0.35724]],[[185.18512,137.2189],[0.80112,-0.29214],[-7.1987,2.62509]],[[163.34598,144.62609],[7.31051,-2.39558],[2.53947,0.6551]],[[171.2302,146.41148],[-2.76527,-0.65658],[8.46443,2.00977]],[[197.19411,147.62319],[-8.51343,1.78808],[-0.63066,-0.62442]]],&quot;closed&quot;:true}]}" fill="#7a4100" stroke="none" stroke-width="0.5" stroke-linecap="butt"/><path d="M288.78339,118.99704c8.75857,-0.39252 17.58894,-1.48826 26.37338,-1.08655c0.70843,0.0324 1.41447,0.10754 2.11792,0.2031c-1.82954,0.92391 -3.65881,1.84747 -5.58157,2.55774c-5.69689,2.10444 -12.20929,3.87139 -18.05855,5.41659c-2.83094,0.74785 -5.73272,1.14739 -8.63451,1.51128c0.56953,-2.08886 1.34559,-4.17052 2.36127,-6.19514l1.06012,-1.56015c0,0 0.22961,-0.34648 0.36195,-0.84687z" data-paper-data="{&quot;noHover&quot;:false,&quot;origItem&quot;:[&quot;Path&quot;,{&quot;applyMatrix&quot;:true,&quot;segments&quot;:[[288.47022,119.85491],[[287.4111,121.40878],[0,0],[-1.01568,2.02462]],[[285.04791,127.5847],[0.56953,-2.08886],[2.9018,-0.36389]],[[293.68017,126.06739],[-2.83094,0.74785],[5.84926,-1.5452]],[[311.64404,120.68082],[-5.69689,2.10444],[1.92275,-0.71027]],[[317.22661,118.12729],[-1.82954,0.92391],[-0.70345,-0.09556]],[[315.10947,117.92669],[0.70843,0.0324],[-8.78444,-0.4017]],[[288.83128,119.01144],[8.75857,-0.39252],[-0.13233,0.50039]]],&quot;closed&quot;:true}]}" fill="#7a4100" stroke="none" stroke-width="0.5" stroke-linecap="butt"/><path d="M276.56818,113.93356c-3.47473,-0.14434 -6.9868,-0.22666 -10.23686,0.24872c-5.60101,0.81925 -11.30239,2.30578 -16.86578,3.38369c-6.87298,1.33165 -14.16035,1.19693 -21.11559,2.11624c-5.57878,0.73738 -10.888,2.21013 -16.53475,2.73168c-4.72914,1.17283 -9.73723,1.88954 -14.35472,3.42899c-4.29748,1.43276 -7.95834,4.05158 -12.04448,5.89134c0.93472,-4.20748 2.73221,-8.23926 3.45059,-12.5195c1.31637,-7.84324 0.29973,-17.89868 5.8241,-24.35873c1.57367,-1.84021 3.62513,-3.00666 5.64787,-4.27623c6.52005,-2.88284 12.40073,-6.689 19.4351,-8.29338c3.45578,-0.78818 7.51344,-0.25009 11.02716,-0.25009c9.31239,0 18.76025,-0.00655 27.61229,3.15985c2.89851,1.40315 3.76358,3.09884 5.68476,5.60861c2.77219,3.62152 6.32668,6.78423 8.20669,11.04576c1.44971,3.28614 2.42444,7.0138 3.56182,10.42768z" data-paper-data="{&quot;noHover&quot;:false,&quot;origItem&quot;:[&quot;Path&quot;,{&quot;applyMatrix&quot;:true,&quot;segments&quot;:[[[275.81674,112.27214],[0,0],[-1.13738,-3.41387]],[[272.25491,101.85647],[1.44971,3.28614],[-1.88002,-4.26152]],[[264.05284,90.82652],[2.77219,3.62152],[-1.92117,-2.50977]],[[258.37383,85.2271],[2.89851,1.40315],[-8.85204,-3.1664]],[[230.80119,82.0863],[9.31239,0],[-3.51372,0]],[[219.79445,82.33186],[3.45578,-0.78818],[-7.03436,1.60438]],[[200.38274,90.60317],[6.52005,-2.88284],[-2.02274,1.26957]],[[194.73818,94.87164],[1.57367,-1.84021],[-5.52437,6.46005]],[[188.91455,119.2006],[1.31637,-7.84324],[-0.71838,4.28024]],[[185.45986,131.71023],[0.93472,-4.20748],[4.08614,-1.83976]],[[197.50396,125.8182],[-4.29748,1.43276],[4.61748,-1.53945]],[[211.85397,122.38233],[-4.72914,1.17283],[5.64675,-0.52155]],[[228.35998,119.63324],[-5.57878,0.73738],[6.95524,-0.91931]],[[249.42233,117.54082],[-6.87298,1.33165],[5.56339,-1.07791]],[[266.28237,114.17207],[-5.60101,0.81925],[3.25006,-0.47538]],[[276.51878,113.92584],[-3.47473,-0.14434],[0,0]]],&quot;closed&quot;:true}]}" fill="#a25600" stroke="none" stroke-width="0.5" stroke-linecap="butt"/></g></g></svg>