<svg version="1.1" xmlns="http://www.w3.org/2000/svg" xmlns:xlink="http://www.w3.org/1999/xlink" width="131.01874" height="157.50538" viewBox="0,0,131.01874,157.50538"><g transform="translate(-201.06977,-97.39118)"><g data-paper-data="{&quot;isPaintingLayer&quot;:true}" fill-rule="nonzero" stroke-linejoin="miter" stroke-miterlimit="10" stroke-dasharray="" stroke-dashoffset="0" style="mix-blend-mode: normal"><path d="M261.71038,230.89574v-35.23747" fill="none" stroke="#10ff00" stroke-width="5" stroke-linecap="round"/><path d="M264.48877,193.36003c0,14.6783 -11.76542,26.57741 -26.27879,26.57741c-14.51337,0 -26.27879,-11.89911 -26.27879,-26.57741c0,-14.6783 11.76541,-26.57741 26.27879,-26.57741c14.51337,0 26.27879,11.89911 26.27879,26.57742z" fill="#ff9b00" stroke="#10ff00" stroke-width="5" stroke-linecap="butt"/><path d="M274.864,136.84376c0,19.95589 -10.29474,36.13334 -22.99394,36.13334c-12.69921,0 -22.99394,-16.17745 -22.99394,-36.13334c0,-19.95589 10.29474,-36.13334 22.99394,-36.13334c12.69921,0 22.99394,16.17745 22.99394,36.13334z" fill="#ff9b00" stroke="#10ff00" stroke-width="5" stroke-linecap="butt"/><path d="M249.3249,179.83529c0.12968,-0.16454 0.28533,-0.31039 0.47274,-0.43338c2.43703,-1.59932 7.25314,0.8598 9.03114,2.62482c4.2719,4.24071 5.90732,16.69955 -0.81106,19.6541c-1.84148,0.80983 -6.9601,-0.0153 -8.29266,-1.44534c-1.40726,-1.51021 -0.29241,-4.21536 -1.17914,-6.07945c-1.26924,-2.6682 -4.11315,-4.26427 -4.82168,-7.45066c-0.60567,-2.7238 0.11245,-4.20617 0.80814,-6.71301c0,0 0.6868,-2.40381 3.09061,-1.71701c1.06177,0.30336 1.52055,0.94171 1.70188,1.55993z" fill="#ff00ef" stroke="none" stroke-width="0.5" stroke-linecap="butt"/><path d="M249.55766,136.02452c0,19.95589 -10.29474,36.13333 -22.99394,36.13333c-12.69921,0 -22.99394,-16.17744 -22.99394,-36.13333c0,-19.95589 10.29474,-36.13334 22.99394,-36.13334c12.69921,0 22.99394,16.17745 22.99394,36.13334z" fill="#ff9b00" stroke="#10ff00" stroke-width="5" stroke-linecap="butt"/><path d="M329.58851,161.10879c0,10.39025 -26.87328,18.81322 -60.02315,18.81322c-33.14987,0 -60.02314,-8.42297 -60.02314,-18.81322c0,-10.39025 26.87327,-18.81322 60.02314,-18.81322c33.14987,0 60.02315,8.42297 60.02315,18.81322z" fill="#ff9b00" stroke="#10ff00" stroke-width="5" stroke-linecap="butt"/><path d="M217.51424,166.46249c-2.58837,0 -3.60035,-1.57639 -3.99601,-2.80903c-2.92809,-2.81694 -5.63683,-5.31952 -4.00256,-10.47516c0.46761,-1.47515 2.53128,-1.78641 3.72181,-2.77502c4.05665,-3.36864 6.91665,-5.10032 12.2194,-6.15675c0.73209,0.02803 1.44675,-0.12101 2.15663,-0.3244c0.06741,-0.08666 0.13688,-0.17204 0.20852,-0.25604c1.00154,-1.17435 2.91153,-1.02621 4.35601,-1.56991c1.45134,-0.54629 2.73026,-1.05399 3.98874,-1.47596c0.04084,-0.06222 0.08253,-0.12399 0.12511,-0.18528c0.80109,-1.15311 2.40481,-1.4958 3.73288,-1.9515c1.17959,-0.40475 2.40077,-0.59748 3.64526,-0.65566c0.01223,-0.07873 0.0272,-0.15841 0.04508,-0.23899c-1.20753,-1.03082 -2.43366,-2.03527 -2.87291,-3.49622c-0.77695,-2.5842 -2.55745,-5.90356 -0.91379,-8.04368c0.87874,-1.14415 2.38452,-1.25258 3.9887,-1.11228c-0.54175,-0.44813 -1.08107,-0.8858 -1.61982,-1.31597c-0.67288,-0.14054 -1.18376,-0.63037 -1.49049,-0.57634c0,0 -0.25,0 -0.25,-0.25c0,-0.25 0.25,-0.25 0.25,-0.25c0.05374,0.00483 0.10395,0.01175 0.15111,0.02046c-2.048,-1.59507 -4.10941,-3.11779 -6.28457,-4.73189c0,0 -3.4,-2.55 -0.85,-5.95c2.55,-3.4 5.95,-0.85 5.95,-0.85c1.47371,1.12054 3.21505,1.8505 4.71298,2.93845c1.59044,1.15512 2.43036,2.58141 3.88306,3.82057c2.05214,1.75048 4.90064,3.47335 6.39853,5.80128c1.11082,1.72638 3.11586,3.44337 2.82036,5.47487c-0.51918,3.56934 -2.61235,5.08078 -5.10468,5.59077c0.60806,0.84783 1.19428,1.70913 1.76962,2.57867c1.80818,-1.13729 3.73745,-2.06072 5.84208,-1.96663c1.20082,0.05369 2.41362,0.51847 3.53882,1.19825c0.34503,-1.03775 1.54408,-3.57876 4.88224,-2.91113c4.16747,0.83349 3.33397,5.00096 3.33397,5.00096c-0.35091,1.68541 -0.52858,3.41746 -0.51471,5.13896v2.98622c0,2.34721 -1.90279,4.25 -4.25,4.25c-0.89346,0 -1.72253,-0.2757 -2.40677,-0.74667c-1.67607,2.18226 -4.66156,2.76744 -7.32762,3.11497c-5.65969,0.73777 -11.88465,-1.2622 -17.49219,-1.78554c-0.27672,-0.02582 -0.58196,-0.05537 -0.90783,-0.08596c-2.33301,0.3917 -4.64943,0.76848 -6.86681,1.2124l-2.90017,0.58004c-0.29611,0.06531 -0.60381,0.09974 -0.91955,0.09974c-0.78397,0 -1.51835,-0.21227 -2.14882,-0.58246c-1.5417,0.30212 -2.69781,0.43187 -4.13043,1.23195c-1.16685,0.65166 -1.92807,1.88306 -2.94127,2.74952c0.51932,0.57221 0.95684,1.36946 1.47531,1.88794l1.2448,3.60245c0,0 0,4.25 -4.25,4.25z" fill="#ff9b00" stroke="none" stroke-width="0.5" stroke-linecap="butt"/><path d="M220.50047,214.77011l-0.59725,35.83471" fill="none" stroke="#10ff00" stroke-width="5" stroke-linecap="round"/><path d="M249.76548,219.54807l-0.59725,32.84849" fill="none" stroke="#10ff00" stroke-width="5" stroke-linecap="round"/><path d="M209.35723,118.55369c0.53957,-0.76554 1.45534,-1.02719 1.45534,-1.02719c4.04879,-1.1461 9.28952,-2.4273 13.24768,-0.14028c1.89391,1.0943 3.16041,3.30583 4.31705,5.0515c3.37489,5.09363 5.15027,12.92907 2.52549,18.79154c-2.79584,6.24452 -7.96253,8.75723 -13.76662,11.5086c-3.76768,0.07635 -7.63553,0.97872 -10.38196,-2.51682c-2.01195,-2.56072 -1.2101,-6.40384 -1.62482,-9.30494c-0.271,-1.89577 -1.05006,-3.71115 -1.18612,-5.62135c-0.38553,-5.41234 1.81617,-9.47472 4.1518,-14.14598l0.20013,-1.04597c0,0 0.24817,-0.99268 1.06204,-1.54911z" fill="#ff00ef" stroke="none" stroke-width="0.5" stroke-linecap="butt"/><path d="M207.95832,188.49129l-1.19449,41.80717" fill="none" stroke="#10ff00" stroke-width="5" stroke-linecap="round"/><path d="M214.91743,135.12859c0,2.30895 -0.93589,4.18072 -2.09036,4.18072c-1.15447,0 -2.09036,-1.87177 -2.09036,-4.18072c0,-2.30895 0.93589,-4.18072 2.09036,-4.18072c1.15447,0 2.09036,1.87177 2.09036,4.18072z" fill="#000000" stroke="#10ff00" stroke-width="5" stroke-linecap="butt"/><path d="M268.29429,135.94789c0,2.30894 -0.93588,4.18072 -2.09035,4.18072c-1.15448,0 -2.09036,-1.87178 -2.09036,-4.18072c0,-2.30894 0.93588,-4.18072 2.09036,-4.18072c1.15447,0 2.09035,1.87177 2.09035,4.18072z" fill="#000000" stroke="#10ff00" stroke-width="5" stroke-linecap="butt"/><path d="M328.39403,162.6019l-99.14271,-0.59725" fill="none" stroke="#10ff00" stroke-width="5" stroke-linecap="round"/><path d="M220.63841,179.73683h0.20694c0.64376,0 5.67131,-0.01841 6.0262,0.06688c2.09303,0.50299 4.21815,2.31975 5.90813,3.49095c7.19756,4.98811 10.34501,10.93644 7.79929,19.58184c-0.97959,1.11691 -1.6889,2.54768 -2.93878,3.35072c-1.43769,0.92371 -3.49545,0.51137 -4.91224,1.46682c-1.56535,1.05563 -2.21237,3.1712 -3.78856,4.21057c-2.20522,1.45417 -5.31188,1.59985 -7.73713,0.73484c-9.22157,-3.28906 -9.03452,-15.06508 -7.89418,-22.96785c0.39609,-2.74496 0.40462,-4.13562 1.87143,-6.74451c0.56517,-1.00521 1.45842,-1.78675 2.18763,-2.68013c0,0 1.46369,-1.75643 3.27127,-0.51012z" fill="#ff00ef" stroke="none" stroke-width="0.5" stroke-linecap="butt"/></g></g></svg>