<svg version="1.1" xmlns="http://www.w3.org/2000/svg" xmlns:xlink="http://www.w3.org/1999/xlink" width="541.06693" height="471.33046" viewBox="0,0,541.06693,471.33046"><g transform="translate(29.65573,30.00008)"><g data-paper-data="{&quot;isPaintingLayer&quot;:true}" fill-rule="nonzero" stroke="none" stroke-linecap="butt" stroke-linejoin="miter" stroke-miterlimit="10" stroke-dasharray="" stroke-dashoffset="0" style="mix-blend-mode: normal"><path d="M164.23718,-29.54708l57,11l1.57011,0.46907l1.59843,0.36094l4.79085,1.59695l6.54266,-0.72696l0.36635,-0.00403l0.36038,-0.066l49,-4l0.31249,0.00569l0.30873,-0.04862l53,-3l0.49957,0.02156l0.49665,-0.05804l60,-1l1.09722,0.09128l1.10057,-0.03122l14,1l0.14641,0.02528l0.14855,-0.00246l24,2l0.90454,0.16723l0.91838,0.05234l19,3l1.71506,0.4494l1.73803,0.3502l13,4l3.61863,1.52212l0.63304,0.4392l0.71926,0.27624l3.29429,2.13519l5,4l2.62002,2.56307l0.07204,0.05763l0.0537,0.06538l0.06048,0.05917l0.05118,0.07676l2.32646,2.83221l2,3l0.17147,0.32277l0.90227,1.04473l0.51857,1.62979l0.24947,0.46958l0.93754,3.26101l1.0288,3.23337l0.05291,0.5291l0.47257,1.64371l-0.17122,1.36976l0.03637,0.36368v1.98913l0.15576,0.61332l-0.15576,0.993v0.40454l-0.39062,3.90625l-0.56327,1.77027l-0.28789,1.83527l-0.30606,0.80342l-0.45216,4.06942v9.61537l-0.12407,1.2407v1.24689l-0.76255,7.62553l0.75655,8.322l2.9621,25.67155l1.99674,16.97229l0.00882,0.5057l0.08878,0.49792l0.95437,12.40685l0.73897,5.91172l1.63386,6.53545l0.2815,1.92359l0.07431,0.23355l0.0866,0.86604l0.12603,0.86118l-0.01545,0.2446l0.19344,1.93443v6.74575l1.59675,8.78211l0.22212,2.76413l0.05706,0.26987v0.44027l0.03527,0.43885l-0.03527,0.27357v2.77304l-0.94911,9.49106l-0.96996,16.4894l-0.26615,1.66592l0.00325,0.19597l-0.19502,1.00437l-0.16141,1.01031l-0.07029,0.18296l-0.32158,1.65612l-1.94566,6.48552v33.33078l-0.11289,1.1289l0.01022,1.13449l-2,22l-0.06278,0.32585l-0.00579,0.33179l-1.97453,16.78349l-0.85424,8.54237v0.74224l0.15576,0.61332l-0.15576,0.993v0.40454l-0.39062,3.90625l-0.56327,1.77027l-0.28789,1.83527l-0.07145,0.18755l-0.02693,0.41063l-1,6l-0.26157,0.96455l-0.14471,0.98886l-1.75785,7.0314l-0.68272,4.09631l-2.72068,29.92749l0.04254,0.14797l-0.13485,1.07882v2.65462l-0.39062,3.90625l-0.70738,2.22321l-0.17556,1.40445l-0.42635,0.48726l-1.42508,4.47883l-7.42187,8.59375l-14.45312,3.90625l-14.45312,-3.90625l-2.67187,-3.09375h-2.37288l-0.59418,0.22635l-0.25126,0.13905l-0.57902,0.17725l-0.56588,0.21557l-0.2837,0.0445l-2.32519,0.71179l-1.71706,0.34341l-3.0055,1.50275l-1.65681,0.63116l-1.61784,0.72524l-8.46125,2.82042l-12.46996,4.79614l-1.47329,0.40379l-1.43779,0.51613l-3.59589,0.89897l-6.59948,1.88556l-1.89231,0.34167l-1.87485,0.42718l-8,1l-0.17191,0.00424l-0.16817,0.0359l-9,1l-1.38379,0.01521l-1.377,0.1377h-6l-1.1289,-0.11289l-1.13449,0.01022l-9.87063,-0.89733h-10.86597l-1.54681,-0.15468l-1.55405,-0.03837l-8,-1l-1.47037,-0.33502l-1.49216,-0.21836l-1.88862,-0.47215l-11.82917,-0.84494l-0.87113,-0.15041l-0.88323,-0.03732l-6.69324,-0.95618l-15.23676,-1.79256h-3.53447l-1.54681,-0.15468l-1.55405,-0.03837l-8,-1l-0.49871,-0.11363l-0.5104,-0.03347l-3.95909,-0.65985h-9.93094l-2.05208,-0.20521l-2.05789,-0.13494l-3.95909,-0.65985h-37.50003l-28.40552,0.9795l-20.83626,0.9922l-0.149,-0.00777l-0.14784,0.02014l-25.2123,0.90044l-0.19821,0.0683l-0.56532,-0.04103l-2.02417,0.07229l-3.9177,-0.25096l-1.22199,-0.34129l-1.26543,-0.09185l-3.77194,-1.08806l-1.8806,-0.75224l-0.54592,-0.15247l-0.16345,-0.13128l-2.41003,-0.96401l-1.54891,-0.80672l-1.66633,-0.53019l-2.33153,-2.0136l-13.26556,2.65311l-1.21684,0.1193l-1.19847,0.24211l-9.69294,0.96929l-14.93703,1.86713l-15.25041,2.85945l-2.3051,0.19798l-2.30211,0.23021h-12l-1.03556,-0.10356l-1.04058,0.0172l-10.96373,-0.91364h-1.94927l-0.61332,0.15576l-0.993,-0.15576h-0.40454l-2.9668,-0.29668l-0.64126,2.77881l-6.83529,31.24704l-1.8968,11.3808l-1.02749,3.78888l-1.62494,3.17371l-0.91366,3.38055l-1.46496,1.26519l-0.10641,0.20784l-3.53955,2.94095l-3.48283,3.0079l-0.2225,0.0708l-1.48881,1.23703l-3.48476,0.34547l-3.39767,1.08108l-2.21289,0.22129l-1.1995,0.49979l-1.63285,-0.33046h-1.86101l-3.90625,-0.39062l-6.70598,-2.13372l-0.56811,-0.11498l-0.11492,-0.10235l-1.20474,-0.38332l-8.59375,-7.42187l-0.32804,-1.21373l-0.93889,-0.8362l-2.79508,-11.00565l0.19592,-1.24898l-0.04015,-0.14857l0.15123,-0.55955l1.09055,-6.95224l1.33051,-3.49259l2.81258,-9.84402l0.50727,-4.56546l-0.0479,-0.18861l0.15576,-0.993v-0.40454l0.39063,-3.90625l0.56327,-1.77027l0.04611,-0.29394v-0.02954l0.39063,-3.90625l0.02641,-0.08302l0.00119,-0.08711l0.86469,-3.82932l0.56214,-1.68643l2.70988,-12.64611l0.06028,-0.1877l0.025,-0.19556l2.97715,-12.90098l1.97795,-8.9008l0.23383,-0.70956l0.13275,-0.73521l1.50888,-5.2811l2.64582,-19.40265l3.80272,-55.13946l-8.81018,-93.97524l0.00724,-1.16965l-0.11639,-1.16387v-58l0.1377,-1.377l0.01521,-1.38379l4.55077,-40.95697l-0.06436,-0.1019l-1,-2l-0.22881,-0.60063l-0.83342,-1.29894l-0.26627,-1.58775l-0.06904,-0.18123l-0.55931,-3.5656l-0.59693,-3.55949l0.00819,-0.19377l-0.24949,-1.59048l0.37989,-1.49583l0.02713,-0.64216l2,-14l0.43273,-1.75636l0.01604,-0.22094l0.2632,-0.91241l0.22717,-0.92204l0.09634,-0.19947l0.50135,-1.73801l1.72715,-4.31789l2.13179,-6.39537l0.04618,-0.63111l0.46179,-0.89279l0.12793,-0.38378l1.60584,-3.58227l1.09417,-1.5013l0.85348,-1.65006l2.48592,-3.03835l0.28605,-0.28605l0.59201,-0.8123l0.54383,-0.32354l0.5781,-0.5781l3.03835,-2.48592l0.07738,-0.04002l0.06244,-0.06075l3.31916,-2.09631l2,-1l3.66855,-1.39754l4.59303,-0.72047l3.24378,-1.08952l0.61872,0.17153l5.52531,-3.94665l1.16791,-0.6696l0.07853,-0.0679l1.08449,-0.5989l1.07476,-0.6162l0.09879,-0.03189l1.17849,-0.65081l7,-3l0.99262,-0.31274l0.94967,-0.42571l9,-3l3.82932,-0.86469l0.08711,-0.00119l0.08302,-0.02641l3.90625,-0.39062h4l1.76416,0.17642l1.77138,0.07485l7,1l2.71997,0.67014l0.76559,-0.38279l0.47891,-0.41361l0.95783,-0.30476l0.36183,-0.18092l3.66855,-1.39754l1.83527,-0.28789l1.77027,-0.56327l2.11018,-0.21102l1.73268,-0.43317l1.27585,-0.18671l1.252,-0.30846l7,-1l0.99412,-0.042l0.98196,-0.16057l16,-1l0.7814,0.02912l0.77806,-0.07781h39l2.36759,0.23676z" fill="#9c9c9c" stroke-width="0.5"/><path d="M306.50002,357v-48h169v48z" fill="#00f225" stroke-width="0"/><text transform="translate(350.50001,335) scale(0.5,0.5)" font-size="40" xml:space="preserve" fill="#000000" fill-rule="nonzero" stroke="none" stroke-width="1" stroke-linecap="butt" stroke-linejoin="miter" stroke-miterlimit="10" stroke-dasharray="" stroke-dashoffset="0" font-family="Sans Serif" font-weight="normal" text-anchor="start" style="mix-blend-mode: normal"><tspan x="0" dy="0">get here</tspan></text></g></g></svg>