<svg version="1.1" xmlns="http://www.w3.org/2000/svg" xmlns:xlink="http://www.w3.org/1999/xlink" width="719.3474" height="562.91311" viewBox="0,0,719.3474,562.91311"><g transform="translate(118.91768,110.95339)"><g data-paper-data="{&quot;isPaintingLayer&quot;:true}" fill-rule="nonzero" stroke-linecap="butt" stroke-linejoin="miter" stroke-miterlimit="10" stroke-dasharray="" stroke-dashoffset="0" style="mix-blend-mode: normal"><path d="M204.98169,181.05004v-14.92453h3.19811v14.92453z" fill="#b08e00" stroke="#000000" stroke-width="0.5"/><path d="M439.01753,187.92683v-24h10v24z" fill="#b08e00" stroke="#000000" stroke-width="0.5"/><path d="M-52.98247,295.5935v-26h11v26z" fill="#b08e00" stroke="#000000" stroke-width="0.5"/><path d="M38.01753,205.26017v-34h11v34z" fill="#b08e00" stroke="#000000" stroke-width="0.5"/><path d="M299.01753,310.5935v-11h14v11z" fill="#b08e00" stroke="#000000" stroke-width="0.5"/><path d="M-118.91768,395.05261v-486.0959h23.69586v486.0959z" fill="#9c0000" stroke="none" stroke-width="0"/><path d="M577.43584,381.5391v-492.49249h22.64435v492.49249z" fill="#9c0000" stroke="none" stroke-width="0"/><path d="M-118.4183,451.95972v-84.94015h718.84802v84.94015z" fill="#9c0000" stroke="none" stroke-width="0"/><path d="M-118.58476,-8.34078v-81.64767h717.16346v81.64767z" fill="#9c0000" stroke="none" stroke-width="0"/><path d="M-23.64914,248.76017c0,12.42641 -10.29745,22.5 -23,22.5c-12.70255,0 -23,-10.07359 -23,-22.5c0,-12.42641 10.29745,-22.5 23,-22.5c12.70255,0 23,10.07359 23,22.5z" fill="#00d810" stroke="#000000" stroke-width="0.5"/><path d="M469.35086,138.76017c0,14.63555 -11.19288,26.5 -25,26.5c-13.80712,0 -25,-11.86445 -25,-26.5c0,-14.63555 11.19288,-26.5 25,-26.5c13.80712,0 25,11.86445 25,26.5z" fill="#00d810" stroke="#000000" stroke-width="0.5"/><path d="M67.35086,150.76017c0,12.42641 -10.52131,22.5 -23.5,22.5c-12.97869,0 -23.5,-10.07359 -23.5,-22.5c0,-12.42641 10.52131,-22.5 23.5,-22.5c12.97869,0 23.5,10.07359 23.5,22.5z" fill="#00d810" stroke="#000000" stroke-width="0.5"/><path d="M330.35086,276.76017c0,13.53098 -10.96902,24.5 -24.5,24.5c-13.53098,0 -24.5,-10.96902 -24.5,-24.5c0,-13.53098 10.96902,-24.5 24.5,-24.5c13.53098,0 24.5,10.96902 24.5,24.5z" fill="#00d810" stroke="#000000" stroke-width="0.5"/><path d="M214.76826,158.65597c0,4.61353 -3.75761,8.35354 -8.39286,8.35354c-4.63525,0 -8.39286,-3.74001 -8.39286,-8.35354c0,-4.61353 3.75761,-8.35354 8.39286,-8.35354c4.63525,0 8.39286,3.74001 8.39286,8.35354z" fill="#00d810" stroke="#000000" stroke-width="0.5"/><path d="M401.54456,266.70413v-14.92452h3.19811v14.92452z" fill="#b08e00" stroke="#000000" stroke-width="0.5"/><path d="M411.33113,244.31006c0,4.61354 -3.75761,8.35354 -8.39286,8.35354c-4.63525,0 -8.39286,-3.74001 -8.39286,-8.35354c0,-4.61354 3.75761,-8.35354 8.39286,-8.35354c4.63525,0 8.39286,3.74 8.39286,8.35354z" fill="#00d810" stroke="#000000" stroke-width="0.5"/><path d="M128.24584,296.36764v-14.92452h3.19812v14.92452z" fill="#b08e00" stroke="#000000" stroke-width="0.5"/><path d="M138.03241,273.97356c0,4.61354 -3.75761,8.35354 -8.39286,8.35354c-4.63525,0 -8.39286,-3.74001 -8.39286,-8.35354c0,-4.61354 3.75761,-8.35354 8.39287,-8.35354c4.63525,0 8.39286,3.74 8.39286,8.35354z" fill="#00d810" stroke="#000000" stroke-width="0.5"/><path d="M104.98169,82.05004v-14.92453h3.19812v14.92453z" fill="#b08e00" stroke="#000000" stroke-width="0.5"/><path d="M114.76826,59.65597c0,4.61354 -3.75761,8.35354 -8.39286,8.35354c-4.63525,0 -8.39286,-3.74001 -8.39286,-8.35354c0,-4.61354 3.75761,-8.35354 8.39287,-8.35354c4.63525,0 8.39286,3.74 8.39286,8.35354z" fill="#00d810" stroke="#000000" stroke-width="0.5"/><path d="M360.98169,102.05004v-14.92452h3.19811v14.92452z" fill="#b08e00" stroke="#000000" stroke-width="0.5"/><path d="M370.76826,79.65597c0,4.61354 -3.75761,8.35354 -8.39286,8.35354c-4.63525,0 -8.39286,-3.74001 -8.39286,-8.35354c0,-4.61354 3.75761,-8.35354 8.39286,-8.35354c4.63525,0 8.39286,3.74 8.39286,8.35354z" fill="#00d810" stroke="#000000" stroke-width="0.5"/></g></g></svg>