<svg version="1.1" xmlns="http://www.w3.org/2000/svg" xmlns:xlink="http://www.w3.org/1999/xlink" width="131.01874" height="213.32192" viewBox="0,0,131.01874,213.32192"><g transform="translate(-200.68035,-41.57458)"><g data-paper-data="{&quot;isPaintingLayer&quot;:true}" fill-rule="nonzero" stroke-linejoin="miter" stroke-miterlimit="10" stroke-dasharray="" stroke-dashoffset="0" style="mix-blend-mode: normal"><path d="M228.34793,172.93471v-62.06511h17.92254v62.06511z" fill="#c4d2e8" stroke="#000000" stroke-width="5" stroke-linecap="butt"/><path d="M261.71038,195.65819v35.23747" fill="none" stroke="#000000" stroke-width="5" stroke-linecap="round"/><path d="M264.09936,192.97058c0,14.6783 -11.76542,26.57741 -26.27879,26.57741c-14.51337,0 -26.27879,-11.89911 -26.27879,-26.57741c0,-14.6783 11.76541,-26.57741 26.27879,-26.57741c14.51337,0 26.27879,11.89911 26.27879,26.57742z" fill="#c4d2e8" stroke="#000000" stroke-width="5" stroke-linecap="butt"/><path d="M274.47457,81.0272c0,19.95589 -10.29474,36.13334 -22.99394,36.13334c-12.69921,0 -22.99394,-16.17745 -22.99394,-36.13334c0,-19.95589 10.29474,-36.13334 22.99394,-36.13334c12.69921,0 22.99394,16.17745 22.99394,36.13334z" fill="#c4d2e8" stroke="#000000" stroke-width="5" stroke-linecap="butt"/><path d="M249.16823,80.20792c0,19.95589 -10.29474,36.13333 -22.99394,36.13333c-12.69921,0 -22.99394,-16.17744 -22.99394,-36.13333c0,-19.95589 10.29474,-36.13334 22.99394,-36.13334c12.69921,0 22.99394,16.17745 22.99394,36.13334z" fill="#c4d2e8" stroke="#000000" stroke-width="5" stroke-linecap="butt"/><path d="M329.19909,105.29222c0,10.39025 -26.87328,18.81322 -60.02315,18.81322c-33.14987,0 -60.02314,-8.42297 -60.02314,-18.81322c0,-10.39025 26.87327,-18.81322 60.02314,-18.81322c33.14987,0 60.02315,8.42297 60.02315,18.81322z" fill="#c4d2e8" stroke="#000000" stroke-width="5" stroke-linecap="butt"/><path d="M217.51423,111.03533c-2.58837,0 -3.60035,-1.57639 -3.99601,-2.80903c-2.92809,-2.81694 -5.63683,-5.31952 -4.00256,-10.47516c0.46761,-1.47515 2.53128,-1.78641 3.72181,-2.77502c4.05665,-3.36864 6.91665,-5.10032 12.2194,-6.15675c0.73209,0.02803 1.44675,-0.12101 2.15663,-0.3244c0.06741,-0.08666 0.13688,-0.17204 0.20852,-0.25604c1.00154,-1.17435 2.91153,-1.02621 4.35601,-1.56991c1.45134,-0.54629 2.73026,-1.05399 3.98874,-1.47596c0.04084,-0.06222 0.08253,-0.12399 0.12511,-0.18528c0.80109,-1.15311 2.40481,-1.4958 3.73288,-1.9515c1.17959,-0.40475 2.40077,-0.59748 3.64526,-0.65566c0.01223,-0.07873 0.0272,-0.15841 0.04508,-0.23899c-1.20753,-1.03082 -2.43366,-2.03527 -2.87291,-3.49622c-0.77695,-2.5842 -2.55745,-5.90356 -0.91379,-8.04368c0.87874,-1.14415 2.38452,-1.25258 3.9887,-1.11228c-0.54175,-0.44813 -1.08107,-0.8858 -1.61982,-1.31597c-0.67288,-0.14054 -1.18376,-0.63037 -1.49049,-0.57634c0,0 -0.25,0 -0.25,-0.25c0,-0.25 0.25,-0.25 0.25,-0.25c0.05374,0.00483 0.10395,0.01175 0.15111,0.02046c-2.048,-1.59507 -4.10941,-3.11779 -6.28457,-4.73189c0,0 -3.4,-2.55 -0.85,-5.95c2.55,-3.4 5.95,-0.85 5.95,-0.85c1.47371,1.12054 3.21505,1.8505 4.71298,2.93845c1.59044,1.15512 2.43036,2.58141 3.88306,3.82057c2.05214,1.75048 4.90064,3.47335 6.39853,5.80128c1.11082,1.72638 3.11586,3.44337 2.82036,5.47487c-0.51918,3.56934 -2.61235,5.08078 -5.10468,5.59077c0.60806,0.84783 1.19428,1.70913 1.76962,2.57867c1.80818,-1.13729 3.73745,-2.06072 5.84208,-1.96663c1.20082,0.05369 2.41362,0.51847 3.53882,1.19825c0.34503,-1.03775 1.54408,-3.57876 4.88224,-2.91113c4.16747,0.83349 3.33397,5.00096 3.33397,5.00096c-0.35091,1.68541 -0.52858,3.41746 -0.51471,5.13896v2.98622c0,2.34721 -1.90279,4.25 -4.25,4.25c-0.89346,0 -1.72253,-0.2757 -2.40677,-0.74667c-1.67607,2.18226 -4.66156,2.76744 -7.32762,3.11497c-5.65969,0.73777 -11.88465,-1.2622 -17.49219,-1.78554c-0.27672,-0.02582 -0.58196,-0.05537 -0.90783,-0.08596c-2.33301,0.3917 -4.64943,0.76848 -6.86681,1.2124l-2.90017,0.58004c-0.29611,0.06531 -0.60381,0.09974 -0.91955,0.09974c-0.78397,0 -1.51835,-0.21227 -2.14882,-0.58246c-1.5417,0.30212 -2.69781,0.43187 -4.13043,1.23195c-1.16685,0.65166 -1.92807,1.88306 -2.94127,2.74952c0.51932,0.57221 0.95684,1.36946 1.47531,1.88794l1.2448,3.60245c0,0 0,4.25 -4.25,4.25z" fill="#c4d2e8" stroke="none" stroke-width="0.5" stroke-linecap="butt"/><path d="M219.90321,250.60474l0.59725,-35.83471" fill="none" stroke="#000000" stroke-width="5" stroke-linecap="round"/><path d="M249.76547,219.548l-0.59725,32.84849" fill="none" stroke="#000000" stroke-width="5" stroke-linecap="round"/><path d="M207.95831,188.49124l-1.19449,41.80717" fill="none" stroke="#000000" stroke-width="5" stroke-linecap="round"/><path d="M214.528,79.31205c0,2.30895 -0.93589,4.18072 -2.09036,4.18072c-1.15447,0 -2.09036,-1.87177 -2.09036,-4.18072c0,-2.30895 0.93589,-4.18072 2.09036,-4.18072c1.15447,0 2.09036,1.87177 2.09036,4.18072z" fill="#000000" stroke="#000000" stroke-width="5" stroke-linecap="butt"/><path d="M267.90487,80.13133c0,2.30894 -0.93588,4.18072 -2.09035,4.18072c-1.15448,0 -2.09036,-1.87178 -2.09036,-4.18072c0,-2.30894 0.93588,-4.18072 2.09036,-4.18072c1.15447,0 2.09035,1.87177 2.09035,4.18072z" fill="#000000" stroke="#000000" stroke-width="5" stroke-linecap="butt"/><path d="M328.0046,106.78533l-99.14271,-0.59725" fill="none" stroke="#000000" stroke-width="5" stroke-linecap="round"/><path d="M230.2636,165.92528c0.15471,-0.30487 0.3514,-0.57274 0.57977,-0.81269l-0.1013,-0.08442l1.64727,-1.97673c0.4585,-0.55817 1.15406,-0.91421 1.93278,-0.91421c0.01447,0 0.02891,0.00012 0.04332,0.00037c0.91294,-0.79129 1.94677,-1.39795 3.05564,-1.28826c0.34444,0.03407 0.93318,0.58496 1.60866,1.40568c0.30334,-0.7028 1.0041,-1.6221 2.57234,-1.42607c2.48069,0.31009 2.17061,2.79078 2.17061,2.79078c-0.32013,2.5218 -0.33995,4.64244 -0.02785,7.15909l0.62272,2.49087c0.05753,0.21047 0.08824,0.43201 0.08824,0.66073c0,1.38071 -1.11929,2.5 -2.5,2.5c-1.1246,0 -2.07576,-0.74256 -2.38994,-1.76412l-0.97747,-2.9324l0.2363,-0.07877c-0.0068,-0.05522 -0.01348,-0.1103 -0.02004,-0.16525c-0.16806,-0.25352 -0.33172,-0.50969 -0.49043,-0.76867c-0.52339,0.74128 -1.05782,1.46102 -1.88868,1.60299c-0.6708,0.11462 -1.44137,0.10068 -2.2163,-0.03691c-0.27451,0.10363 -0.57204,0.16034 -0.88282,0.16034c-1.07254,0 -1.98734,-0.67541 -2.34226,-1.6241c-1.24152,-1.09556 -1.81307,-2.74539 -0.72055,-4.89824z" fill="#c4d2e8" stroke="none" stroke-width="0.5" stroke-linecap="butt"/></g></g></svg>