<svg version="1.1" xmlns="http://www.w3.org/2000/svg" xmlns:xlink="http://www.w3.org/1999/xlink" width="131.01875" height="157.89479" viewBox="0,0,131.01875,157.89479"><g transform="translate(-200.68036,-97.00172)"><g data-paper-data="{&quot;isPaintingLayer&quot;:true}" fill-rule="nonzero" stroke-linejoin="miter" stroke-miterlimit="10" stroke-dasharray="" stroke-dashoffset="0" style="mix-blend-mode: normal"><path d="M311.90972,165.8182c-0.82394,1.17072 -2.03821,2.00793 -2.89399,1.4757c-0.50869,-0.31636 -0.76724,-0.95956 -1.13546,-1.43207c0,0 -0.50843,-0.53622 -1.24386,-0.74961c-0.0021,-0.37955 -0.00326,-0.77977 -0.003,-1.15799c1.03115,-0.85499 2.38879,-2.02116 3.60799,-2.45073c-0.43124,0.44049 -0.70739,1.03878 -0.71892,1.70377c-0.02332,1.3456 1.05601,2.53321 2.38723,2.61092z" data-paper-data="{&quot;noHover&quot;:false,&quot;origItem&quot;:[&quot;Path&quot;,{&quot;applyMatrix&quot;:true,&quot;segments&quot;:[[[217.12172,151.17854],[1.3458,0],[-0.66509,0]],[[215.40431,150.49528],[0.44789,0.42354],[0.45064,1.21157]],[[217.87807,153.99646],[-0.87273,-1.01618],[0.37816,-0.00629]],[[219.01448,153.97425],[-0.37946,0.00868],[0.20062,-0.73902]],[[219.71921,152.73111],[0,0],[0.46606,-0.37635]],[[221.11739,151.60206],[-0.3075,0.51409],[0.51731,-0.86487]],[[219.61958,148.78276],[1.18482,0.80353],[-0.05464,1.33238]]],&quot;closed&quot;:true}]}" fill="#ffffff" stroke="none" stroke-width="0.5" stroke-linecap="butt"/><path d="M228.8942,162.88583c-2.9929,0.03125 -6.0222,0.07323 -9.01058,0.20701c0.55136,-3.03184 1.30805,-7.25037 0.56099,-10.2937c-0.25616,-1.04355 -1.12934,-1.86512 -1.53266,-2.86109c-0.9335,-2.3052 -1.71539,-4.68404 -2.81117,-6.91667c-0.1023,-0.20843 -0.18861,-0.41473 -0.26336,-0.61838c2.06292,2.48683 4.35747,4.78434 6.00242,7.53502c1.48863,2.48927 2.29109,5.45854 3.7945,7.93891c1.20491,1.98787 2.2765,3.38864 3.25985,5.0089z" data-paper-data="{&quot;noHover&quot;:false,&quot;origItem&quot;:[&quot;Path&quot;,{&quot;applyMatrix&quot;:true,&quot;segments&quot;:[[[426.30954,470.33162],[3.93341,-2.47833],[-4.90791,3.09233]],[[410.74664,478.11924],[4.92623,-3.06306],[-5.44353,3.38472]],[[395.87259,490.34837],[4.90144,-4.21139],[0.40465,-0.15653]],[[397.09954,489.79954],[-0.41326,0.21179],[4.42662,-2.2686]],[[410.81288,483.91586],[-4.57736,1.94659],[1.97767,-0.84103]],[[416.41778,480.72968],[-2.07793,0.54841],[6.05987,-1.59933]],[[436.92445,481.57304],[-6.08189,-0.9975],[-0.37108,-5.97122]],[[436.21295,463.63944],[0.1662,5.98382],[-3.20596,2.02253]]],&quot;closed&quot;:true}]}" fill="#eeff66" stroke="none" stroke-width="0.5" stroke-linecap="butt"/><path d="M216.05814,191.89608c2.78693,0.03051 5.63889,-0.29456 8.82975,-0.49335c0.7546,-0.04701 2.64235,0.12985 4.30322,0.30008c-3.41469,4.53908 -8.10363,8.00932 -12.02026,12.05461c-0.11296,-3.93996 -0.54737,-7.96292 -1.11271,-11.86134z" data-paper-data="{&quot;noHover&quot;:false,&quot;origItem&quot;:[&quot;Path&quot;,{&quot;applyMatrix&quot;:true,&quot;segments&quot;:[[[518.35637,485.5462],[-7.87483,0.36239],[-8.22509,-7.69192]],[[493.97841,462.06503],[9.19511,6.67108],[-0.28288,3.32713]],[[493.55393,470.64084],[-0.12015,-1.50735],[0.50808,6.37388]],[[494.81724,488.1705],[-0.03555,-5.57408],[7.7761,-1.26561]]],&quot;closed&quot;:true}]}" fill="#eeff66" stroke="none" stroke-width="0.5" stroke-linecap="butt"/><path d="M249.02197,191.43442c2.60306,-0.19487 5.23026,-0.36681 7.83284,-0.44042c0.2004,-0.00567 0.40237,-0.00898 0.60317,-0.01203c-2.93816,6.40468 -6.19665,12.74494 -10.3891,18.30223c-1.83018,2.426 -3.7128,5.19999 -5.7843,7.4374c-0.30016,0.32421 -0.76178,0.68262 -1.20195,1.05326c0.07455,-0.65637 0.11624,-1.32152 0.2176,-1.97218c0.43342,-2.78251 1.60541,-4.25772 3.07916,-6.63138c4.6242,-5.57928 5.50893,-10.70508 5.64259,-17.73688z" data-paper-data="{&quot;noHover&quot;:false,&quot;origItem&quot;:[&quot;Path&quot;,{&quot;applyMatrix&quot;:true,&quot;segments&quot;:[[[528.28326,432.94021],[-11.31712,-9.05369],[4.79768,2.8648]],[[541.6371,438.88324],[-5.5792,-0.77031],[1.30462,0.18013]],[[545.58491,439.25524],[-1.31512,-0.12634],[-0.75641,-0.86737]],[[543.43551,436.89078],[0.65871,0.589],[-4.54592,-4.06486]],[[528.35388,425.60086],[4.91468,3.57577],[-11.25818,-8.19109]],[[491.57479,405.54401],[12.90925,5.65353],[0.01306,0.40143]],[[491.62141,406.74701],[-0.01828,-0.40053],[0.23737,5.20182]],[[492.78704,422.34508],[-0.47987,-5.19857],[14.06612,0.02364]]],&quot;closed&quot;:true}]}" fill="#eeff66" stroke="none" stroke-width="0.5" stroke-linecap="butt"/><path d="M256.09493,161.94475c-3.80581,0.1391 -7.6568,0.37929 -11.43525,0.5421l0.01292,-0.79096c0.05625,-3.85451 -0.76553,-6.02167 -1.92904,-9.56581c-0.62638,-1.90799 -0.14564,-3.32046 -0.27895,-5.30118c-0.01372,-0.20385 -0.86477,-5.95919 -0.90075,-6.19876c-0.25262,-0.94666 -0.60896,-2.48221 -1.04317,-3.89701c0.38829,0.3214 0.77677,0.72612 0.98778,1.05397c0.38064,0.59139 0.46026,1.32893 0.70299,1.98903c0.22938,0.62378 1.953,5.15325 2.1662,5.4446c1.16192,1.58789 3.17479,2.40751 4.13309,4.12598c1.51579,2.71818 2.53534,5.91493 4.30074,8.52462c0.91621,1.35438 2.12603,2.76147 3.28347,4.07342z" data-paper-data="{&quot;noHover&quot;:false,&quot;origItem&quot;:[&quot;Path&quot;,{&quot;applyMatrix&quot;:true,&quot;segments&quot;:[[[425.52629,415.88008],[2.6766,-1.87907],[-5.15743,3.6207]],[[408.62917,424.87442],[5.38302,-3.12529],[-3.40322,1.97585]],[[400.36032,433.30051],[3.13505,-2.37852],[-0.57522,0.43641]],[[389.53762,437.80752],[1.23942,-0.48029],[-1.31158,0.50825]],[[385.58283,439.27946],[1.16943,-0.78165],[-0.6483,0.43332]],[[383.6803,441.18731],[0.62923,-0.78761],[2.81412,-0.91733]],[[391.43139,438.95817],[-1.88428,0.53797],[0.47782,-0.08027]],[[403.75924,436.91269],[-0.40716,0.0345],[3.95621,-0.33522]],[[414.26611,436.17069],[-3.79369,1.31868],[7.04689,-2.44949]],[[433.27337,432.04537],[-7.70982,0.02107],[0,0]],[[434.85508,432.04537],[0,0],[-0.45647,-7.55011]],[[433.38805,409.278],[0.41002,7.60565],[-2.5834,2.36]]],&quot;closed&quot;:true}]}" fill="#eeff66" stroke="none" stroke-width="0.5" stroke-linecap="butt"/><path d="M311.90972,165.8182c-0.82394,1.17072 -2.03821,2.00793 -2.89399,1.4757c-0.50869,-0.31636 -0.76724,-0.95956 -1.13546,-1.43207c0,0 -0.50843,-0.53622 -1.24386,-0.74961c-0.0021,-0.37955 -0.00326,-0.77977 -0.003,-1.15799c1.03115,-0.85499 2.38879,-2.02116 3.60799,-2.45073c-0.43124,0.44049 -0.70739,1.03878 -0.71892,1.70377c-0.02332,1.3456 1.05601,2.53321 2.38723,2.61092z" data-paper-data="{&quot;noHover&quot;:false,&quot;origItem&quot;:[&quot;Path&quot;,{&quot;applyMatrix&quot;:true,&quot;segments&quot;:[[[217.12172,151.17854],[1.3458,0],[-0.66509,0]],[[215.40431,150.49528],[0.44789,0.42354],[0.45064,1.21157]],[[217.87807,153.99646],[-0.87273,-1.01618],[0.37816,-0.00629]],[[219.01448,153.97425],[-0.37946,0.00868],[0.20062,-0.73902]],[[219.71921,152.73111],[0,0],[0.46606,-0.37635]],[[221.11739,151.60206],[-0.3075,0.51409],[0.51731,-0.86487]],[[219.61958,148.78276],[1.18482,0.80353],[-0.05464,1.33238]]],&quot;closed&quot;:true}]}" fill="#ffffff" stroke="none" stroke-width="0.5" stroke-linecap="butt"/><path d="M228.8942,162.88583c-2.9929,0.03125 -6.0222,0.07323 -9.01058,0.20701c0.55136,-3.03184 1.30805,-7.25037 0.56099,-10.2937c-0.25616,-1.04355 -1.12934,-1.86512 -1.53266,-2.86109c-0.9335,-2.3052 -1.71539,-4.68404 -2.81117,-6.91667c-0.1023,-0.20843 -0.18861,-0.41473 -0.26336,-0.61838c2.06292,2.48683 4.35747,4.78434 6.00242,7.53502c1.48863,2.48927 2.29109,5.45854 3.7945,7.93891c1.20491,1.98787 2.2765,3.38864 3.25985,5.0089z" data-paper-data="{&quot;noHover&quot;:false,&quot;origItem&quot;:[&quot;Path&quot;,{&quot;applyMatrix&quot;:true,&quot;segments&quot;:[[[426.30954,470.33162],[3.93341,-2.47833],[-4.90791,3.09233]],[[410.74664,478.11924],[4.92623,-3.06306],[-5.44353,3.38472]],[[395.87259,490.34837],[4.90144,-4.21139],[0.40465,-0.15653]],[[397.09954,489.79954],[-0.41326,0.21179],[4.42662,-2.2686]],[[410.81288,483.91586],[-4.57736,1.94659],[1.97767,-0.84103]],[[416.41778,480.72968],[-2.07793,0.54841],[6.05987,-1.59933]],[[436.92445,481.57304],[-6.08189,-0.9975],[-0.37108,-5.97122]],[[436.21295,463.63944],[0.1662,5.98382],[-3.20596,2.02253]]],&quot;closed&quot;:true}]}" fill="#ff6666" stroke="none" stroke-width="0.5" stroke-linecap="butt"/><path d="M216.05814,191.89608c2.78693,0.03051 5.63889,-0.29456 8.82975,-0.49335c0.7546,-0.04701 2.64235,0.12985 4.30322,0.30008c-3.41469,4.53908 -8.10363,8.00932 -12.02026,12.05461c-0.11296,-3.93996 -0.54737,-7.96292 -1.11271,-11.86134z" data-paper-data="{&quot;noHover&quot;:false,&quot;origItem&quot;:[&quot;Path&quot;,{&quot;applyMatrix&quot;:true,&quot;segments&quot;:[[[518.35637,485.5462],[-7.87483,0.36239],[-8.22509,-7.69192]],[[493.97841,462.06503],[9.19511,6.67108],[-0.28288,3.32713]],[[493.55393,470.64084],[-0.12015,-1.50735],[0.50808,6.37388]],[[494.81724,488.1705],[-0.03555,-5.57408],[7.7761,-1.26561]]],&quot;closed&quot;:true}]}" fill="#ff6666" stroke="none" stroke-width="0.5" stroke-linecap="butt"/><path d="M249.02197,191.43442c2.60306,-0.19487 5.23026,-0.36681 7.83284,-0.44042c0.2004,-0.00567 0.40237,-0.00898 0.60317,-0.01203c-2.93816,6.40468 -6.19665,12.74494 -10.3891,18.30223c-1.83018,2.426 -3.7128,5.19999 -5.7843,7.4374c-0.30016,0.32421 -0.76178,0.68262 -1.20195,1.05326c0.07455,-0.65637 0.11624,-1.32152 0.2176,-1.97218c0.43342,-2.78251 1.60541,-4.25772 3.07916,-6.63138c4.6242,-5.57928 5.50893,-10.70508 5.64259,-17.73688z" data-paper-data="{&quot;noHover&quot;:false,&quot;origItem&quot;:[&quot;Path&quot;,{&quot;applyMatrix&quot;:true,&quot;segments&quot;:[[[528.28326,432.94021],[-11.31712,-9.05369],[4.79768,2.8648]],[[541.6371,438.88324],[-5.5792,-0.77031],[1.30462,0.18013]],[[545.58491,439.25524],[-1.31512,-0.12634],[-0.75641,-0.86737]],[[543.43551,436.89078],[0.65871,0.589],[-4.54592,-4.06486]],[[528.35388,425.60086],[4.91468,3.57577],[-11.25818,-8.19109]],[[491.57479,405.54401],[12.90925,5.65353],[0.01306,0.40143]],[[491.62141,406.74701],[-0.01828,-0.40053],[0.23737,5.20182]],[[492.78704,422.34508],[-0.47987,-5.19857],[14.06612,0.02364]]],&quot;closed&quot;:true}]}" fill="#ff6666" stroke="none" stroke-width="0.5" stroke-linecap="butt"/><path d="M256.09493,161.94475c-3.80581,0.1391 -7.6568,0.37929 -11.43525,0.5421l0.01292,-0.79096c0.05625,-3.85451 -0.76553,-6.02167 -1.92904,-9.56581c-0.62638,-1.90799 -0.14564,-3.32046 -0.27895,-5.30118c-0.01372,-0.20385 -0.86477,-5.95919 -0.90075,-6.19876c-0.25262,-0.94666 -0.60896,-2.48221 -1.04317,-3.89701c0.38829,0.3214 0.77677,0.72612 0.98778,1.05397c0.38064,0.59139 0.46026,1.32893 0.70299,1.98903c0.22938,0.62378 1.953,5.15325 2.1662,5.4446c1.16192,1.58789 3.17479,2.40751 4.13309,4.12598c1.51579,2.71818 2.53534,5.91493 4.30074,8.52462c0.91621,1.35438 2.12603,2.76147 3.28347,4.07342z" data-paper-data="{&quot;noHover&quot;:false,&quot;origItem&quot;:[&quot;Path&quot;,{&quot;applyMatrix&quot;:true,&quot;segments&quot;:[[[425.52629,415.88008],[2.6766,-1.87907],[-5.15743,3.6207]],[[408.62917,424.87442],[5.38302,-3.12529],[-3.40322,1.97585]],[[400.36032,433.30051],[3.13505,-2.37852],[-0.57522,0.43641]],[[389.53762,437.80752],[1.23942,-0.48029],[-1.31158,0.50825]],[[385.58283,439.27946],[1.16943,-0.78165],[-0.6483,0.43332]],[[383.6803,441.18731],[0.62923,-0.78761],[2.81412,-0.91733]],[[391.43139,438.95817],[-1.88428,0.53797],[0.47782,-0.08027]],[[403.75924,436.91269],[-0.40716,0.0345],[3.95621,-0.33522]],[[414.26611,436.17069],[-3.79369,1.31868],[7.04689,-2.44949]],[[433.27337,432.04537],[-7.70982,0.02107],[0,0]],[[434.85508,432.04537],[0,0],[-0.45647,-7.55011]],[[433.38805,409.278],[0.41002,7.60565],[-2.5834,2.36]]],&quot;closed&quot;:true}]}" fill="#ff6666" stroke="none" stroke-width="0.5" stroke-linecap="butt"/><path d="M261.71038,195.65821v35.23747" fill="none" stroke="#000000" stroke-width="5" stroke-linecap="round"/><path d="M264.09936,192.97062c0,14.6783 -11.76541,26.57741 -26.27879,26.57741c-14.51337,0 -26.27879,-11.89911 -26.27879,-26.57741c0,-14.6783 11.76542,-26.57741 26.27879,-26.57741c14.51337,0 26.27879,11.89911 26.27879,26.57742z" fill="#f4ff00" stroke="#000000" stroke-width="5" stroke-linecap="butt"/><path d="M274.47459,136.45434c0,19.95589 -10.29474,36.13333 -22.99395,36.13333c-12.69921,0 -22.99394,-16.17744 -22.99394,-36.13333c0,-19.95589 10.29474,-36.13334 22.99394,-36.13334c12.6992,0 22.99395,16.17745 22.99395,36.13334z" fill="#f4ff00" stroke="#000000" stroke-width="5" stroke-linecap="butt"/><path d="M244.51097,104.56044c0.03641,0.05917 0.0756,0.12301 0.11728,0.19122c0.11236,-0.15548 0.2816,-0.29997 0.53083,-0.415c1.13495,-0.52382 1.65877,0.61113 1.65877,0.61113c1.52596,3.30835 2.01894,6.34228 2.01606,9.96732l-0.02364,0.05016l0.0204,0.0017l-0.1179,1.41478c-0.04711,0.64739 -0.58726,1.15798 -1.24666,1.15798c-0.5723,0 -1.05476,-0.3846 -1.20304,-0.90943l-0.4672,-1.5184l0.37206,-0.11448c-0.70415,-1.6264 -1.08831,-3.27303 -1.77864,-5.17557c-0.27483,-0.75743 -0.86106,-1.58794 -0.9231,-2.38695l-0.63641,0c-0.69036,0 -1.25,-0.55964 -1.25,-1.25c0,-0.53655 0.33806,-0.99415 0.8128,-1.17141l1.16177,-0.46471l0.15445,0.38612h0.21689z" fill="#0000ff" stroke="none" stroke-width="0.5" stroke-linecap="butt"/><path d="M239.23971,191.46924l12.58621,-10.51724c0,0 2.80243,-0.10765 3.8952,-0.13826c0.54317,-0.01521 1.21974,-0.03416 1.21974,-0.03416c0,0 3.16934,2.85146 3.94717,6.51414c0.67895,3.19711 0.03183,7.11151 -0.09152,8.99869c-0.30446,4.65829 -5.34991,11.90096 -5.34991,11.90096z" fill="#0000ff" stroke="#0000ff" stroke-width="2.5" stroke-linecap="round"/><path d="M249.16826,135.63507c0,19.95589 -10.29473,36.13333 -22.99394,36.13333c-12.69921,0 -22.99395,-16.17744 -22.99395,-36.13333c0,-19.95589 10.29474,-36.13334 22.99395,-36.13334c12.69921,0 22.99394,16.17745 22.99394,36.13334z" fill="#f4ff00" stroke="#000000" stroke-width="5" stroke-linecap="butt"/><path d="M329.1991,160.71936c0,10.39025 -26.87328,18.81323 -60.02315,18.81323c-33.14987,0 -60.02314,-8.42297 -60.02314,-18.81323c0,-10.39025 26.87328,-18.81322 60.02315,-18.81322c33.14987,0 60.02315,8.42297 60.02315,18.81322z" fill="#f4ff00" stroke="#000000" stroke-width="5" stroke-linecap="butt"/><path d="M217.51427,166.46249c-2.58837,0 -3.60035,-1.57639 -3.99601,-2.80903c-2.92809,-2.81694 -5.63683,-5.31952 -4.00256,-10.47516c0.4676,-1.47516 2.53128,-1.78641 3.72181,-2.77502c4.05665,-3.36864 6.91666,-5.10032 12.2194,-6.15675c0.73209,0.02803 1.44675,-0.121 2.15662,-0.3244c0.06742,-0.08667 0.13688,-0.17204 0.20852,-0.25605c1.00153,-1.17434 2.91153,-1.02621 4.35601,-1.56991c1.45134,-0.54629 2.73027,-1.054 3.98874,-1.47596c0.04084,-0.06222 0.08253,-0.12399 0.12511,-0.18528c0.8011,-1.15311 2.40481,-1.4958 3.73288,-1.9515c1.17959,-0.40475 2.40077,-0.59748 3.64525,-0.65566c0.01223,-0.07873 0.0272,-0.15841 0.04508,-0.23899c-1.20753,-1.03082 -2.43366,-2.03526 -2.87291,-3.49622c-0.77695,-2.5842 -2.55746,-5.90355 -0.91379,-8.04367c0.87874,-1.14415 2.38452,-1.25258 3.9887,-1.11228c-0.54174,-0.44813 -1.08107,-0.8858 -1.61982,-1.31597c-0.67288,-0.14054 -1.18375,-0.63038 -1.49049,-0.57635c0,0 -0.25,0 -0.25,-0.25c0,-0.25 0.25,-0.25 0.25,-0.25c0.05373,0.00483 0.10396,0.01176 0.15111,0.02047c-2.048,-1.59507 -4.10941,-3.11779 -6.28457,-4.73189c0,0 -3.4,-2.55 -0.85,-5.95c2.55,-3.4 5.95,-0.85 5.95,-0.85c1.4737,1.12054 3.21505,1.8505 4.71298,2.93844c1.59044,1.15512 2.43036,2.58142 3.88306,3.82057c2.05213,1.75048 4.90064,3.47335 6.39853,5.80128c1.11082,1.72638 3.11585,3.44338 2.82037,5.47487c-0.51918,3.56934 -2.61235,5.08078 -5.10468,5.59076c0.60806,0.84783 1.19428,1.70913 1.76962,2.57867c1.80818,-1.13728 3.73745,-2.06072 5.84208,-1.96663c1.20081,0.05369 2.41362,0.51848 3.53882,1.19826c0.34503,-1.03775 1.54408,-3.57876 4.88223,-2.91113c4.16747,0.83349 3.33398,5.00096 3.33398,5.00096c-0.35091,1.68542 -0.52858,3.41746 -0.51471,5.13896v2.98623c0,2.34721 -1.90279,4.25 -4.25,4.25c-0.89346,0 -1.72253,-0.2757 -2.40677,-0.74667c-1.67607,2.18226 -4.66156,2.76744 -7.32761,3.11497c-5.65969,0.73777 -11.88465,-1.26221 -17.49219,-1.78554c-0.27672,-0.02582 -0.58196,-0.05537 -0.90784,-0.08596c-2.33301,0.3917 -4.64943,0.76847 -6.86681,1.2124l-2.90017,0.58004c-0.29611,0.06531 -0.60381,0.09974 -0.91955,0.09974c-0.78396,0 -1.51835,-0.21227 -2.14882,-0.58246c-1.5417,0.30212 -2.69781,0.43188 -4.13043,1.23195c-1.16685,0.65166 -1.92807,1.88306 -2.94127,2.74951c0.51932,0.57221 0.95683,1.36947 1.47531,1.88794l1.2448,3.60245c0,0 0,4.25 -4.25,4.25z" fill="#f4ff00" stroke="none" stroke-width="0.5" stroke-linecap="butt"/><path d="M219.90325,250.60478l0.59724,-35.83471" fill="none" stroke="#000000" stroke-width="5" stroke-linecap="round"/><path d="M249.76551,219.54803l-0.59725,32.84849" fill="none" stroke="#000000" stroke-width="5" stroke-linecap="round"/><path d="M207.95833,188.49127l-1.19449,41.80717" fill="none" stroke="#000000" stroke-width="5" stroke-linecap="round"/><path d="M214.52804,134.73917c0,2.30894 -0.93589,4.18071 -2.09036,4.18071c-1.15447,0 -2.09036,-1.87177 -2.09036,-4.18071c0,-2.30894 0.93588,-4.18071 2.09036,-4.18071c1.15447,0 2.09036,1.87177 2.09036,4.18071z" fill="#000000" stroke="#0000ff" stroke-width="5" stroke-linecap="butt"/><path d="M267.90488,135.55847c0,2.30894 -0.93588,4.18072 -2.09036,4.18072c-1.15447,0 -2.09036,-1.87178 -2.09036,-4.18072c0,-2.30894 0.93588,-4.18071 2.09036,-4.18071c1.15447,0 2.09036,1.87177 2.09036,4.18071z" fill="#000000" stroke="#0000ff" stroke-width="5" stroke-linecap="butt"/><path d="M328.00462,162.21247l-99.14271,-0.59724" fill="none" stroke="#000000" stroke-width="5" stroke-linecap="round"/><path d="M214.09566,192.18264c0.00147,-0.06601 0.69258,-4.26909 0.69402,-4.33336c0.10898,-4.87687 5.82934,-10.8628 5.82934,-10.8628l18.62069,14.65517l-18.62069,16.72414c0,0 -6.645,-10.73987 -6.52336,-16.18315z" fill="#0000ff" stroke="#0000ff" stroke-width="2.5" stroke-linecap="round"/><path d="M208.38181,155.99553c-0.09731,-0.41348 -1.01878,-1.96815 -0.71437,-2.61281c-0.76152,-1.47614 -1.61609,-3.29048 -1.21635,-3.87577c0.10775,-0.34382 0.33867,-0.57475 0.33867,-0.57475c3.72738,-3.57152 9.40437,-1.09978 13.74338,-0.34998c0.5375,0.09288 1.1285,-0.12475 1.63448,0.07901c1.29868,0.52298 2.59062,2.08393 3.79574,2.80424c0.9146,0.54666 2.18121,0.81404 2.66673,1.7625c1.72248,3.36481 -1.23474,4.5368 -4.0279,4.60372c-2.06635,0.64689 -3.40493,3.23142 -1.64181,5.05569c0.61827,0.63972 1.78338,0.33527 2.55086,0.78524c2.81113,1.64814 5.52811,2.82329 5.56612,6.48872v1.35635c0,0 0,1.25 -1.25,1.25c-0.46817,0 -0.761,-0.17535 -0.94415,-0.3947c-2.51799,0.19793 -7.82408,-1.71741 -9.02393,-2.35732c-4.79647,-2.55812 -7.26197,-5.08244 -8.97746,-8.55248c-1.28937,-1.71398 -2.24362,-4.37826 -2.50002,-5.46768z" fill="#0000ff" stroke="none" stroke-width="0.5" stroke-linecap="butt"/></g></g></svg>