<svg version="1.1" xmlns="http://www.w3.org/2000/svg" xmlns:xlink="http://www.w3.org/1999/xlink" width="161.84251" height="103.89916" viewBox="0,0,161.84251,103.89916"><g transform="translate(-159.07875,-128.05043)"><g data-paper-data="{&quot;isPaintingLayer&quot;:true}" fill-rule="nonzero" stroke="none" stroke-width="0.5" stroke-linecap="butt" stroke-linejoin="miter" stroke-miterlimit="10" stroke-dasharray="" stroke-dashoffset="0" style="mix-blend-mode: normal"><path d="M159.51321,161.79634c1.32319,-2.12112 3.44431,-0.79794 3.44431,-0.79794l2.39957,1.49689c2.52671,1.57856 5.15435,2.92344 7.68367,4.49905c0,0 0.12057,0.07521 0.28627,0.2185c3.89921,-1.92417 8.43919,-2.10166 12.83829,-2.12552c-0.90807,-6.15245 -1.7288,-12.41364 -1.72751,-18.63125l-0.09673,0.03676l-0.90775,-2.38859c-0.12341,-0.30341 -0.18887,-0.63623 -0.18283,-0.98444c0.02392,-1.3805 1.16243,-2.48023 2.54294,-2.45631c0.92647,0.01605 1.72649,0.53411 2.14528,1.29041l1.32718,2.30144c1.16519,1.51732 2.06538,3.22488 3.20462,4.76199c0.80605,1.08755 4.6811,4.3441 5.00824,4.66534c3.49341,3.43038 6.51523,7.18004 9.32169,11.17433c0,0 0.0479,0.06833 0.11374,0.18878c0.79511,-0.00932 1.57193,-0.05933 2.31436,-0.17394c1.77273,-0.27368 3.49821,-0.71488 5.24625,-1.094c-0.3549,-1.14613 0.40126,-2.11197 0.64926,-2.38874c0.44422,-2.24739 1.07098,-5.31199 0.52959,-7.33835c-0.2095,-0.7841 -0.97233,-1.31989 -1.2814,-2.07035c-0.58411,-1.41822 -0.80014,-2.96954 -1.37923,-4.38981c-1.23107,-3.01927 -3.64339,-5.71419 -2.97747,-9.34312c0.02134,-0.11626 0.04526,-0.23176 0.07157,-0.34658l-0.04032,-0.00647l0.53795,-3.35c0.17715,-1.22808 1.24444,-2.16159 2.51751,-2.13954c0.69026,0.01196 1.31031,0.30258 1.75482,0.76276l1.90622,1.97343l-0.07014,0.06774l0.26888,0.16496c2.57238,4.41553 6.53024,7.69184 9.14449,11.99207c1.49809,2.46423 2.23224,5.34207 3.73198,7.8053c1.70807,2.80537 3.29332,4.80988 4.65772,7.59556c1.59194,-0.03359 3.1847,-0.08276 4.7784,-0.16162c0.1317,-0.00198 0.26346,-0.00415 0.39529,-0.00649l0.01797,-1.03719c0.0729,-3.55995 -0.67511,-4.66854 -1.67944,-7.98769c-1.10362,-3.64729 -0.74923,-8.08105 -1.31066,-11.88851c-0.48507,-1.81467 -1.04281,-3.61233 -1.68902,-5.37606c-0.53156,-1.45082 -2.07674,-2.90398 -1.56685,-4.36257c2.9629,-8.47573 9.93455,-0.51656 12.26311,3.11738c1.28817,2.0103 1.26887,5.36185 2.70637,7.21009c1.31884,1.69566 3.34354,2.82472 4.43717,4.67367c1.50113,2.53789 2.42852,5.63758 4.09338,8.11455c1.54841,2.30371 3.84471,4.49423 5.57876,6.72586c3.80775,0.02222 7.58989,0.23592 11.30928,0.81028c-0.78332,-1.75882 -1.0859,-3.6877 -1.50565,-5.78356c-0.64315,-3.21143 -1.7757,-6.30514 -2.66233,-9.45804c-0.63494,-2.25784 -2.55779,-7.0502 -1.8298,-9.24698c0.7955,-2.40052 4.36502,-5.00465 6.28072,-6.50966c6.04243,-4.74707 14.33327,-4.23994 21.20296,-1.36405c2.78367,1.92495 3.95861,2.41617 6.05372,5.14493c2.1848,2.84556 2.59044,6.21498 3.62581,9.5246c1.3189,4.21591 1.62991,8.42825 1.69014,12.69677c0.28348,-0.18632 0.57957,-0.35097 0.89447,-0.48358c1.34771,-0.5675 2.88267,-0.84236 4.33511,-0.67263c10.9746,1.28254 4.76402,18.84497 -4.88219,15.38551c0.22776,2.30288 0.53891,4.58521 0.83601,6.87231c0.54805,-0.47073 0.99171,-0.80828 1.1883,-0.85806c4.72326,-1.19618 11.17494,4.35501 11.79698,8.91052c0.41752,3.05766 -1.15882,5.96257 -3.52652,7.74953c-0.99035,0.74744 -2.24404,1.14191 -3.46595,1.35731c-2.58161,0.45507 -3.56553,0.11659 -5.23654,-0.5966c-0.37702,5.62594 -1.33242,11.15939 -2.37305,16.78241c-3.78792,6.51172 -7.99691,17.09177 -16.08847,19.25372c-3.47127,0.92748 -7.64816,1.06529 -10.76481,-0.99211c-0.1696,-0.11197 -4.02735,-4.06577 -4.29167,-4.37504c-6.1084,-7.14727 -10.84938,-19.07808 -7.16599,-28.12808c0.68344,-1.03784 1.12464,-2.28447 2.05033,-3.11349c1.54697,-1.38541 3.84376,-1.77947 5.32306,-3.23693c0.80039,-0.78857 1.54391,-1.63262 2.29116,-2.47295c-0.27162,-0.02659 -0.54212,-0.04133 -0.80952,-0.02923c-4.01491,0.18174 -7.88243,0.92991 -11.80301,1.68834c-0.67329,0.13024 -1.35233,0.21497 -2.03499,0.27007c-0.03643,0.10863 -0.06441,0.17091 -0.06441,0.17091c-2.43392,5.41717 -4.91122,11.85007 -8.26251,16.74178c-1.70305,2.48584 -4.1568,4.80595 -5.99564,7.24408c-1.93604,2.56701 -3.54176,5.97947 -6.45419,7.68762c-4.25671,2.4966 -6.13853,3.1217 -7.36478,-2.73228c-1.03823,-4.95645 2.10656,-9.92008 4.54491,-13.81255c3.90605,-4.71282 4.51669,-8.51623 4.65065,-14.35797c-3.03586,0.20763 -6.07353,0.35836 -9.11452,0.30999c-4.62967,7.45787 -12.68852,11.57105 -17.35338,18.77376l-0.46267,2.50733c-0.19985,1.20176 -1.25462,2.10812 -2.50926,2.08638c-1.3805,-0.02392 -2.48023,-1.16243 -2.45631,-2.54294l0.05042,-2.90973c-0.08204,-0.33853 0.16028,-5.41489 0.11419,-6.09812c-0.2694,-3.99399 -0.63016,-7.96528 -1.22285,-11.9439l-0.01285,-0.62311c-1.03507,-0.21297 -2.09784,-0.50337 -3.20559,-0.89161c-0.04391,-0.01842 -0.08778,-0.03687 -0.13165,-0.05529c-0.78326,2.71542 -1.14958,5.4338 -2.11284,8.1613c-2.25129,6.37461 -5.44328,12.91594 -8.23881,19.12382l-0.13408,0.11587l0.04935,0.03078l-1.47264,2.36069c-0.44474,0.74135 -1.26222,1.23137 -2.18868,1.21531c-1.27308,-0.02206 -2.30738,-0.99199 -2.44188,-2.22547l-0.42158,-3.36662l0.04791,-0.006c-0.02456,-0.10804 -0.04702,-0.2167 -0.06719,-0.32601c-0.40056,-2.17155 0.74491,-4.39267 0.60783,-6.59659c-0.11316,-1.81926 -1.2333,-3.47862 -1.35755,-5.29715c-0.21809,-3.19191 1.27195,-6.4846 1.13136,-9.7739c-0.16431,-3.84447 -2.5759,-7.05803 -3.17776,-10.97859l0.00998,-1.87317c-2.0134,-0.6799 -4.147,-0.84473 -6.10841,-1.63329c-1.88492,-0.7578 -3.17503,-2.53723 -4.81367,-3.73809c-0.85643,-0.62763 -2.88115,-0.93794 -4.05434,-1.12262c-0.38077,0.70852 -1.04387,1.09092 -1.04387,1.09092c-1.61469,0.92659 -3.15815,1.98346 -4.62961,3.1239l-3.99577,0.47868c0,0 -2.49962,-0.04331 -2.45631,-2.54294c0.04331,-2.49962 2.54294,-2.45631 2.54294,-2.45631l0.85379,0.56271c1.33045,-1.02342 2.71066,-1.9881 4.1396,-2.87058c-0.10936,-0.28841 -0.16682,-0.60202 -0.16115,-0.92924c0.00581,-0.33551 0.07746,-0.65444 0.20242,-0.94467c-1.90195,-1.10366 -3.83105,-2.1449 -5.70612,-3.31295l-2.39957,-1.49689c0,0 -2.12112,-1.32319 -0.79794,-3.44431zM314.52881,186.06819c0.2642,0.00458 0.51811,0.04998 0.75583,0.13008c-0.51465,-0.76564 -1.22526,-1.43851 -1.88246,-2.07285c-0.03076,-0.0297 -2.42905,-1.66971 -2.9018,-1.49229c-0.87915,0.32994 -1.41124,1.15821 -1.96018,1.97482c0.09379,1.07703 0.16645,2.15978 0.20813,3.2508c0.01407,0.36842 0.02489,0.73614 0.03256,1.1032c0.31892,0.28432 0.49209,0.55409 0.49209,0.55409l-0.19059,0.51743c0.65155,0.29011 1.2597,0.70997 1.95465,0.87034c0.62378,0.14395 1.47748,0.10585 2.30078,-0.11437c-0.81712,-0.4229 -1.36898,-1.28267 -1.35196,-2.26494c0.02392,-1.3805 1.16243,-2.48023 2.54294,-2.45631zM309.51309,163.25637c0.01152,-0.66499 0.28168,-1.26483 0.71291,-1.7053c-1.2192,0.42958 -2.51237,1.55774 -3.54351,2.41272c-0.00026,0.37821 0.0004,0.75707 0.00251,1.13662c0.73543,0.21339 1.23074,0.72616 1.23074,0.72616c0.36822,0.47251 0.59597,1.10117 1.10466,1.41753c0.85578,0.53222 2.02089,-0.27802 2.84483,-1.44874c-1.33123,-0.07772 -2.37546,-1.1934 -2.35215,-2.539zM196.1018,193.61581c0.2003,3.21031 -1.38999,6.56617 -1.14458,9.59073c0.05953,0.73371 0.67695,1.32156 0.85694,2.03534c0.14041,0.55685 0.2784,1.18888 0.39573,1.86454c0.6893,-1.76117 1.42332,-3.49952 2.29015,-5.16595c1.29852,-2.49633 2.68254,-4.8196 3.32946,-7.63106c0.44484,-1.93325 0.73834,-3.91133 1.27357,-5.81891c-3.37699,-1.48825 -6.65383,-3.03234 -9.91571,-4.76013c0.86191,3.41614 2.68062,6.13812 2.91443,9.88546zM193.96948,157.2443c-1.20365,-1.17999 -2.89016,-2.46855 -4.25888,-3.83138c0.45339,3.8786 0.92946,7.76681 1.50149,11.62171c0.11402,-0.00403 0.2277,-0.0084 0.34103,-0.01315c2.63105,-0.11043 5.25928,-0.3958 7.89227,-0.35145c0.34659,0.00584 0.69994,0.01881 1.05847,0.03657c-2.00332,-2.62973 -4.15208,-5.12679 -6.53438,-7.4623zM217.20365,203.71967c3.91663,-4.0453 8.53531,-7.44466 11.95,-11.98375c-1.66087,-0.17024 -3.52898,-0.33351 -4.28359,-0.2865c-3.19086,0.19879 -5.98753,0.51022 -8.77446,0.47972c0.56535,3.89843 0.9951,7.85057 1.10805,11.79053zM225.60715,157.83495c-1.50342,-2.48038 -2.26979,-5.35847 -3.75841,-7.84774c-1.64495,-2.75068 -3.92188,-5.05501 -5.9848,-7.54185c0.07474,0.20366 0.16145,0.40971 0.26375,0.61813c1.09578,2.23263 1.88911,4.60141 2.82261,6.90661c0.40332,0.99597 1.28814,1.78607 1.5443,2.82963c0.74706,3.04333 -0.04789,7.21264 -0.59925,10.24449c2.98838,-0.13379 5.97872,-0.1691 8.97162,-0.20035c-0.98335,-1.62026 -2.05489,-3.02105 -3.2598,-5.00893zM252.83562,157.91507c-1.7654,-2.60969 -2.83434,-5.80703 -4.35013,-8.5252c-0.95829,-1.71847 -2.97887,-2.6189 -4.14078,-4.20679c-0.21319,-0.29135 -1.93004,-4.8258 -2.15942,-5.44958c-0.24272,-0.66009 -0.32096,-1.39845 -0.7016,-1.98985c-0.21101,-0.32785 -0.54901,-0.64626 -0.93731,-0.96765c0.43421,1.4148 0.79464,2.94762 1.04726,3.89428c0.03598,0.23957 0.90208,5.97687 0.9158,6.18071c0.13331,1.98071 -0.34645,3.35109 0.27993,5.25908c1.16352,3.54414 1.95395,5.68342 1.8977,9.53794l-0.0137,0.79073c3.77845,-0.1628 7.58888,-0.39708 11.39468,-0.53618c-1.15744,-1.31195 -2.31623,-2.6331 -3.23244,-3.98748zM243.41671,209.13806c-1.47374,2.37366 -2.65332,3.84193 -3.08675,6.62444c-0.10136,0.65065 -0.14562,1.31402 -0.22017,1.97039c0.44017,-0.37063 0.90051,-0.72985 1.20067,-1.05406c2.0715,-2.23741 3.94457,-5.01589 5.77476,-7.44189c4.19245,-5.55729 7.40735,-11.80836 10.34551,-18.21304c-0.2008,0.00305 -0.40142,0.00722 -0.60181,0.01289c-2.60258,0.0736 -5.20491,0.25274 -7.80797,0.44761c-0.13366,7.0318 -0.98005,12.07438 -5.60425,17.65367zM284.43921,164.92035c0.49233,0.21418 1.01892,0.61054 1.25639,1.34384c0.19381,0.43831 0.27327,0.98419 0.04799,1.61966c-0.15658,0.65579 -0.52017,1.07065 -0.92119,1.33305c-0.63727,0.51802 -1.34192,0.53655 -1.88754,0.4254l-1.89657,-0.14135c-2.63804,-0.93043 -5.28843,-2.17496 -8.10499,-2.44615c-7.46004,-0.71832 -15.05434,0.34893 -22.4998,0.5867c-3.64703,0.11646 -7.34707,-0.09382 -10.9983,-0.03902c-2.01358,0.09882 -4.0251,0.15139 -6.03508,0.18543c-0.42489,0.10557 -0.7965,0.0966 -1.11817,0.0172c-4.28099,0.05991 -8.55555,0.05909 -12.82905,0.26563c-3.31825,0.16038 -6.30909,1.2875 -9.50908,1.74965c-3.3467,0.48334 -7.20333,-0.09083 -10.58503,-0.15113c-3.74171,-0.06671 -7.41623,0.35837 -11.1624,0.29169c-2.98222,-0.05308 -6.12067,-0.02546 -9.04079,0.72107c-0.12869,0.0329 -0.30292,0.09191 -0.51001,0.16904c0.38697,0.18452 0.78313,0.40798 1.19793,0.68369c2.05444,1.36555 1.58628,2.41341 3.7979,3.20255c1.88223,0.67159 3.92542,0.83612 5.7904,1.55421c3.19209,1.22906 5.63214,3.39639 8.72288,4.83258c3.74795,1.74159 7.67577,3.13166 11.48562,4.73452c5.35887,1.90425 9.47132,0.91215 14.95966,0.59811c4.21549,-0.2412 8.39479,0.85296 12.64052,0.70159c8.0713,-0.28775 16.13306,-0.6944 24.20499,-1.03121c2.18059,-0.09099 4.48538,-0.97912 6.57809,-1.31041c4.54393,-0.71935 8.47024,-0.97399 12.57618,-0.36729l0.00735,-0.42431l2.90974,0.05042c1.3805,0.02392 2.48023,1.16243 2.45631,2.54294c-0.01196,0.69026 -0.30258,1.31031 -0.76276,1.75481l-1.97343,1.90622c-1.56622,1.50935 -2.87221,3.27523 -4.44864,4.77393c-2.27271,2.16068 -4.92007,2.39641 -6.40706,5.05324c-1.77184,4.00015 -0.56203,7.67914 0.86104,11.58337c2.59217,7.11168 6.52256,16.91184 15.65771,14.7751c6.03187,-1.41088 9.85319,-11.55107 12.66081,-16.14566c1.147,-7.49753 2.48123,-14.67314 2.19015,-22.2982c-0.03617,-0.94752 -0.09559,-1.889 -0.17186,-2.82608c-0.39346,-0.68147 -0.34759,-1.32606 -0.16987,-1.83716c-0.57951,-5.64885 -1.62427,-11.17559 -1.71114,-16.94584c-0.16473,-10.94152 1.36146,-24.76342 -8.78635,-31.79198c-4.96716,-2.09971 -11.39404,-2.5175 -15.70411,0.90706c-0.09711,0.07716 -4.29475,3.2868 -4.57317,3.9745c-0.20683,0.51084 0.27334,1.06904 0.45222,1.59033c0.56337,1.64181 0.9457,3.34027 1.41559,5.01123c0.91621,3.25808 2.06704,6.46025 2.73414,9.77832c0.44275,2.20219 0.41321,4.80178 2.40932,6.36807c1.43893,1.12909 3.22122,1.73468 4.79347,2.67066z" fill="#000000"/><path d="M311.98874,188.57442c-0.01702,0.98228 0.54912,1.8391 1.36624,2.262c-0.82331,0.22022 -1.70434,0.2603 -2.32812,0.11635c-0.69496,-0.16037 -1.32577,-0.5915 -1.97732,-0.88162l0.18866,-0.51919c0,0 -0.17952,-0.27727 -0.49845,-0.5616c-0.00768,-0.36706 -0.0248,-0.74743 -0.03887,-1.11586c-0.04168,-1.09103 -0.10863,-2.21706 -0.20241,-3.29409c0.54894,-0.8166 1.10702,-1.6648 1.98617,-1.99474c0.47276,-0.17743 2.9113,1.46648 2.94207,1.49617c0.6572,0.63434 1.39249,1.34184 1.90713,2.10748c-0.23773,-0.0801 -0.49273,-0.13019 -0.75692,-0.13476c-1.3805,-0.02392 -2.56426,1.13936 -2.58818,2.51986z" data-paper-data="{&quot;noHover&quot;:false,&quot;origItem&quot;:[&quot;Path&quot;,{&quot;applyMatrix&quot;:true,&quot;segments&quot;:[[[239.84322,145.76836],[0,1.38071],[0,-0.26424]],[[239.96019,145.01039],[-0.07597,0.23908],[-0.75661,0.52784]],[[237.92026,146.92848],[0.62286,-0.66809],[-0.02916,0.03127]],[[236.47847,149.85571],[-0.18559,-0.46962],[0.34512,0.8733]],[[238.48694,151.78137],[-0.82599,-0.53471],[1.07524,-0.11244]],[[241.73365,151.51696],[-1.09014,0.06058],[0.36812,-0.02045]],[[242.83613,151.46528],[-0.36687,0.01404],[0.27875,-0.3238]],[243.38161,150.96367],[[243.90226,151.14526],[0,0],[0.27878,-0.65648]],[[244.73861,149.17582],[-0.14831,0.69763],[0.13312,-0.62618]],[[244.5844,146.87737],[0.23445,0.81937],[-0.40868,0.82432]],[[242.34322,148.26836],[0.98243,0],[-1.38071,0]]],&quot;closed&quot;:true}]}" fill="#ffffff"/><path d="M311.90972,165.81818c-0.82394,1.17072 -2.03821,2.00793 -2.89399,1.4757c-0.50869,-0.31636 -0.76724,-0.95956 -1.13546,-1.43207c0,0 -0.50843,-0.53622 -1.24386,-0.74961c-0.0021,-0.37955 -0.00326,-0.77977 -0.003,-1.15799c1.03115,-0.85499 2.38879,-2.02116 3.60799,-2.45073c-0.43124,0.44049 -0.70739,1.03878 -0.71892,1.70377c-0.02332,1.3456 1.05601,2.53321 2.38723,2.61092z" data-paper-data="{&quot;noHover&quot;:false,&quot;origItem&quot;:[&quot;Path&quot;,{&quot;applyMatrix&quot;:true,&quot;segments&quot;:[[[217.12172,151.17854],[1.3458,0],[-0.66509,0]],[[215.40431,150.49528],[0.44789,0.42354],[0.45064,1.21157]],[[217.87807,153.99646],[-0.87273,-1.01618],[0.37816,-0.00629]],[[219.01448,153.97425],[-0.37946,0.00868],[0.20062,-0.73902]],[[219.71921,152.73111],[0,0],[0.46606,-0.37635]],[[221.11739,151.60206],[-0.3075,0.51409],[0.51731,-0.86487]],[[219.61958,148.78276],[1.18482,0.80353],[-0.05464,1.33238]]],&quot;closed&quot;:true}]}" fill="#ffffff"/><path d="M193.16847,183.68407c3.26187,1.72779 6.58717,3.27784 9.96416,4.76609c-0.53523,1.90758 -0.81044,3.91149 -1.25528,5.84474c-0.64692,2.81146 -2.07479,5.19908 -3.37332,7.69541c-0.86683,1.66643 -1.61238,3.40436 -2.30168,5.16553c-0.11732,-0.67565 -0.25861,-1.30831 -0.39903,-1.86515c-0.17999,-0.71378 -0.80479,-1.30387 -0.86432,-2.03758c-0.24541,-3.02456 1.32754,-6.46213 1.12724,-9.67244c-0.23381,-3.74733 -2.03587,-6.48045 -2.89778,-9.89659z" data-paper-data="{&quot;noHover&quot;:false,&quot;origItem&quot;:[&quot;Path&quot;,{&quot;applyMatrix&quot;:true,&quot;segments&quot;:[[[498.88285,528.09366],[-7.48544,0.59739],[6.41272,-0.51178]],[[518.10109,530.05015],[-6.0397,0.59554],[1.46515,-0.14447]],[[522.14146,528.26601],[-1.42111,0.38466],[1.10867,-0.30009]],[[525.85626,527.41007],[-1.34703,0.25802],[-3.5457,-1.31737]],[[515.44657,523.00945],[3.36239,1.67566],[-5.0369,-2.51016]],[[500.07137,516.61594],[5.6445,1.19622],[-3.88134,-0.82256]],[[488.39116,514.27081],[3.83315,1.0042],[-2.85903,6.80455]],[[479.2159,534.26418],[3.34205,-6.58263],[6.80137,-1.84192]]],&quot;closed&quot;:true}]}" fill="#ff7f00"/><path d="M200.53921,164.74196c-0.35854,-0.01776 -0.71578,-0.02723 -1.06236,-0.03307c-2.633,-0.04435 -5.31906,0.24464 -7.9501,0.35507c-0.11333,0.00476 -0.22872,0.00801 -0.34274,0.01203c-0.57203,-3.8549 -1.05377,-7.82136 -1.50717,-11.69996c1.36872,1.36283 3.0649,2.64447 4.26854,3.82446c2.3823,2.3355 4.5905,4.91174 6.59384,7.54147z" data-paper-data="{&quot;noHover&quot;:false,&quot;origItem&quot;:[&quot;Path&quot;,{&quot;applyMatrix&quot;:true,&quot;segments&quot;:[[[426.22464,533.61791],[4.58775,-4.8448],[-2.31793,2.44781]],[[418.7106,542.26715],[2.67783,-2.78426],[7.74032,-1.04104]],[[441.89851,538.86192],[-7.68883,1.27746],[-0.012,-0.22786]],[[441.86039,538.18043],[0.01344,0.22646],[-0.312,-5.25748]],[[440.88412,522.41044],[0.00254,5.26673],[-0.00033,-0.69328]],[[440.92058,520.29255],[-0.02311,0.71757],[-5.18926,4.09716]]],&quot;closed&quot;:true}]}" fill="#ff7f00"/><path d="M228.89417,162.88583c-2.9929,0.03125 -6.0222,0.07323 -9.01058,0.20701c0.55136,-3.03184 1.30805,-7.25037 0.56099,-10.2937c-0.25616,-1.04355 -1.12934,-1.86512 -1.53266,-2.86109c-0.9335,-2.3052 -1.71539,-4.68404 -2.81117,-6.91667c-0.1023,-0.20843 -0.18861,-0.41473 -0.26336,-0.61838c2.06292,2.48683 4.35747,4.78434 6.00242,7.53502c1.48863,2.48927 2.29109,5.45854 3.7945,7.93891c1.20491,1.98787 2.2765,3.38864 3.25985,5.0089z" data-paper-data="{&quot;noHover&quot;:false,&quot;origItem&quot;:[&quot;Path&quot;,{&quot;applyMatrix&quot;:true,&quot;segments&quot;:[[[426.30954,470.33162],[3.93341,-2.47833],[-4.90791,3.09233]],[[410.74664,478.11924],[4.92623,-3.06306],[-5.44353,3.38472]],[[395.87259,490.34837],[4.90144,-4.21139],[0.40465,-0.15653]],[[397.09954,489.79954],[-0.41326,0.21179],[4.42662,-2.2686]],[[410.81288,483.91586],[-4.57736,1.94659],[1.97767,-0.84103]],[[416.41778,480.72968],[-2.07793,0.54841],[6.05987,-1.59933]],[[436.92445,481.57304],[-6.08189,-0.9975],[-0.37108,-5.97122]],[[436.21295,463.63944],[0.1662,5.98382],[-3.20596,2.02253]]],&quot;closed&quot;:true}]}" fill="#ff7f00"/><path d="M216.05811,191.89605c2.78693,0.03051 5.63889,-0.29456 8.82975,-0.49335c0.7546,-0.04701 2.64235,0.12985 4.30322,0.30008c-3.41469,4.53908 -8.10363,8.00932 -12.02026,12.05461c-0.11296,-3.93996 -0.54737,-7.96292 -1.11271,-11.86134z" data-paper-data="{&quot;noHover&quot;:false,&quot;origItem&quot;:[&quot;Path&quot;,{&quot;applyMatrix&quot;:true,&quot;segments&quot;:[[[518.35637,485.5462],[-7.87483,0.36239],[-8.22509,-7.69192]],[[493.97841,462.06503],[9.19511,6.67108],[-0.28288,3.32713]],[[493.55393,470.64084],[-0.12015,-1.50735],[0.50808,6.37388]],[[494.81724,488.1705],[-0.03555,-5.57408],[7.7761,-1.26561]]],&quot;closed&quot;:true}]}" fill="#ff7f00"/><path d="M249.02194,191.4344c2.60306,-0.19487 5.23026,-0.36681 7.83284,-0.44042c0.2004,-0.00567 0.40237,-0.00898 0.60317,-0.01203c-2.93816,6.40468 -6.19665,12.74494 -10.3891,18.30223c-1.83018,2.426 -3.7128,5.19999 -5.7843,7.4374c-0.30016,0.32421 -0.76178,0.68262 -1.20195,1.05326c0.07455,-0.65637 0.11624,-1.32152 0.2176,-1.97218c0.43342,-2.78251 1.60541,-4.25772 3.07916,-6.63138c4.6242,-5.57928 5.50893,-10.70508 5.64259,-17.73688z" data-paper-data="{&quot;noHover&quot;:false,&quot;origItem&quot;:[&quot;Path&quot;,{&quot;applyMatrix&quot;:true,&quot;segments&quot;:[[[528.28326,432.94021],[-11.31712,-9.05369],[4.79768,2.8648]],[[541.6371,438.88324],[-5.5792,-0.77031],[1.30462,0.18013]],[[545.58491,439.25524],[-1.31512,-0.12634],[-0.75641,-0.86737]],[[543.43551,436.89078],[0.65871,0.589],[-4.54592,-4.06486]],[[528.35388,425.60086],[4.91468,3.57577],[-11.25818,-8.19109]],[[491.57479,405.54401],[12.90925,5.65353],[0.01306,0.40143]],[[491.62141,406.74701],[-0.01828,-0.40053],[0.23737,5.20182]],[[492.78704,422.34508],[-0.47987,-5.19857],[14.06612,0.02364]]],&quot;closed&quot;:true}]}" fill="#ff7f00"/><path d="M256.09491,161.94473c-3.80581,0.1391 -7.6568,0.37929 -11.43525,0.5421l0.01292,-0.79096c0.05625,-3.85451 -0.76553,-6.02167 -1.92904,-9.56581c-0.62638,-1.90799 -0.14564,-3.32046 -0.27895,-5.30118c-0.01372,-0.20385 -0.86477,-5.95919 -0.90075,-6.19876c-0.25262,-0.94666 -0.60896,-2.48221 -1.04317,-3.89701c0.38829,0.3214 0.77677,0.72612 0.98778,1.05397c0.38064,0.59139 0.46026,1.32893 0.70299,1.98903c0.22938,0.62378 1.953,5.15325 2.1662,5.4446c1.16192,1.58789 3.17479,2.40751 4.13309,4.12598c1.51579,2.71818 2.53534,5.91493 4.30074,8.52462c0.91621,1.35438 2.12603,2.76147 3.28347,4.07342z" data-paper-data="{&quot;noHover&quot;:false,&quot;origItem&quot;:[&quot;Path&quot;,{&quot;applyMatrix&quot;:true,&quot;segments&quot;:[[[425.52629,415.88008],[2.6766,-1.87907],[-5.15743,3.6207]],[[408.62917,424.87442],[5.38302,-3.12529],[-3.40322,1.97585]],[[400.36032,433.30051],[3.13505,-2.37852],[-0.57522,0.43641]],[[389.53762,437.80752],[1.23942,-0.48029],[-1.31158,0.50825]],[[385.58283,439.27946],[1.16943,-0.78165],[-0.6483,0.43332]],[[383.6803,441.18731],[0.62923,-0.78761],[2.81412,-0.91733]],[[391.43139,438.95817],[-1.88428,0.53797],[0.47782,-0.08027]],[[403.75924,436.91269],[-0.40716,0.0345],[3.95621,-0.33522]],[[414.26611,436.17069],[-3.79369,1.31868],[7.04689,-2.44949]],[[433.27337,432.04537],[-7.70982,0.02107],[0,0]],[[434.85508,432.04537],[0,0],[-0.45647,-7.55011]],[[433.38805,409.278],[0.41002,7.60565],[-2.5834,2.36]]],&quot;closed&quot;:true}]}" fill="#ff7f00"/><path d="M279.59995,162.26979c-1.9961,-1.56629 -1.96279,-4.15887 -2.40555,-6.36105c-0.66711,-3.31806 -1.81141,-6.51212 -2.72762,-9.7702c-0.46989,-1.67097 -0.84884,-3.36631 -1.41221,-5.00812c-0.17888,-0.52129 -0.65799,-1.07863 -0.45116,-1.58947c0.27843,-0.6877 4.53894,-3.97509 4.63605,-4.05225c4.31007,-3.42455 10.74302,-3.00083 15.71019,-0.90112c10.14781,7.02856 8.63266,20.87281 8.79738,31.81433c0.08687,5.77025 1.13257,11.31068 1.71209,16.95953c-0.17771,0.5111 -0.22371,1.15714 0.16975,1.83862c0.07628,0.93708 0.13543,1.88076 0.1716,2.82828c0.29109,7.62508 -1.04824,14.81659 -2.19524,22.31413c-2.80763,4.59459 -6.63789,14.74704 -12.66975,16.15792c-9.13515,2.13675 -13.13604,-7.73435 -15.72822,-14.84602c-1.42307,-3.90422 -2.63929,-7.57549 -0.86745,-11.57565c1.48699,-2.65683 4.12978,-2.88416 6.40249,-5.04483c1.57642,-1.4987 2.88011,-3.25789 4.44633,-4.76724l1.97284,-1.90367c0.46018,-0.4445 0.75041,-1.06253 0.76237,-1.75279c0.02392,-1.3805 -1.07616,-2.51657 -2.45667,-2.54049l-2.81047,-0.03838l-0.00742,0.42483c-4.10595,-0.60671 -8.03288,-0.34836 -12.57681,0.37098c-2.09271,0.33129 -4.39918,1.22542 -6.57976,1.3164c-8.07193,0.33681 -16.2032,0.77181 -24.2745,1.05956c-4.24573,0.15137 -8.44849,-0.96736 -12.66398,-0.72616c-5.48834,0.31402 -9.60394,1.29638 -14.96281,-0.60787c-3.80985,-1.60286 -7.73872,-3.00103 -11.48667,-4.74263c-3.09072,-1.43619 -5.53077,-3.60856 -8.72286,-4.83763c-1.86498,-0.71809 -3.90812,-0.88369 -5.79034,-1.55528c-2.21162,-0.78913 -1.74323,-1.83934 -3.79767,-3.20488c-0.4148,-0.27571 -0.8109,-0.49958 -1.19787,-0.68411c0.20709,-0.07713 0.38134,-0.13632 0.51003,-0.16923c2.92012,-0.74653 6.05884,-0.77592 9.04106,-0.72283c3.74617,0.06668 7.42118,-0.3609 11.16289,-0.29419c3.3817,0.0603 7.23918,0.63123 10.58588,0.14789c3.19999,-0.46215 6.19418,-1.59764 9.51241,-1.75801c4.2735,-0.20654 8.56159,-0.2223 12.84258,-0.28221c0.32166,0.07938 0.69586,0.08646 1.12076,-0.01912c2.00998,-0.03404 4.04219,-0.09491 6.05578,-0.19374c3.65124,-0.0548 7.39033,0.16585 11.03735,0.04939c7.44546,-0.23777 15.05522,-1.28377 22.51528,-0.56545c2.81655,0.2712 5.46882,1.52176 8.10686,2.45221l1.89671,0.14201c0.54562,0.11114 1.15276,0.11474 1.79003,-0.40327c0.40103,-0.2624 0.7649,-0.67609 0.92148,-1.33189c0.22528,-0.63548 0.14626,-1.1797 -0.04755,-1.61802c-0.23747,-0.73328 -0.76352,-1.12793 -1.25586,-1.34211c-1.57225,-0.93598 -3.35281,-1.53707 -4.79175,-2.66616z" data-paper-data="{&quot;noHover&quot;:false,&quot;origItem&quot;:[&quot;Path&quot;,{&quot;applyMatrix&quot;:true,&quot;segments&quot;:[[[438.43969,352.43966],[-1.8172,3.17646],[0.41124,-0.99193]],[[441.08342,349.8807],[-1.45812,0.50028],[0.86978,-0.40273]],[[444.3206,349.72862],[-1.27857,-0.42848],[1.31681,0.2904]],[[447.01822,351.52455],[-0.53862,-0.79284],[1.05795,1.2564]],[[447.93431,355.28432],[0.20334,-1.09493],[0,0]],[[447.71737,359.08178],[0,0],[-1.76918,5.30753]],[[443.10662,375.37408],[0.44473,-5.64167],[-1.17793,14.94275]],[[445.05946,420.3466],[-0.73345,-14.88044],[0.35927,7.28893]],[[445.36253,442.34127],[-0.2361,-7.29949],[0.26739,4.02315]],[[445.94246,454.40319],[-0.13772,-4.01818],[0.22585,0.84601]],[[446.01561,456.63859],[0.14761,-0.64599],[0.26815,8.55863]],[[446.99131,482.28363],[-0.56111,-8.53857],[0.43568,6.62993]],[[450.81956,501.23832],[-1.03503,-6.383],[1.08249,6.67564]],[[450.88412,522.41044],[0.0034,-6.76448],[-0.00376,7.48461]],[[451.85418,544.72177],[0.00354,-7.49352],[-0.00282,5.96538]],[[453.60936,562.77565],[-1.59402,-5.81351],[0.07025,0.2562]],[[453.96506,563.78965],[-0.16142,-0.41144],[0.35557,-0.78022]],[[455.29072,561.37047],[-0.53696,0.83903],[2.65949,-4.15558]],[[461.56326,553.66485],[-1.50139,4.44992],[1.27777,-3.78716]],[[464.47058,542.03192],[-1.37133,3.75429],[2.34715,-6.42579]],[[473.83204,524.42135],[-2.76487,6.23029],[3.3528,-7.55511]],[[482.90168,501.2895],[-3.07321,7.67411],[3.62224,-10.78213]],[[483.57939,471.35394],[0.81812,10.96415],[-0.62839,-8.42135]],[[484.54437,446.05239],[0.44979,8.48493],[-0.85507,-16.13019]],[[481.64358,397.68541],[0.95319,16.12976],[-0.2575,-4.35737]],[[478.79521,384.57661],[0.735,4.17332],[-1.59592,-9.06158]],[[477.62499,359.44076],[-1.07097,8.23168],[0,0]],[476.77626,359.44076],[[476.77626,353.62041],[0,0],[0,-2.76142]],[[481.77626,348.62041],[-2.76142,0],[1.38071,0]],[[485.31179,350.08488],[-0.90482,-0.90482],[0,0]],[[489.19202,353.96511],[0,0],[3.07252,3.07967]],[[498.8926,362.69563],[-3.05158,-3.10043],[4.39945,4.46988]],[[509.21957,375.33273],[-5.36438,-2.88148],[8.0605,3.40454]],[[532.35298,373.20956],[-7.75797,2.981],[14.1314,-5.42999]],[[561.35621,341.38688],[4.58937,18.19352],[-3.03033,-12.01304]],[[528.63105,316.6285],[9.28508,5.45521],[-15.03257,-2.03386]],[[483.96544,313.02149],[15.23777,-0.84629],[-1.89351,0.10516]],[[478.32008,313.46308],[1.87124,-0.18499],[-1.3491,0.81042]],[[474.65219,313.86643],[1.0282,0.33766],[-11.27592,1.35459]],[[440.82489,317.87536],[11.53576,-0.37366],[-21.87403,0.70853]],[[377.55491,336.547],[13.70339,-20.53611],[-4.02669,10.00558]],[[379.91289,367.91909],[-6.99742,-8.50019],[0.15766,0.19152]],[[388.01916,376.92635],[-1.38484,-0.53294],[1.0287,0.39589]],[[391.18367,375.96696],[-1.03622,0.37576],[3.26361,-1.18346]],[[401.15558,372.96255],[-3.32515,0.99755],[6.48344,-1.94505]],[[420.61453,367.15627],[-6.61201,1.44898],[4.38837,-0.96168]],[[433.26527,362.11771],[-3.06294,4.04589],[2.20798,-2.91656]]],&quot;closed&quot;:true}]}" fill="#ff7f00"/></g></g></svg>