<svg version="1.1" xmlns="http://www.w3.org/2000/svg" xmlns:xlink="http://www.w3.org/1999/xlink" width="461.2768" height="361.96657" viewBox="0,0,461.2768,361.96657"><g transform="translate(3.29396,3.89664)"><g data-paper-data="{&quot;isPaintingLayer&quot;:true}" fill="none" fill-rule="nonzero" stroke="#000000" stroke-width="6" stroke-linecap="round" stroke-linejoin="miter" stroke-miterlimit="10" stroke-dasharray="" stroke-dashoffset="0" style="mix-blend-mode: normal"><path d="M187.20882,349.53959l124.13977,-49.13866l12.28467,-118.96728l35.56087,-28.4487l2.58625,122.84665l-24.56933,27.80214l25.86245,21.33652l33.62119,0.64657l20.68996,-20.0434l-20.0434,-27.80214l-0.64656,-14.22435l-1.29312,-106.68262l58.19052,-5.17249l-45.25929,-105.3895l-103.44981,85.34609l-32.32807,65.94925l-45.90585,89.22546l-2.58625,-84.69953l-53.66459,-60.77676l20.0434,161.64033l-93.75139,-60.77676l31.03494,-16.81059l13.57779,-53.01803"/><path d="M183.32946,350.83272l-116.38104,-41.37992l-23.92277,43.31961l-38.14712,-45.90585l25.86245,1.29312"/><path d="M8.11134,304.92686l69.18206,-104.09637"/><path d="M253.80464,-0.89664l0.64656,80.1736l-96.9842,-76.29424l-157.1144,-1.29312l-0.64656,305.17694"/><path d="M256.39089,23.02613l149.35567,23.27621"/><path d="M193.67444,165.91618l45.90585,-15.51747"/><path d="M295.18457,92.85475l-34.91431,-27.80214l-5.81905,-7.11217"/><path d="M2.93885,183.37333h41.37992"/><path d="M2.93885,74.75103l61.42333,81.46673"/></g></g></svg>