<svg version="1.1" xmlns="http://www.w3.org/2000/svg" xmlns:xlink="http://www.w3.org/1999/xlink" width="169.83226" height="157.89479" viewBox="0,0,169.83226,157.89479"><g transform="translate(-161.86683,-97.00171)"><g data-paper-data="{&quot;isPaintingLayer&quot;:true}" fill-rule="nonzero" stroke-linejoin="miter" stroke-miterlimit="10" stroke-dasharray="" stroke-dashoffset="0" style="mix-blend-mode: normal"><path d="M250.02388,171.01027c0,0 -5.41271,19.16872 -3.04575,30.15817c2.9817,13.84362 13.6372,39.27468 13.6372,39.27468l-18.82925,-12.94511l-24.12497,19.41766l-17.65242,-20.00608l-33.5396,2.35366c0,0 21.4968,-35.98387 31.3547,-47.35837c6.01915,-6.94517 22.19097,-14.4251 22.19097,-14.4251z" fill="#ff0000" stroke="#ff0000" stroke-width="5" stroke-linecap="round"/><path d="M261.71038,195.65821v35.23747" fill="none" stroke="#0400ff" stroke-width="5" stroke-linecap="round"/><path d="M264.09936,192.9706c0,14.6783 -11.76542,26.57741 -26.27879,26.57741c-14.51337,0 -26.27879,-11.89911 -26.27879,-26.57741c0,-14.6783 11.76541,-26.57741 26.27879,-26.57741c14.51337,0 26.27879,11.89911 26.27879,26.57742z" fill="#0400ff" stroke="#000000" stroke-width="5" stroke-linecap="butt"/><path d="M274.47458,136.45434c0,19.95589 -10.29474,36.13334 -22.99394,36.13334c-12.69921,0 -22.99394,-16.17745 -22.99394,-36.13334c0,-19.95589 10.29474,-36.13334 22.99394,-36.13334c12.69921,0 22.99394,16.17745 22.99394,36.13334z" fill="#ffffff" stroke="#000000" stroke-width="5" stroke-linecap="butt"/><path d="M228.69463,210.434c0,-2.5 2.5,-2.5 2.5,-2.5h2.94207c2.02406,0 4.04814,0.01141 6.0721,0.03228c0.92356,-0.30785 1.89868,-0.49071 2.77067,-0.92356c0.6533,-0.32429 1.19961,-0.83561 1.74616,-1.31856c4.7205,-4.17123 -6.59237,-6.63511 -8.75776,-7.7609c-1.25326,-0.65157 -2.62264,-1.21628 -3.59893,-2.23709c-3.00149,-3.13838 -3.37857,-8.25137 -1.70748,-12.16589c3.28629,-7.69809 11.90832,-3.44016 16.6856,-7.48906c0,0 2,-1.5 3.5,0.5c1.5,2 -0.5,3.5 -0.5,3.5c-1.02103,0.71232 -1.88585,1.73197 -3.06309,2.13695c-3.04322,1.04691 -10.55227,-0.87853 -12.02567,3.3191c-0.30707,0.87482 -0.30397,1.83056 -0.39535,2.75319c-0.78553,7.93141 12.16647,5.51426 14.95847,11.46517c2.3925,5.09941 0.09943,9.40518 -4.5214,11.72598c-1.3471,0.67658 -2.8602,0.9534 -4.2903,1.4301c-2.29095,0.01881 -4.58198,0.03228 -6.87301,0.03228h-2.94207c0,0 -2.5,0 -2.5,-2.5z" fill="#ff0000" stroke="none" stroke-width="0.5" stroke-linecap="butt"/><path d="M249.16824,135.63506c0,19.95589 -10.29474,36.13333 -22.99394,36.13333c-12.69921,0 -22.99394,-16.17744 -22.99394,-36.13333c0,-19.95589 10.29474,-36.13334 22.99394,-36.13334c12.69921,0 22.99394,16.17745 22.99394,36.13334z" fill="#ffffff" stroke="#000000" stroke-width="5" stroke-linecap="butt"/><path d="M329.1991,160.71936c0,10.39025 -26.87328,18.81322 -60.02315,18.81322c-33.14987,0 -60.02314,-8.42297 -60.02314,-18.81322c0,-10.39025 26.87327,-18.81322 60.02314,-18.81322c33.14987,0 60.02315,8.42297 60.02315,18.81322z" fill="#ffffff" stroke="#000000" stroke-width="5" stroke-linecap="butt"/><path d="M217.51424,166.46247c-2.58837,0 -3.60035,-1.57639 -3.99601,-2.80903c-2.92809,-2.81694 -5.63683,-5.31952 -4.00256,-10.47516c0.46761,-1.47515 2.53128,-1.78641 3.72181,-2.77502c4.05665,-3.36864 6.91665,-5.10032 12.2194,-6.15675c0.73209,0.02803 1.44675,-0.12101 2.15663,-0.3244c0.06741,-0.08666 0.13688,-0.17204 0.20852,-0.25604c1.00154,-1.17435 2.91153,-1.02621 4.35601,-1.56991c1.45134,-0.54629 2.73026,-1.05399 3.98874,-1.47596c0.04084,-0.06222 0.08253,-0.12399 0.12511,-0.18528c0.80109,-1.15311 2.40481,-1.4958 3.73288,-1.9515c1.17959,-0.40475 2.40077,-0.59748 3.64526,-0.65566c0.01223,-0.07873 0.0272,-0.15841 0.04508,-0.23899c-1.20753,-1.03082 -2.43366,-2.03527 -2.87291,-3.49622c-0.77695,-2.5842 -2.55745,-5.90356 -0.91379,-8.04368c0.87874,-1.14415 2.38452,-1.25258 3.9887,-1.11228c-0.54175,-0.44813 -1.08107,-0.8858 -1.61982,-1.31597c-0.67288,-0.14054 -1.18376,-0.63037 -1.49049,-0.57634c0,0 -0.25,0 -0.25,-0.25c0,-0.25 0.25,-0.25 0.25,-0.25c0.05374,0.00483 0.10395,0.01175 0.15111,0.02046c-2.048,-1.59507 -4.10941,-3.11779 -6.28457,-4.73189c0,0 -3.4,-2.55 -0.85,-5.95c2.55,-3.4 5.95,-0.85 5.95,-0.85c1.47371,1.12054 3.21505,1.8505 4.71298,2.93845c1.59044,1.15512 2.43036,2.58141 3.88306,3.82057c2.05214,1.75048 4.90064,3.47335 6.39853,5.80128c1.11082,1.72638 3.11586,3.44337 2.82036,5.47487c-0.51918,3.56934 -2.61235,5.08078 -5.10468,5.59077c0.60806,0.84783 1.19428,1.70913 1.76962,2.57867c1.80818,-1.13729 3.73745,-2.06072 5.84208,-1.96663c1.20082,0.05369 2.41362,0.51847 3.53882,1.19825c0.34503,-1.03775 1.54408,-3.57876 4.88224,-2.91113c4.16747,0.83349 3.33397,5.00096 3.33397,5.00096c-0.35091,1.68541 -0.52858,3.41746 -0.51471,5.13896v2.98622c0,2.34721 -1.90279,4.25 -4.25,4.25c-0.89346,0 -1.72253,-0.2757 -2.40677,-0.74667c-1.67607,2.18226 -4.66156,2.76744 -7.32762,3.11497c-5.65969,0.73777 -11.88465,-1.2622 -17.49219,-1.78554c-0.27672,-0.02582 -0.58196,-0.05537 -0.90783,-0.08596c-2.33301,0.3917 -4.64943,0.76848 -6.86681,1.2124l-2.90017,0.58004c-0.29611,0.06531 -0.60381,0.09974 -0.91955,0.09974c-0.78397,0 -1.51835,-0.21227 -2.14882,-0.58246c-1.5417,0.30212 -2.69781,0.43187 -4.13043,1.23195c-1.16685,0.65166 -1.92807,1.88306 -2.94127,2.74952c0.51932,0.57221 0.95684,1.36946 1.47531,1.88794l1.2448,3.60245c0,0 0,4.25 -4.25,4.25z" fill="#ffffff" stroke="none" stroke-width="0.5" stroke-linecap="butt"/><path d="M219.90322,250.60476l0.59725,-35.83471" fill="none" stroke="#0400ff" stroke-width="5" stroke-linecap="round"/><path d="M249.76548,219.54802l-0.59725,32.84849" fill="none" stroke="#0400ff" stroke-width="5" stroke-linecap="round"/><path d="M210.31197,188.49126l-1.19449,41.80717" fill="none" stroke="#0400ff" stroke-width="5" stroke-linecap="round"/><path d="M328.00461,162.21247l-99.14271,-0.59725" fill="none" stroke="#000000" stroke-width="5" stroke-linecap="round"/><path d="M207.65807,135.9373l62.9603,-0.53356" fill="none" stroke="#ff0000" stroke-width="24.5" stroke-linecap="round"/><path d="M267.90488,135.55847c0,2.30894 -0.93588,4.18072 -2.09035,4.18072c-1.15448,0 -2.09036,-1.87178 -2.09036,-4.18072c0,-2.30894 0.93588,-4.18072 2.09036,-4.18072c1.15447,0 2.09035,1.87177 2.09035,4.18072z" fill="#000000" stroke="#000000" stroke-width="5" stroke-linecap="butt"/><path d="M214.52801,134.73917c0,2.30895 -0.93589,4.18072 -2.09036,4.18072c-1.15447,0 -2.09036,-1.87177 -2.09036,-4.18072c0,-2.30895 0.93589,-4.18072 2.09036,-4.18072c1.15447,0 2.09036,1.87177 2.09036,4.18072z" fill="#000000" stroke="#000000" stroke-width="5" stroke-linecap="butt"/><path d="M171.1764,132.76335c0,0 5.98513,-11.77669 12.94511,-12.35669c6.95998,-0.58 15.29876,10.00304 15.29876,10.00304c0,0 -10.06919,1.53739 -15.29877,8.23779c-5.22958,6.7004 -3.53048,15.88718 -3.53048,15.88718" fill="none" stroke="#ff0000" stroke-width="5" stroke-linecap="round"/></g></g></svg>