<svg version="1.1" xmlns="http://www.w3.org/2000/svg" xmlns:xlink="http://www.w3.org/1999/xlink" width="116.15459" height="185.30062" viewBox="0,0,116.15459,185.30062"><g transform="translate(-174.08771,-70.36162)"><g data-paper-data="{&quot;isPaintingLayer&quot;:true}" fill-rule="nonzero" stroke-linejoin="miter" stroke-miterlimit="10" stroke-dasharray="" stroke-dashoffset="0" style="mix-blend-mode: normal"><path d="M261.71038,195.6582v35.23747" fill="none" stroke="#787878" stroke-width="5" stroke-linecap="round"/><path d="M270.26295,135.68857c0,19.95589 -10.29474,36.13334 -22.99394,36.13334c-12.69921,0 -22.99394,-16.17745 -22.99394,-36.13334c0,-19.95589 10.29474,-36.13334 22.99394,-36.13334c12.69921,0 22.99394,16.17745 22.99394,36.13334z" fill="#4a86e8" stroke="#000000" stroke-width="5" stroke-linecap="butt"/><path d="M229.10162,166.55693c0.65717,-0.57382 1.55959,-0.57382 1.55959,-0.57382c5.89772,0.037 10.55922,2.93644 15.28163,6.20567c4.01405,2.77885 8.24686,5.51274 11.39584,9.30868c3.9025,4.70425 5.79594,11.02413 8.16014,16.5406c2.60729,5.26104 6.04504,15.01544 0.06516,19.42039c-3.10224,2.2852 -9.54462,3.78082 -13.40151,4.23698c-1.9596,0.23176 -3.95905,-0.2096 -5.91976,0.01255c-8.34094,0.94502 -16.06812,2.19445 -24.50924,1.34317c-4.17088,-1.03948 -10.36008,-2.56232 -13.5003,-5.74766c-2.23762,-2.26977 -2.8308,-5.72217 -3.35535,-8.71685c-0.54381,-3.10466 -0.9469,-7.56476 -0.33874,-10.69137c0.52811,-2.71504 1.73871,-5.62161 2.42344,-8.34633c0.72511,-2.88539 1.48852,-5.84384 3.57101,-8.11668c2.21452,-2.41693 5.06081,-3.37247 7.51294,-5.43519c4.22968,-2.79997 6.49378,-7.39004 11.05515,-9.44013zM232.95609,170.63409c-0.79676,0.31879 -1.63343,0.03991 -1.63343,0.03991l0.19266,-0.20557c-0.08167,-0.0048 -0.1636,-0.00884 -0.24578,-0.01209c-4.206,1.28314 -6.86295,6.64162 -10.5525,9.11731c-2.18652,1.8067 -4.92283,2.72584 -6.84274,4.81887c-1.56654,1.70781 -2.0461,4.08577 -2.58142,6.23899c-0.66223,2.66369 -1.81404,5.41556 -2.36179,8.06016c-0.539,2.60234 -0.11746,6.53548 0.34487,9.13313c0.32446,1.823 0.65245,4.89884 2.11347,6.32242c2.5353,2.4703 7.80185,3.67634 11.10943,4.5064c8.03761,0.79576 15.40117,-0.52453 23.343,-1.39124c5.35095,-0.58397 12.11946,-0.02674 16.90972,-3.27011c3.97421,-2.69084 0.24227,-11.01821 -1.30205,-14.07618c-2.1952,-5.12214 -3.91556,-11.23611 -7.56274,-15.58876c-2.89207,-3.45147 -6.81427,-5.92746 -10.47947,-8.46501c-3.26961,-2.26367 -6.58483,-4.56697 -10.45123,-5.22823z" fill="#787878" stroke="none" stroke-width="0.5" stroke-linecap="butt"/><path d="M243.4225,175.82035c3.6652,2.53755 7.61051,5.03258 10.50258,8.48405c3.64719,4.35265 5.37292,10.49877 7.56812,15.62091c1.54431,3.05796 5.26849,11.40265 1.29428,14.09349c-4.79026,3.24337 -11.57776,2.70093 -16.92872,3.2849c-7.94183,0.86672 -15.34492,2.18417 -23.38254,1.38841c-3.30758,-0.83006 -8.58683,-2.04729 -11.12213,-4.51759c-1.46103,-1.42357 -1.79391,-4.50735 -2.11837,-6.33035c-0.46233,-2.59765 -0.88782,-6.54373 -0.34882,-9.14607c0.54775,-2.6446 1.69966,-5.40993 2.36189,-8.07362c0.53532,-2.15322 1.01829,-4.54254 2.58483,-6.25035c1.9199,-2.09303 4.66454,-3.02452 6.85106,-4.83122c3.68955,-2.47569 6.36925,-7.847 10.57524,-9.13014c0.08219,0.00325 0.16454,0.00719 0.24621,0.01199l-0.19306,0.20566c0,0 0.83956,0.27835 1.63632,-0.04045c3.8664,0.66126 7.2035,2.96672 10.47311,5.23039z" data-paper-data="{&quot;noHover&quot;:false,&quot;origItem&quot;:[&quot;Path&quot;,{&quot;applyMatrix&quot;:true,&quot;segments&quot;:[[[465.91217,341.26818],[7.73281,1.32253],[-1.59352,0.63759]],[462.64531,341.348],[[463.03063,340.93687],[0,0],[-0.16334,-0.0096]],[[462.53906,340.9127],[0.16437,0.0065],[-8.41199,2.56628]],[[441.43406,359.14732],[7.37909,-4.95138],[-4.37303,3.61341]],[[427.74859,368.78505],[3.8398,-4.18606],[-3.13309,3.41561]],[[422.58575,381.26304],[1.07064,-4.30645],[-1.32445,5.32738]],[[417.86217,397.38336],[1.09551,-5.28919],[-1.078,5.20468]],[[418.55191,415.64962],[-0.92466,-5.1953],[0.64892,3.64601]],[[422.77886,428.29446],[-2.92206,-2.84715],[5.0706,4.9406]],[[444.99772,437.30726],[-6.61516,-1.66012],[16.07523,1.59152]],[[491.68372,434.52477],[-15.88366,1.73344],[10.70191,-1.16793]],[[525.50315,427.98456],[-9.58051,6.48674],[7.94842,-5.38169]],[[522.89906,399.8322],[3.08863,6.11593],[-4.39041,-10.24428]],[[507.77357,368.65467],[7.29437,8.7053],[-5.78413,-6.90294]],[[486.81464,351.72464],[7.3304,5.0751],[-6.53923,-4.52734]]],&quot;closed&quot;:true}]}" fill="#000000" stroke="none" stroke-width="0.5" stroke-linecap="butt"/><path d="M215.29173,183.44721c0.82879,-1.00167 2.23871,-0.64918 2.23871,-0.64918c3.27823,0.87884 4.7338,2.27221 7.50529,4.05002c2.59309,1.66337 5.12428,3.50063 7.77109,5.07168c0.78194,0.46413 1.7341,0.67168 2.40763,1.28259c1.79337,1.62665 3.21022,4.68021 4.27899,6.82747c1.60945,3.23355 2.29976,6.65712 2.6058,10.25292c0.10242,1.20337 0.66713,2.5186 0.16986,3.6192c-1.12234,2.48405 -5.92155,4.05593 -8.22211,4.7173c-5.55202,0.03738 -10.919,1.37384 -16.51291,1.04266c-0.76251,-0.04514 -5.66677,-0.68118 -6.17828,-1.02298c-2.88303,-1.92642 -2.84918,-5.72529 -3.39654,-8.65616c-1.55435,-8.32288 -3.25793,-21.24776 5.63919,-25.99032l1.31774,-0.46289c0,0 0.14662,-0.04887 0.37556,-0.08231z" fill="#ffffff" stroke="none" stroke-width="0.5" stroke-linecap="butt"/><path d="M244.95661,134.8693c0,19.95589 -10.29474,36.13333 -22.99394,36.13333c-12.69921,0 -22.99394,-16.17744 -22.99394,-36.13333c0,-19.95589 10.29474,-36.13334 22.99394,-36.13334c12.69921,0 22.99394,16.17745 22.99394,36.13334z" fill="#4a86e8" stroke="#000000" stroke-width="5" stroke-linecap="butt"/><path d="M213.30261,165.69671c-2.58837,0 -3.60035,-1.57639 -3.99601,-2.80903c-2.92809,-2.81694 -5.63683,-5.31952 -4.00256,-10.47516c0.46761,-1.47515 2.53128,-1.78641 3.72181,-2.77502c4.05665,-3.36864 6.91665,-5.10032 12.2194,-6.15675c0.73209,0.02803 1.44675,-0.12101 2.15663,-0.3244c0.06741,-0.08666 0.13688,-0.17204 0.20852,-0.25604c1.00154,-1.17435 2.91153,-1.02621 4.35601,-1.56991c1.45134,-0.54629 2.73026,-1.05399 3.98874,-1.47596c0.04084,-0.06222 0.08253,-0.12399 0.12511,-0.18528c0.80109,-1.15311 2.40481,-1.4958 3.73288,-1.9515c1.17959,-0.40475 2.40077,-0.59748 3.64526,-0.65566c0.01223,-0.07873 0.0272,-0.15841 0.04508,-0.23899c-1.20753,-1.03082 -2.43366,-2.03527 -2.87291,-3.49622c-0.77695,-2.5842 -2.55745,-5.90356 -0.91379,-8.04368c0.87874,-1.14415 2.38452,-1.25258 3.9887,-1.11228c-0.54175,-0.44813 -1.08107,-0.8858 -1.61982,-1.31597c-0.67288,-0.14054 -1.18376,-0.63037 -1.49049,-0.57634c0,0 -0.25,0 -0.25,-0.25c0,-0.25 0.25,-0.25 0.25,-0.25c0.05374,0.00483 0.10395,0.01175 0.15111,0.02046c-2.048,-1.59507 -4.10941,-3.11779 -6.28457,-4.73189c0,0 -3.4,-2.55 -0.85,-5.95c2.55,-3.4 5.95,-0.85 5.95,-0.85c1.47371,1.12054 3.21505,1.8505 4.71298,2.93845c1.59044,1.15512 2.43036,2.58141 3.88306,3.82057c2.05214,1.75048 4.90064,3.47335 6.39853,5.80128c1.11082,1.72638 3.11586,3.44337 2.82036,5.47487c-0.51918,3.56934 -2.61235,5.08078 -5.10468,5.59077c0.60806,0.84783 1.19428,1.70913 1.76962,2.57867c1.80818,-1.13729 3.73745,-2.06072 5.84208,-1.96663c1.20082,0.05369 2.41362,0.51847 3.53882,1.19825c0.34503,-1.03775 1.54408,-3.57876 4.88224,-2.91113c4.16747,0.83349 3.33397,5.00096 3.33397,5.00096c-0.35091,1.68541 -0.52858,3.41746 -0.51471,5.13896v2.98622c0,2.34721 -1.90279,4.25 -4.25,4.25c-0.89346,0 -1.72253,-0.2757 -2.40677,-0.74667c-1.67607,2.18226 -4.66156,2.76744 -7.32762,3.11497c-5.65969,0.73777 -11.88465,-1.2622 -17.49219,-1.78554c-0.27672,-0.02582 -0.58196,-0.05537 -0.90783,-0.08596c-2.33301,0.3917 -4.64943,0.76848 -6.86681,1.2124l-2.90017,0.58004c-0.29611,0.06531 -0.60381,0.09974 -0.91955,0.09974c-0.78397,0 -1.51835,-0.21227 -2.14882,-0.58246c-1.5417,0.30212 -2.69781,0.43187 -4.13043,1.23195c-1.16685,0.65166 -1.92807,1.88306 -2.94127,2.74952c0.51932,0.57221 0.95684,1.36946 1.47531,1.88794l1.2448,3.60245c0,0 0,4.25 -4.25,4.25z" fill="#4a86e8" stroke="none" stroke-width="0.5" stroke-linecap="butt"/><path d="M220.86041,252.32769l0.59725,-35.83471" fill="none" stroke="#787878" stroke-width="5" stroke-linecap="round"/><path d="M249.76548,220.31376l-0.59725,32.84849" fill="none" stroke="#787878" stroke-width="5" stroke-linecap="round"/><path d="M208.91551,190.21419l-1.19449,41.80717" fill="none" stroke="#787878" stroke-width="5" stroke-linecap="round"/><path d="M210.31638,133.97343c0,2.30895 -0.93589,4.18072 -2.09036,4.18072c-1.15447,0 -2.09036,-1.87177 -2.09036,-4.18072c0,-2.30895 0.93589,-4.18072 2.09036,-4.18072c1.15447,0 2.09036,1.87177 2.09036,4.18072z" fill="#000000" stroke="#000000" stroke-width="5" stroke-linecap="butt"/><path d="M263.69325,134.79271c0,2.30894 -0.93588,4.18072 -2.09035,4.18072c-1.15448,0 -2.09036,-1.87178 -2.09036,-4.18072c0,-2.30894 0.93588,-4.18072 2.09036,-4.18072c1.15447,0 2.09035,1.87177 2.09035,4.18072z" fill="#000000" stroke="#000000" stroke-width="5" stroke-linecap="butt"/><path d="M245.08598,76.28203c2.94463,-1.20144 6.12161,-2.19367 9.29301,-0.82476c2.21722,0.95704 3.69211,3.19352 5.85619,4.26532c1.22904,0.6087 6.32567,1.97087 7.47821,3.09194c3.06681,2.98307 1.5874,7.97641 2.93773,11.70195c3.83152,10.57117 7.20545,21.23744 10.75327,31.87725c3.60996,12.62574 7.15129,25.3823 3.86579,38.48408c-0.85632,3.41479 -1.96357,7.55828 -4.39927,10.25885c-1.61717,1.79303 -3.77436,3.01254 -5.67354,4.5036c-0.44774,0.35152 -5.73425,4.09579 -6.00836,4.19549c-3.37651,1.22809 -7.70173,0.15951 -11.19494,0.14094c-9.31127,-2.59156 -17.54232,-10.45291 -27.68054,-9.18357c-5.74615,0.71944 -10.56486,5.41434 -16.36864,6.49533c-7.90119,1.47164 -15.29188,-1.12609 -22.15461,-4.65124c-4.41642,-4.35047 -9.83938,-7.71908 -11.99752,-13.82654c-1.75695,-4.9721 -1.17516,-10.02908 -0.90673,-15.12736c0.2222,-4.22019 0.0905,-8.29367 1.24157,-12.43087c1.37237,-4.9326 4.15077,-9.6487 6.75056,-13.96917c3.07624,-5.11226 4.91842,-9.97541 9.25344,-14.35913c7.89733,-8.7745 16.71588,-15.39476 26.32457,-22.04692c5.86603,-4.06109 12.69317,-8.83568 20.18678,-8.86977c0.29877,-0.00136 1.31392,0.1228 2.44305,0.27458z" fill="#000000" stroke="none" stroke-width="0.5" stroke-linecap="butt"/><path d="M221.76493,140.9161c0,-1.38071 1.11929,-2.5 2.5,-2.5c1.38071,0 2.5,1.11929 2.5,2.5c0,1.38071 -1.11929,2.5 -2.5,2.5c-1.38071,0 -2.5,-1.11929 -2.5,-2.5z" fill="#000000" stroke="none" stroke-width="0.5" stroke-linecap="butt"/><path d="M199.60292,109.46203c-0.10103,-0.38287 -0.10592,-0.84349 0.05144,-1.39424c0.6868,-2.40381 3.09061,-1.71701 3.09061,-1.71701c5.48109,1.56602 11.15291,2.14747 16.52224,3.84628c3.88052,1.22777 7.57708,4.10278 10.73718,6.53347c2.36315,1.81769 5.35155,3.80453 7.27988,6.11599c3.1636,3.79218 5.41821,8.76848 7.61954,13.17386c1.93486,4.36016 3.20747,8.79036 4.7028,13.28661c2.08847,6.27976 5.23727,11.52579 3.49162,18.29128c-0.57274,2.21973 -0.08626,5.23391 -1.92554,6.60223c-3.1573,2.34883 -5.71091,0.07791 -8.1779,-1.21595c-3.39651,-1.78135 -6.49312,-2.62022 -10.18752,-3.61802c-2.3898,-0.64545 -3.34901,-1.16432 -5.54907,-0.00394c-6.25749,6.35686 -17.30911,11.28569 -26.29096,8.79279c-4.94332,-1.37201 -8.73291,-6.39108 -12.16308,-9.81887c-3.63308,-3.63056 -7.95818,-6.62452 -9.44551,-11.81327c-0.60419,-2.10781 -0.47102,-3.89704 -0.47573,-6.03526c0.02785,-16.34374 11.94045,-27.72374 20.32938,-40.44001z" fill="#ffffff" stroke="none" stroke-width="0.5" stroke-linecap="butt"/><path d="M229.30866,84.07955c-0.45967,1.12337 -1.75727,1.44777 -1.75727,1.44777c-3.85377,0.90862 -6.29914,3.30315 -9.59552,5.42293c-4.23515,2.72347 -7.91552,4.62985 -11.37151,8.38681c-2.02762,2.20419 -3.30006,4.99137 -5.50559,7.03827c-3.00706,2.79077 -6.3484,5.1752 -8.90295,8.49124c-1.15628,1.50096 -1.91948,3.26962 -2.96964,4.84665c-2.45977,3.68523 -5.22811,7.91474 -7.08563,11.91458c-2.16433,4.66051 -4.05866,13.09885 -2.55651,18.13571c0.24262,0.81352 0.89457,1.46428 1.14218,2.27629c0.81729,2.68021 0.82676,5.59454 1.85802,8.26236c1.61276,4.17211 3.81397,6.94697 6.91254,10.07633c3.81538,2.58979 7.96262,2.7687 12.33704,3.69995c3.41739,0.72752 6.69366,1.8763 10.19912,1.85941c2.21878,-0.01069 4.90536,0.47839 6.99104,-0.53487c8.41154,-4.08649 17.35501,-10.03783 26.93551,-5.38273c2.96372,1.11139 5.6507,2.33104 8.35541,3.99372c2.6768,1.64551 5.33013,4.23508 8.6043,4.62817c2.00704,0.24096 5.3382,0.6902 7.33108,0.08955c3.93487,-1.18598 5.55264,-5.67388 7.38927,-8.82328c0.8886,-1.52373 2.21717,-2.78737 2.95616,-4.38902c1.35376,-2.93409 1.69146,-6.49748 1.68349,-9.67117c0,-7.46654 -0.85815,-15.51688 -2.97156,-22.68545c-1.13563,-3.852 -2.78974,-7.57197 -3.8351,-11.50952c-0.81147,-3.05654 -0.77886,-6.21593 -1.54399,-9.23762c-1.41321,-5.58113 -2.64144,-11.37796 -4.22924,-16.92316c-0.47526,-3.32677 -1.02981,-7.73952 -3.02895,-10.54586c-6.1701,-8.6614 -18.81206,-12.13259 -28.7012,-7.61591c-3.19552,1.4595 -5.56793,4.75192 -8.4687,6.70276zM223.75032,81.55491c0.3882,-1.36005 1.93869,-1.67015 1.93869,-1.67015l1.01791,-0.01155c3.20282,-2.1129 5.606,-5.43598 9.14355,-7.08074c11.74665,-5.46154 27.63133,-1.43633 34.85608,9.2306c2.39008,3.52881 3.27007,8.27756 3.8628,12.42664c1.56531,5.49035 2.82772,11.24043 4.19401,16.76984c0.74493,3.01476 0.70703,6.11001 1.519,9.14039c1.05059,3.9209 2.69416,7.61876 3.8224,11.46298c2.23242,7.60644 3.15443,16.11316 3.15443,24.02532c-0.00858,3.89732 -0.48372,8.17072 -2.14526,11.76984c-0.30732,0.6657 -2.70047,3.99559 -3.16985,4.79998c-2.54737,4.36551 -4.90215,9.43077 -10.22298,11.08622c-2.66014,0.82764 -6.78823,0.48122 -9.51543,0.08955c-6.55581,-0.94153 -12.07597,-6.66956 -18.2648,-8.99037c-5.42312,-2.80885 -12.63068,-0.33238 -17.79582,2.24354c-2.97484,1.48359 -4.99413,3.53321 -8.42514,4.0667c-5.77238,0.89755 -11.40571,-0.74903 -16.9489,-1.94518c-5.30888,-1.14559 -9.80788,-1.65414 -14.46421,-4.7233c-3.72741,-3.69682 -6.49875,-7.15946 -8.40247,-12.13042c-1.06436,-2.77924 -1.10965,-5.81303 -1.97072,-8.58414c-0.25618,-0.82446 -0.92562,-1.48592 -1.15507,-2.31821c-1.75592,-6.36943 0.075,-15.74245 2.80373,-21.68329c1.94446,-4.23337 4.87732,-8.7056 7.46362,-12.58943c3.75709,-5.62888 7.64003,-9.72111 12.63142,-14.22912c2.07408,-1.87323 3.32388,-4.67582 5.21491,-6.74523c3.7449,-4.09815 7.78771,-6.28277 12.36674,-9.22544c3.03161,-1.94824 5.40554,-3.88419 8.49134,-5.18502z" fill="#787878" stroke="none" stroke-width="0.5" stroke-linecap="butt"/><path d="M253.49109,94.31658c-0.59519,-0.00296 -1.18836,0.02315 -1.77753,0.10782c-5.42357,0.77936 -10.53562,3.79657 -15.34498,6.20143c-7.73181,3.8662 -15.05434,7.68837 -20.67434,14.39574c-3.07059,3.6647 -4.47032,8.2159 -6.38406,12.49478c-0.52332,2.1213 -1.38271,4.17125 -1.67927,6.33592c-1.0632,7.76048 2.02765,16.71854 6.39346,23.0082c1.83671,2.64608 4.02799,5.8088 6.80664,7.5551c5.80715,3.64963 13.57294,3.40488 20.03875,3.94541c2.64248,0.22091 5.27181,0.71255 7.9235,0.70822c5.34581,-0.41989 9.99169,-2.4386 14.92755,-4.471c5.44461,-2.24188 11.52147,-4.19301 15.47353,-8.9196c2.69986,-3.22899 4.1007,-8.19011 4.90908,-12.2395c1.62998,-8.16493 1.7735,-16.69939 1.11446,-24.97227c-3.93741,-7.5948 -8.5936,-14.59032 -15.83596,-19.41165c-1.28614,-0.8562 -2.38262,-2.06353 -3.82438,-2.61901c-2.52859,-0.97423 -6.47962,-0.92459 -9.16752,-0.91783l-1.80883,-0.4768c0,0 -0.61647,-0.20549 -1.09009,-0.72495zM259.14557,90.88667c2.75213,0.07393 5.81368,0.32346 8.07651,1.19279c0.31214,0.11992 4.25799,2.76879 4.74688,3.09516c8.15837,5.44633 13.50893,13.3234 17.7348,22.01609c0.89418,8.98928 0.75534,18.28101 -1.02835,27.16954c-0.95486,4.75827 -2.64017,10.38138 -5.80499,14.18855c-4.50212,5.4159 -11.13455,7.79283 -17.38295,10.36572c-5.48915,2.26026 -10.55784,4.29576 -16.50039,4.81453c-2.84506,-0.004 -5.66958,-0.48326 -8.50475,-0.72031c-7.25176,-0.60632 -15.63404,-0.52421 -22.10326,-4.62584c-3.33903,-2.11702 -5.98,-5.66916 -8.19306,-8.87314c-5.02078,-7.2689 -8.38969,-17.35269 -7.1777,-26.27652c0.33549,-2.47017 1.28081,-4.8185 1.89208,-7.23524c2.12429,-4.80766 3.76804,-9.8112 7.18709,-13.93326c6.01429,-7.25091 13.8703,-11.44814 22.18195,-15.60366c5.28659,-2.6431 10.83733,-5.80794 16.79724,-6.65546c1.9925,-0.28334 4.02506,-0.02254 6.03761,-0.02254c0,0 1.41616,0 2.04129,1.1036z" fill="#000000" stroke="none" stroke-width="0.5" stroke-linecap="butt"/><path d="M254.59122,94.99599l1.81109,0.47736c2.6879,-0.00675 6.64882,-0.05244 9.1774,0.92179c1.44176,0.55549 2.54284,1.76565 3.82898,2.62185c7.24235,4.82133 11.91591,11.83996 15.85332,19.43476c0.65904,8.27288 0.5159,16.83633 -1.11408,25.00126c-0.80838,4.04939 -2.21612,9.02418 -4.91599,12.25317c-3.95206,4.7266 -10.04491,6.69146 -15.48952,8.93334c-4.93586,2.0324 -9.60051,4.05634 -14.94632,4.47623c-2.65169,0.00432 -5.29095,-0.48777 -7.93343,-0.70868c-6.4658,-0.54054 -14.2533,-0.30519 -20.06046,-3.95482c-2.77865,-1.74631 -4.978,-4.91714 -6.81471,-7.56323c-4.36581,-6.28966 -7.46636,-15.2737 -6.40316,-23.03418c0.29656,-2.16467 1.15617,-4.22242 1.6795,-6.34372c1.91375,-4.27889 3.3188,-8.84707 6.3894,-12.51177c5.62,-6.70736 12.96908,-10.55168 20.70089,-14.41788c4.80936,-2.40486 9.94232,-5.42392 15.36589,-6.20328c0.58917,-0.08467 1.18445,-0.11042 1.77964,-0.10747c0.47362,0.51946 1.09157,0.72526 1.09157,0.72526z" data-paper-data="{&quot;noHover&quot;:false,&quot;origItem&quot;:[&quot;Path&quot;,{&quot;applyMatrix&quot;:true,&quot;segments&quot;:[[[743.59898,400.74597],[0.94724,1.03893],[-1.19038,-0.00591]],[[740.04392,400.9616],[1.17834,-0.16933],[-10.84714,1.55873]],[[709.35397,413.36445],[9.61871,-4.80972],[-15.46362,7.7324]],[[668.0053,442.15593],[11.24,-13.41473],[-6.14119,7.3294]],[[655.23717,467.14549],[3.82749,-8.55777],[-1.04664,4.2426]],[[651.87862,479.81734],[0.59313,-4.32935],[-2.12639,15.52097]],[[664.66554,525.83373],[-8.73162,-12.57931],[3.67343,5.29217]],[[678.27882,540.94393],[-5.55731,-3.49261],[11.61431,7.29926]],[[718.35631,548.83476],[-12.93161,-1.08107],[5.28496,0.44182]],[[734.20331,550.25121],[-5.30338,0.00864],[10.69162,-0.83979]],[[764.05841,541.30921],[-9.87171,4.06479],[10.88922,-4.48376]],[[795.00547,523.47],[-7.90412,9.45319],[5.39973,-6.45798]],[[804.82363,498.99101],[-1.61677,8.09877],[3.25996,-16.32985]],[[807.05255,449.04647],[1.31807,16.54576],[-7.87482,-15.1896]],[[775.38064,410.22318],[14.48471,9.64266],[-2.57228,-1.7124]],[[767.73188,404.98515],[2.88352,1.11097],[-5.05717,-1.94845]],[[749.39683,403.14949],[5.3758,-0.01351],[0,0]],[745.77917,402.19588]],&quot;closed&quot;:true}]}" fill="#dfdfdf" stroke="none" stroke-width="0.5" stroke-linecap="butt"/><path d="M236.45474,113.53738c1.00914,0.86714 1.86406,1.7396 2.5694,2.65623c1.078,0.30268 2.02521,0.60934 2.31251,0.82305c1.69962,1.26433 2.65491,4.24142 3.40938,6.05741c0.02674,1.93086 0.22611,4.79524 -0.45587,6.63904c-1.73085,4.67953 -8.85131,8.45401 -13.55497,9.33837c-2.54085,0.47771 -7.89627,-0.46554 -9.66585,-2.53887c-2.58776,-3.03197 -1.00916,-8.31681 0.33536,-11.42154c0.4018,-0.92783 2.92693,-5.01198 3.41982,-5.72394c2.12156,-3.06454 4.03257,-4.81909 7.30882,-6.48118c0,0 1.30079,-0.6504 2.36149,0.10334c1.05756,-0.20387 1.95992,0.5481 1.95992,0.5481z" fill="#000000" stroke="none" stroke-width="0.5" stroke-linecap="butt"/><path d="M266.56879,115.06928c2.96254,-0.10541 5.95212,0.65587 7.51885,3.31919c1.38754,2.35871 1.15409,5.20653 -0.00248,7.74387c0.04966,1.55515 -0.55099,3.26167 -1.97408,4.97317c-0.77539,0.93254 -1.88486,1.57525 -2.9922,2.06986c-1.15389,0.5154 -2.41919,0.82932 -3.68034,0.91052c-3.60571,0.23215 -5.74607,-1.13725 -6.90248,-3.26635c-3.18263,-2.89585 -2.28455,-7.40397 -1.1844,-11.45115c0.57551,-2.11719 1.13151,-4.84438 3.29505,-6.09558c1.04192,-0.60256 2.4002,-0.18395 3.60029,-0.27593c0,0 2.15553,0 2.32179,2.0724zM269.02751,125.24437c0.02643,0.09193 0.04649,0.18398 0.05914,0.27617c0.08141,-0.13347 0.15722,-0.27115 0.22701,-0.41287c-0.06223,-0.0545 -0.13302,-0.10636 -0.21137,-0.15569c-0.01705,0.09531 -0.04164,0.19284 -0.07477,0.29239zM269.9436,120.59841c-0.46506,-0.50346 -1.28434,-0.60367 -2.07216,-0.70325c0.74284,0.17189 1.43696,0.40919 2.07216,0.70325z" fill="#000000" stroke="none" stroke-width="0.5" stroke-linecap="butt"/><path d="M253.6063,147.00638c2.69935,-0.0685 5.27596,0.70899 6.06739,2.94146c0.49743,1.40317 -0.6418,2.9578 -1.39191,4.24374c-2.57062,4.40691 -9.87727,6.29696 -14.06499,2.95545c-3.14248,-2.50748 -2.63763,-8.26694 0.47299,-10.51074c1.8855,-1.36008 4.5558,-1.12659 6.70034,-1.14004c0,0 1.74549,0 2.21618,1.51014z" fill="#000000" stroke="none" stroke-width="0.5" stroke-linecap="butt"/></g></g></svg>