<svg version="1.1" xmlns="http://www.w3.org/2000/svg" xmlns:xlink="http://www.w3.org/1999/xlink" width="139.40899" height="222.58437" viewBox="0,0,139.40899,222.58437"><g transform="translate(-192.2901,-32.31212)"><g data-paper-data="{&quot;isPaintingLayer&quot;:true}" fill-rule="nonzero" stroke-linejoin="miter" stroke-miterlimit="10" stroke-dasharray="" stroke-dashoffset="0" style="mix-blend-mode: normal"><path d="M261.71038,230.89567v-35.23747" fill="none" stroke="#000000" stroke-width="5" stroke-linecap="round"/><path d="M264.09936,192.97059c0,14.6783 -11.76542,26.57741 -26.27879,26.57741c-14.51337,0 -26.27879,-11.89911 -26.27879,-26.57741c0,-14.6783 11.76541,-26.57741 26.27879,-26.57741c14.51337,0 26.27879,11.89911 26.27879,26.57742z" fill="#4a86e8" stroke="#000000" stroke-width="5" stroke-linecap="butt"/><path d="M274.47458,136.45433c0,19.95589 -10.29474,36.13334 -22.99394,36.13334c-12.69921,0 -22.99394,-16.17745 -22.99394,-36.13334c0,-19.95589 10.29474,-36.13334 22.99394,-36.13334c12.69921,0 22.99394,16.17745 22.99394,36.13334z" fill="#4a86e8" stroke="#000000" stroke-width="5" stroke-linecap="butt"/><path d="M249.16824,135.63505c0,19.95589 -10.29474,36.13333 -22.99394,36.13333c-12.69921,0 -22.99394,-16.17744 -22.99394,-36.13333c0,-19.95589 10.29474,-36.13334 22.99394,-36.13334c12.69921,0 22.99394,16.17745 22.99394,36.13334z" fill="#4a86e8" stroke="#000000" stroke-width="5" stroke-linecap="butt"/><path d="M329.1991,160.71935c0,10.39025 -26.87328,18.81322 -60.02315,18.81322c-33.14987,0 -60.02314,-8.42297 -60.02314,-18.81322c0,-10.39025 26.87327,-18.81322 60.02314,-18.81322c33.14987,0 60.02315,8.42297 60.02315,18.81322z" fill="#4a86e8" stroke="#000000" stroke-width="5" stroke-linecap="butt"/><path d="M217.51424,166.46246c-2.58837,0 -3.60035,-1.57639 -3.99601,-2.80903c-2.92809,-2.81694 -5.63683,-5.31952 -4.00256,-10.47516c0.46761,-1.47515 2.53128,-1.78641 3.72181,-2.77502c4.05665,-3.36864 6.91665,-5.10032 12.2194,-6.15675c0.73209,0.02803 1.44675,-0.12101 2.15663,-0.3244c0.06741,-0.08666 0.13688,-0.17204 0.20852,-0.25604c1.00154,-1.17435 2.91153,-1.02621 4.35601,-1.56991c1.45134,-0.54629 2.73026,-1.05399 3.98874,-1.47596c0.04084,-0.06222 0.08253,-0.12399 0.12511,-0.18528c0.80109,-1.15311 2.40481,-1.4958 3.73288,-1.9515c1.17959,-0.40475 2.40077,-0.59748 3.64526,-0.65566c0.01223,-0.07873 0.0272,-0.15841 0.04508,-0.23899c-1.20753,-1.03082 -2.43366,-2.03527 -2.87291,-3.49622c-0.77695,-2.5842 -2.55745,-5.90356 -0.91379,-8.04368c0.87874,-1.14415 2.38452,-1.25258 3.9887,-1.11228c-0.54175,-0.44813 -1.08107,-0.8858 -1.61982,-1.31597c-0.67288,-0.14054 -1.18376,-0.63037 -1.49049,-0.57634c0,0 -0.25,0 -0.25,-0.25c0,-0.25 0.25,-0.25 0.25,-0.25c0.05374,0.00483 0.10395,0.01175 0.15111,0.02046c-2.048,-1.59507 -4.10941,-3.11779 -6.28457,-4.73189c0,0 -3.4,-2.55 -0.85,-5.95c2.55,-3.4 5.95,-0.85 5.95,-0.85c1.47371,1.12054 3.21505,1.8505 4.71298,2.93845c1.59044,1.15512 2.43036,2.58141 3.88306,3.82057c2.05214,1.75048 4.90064,3.47335 6.39853,5.80128c1.11082,1.72638 3.11586,3.44337 2.82036,5.47487c-0.51918,3.56934 -2.61235,5.08078 -5.10468,5.59077c0.60806,0.84783 1.19428,1.70913 1.76962,2.57867c1.80818,-1.13729 3.73745,-2.06072 5.84208,-1.96663c1.20082,0.05369 2.41362,0.51847 3.53882,1.19825c0.34503,-1.03775 1.54408,-3.57876 4.88224,-2.91113c4.16747,0.83349 3.33397,5.00096 3.33397,5.00096c-0.35091,1.68541 -0.52858,3.41746 -0.51471,5.13896v2.98622c0,2.34721 -1.90279,4.25 -4.25,4.25c-0.89346,0 -1.72253,-0.2757 -2.40677,-0.74667c-1.67607,2.18226 -4.66156,2.76744 -7.32762,3.11497c-5.65969,0.73777 -11.88465,-1.2622 -17.49219,-1.78554c-0.27672,-0.02582 -0.58196,-0.05537 -0.90783,-0.08596c-2.33301,0.3917 -4.64943,0.76848 -6.86681,1.2124l-2.90017,0.58004c-0.29611,0.06531 -0.60381,0.09974 -0.91955,0.09974c-0.78397,0 -1.51835,-0.21227 -2.14882,-0.58246c-1.5417,0.30212 -2.69781,0.43187 -4.13043,1.23195c-1.16685,0.65166 -1.92807,1.88306 -2.94127,2.74952c0.51932,0.57221 0.95684,1.36946 1.47531,1.88794l1.2448,3.60245c0,0 0,4.25 -4.25,4.25z" fill="#4a86e8" stroke="none" stroke-width="0.5" stroke-linecap="butt"/><path d="M219.90322,250.60475l0.59725,-35.83471" fill="none" stroke="#000000" stroke-width="5" stroke-linecap="round"/><path d="M249.76548,219.54801l-0.59725,32.84849" fill="none" stroke="#000000" stroke-width="5" stroke-linecap="round"/><path d="M207.95832,188.49125l-1.19449,41.80717" fill="none" stroke="#000000" stroke-width="5" stroke-linecap="round"/><path d="M214.52801,134.73917c0,2.30895 -0.93589,4.18072 -2.09036,4.18072c-1.15447,0 -2.09036,-1.87177 -2.09036,-4.18072c0,-2.30895 0.93589,-4.18072 2.09036,-4.18072c1.15447,0 2.09036,1.87177 2.09036,4.18072z" fill="#000000" stroke="#000000" stroke-width="5" stroke-linecap="butt"/><path d="M267.90488,135.55846c0,2.30894 -0.93588,4.18072 -2.09035,4.18072c-1.15448,0 -2.09036,-1.87178 -2.09036,-4.18072c0,-2.30894 0.93588,-4.18072 2.09036,-4.18072c1.15447,0 2.09035,1.87177 2.09035,4.18072z" fill="#000000" stroke="#000000" stroke-width="5" stroke-linecap="butt"/><path d="M328.00461,162.21246l-99.14271,-0.59725" fill="none" stroke="#000000" stroke-width="5" stroke-linecap="round"/><g stroke="none" stroke-width="0.5" stroke-linecap="butt"><path d="M208.22692,87.40456l-0.07527,-0.91093c-1.4304,-5.71945 -3.60103,-11.08744 -5.54172,-16.64171c-0.0408,-0.11676 0.0172,-0.255 -0.02385,-0.3838c3.92724,0.99347 8.11337,-0.13166 12.00743,-0.57882c2.95756,-0.33962 5.60554,0.17885 7.89638,-2.34892c0.3954,-0.43629 2.0015,-5.41792 2.30751,-6.33765c1.36227,-4.0945 2.17281,-8.19789 3.1181,-12.38151c0.50473,-2.2338 1.78005,-4.53209 2.47681,-6.8001c2.86853,7.31045 6.20614,15.63325 11.61217,21.05329c0.86208,0.86431 5.48649,4.804 6.21233,5.10908c1.51989,0.63883 3.16127,1.02885 4.78719,0.75579c1.13788,-0.1911 4.42695,-2.84888 5.72299,-3.68718c2.83212,-1.83185 5.81033,-3.49339 8.43863,-5.6339c0.64041,-0.52155 1.43402,-1.05311 2.04911,-1.59262c-0.05192,6.41863 -0.1433,13.02837 0.96914,19.28143c0.23156,1.30161 0.60677,2.5778 0.95646,3.85276c0.25274,0.92149 0.44879,1.87205 0.84718,2.74056c0.15888,0.34637 1.16326,0.89198 0.78744,0.82894c-0.59636,-0.10004 -0.95142,-0.82633 -1.54222,-0.95524c-0.92724,-0.20231 -1.89907,-0.00006 -2.84813,-0.00091c-20.12905,0.00003 -40.05522,4.32009 -60.16933,4.81867c0.01176,-0.11688 0.01165,-0.18723 0.01165,-0.18723z" data-paper-data="{&quot;noHover&quot;:false,&quot;origItem&quot;:[&quot;Path&quot;,{&quot;applyMatrix&quot;:true,&quot;segments&quot;:[[[408.58352,177.77263],[0.02353,-0.23376],[40.22823,-0.99717]],[[528.75801,168.14576],[-40.25811,0.00007],[1.89811,0.00171]],[[534.45235,168.15089],[-1.85448,-0.40462],[1.18159,0.25781]],[[537.5369,170.06117],[-1.19273,-0.20007],[0.75163,0.12608]],[[535.96159,168.40406],[0.31776,0.69273],[-0.79678,-1.73702]],[[534.26478,162.92777],[0.50548,1.84298],[-0.69937,-2.54992]],[[532.34843,155.23045],[0.46312,2.60322],[-2.22489,-12.50611]],[[530.40652,116.72472],[-0.10383,12.83725],[-1.23018,1.07904]],[[526.50393,119.86848],[1.28082,-1.04311],[-5.25659,4.28102]],[[509.62849,131.15495],[5.66424,-3.66369],[-2.59209,1.67659]],[[498.17981,138.55262],[2.27576,-0.3822],[-3.25183,0.54612]],[[488.41163,136.99176],[3.03978,1.27766],[-1.45169,-0.61016]],[[475.99464,126.84583],[1.72416,1.72862],[-10.81206,-10.84008]],[[452.88896,84.78874],[5.73706,14.6209],[-1.39352,4.53601]],[[447.95643,98.37954],[1.00946,-4.4676],[-1.89059,8.36725]],[[441.76456,123.08693],[2.72454,-8.189],[-0.61201,1.83948]],[[437.15324,135.71732],[0.79079,-0.87258],[-4.58168,5.05555]],[[421.16344,140.4491],[5.91513,-0.67924],[-7.78813,0.89432]],[[397.14772,141.60183],[7.85449,1.98694],[0.08212,0.25759]],[[397.39315,142.33929],[-0.08159,-0.23352],[3.88137,11.10853]],[[408.45776,175.57825],[-2.86079,-11.43891],[0,0]],[408.60705,177.39846]],&quot;closed&quot;:true}]}" fill="#ce9500"/><path d="M256.75247,66.88941l-1.23456,1.55888c-0.73879,0.52376 -1.44515,1.08804 -2.11897,1.68829l-0.19083,1.71744l-0.09412,-0.01046c0.01136,0.12868 0.01899,0.25793 0.02251,0.38781c0.05413,1.99729 -1.16293,3.57277 -2.51432,5.0643c-0.77543,1.25654 -1.71546,2.39829 -2.85547,3.475c-0.16075,0.28696 -0.29637,0.57989 -0.39983,0.88091l-0.52857,2.37856c7.14829,-0.73136 14.30766,-1.28277 21.50343,-1.28278c0.94905,0.00086 1.91993,-0.19974 2.84717,0.00257c0.59079,0.12891 0.94591,0.8551 1.54227,0.95514c0.37581,0.06304 -0.62877,-0.48219 -0.78765,-0.82856c-0.39839,-0.86851 -0.59566,-1.81665 -0.8484,-2.73814c-0.34969,-1.27496 -0.72662,-2.54705 -0.95817,-3.84866c-1.11244,-6.25306 -1.02287,-12.83424 -0.97096,-19.25286c-0.61509,0.53952 -1.31089,1.05032 -1.9513,1.57188c-2.62829,2.14051 -5.6056,3.81139 -8.43772,5.64324c-0.38448,0.24868 -0.94446,0.65851 -1.57169,1.11698c0.00011,0.84109 -0.45282,1.52048 -0.45282,1.52048zM236.99941,83.14869l0.26818,0.0298c-0.00859,-0.36207 0.02062,-0.72368 0.10029,-1.0847c0.03734,-0.1692 0.40892,-0.48097 0.94479,-0.85667c1.42507,-3.01085 3.47808,-5.42036 5.04399,-8.41137c1.22007,-2.33042 2.28346,-4.39413 3.63452,-6.47238c-1.64867,-1.27112 -4.38747,-3.61065 -5.03112,-4.25597c-1.85558,-1.86039 -3.46049,-4.05985 -4.88417,-6.44208c-1.25492,4.46249 -3.66888,7.91976 -5.66194,12.13585c-2.19533,4.64396 -4.0948,9.41339 -6.4008,14.01776c-1.07057,2.13761 -1.43196,3.0738 -2.79742,4.89031c4.85981,-0.44464 9.71129,-1.00302 14.56239,-1.55882zM207.82273,83.121c0,-0.85068 0.42489,-1.60213 1.07402,-2.0537l2.09291,-1.49493c0.00352,-0.00256 0.00705,-0.00513 0.01057,-0.00769c1.58456,-2.45368 3.30831,-4.8186 4.73613,-7.38703c0.63181,-1.13653 1.18614,-2.30138 1.69686,-3.48201c-0.93318,0.07028 -1.89915,0.08975 -2.88876,0.20338c-3.89407,0.44716 -8.08061,1.56984 -12.00786,0.57637c0.04106,0.12879 0.08192,0.25197 0.12271,0.36873c1.80931,5.17826 3.81031,10.17531 5.23206,15.4629c0.0823,-0.34419 0.19529,-0.57017 0.19529,-0.57017l0.13231,-0.26464c-0.25077,-0.38962 -0.39625,-0.85343 -0.39625,-1.35121zM232.87207,47.17232c-0.08855,0.23871 -0.1801,0.47686 -0.27441,0.71449l0.55831,-0.05304c-0.09541,-0.22037 -0.19003,-0.44088 -0.2839,-0.66145zM208.2545,87.56079c0.06238,-0.00154 0.12475,-0.00313 0.18712,-0.00475c-0.06476,-0.06454 -0.12347,-0.1305 -0.1766,-0.19753l0.00125,0.0152c0,0 0,0.07021 -0.01176,0.18708zM203.71643,64.61689c3.27254,0.81965 7.05899,-0.34302 10.28244,-0.68801c1.59435,-0.17063 3.84148,0.64029 4.76322,-0.67175c0.92178,-1.31211 0.83154,-3.09939 1.33951,-4.62033c1.63602,-4.89845 2.39489,-9.94895 3.93724,-14.84844c0.90998,-2.89067 2.53223,-11.00659 6.37697,-11.46551c1.72503,-0.20591 2.30069,2.60372 3.45103,3.90558c2.91714,7.28196 5.98775,16.70992 11.64674,22.35151c1.22045,1.21671 4.44806,5.04715 6.52576,4.4746c1.60269,-0.44165 2.60055,-2.08062 3.99612,-2.98399c4.21487,-2.7283 7.95969,-6.00446 11.99774,-8.8496l-0.24417,-0.24416l2.12635,-2.12635c0.45241,-0.45241 1.07741,-0.73224 1.76777,-0.73224c1.38071,0 2.5,1.11929 2.5,2.5v3.03764c0,8.34069 -0.46229,17.06278 1.7332,25.15745c0.61037,2.25042 2.45777,6.44054 0.18653,8.58388c-0.425,0.40107 -6.26486,0.34871 -7.76114,0.35018c-21.36098,-0.00003 -42.40227,4.86023 -63.79054,4.86023c0,0 -2.5,0 -2.5,-2.5c0,-1.27047 0.64563,-1.8953 1.2807,-2.2026c-0.05871,-0.27764 -0.06491,-0.48364 -0.06557,-0.52405c-1.39157,-5.4565 -3.4647,-10.57563 -5.32865,-15.89174c-0.52739,-1.50414 -1.10725,-3.49698 -1.75337,-4.98724c-0.31366,-0.72344 -1.06872,-1.33045 -1.05993,-2.1166l-0.61103,-0.84018c-0.02379,-0.02397 -0.04756,-0.04788 -0.07134,-0.07175l-0.00658,-0.03538l-0.1021,-0.14039l-0.0181,0.01293l-1.50191,-2.10268c-0.3034,-0.41378 -0.48258,-0.92435 -0.48258,-1.47677c0,-1.38071 1.11929,-2.5 2.5,-2.5c0.84247,0 1.58761,0.41672 2.04054,1.05528l1.52019,2.09026c1.45931,1.48226 3.21896,3.71274 5.32496,4.24021z" fill="#e5c500"/><path d="M205.36548,94.16624c-2.23607,1.11803 -3.3541,-1.11803 -3.3541,-1.11803l-1.10058,-2.33428c-0.81119,-3.26853 -1.82427,-6.54648 -3.20058,-9.61522c-2.50699,-5.64408 -5.23875,-10.31957 -5.37636,-16.68657c-0.06417,-2.96903 -0.55074,-7.45428 4.22354,-8.09045c1.54818,-0.2063 2.66457,1.66062 3.82608,2.70481c1.74847,1.57185 2.32133,3.35336 4.8758,4.07853c5.35372,1.51983 9.81513,-0.57939 14.78512,-1.85031c0,0 0.67912,-0.16978 1.40847,0.0297c0.80597,-2.3227 1.45904,-4.57967 2.28792,-6.76404c-0.22723,-0.75254 -0.04765,-1.47087 -0.04765,-1.47087l0.49305,-1.72675c1.93463,-3.81089 2.63689,-8.18463 4.14795,-12.21412c0,0 0.87781,-2.34082 3.21863,-1.46301c2.34082,0.87781 1.46301,3.21863 1.46301,3.21863c-0.91486,2.43963 -1.56394,4.95654 -2.33328,7.4243c1.46133,1.41524 0.2042,3.17522 0.2042,3.17522c-2.59427,3.60775 -3.37385,7.6774 -4.84166,11.83558c-2.46838,6.99272 -4.39645,14.28309 -7.71471,20.93969l-1.21506,2.43012c0,0 -1.11803,2.23607 -3.3541,1.11803c-2.23607,-1.11803 -1.11803,-3.3541 -1.11803,-3.3541l1.21506,-2.43012c2.44806,-4.8799 4.09672,-10.14464 5.79079,-15.35696c-1.04646,0.42714 -2.06593,0.94171 -3.15043,1.25429c-3.63889,1.04882 -9.0322,1.09042 -12.6554,0c-1.51895,-0.45714 -4.46815,-2.24055 -5.61618,-3.36375c-0.26595,-0.2602 -0.60563,-0.60678 -0.91634,-0.98129c-0.00031,0.2314 0.00292,0.44169 0.01701,0.60781c0.08211,0.96803 0.19448,1.93326 0.29306,2.89976c0.4476,4.38833 2.88577,8.01864 4.65857,12.00519c1.47839,3.35274 2.58719,6.87617 3.48224,10.43324l0.72201,1.31089c0,0 1.11803,2.23607 -1.11803,3.3541z" fill="#ffed76"/><path d="M239.60485,51.58791c2.37171,-0.79057 3.16228,1.58114 3.16228,1.58114l0.27288,0.82405c0.40098,1.0868 0.98208,3.06641 1.85706,3.97027c2.04259,2.11001 5.58771,1.58966 7.95998,0.652c5.75192,-2.2735 11.0289,-6.4207 14.69976,-11.31975c0,0 1.5,-2 3.5,-0.5c2,1.5 0.5,3.5 0.5,3.5c-0.97142,1.29408 -2.74241,3.77273 -3.9359,4.88085c-1.50332,1.39579 -3.51092,2.55308 -5.24451,3.63702c-2.47835,1.54961 -5.34062,3.358 -8.30724,4.51622c0.14572,0.69496 -0.02254,1.31193 -0.02254,1.31193c-2.16457,7.93546 -5.618,14.98973 -9.28878,22.33128l-1.83434,2.30501c0,0 -1.60046,1.92055 -3.52101,0.32009c-1.92055,-1.60046 -0.32009,-3.52101 -0.32009,-3.52101l1.20331,-1.34016c3.33954,-6.67909 6.51253,-13.09305 8.60211,-20.22643c-2.6141,0.09293 -5.18488,-0.70924 -7.52628,-3.01152c-1.64285,-1.61539 -2.22521,-3.70296 -3.00317,-5.75019l-0.33465,-0.99853c0,0 -0.79057,-2.37171 1.58114,-3.16228z" fill="#ffed76"/></g></g></g></svg>