<svg version="1.1" xmlns="http://www.w3.org/2000/svg" xmlns:xlink="http://www.w3.org/1999/xlink" width="120.76447" height="171.52779" viewBox="0,0,120.76447,171.52779"><g transform="translate(-184.37847,-83.36871)"><g data-paper-data="{&quot;isPaintingLayer&quot;:true}" fill-rule="nonzero" stroke-linejoin="miter" stroke-miterlimit="10" stroke-dasharray="" stroke-dashoffset="0" style="mix-blend-mode: normal"><path d="M249.16823,252.39651l0.59725,-32.84849" fill="none" stroke="#000000" stroke-width="5" stroke-linecap="round"/><path d="M219.48859,251.43401l0.59725,-35.83471" fill="none" stroke="#000000" stroke-width="5" stroke-linecap="round"/><path d="M262.95426,196.48746v35.23747" fill="none" stroke="#000000" stroke-width="5" stroke-linecap="round"/><path d="M260.25847,214.04189l0.48735,0.60878c-0.48126,-3.03855 -1.95768,-7.68488 -4.71343,-9.54228c-3.56465,-2.40262 -10.32604,-0.53259 -14.08643,-0.03491c-2.2418,0.2967 -4.43374,0.89258 -6.65119,1.33601c-4.38549,0.87696 -9.36916,0.67972 -10.14184,6.40668c-0.34738,2.57471 0.21635,3.65565 0.8649,6.18507c0,0 0.02227,0.08907 0.04238,0.23873c7.89735,0.3214 15.74172,-1.8555 23.55341,-2.31482c3.39071,-0.19937 6.88427,-0.04047 10.26191,-0.47644c-0.40251,-1.22867 0.38293,-2.40683 0.38293,-2.40683zM219.72821,211.93585c1.54943,-10.49016 13.14306,-11.18894 21.48829,-12.30943c5.34445,-0.71758 12.86242,-2.40502 17.81467,0.87655c4.11423,2.72626 6.34642,8.68829 7.13555,13.24421l-0.50323,1.25969c0.84026,-0.30608 1.66107,-0.67946 1.95355,-1.06085c2.09692,-2.73441 -1.82853,-7.79395 -2.66604,-10.2714c-2.59189,-7.77568 -4.19538,-16.5734 -8.80744,-23.5186c-5.5575,-8.36891 -16.98224,-11.21936 -26.15371,-13.8308c-0.41372,0.43792 -0.85164,0.65689 -0.85164,0.65689c-1.68824,0.79544 -2.9825,2.26397 -4.29889,3.58684c-7.74943,7.78767 -11.10759,17.62144 -13.38037,28.23897c-0.67939,3.17386 -1.1149,6.48906 -1.83886,9.64211c-0.32592,1.4195 -1.68857,2.72096 -1.3824,4.14485c0.29942,1.39245 2.33189,1.64604 3.57877,2.33441c2.21798,0.95694 4.63569,1.36422 6.92714,2.12871c0.40845,0.13627 0.81358,0.2911 1.21736,0.45381c-0.416,-1.70704 -0.59793,-3.10357 -0.23275,-5.57595zM223.08559,164.31282c-0.12673,-0.31763 -0.20274,-0.69864 -0.20274,-1.15565c0,-2.74784 2.74784,-2.74784 2.74784,-2.74784l3.57124,0.02656c11.056,3.09028 24.6694,6.43656 31.541,16.71207c4.9136,7.3476 6.67423,16.5462 9.42175,24.78877c1.61302,4.92294 5.67633,9.93535 1.89126,15.24947c-3.09332,4.34293 -10.23014,4.47712 -14.78509,4.76668c-4.66667,0.29666 -9.72498,0.21761 -14.338,0.88289c-5.80542,0.83725 -11.93818,2.28513 -17.95269,1.85149c-2.7642,-0.1993 -5.32783,-1.53418 -7.95721,-2.40989c-2.54021,-0.84601 -5.1933,-1.37862 -7.65622,-2.42859c-2.59297,-1.51686 -5.48387,-2.54134 -6.44729,-5.86872c-0.67053,-2.31586 0.85995,-4.67214 1.35198,-6.79268c0.44609,-1.92253 0.4833,-3.92263 0.89553,-5.8527c2.75349,-12.89211 6.78676,-28.79481 17.91864,-37.02186z" fill="#000000" stroke="none" stroke-width="0.5" stroke-linecap="butt"/><path d="M259.92837,216.46383c-3.37763,0.43597 -6.88099,0.29612 -10.2717,0.49549c-7.81169,0.45932 -15.74914,2.62477 -23.64649,2.30337c-0.02011,-0.14966 -0.04266,-0.23937 -0.04266,-0.23937c-0.64855,-2.52942 -1.21678,-3.62867 -0.86941,-6.20338c0.77268,-5.72696 5.76576,-5.56446 10.15125,-6.44142c2.21745,-0.44343 4.44687,-1.06273 6.68868,-1.35943c3.76039,-0.49768 10.57898,-2.33765 14.14363,0.06497c2.75574,1.85741 4.23705,6.53733 4.71831,9.57588l-0.48709,-0.61038c0,0 -0.78703,1.1856 -0.38452,2.41427z" data-paper-data="{&quot;noHover&quot;:false,&quot;origItem&quot;:[&quot;Path&quot;,{&quot;applyMatrix&quot;:true,&quot;segments&quot;:[[269.66079,417.57967],[[270.54757,418.68741],[0,0],[-0.8757,-5.52898]],[[261.97098,401.32419],[5.01437,3.37975],[-6.48626,-4.37183]],[[236.3392,401.26067],[6.84243,-0.90558],[-4.0792,0.53987]],[[224.23664,403.69168],[4.03489,-0.80686],[-7.97987,1.59573]],[[205.78247,415.34933],[1.40597,-10.42082],[-0.63209,4.68497]],[[207.35625,426.60374],[-1.1801,-4.60256],[0,0]],[[207.43337,427.03814],[-0.0366,-0.27232],[14.37008,0.58482]],[[250.29135,422.82608],[-14.21421,0.83578],[6.16976,-0.36278]],[[268.964,421.95915],[-6.14597,0.79329],[-0.73241,-2.2357]]],&quot;closed&quot;:true}]}" fill="#c19f00" stroke="none" stroke-width="0.5" stroke-linecap="butt"/><path d="M219.99286,217.46706c-0.40378,-0.16271 -0.87446,-0.22934 -1.28291,-0.36561c-2.29145,-0.76449 -4.71693,-1.1791 -6.93492,-2.13604c-1.24688,-0.68837 -3.28316,-0.94687 -3.58258,-2.33932c-0.30618,-1.42388 1.05413,-2.72904 1.38006,-4.14854c0.72396,-3.15305 1.15382,-6.48206 1.83321,-9.65592c2.27278,-10.61753 5.65499,-20.51158 13.40442,-28.29925c1.31638,-1.32288 2.62103,-2.79647 4.30927,-3.59191c0,0 0.43991,-0.21964 0.85362,-0.65756c9.17147,2.61144 20.65897,5.48407 26.21647,13.85298c4.61206,6.9452 6.21991,15.79518 8.8118,23.57086c0.83751,2.47746 4.75663,7.54782 2.65971,10.28223c-0.29248,0.38139 -1.11521,0.75719 -1.95548,1.06327l0.41786,-1.32888c-0.78913,-4.55592 -3.02882,-10.50508 -7.14304,-13.23134c-4.95226,-3.28157 -12.39944,-1.52199 -17.74389,-0.8044c-8.34522,1.12049 -19.92155,1.72769 -21.47098,12.21785c-0.36518,2.47238 -0.18863,3.86454 0.22737,5.57158z" data-paper-data="{&quot;noHover&quot;:false,&quot;origItem&quot;:[&quot;Path&quot;,{&quot;applyMatrix&quot;:true,&quot;segments&quot;:[[[195.9116,413.7475],[-0.66448,4.49877],[2.81936,-19.08799]],[[235.01187,391.34916],[-15.18504,2.03885],[9.7248,-1.30572]],[[267.4276,392.94414],[-9.01117,-5.97118],[7.48628,4.96072]],[[280.41151,417.04342],[-1.43591,-8.28999],[0,0]],[[279.49582,419.33556],[0,0],[1.52895,-0.55694]],[[283.05051,417.40523],[-0.53219,0.69398],[3.81558,-4.97556]],[[278.19937,398.7153],[1.52394,4.508],[-4.71623,-14.1487]],[[262.17327,355.92066],[8.39215,12.63755],[-10.11247,-15.22814]],[[214.58376,330.75402],[16.68849,4.75179],[-0.7528,0.79685]],[[213.03411,331.9493],[0,0],[-3.07193,1.44739]],[[205.21182,338.47595],[2.3953,-2.40712],[-14.10093,14.17051]],[[180.86478,389.85981],[4.13557,-19.31974],[-1.23623,5.77518]],[[177.51878,407.40468],[1.31732,-5.73732],[-0.59305,2.58293]],[[175.00336,414.94668],[-0.55712,-2.59091],[0.54482,2.53371]],[[181.51532,419.19439],[-2.26883,-1.25257],[4.03586,1.74126]],[[194.12,423.0678],[-4.16954,-1.39107],[0.74322,0.24796]],[[196.33511,423.89355],[-0.73472,-0.29606],[-0.75695,-3.10615]]],&quot;closed&quot;:true}]}" fill="#c19f00" stroke="none" stroke-width="0.5" stroke-linecap="butt"/><path d="M242.57636,171.65051l1.27953,-0.26628l2.68983,0.44831c1.3245,0.19675 2.34066,1.33865 2.34066,2.71788c0,0.87724 -0.41107,1.65847 -1.0511,2.16156l-2.25883,1.80706c-2.25291,1.79919 -5.03448,3.2227 -7.06522,5.26607c-3.3473,3.3681 -6.49821,7.57327 -9.46585,11.28282c-3.17272,3.17542 -6.9219,8.98637 -11.47773,10.27641c-5.47457,1.5502 -8.00882,0.06359 -6.26257,-6.46339c0.71191,-2.6609 6.424,-4.54152 8.39145,-6.32592c7.15514,-6.48945 11.70269,-15.01859 19.25669,-21.06178c0,0 1.95303,-1.56242 3.62315,0.15725z" fill="#ffdc40" stroke="none" stroke-width="0.5" stroke-linecap="butt"/><path d="M211.0406,201.89422c0,-1.37392 1.37392,-1.37392 1.37392,-1.37392l0.47699,0.07051c3.66732,-1.18322 6.27858,-4.63659 9.73822,-5.7898c5.77305,-6.01208 9.86041,-13.16405 15.72868,-18.97002c2.34979,-2.32485 2.55467,-3.97504 6.07971,-4.89211c0,0 1.3329,-0.33323 1.66613,0.99968c0.33323,1.3329 -0.99968,1.66613 -0.99968,1.66613c-2.96844,0.70357 -2.77936,2.12467 -4.8578,4.22249c-5.88855,5.94344 -10.10157,13.39164 -16.17241,19.31129c-3.61945,1.20648 -6.48287,4.75021 -10.3139,6.05918l-1.34593,0.07051c0,0 -1.37392,0 -1.37392,-1.37392z" fill="#fff5ca" stroke="none" stroke-width="0.5" stroke-linecap="butt"/><path d="M209.2022,189.32051l-1.19449,41.80717" fill="none" stroke="#000000" stroke-width="5" stroke-linecap="round"/><path d="M198.58681,106.07531c-0.32592,-1.78801 1.50637,-5.03328 1.96238,-6.74802c1.02595,-3.85794 1.10067,-6.63216 5.08195,-8.86522c2.91316,-1.63397 6.75123,-1.22224 9.91568,-1.78217c2.64119,-0.46734 5.22247,-1.31776 7.89351,-1.5624c4.25515,-0.38974 8.81159,-0.01623 13.09271,-0.00863l0.75644,-0.2127c0.61173,-0.30365 1.22346,-0.6073 1.83519,-0.91095c0.93818,-0.72427 1.70152,-1.76549 2.81456,-2.17279c2.46542,-0.90218 7.02139,-0.14932 9.65719,-0.14932c4.77422,0 10.06522,-0.718 14.62098,0.9102c4.54922,1.62586 7.92023,5.2822 11.26792,8.62816c6.67529,6.67185 11.7189,13.81674 17.1839,21.47745c4.48159,7.89022 6.31099,16.53435 8.36834,25.27807c1.08914,4.62885 2.57439,9.45337 1.96252,14.28047c-1.3521,10.66687 -9.48687,18.40428 -18.59262,22.98874c-3.44387,1.71646 -7.4504,3.72568 -11.16353,4.76558c-3.12585,0.87542 -6.66732,0.4769 -9.86401,0.47573c-7.68958,-0.00282 -15.14587,-1.0025 -22.76685,-1.53779c-7.85318,-0.5516 -16.12419,-0.76319 -23.62961,-3.20004c-14.73902,-5.52497 -34.4574,-12.68683 -34.59293,-31.45517c-0.01638,-2.2692 -0.08583,-4.02522 0.44481,-6.29615c0.95605,-4.09152 3.1301,-8.0027 4.86138,-11.78968c3.56904,-5.12191 6.78839,-10.45355 11.07276,-15.025c0.65404,-0.69786 1.32103,-1.38152 1.99954,-2.05244c-1.91029,-1.2497 -3.68623,-2.31498 -4.1822,-5.0359zM223.85272,92.10045c-2.5137,0.22658 -4.93581,1.06305 -7.42149,1.5006c-2.57413,0.45312 -6.03714,0.07649 -8.46233,1.28083c-2.44505,1.2142 -1.98358,3.46998 -2.57556,5.68403c-0.43847,1.63991 -1.97754,3.04435 -1.86637,4.73823c0.07592,1.15663 1.76744,1.51201 2.74542,2.13421l0.21655,0.20683c5.55381,-4.8969 11.64578,-9.18214 17.5918,-13.54207c1.03853,-0.7615 2.03404,-1.48495 3.01486,-2.16081c-1.094,0.01583 -2.17817,0.06218 -3.24289,0.15815zM242.60449,89.58729c-0.17407,1.89638 -2.21826,2.12351 -2.21826,2.12351c-5.56323,0.60296 -8.91096,3.16966 -13.34519,6.42178c-7.83041,5.74293 -15.93872,11.32238 -22.63372,18.46123c-4.0116,4.27755 -7.00571,9.29362 -10.36825,14.0735c-1.51003,3.3434 -3.47282,6.81558 -4.32762,10.41707c-0.82518,3.47668 -0.48309,6.8758 0.68324,10.09575c0.83385,2.30207 1.42448,4.65295 2.79971,6.74373c2.12857,3.23611 5.70561,4.53338 8.83563,6.54271c2.2233,1.42727 4.57797,3.32387 6.96794,4.42567c3.6266,1.6719 7.88254,2.70916 11.65413,4.12408c6.97671,2.40334 14.96792,2.39303 22.3154,2.92596c7.50831,0.5446 14.83433,1.52808 22.41241,1.52521c2.6442,-0.001 5.91919,0.47123 8.514,-0.29003c3.42579,-1.00505 7.09013,-2.82412 10.27747,-4.42341c7.58435,-3.76162 14.76889,-10.17906 15.86615,-19.12752c0.51607,-4.20872 -0.91812,-8.49131 -1.86623,-12.52078c-1.91611,-8.14348 -3.49357,-16.4033 -7.71242,-23.72994c-5.26889,-7.36681 -10.08852,-14.21481 -16.50911,-20.63881c-2.76315,-2.76462 -5.64457,-6.1101 -9.40733,-7.45259c-3.21368,-1.14659 -6.89855,-0.6213 -10.2659,-0.6213c-3.75898,0 -8.57654,-1.10896 -11.67204,0.92419z" fill="#000000" stroke="none" stroke-width="0.5" stroke-linecap="butt"/><path d="M227.13722,91.91459c-0.98082,0.67586 -1.976,1.39981 -3.01452,2.16132c-5.94602,4.35994 -12.11729,8.70564 -17.67109,13.60253l-0.21738,-0.20779c-0.97798,-0.6222 -2.67662,-0.98868 -2.75254,-2.14531c-0.11118,-1.69387 1.42334,-3.11562 1.86181,-4.75553c0.59197,-2.21406 0.1388,-4.50152 2.58385,-5.71572c2.42519,-1.20434 5.93867,-0.8491 8.5128,-1.30222c2.48568,-0.43755 4.93603,-1.25827 7.44974,-1.48485c1.06471,-0.09597 2.15334,-0.13658 3.24733,-0.15241z" data-paper-data="{&quot;noHover&quot;:false,&quot;origItem&quot;:[&quot;Path&quot;,{&quot;applyMatrix&quot;:true,&quot;segments&quot;:[[[213.85693,174.24988],[2.12942,-0.19194],[-5.02741,0.45316]],[[199.01394,177.25108],[4.97136,-0.8751],[-5.14827,0.90624]],[[182.08928,179.81275],[4.85038,-2.40868],[-4.8901,2.4284]],[[176.93817,191.18081],[1.18395,-4.42811],[-0.87693,3.27982]],[[173.20544,200.65726],[-0.22236,-3.38774],[0.15184,2.31327]],[[178.69627,204.92568],[-1.95595,-1.24441],[0,0]],[[179.12938,205.33935],[0,0],[11.10762,-9.79379]],[[214.31298,178.2552],[-11.89204,8.71988],[2.07705,-1.52301]],[[220.3427,173.93358],[-1.96163,1.35172],[-2.18799,0.03165]]],&quot;closed&quot;:true}]}" fill="#c19f00" stroke="none" stroke-width="0.5" stroke-linecap="butt"/><path d="M254.28709,88.61422c3.36735,0 7.06233,-0.52194 10.27602,0.62465c3.76276,1.34249 6.65491,4.69459 9.41806,7.4592c6.42059,6.424 11.25614,13.29476 16.52503,20.66158c4.21885,7.32664 5.79841,15.61011 7.71453,23.75359c0.94811,4.02947 2.37971,8.32204 1.86364,12.53076c-1.09725,8.94846 -8.29342,15.38392 -15.87777,19.14553c-3.18734,1.59929 -6.85934,3.4246 -10.28513,4.42965c-2.59481,0.76126 -5.87628,0.29265 -8.52048,0.29365c-7.57808,0.00287 -14.92719,-0.976 -22.4355,-1.5206c-7.34748,-0.53293 -15.36243,-0.52972 -22.33913,-2.93306c-3.77159,-1.41492 -8.03703,-2.45959 -11.66363,-4.13148c-2.38996,-1.1018 -4.74962,-3.00418 -6.97292,-4.43144c-3.13003,-2.00934 -6.71183,-3.3145 -8.84041,-6.55061c-1.37523,-2.09078 -1.96827,-4.44757 -2.80212,-6.74964c-1.16632,-3.21995 -1.51047,-6.62768 -0.68529,-10.10435c0.8548,-3.60148 2.81712,-7.08323 4.32715,-10.42664c3.36253,-4.77987 6.36027,-9.81251 10.37187,-14.09006c6.69501,-7.13885 14.82703,-12.74406 22.65744,-18.48698c4.43423,-3.25212 7.79935,-5.82394 13.36258,-6.42691c0,0 2.04698,-0.22734 2.22105,-2.12372c3.0955,-2.03316 7.92603,-0.92313 11.68501,-0.92313z" data-paper-data="{&quot;noHover&quot;:false,&quot;origItem&quot;:[&quot;Path&quot;,{&quot;applyMatrix&quot;:true,&quot;segments&quot;:[[[251.36047,169.22356],[6.19099,-4.06632],[-0.34814,3.79276]],[[246.92395,173.47059],[0,0],[-11.12646,1.20593]],[[220.23358,186.31414],[8.86846,-6.50424],[-15.66081,11.48585]],[[174.96613,223.23659],[13.39002,-14.27769],[-8.0232,8.55509]],[[154.22964,251.38359],[6.72507,-9.55975],[-3.02005,6.68681]],[[145.5744,272.21773],[1.70959,-7.20297],[-1.65035,6.95335]],[[146.94087,292.40924],[-2.33265,-6.43991],[1.6677,4.60414]],[[152.54029,305.89671],[-2.75046,-4.18157],[4.25715,6.47222]],[[170.21156,318.98213],[-6.26005,-4.01867],[4.44661,2.85453]],[[184.14744,327.83347],[-4.77993,-2.20359],[7.2532,3.34379]],[[207.45569,336.08162],[-7.54318,-2.82983],[13.95341,4.80668]],[[252.08649,341.93354],[-14.69495,-1.06586],[15.01662,1.0892]],[[296.9113,344.98396],[-15.15615,0.00574],[5.2884,-0.002]],[[313.9393,344.40391],[-5.18962,1.52252],[6.85158,-2.0101]],[[334.49425,335.55708],[-6.37469,3.19859],[15.1687,-7.52324]],[[366.22654,297.30203],[-2.19451,17.89693],[1.03214,-8.41743]],[[362.49408,272.26046],[1.89622,8.05895],[-3.83223,-16.28696]],[[347.06925,224.80057],[8.43769,14.65329],[-10.53778,-14.73362]],[[314.05102,183.52295],[12.84118,12.84799],[-5.5263,-5.52923]],[[295.23635,168.61777],[7.52553,2.68499],[-6.42736,-2.29318]],[[274.70455,167.37517],[6.73471,0],[-7.51796,0]]],&quot;closed&quot;:true}]}" fill="#c19f00" stroke="none" stroke-width="0.5" stroke-linecap="butt"/><path d="M260.87193,88.67246c1.30849,-1.01048 2.83172,0.00501 2.83172,0.00501l1.36233,0.92532c2.89361,2.6201 9.61932,1.98125 10.08499,7.53033c0.12932,1.54108 -1.23205,2.87075 -2.1684,4.10156c-1.45312,1.91008 -3.12433,2.29464 -4.86908,3.70828c-2.89114,2.34248 -4.81776,5.89817 -6.95205,8.87159c-4.93412,4.92064 -7.08254,12.04017 -12.00891,16.99833c-3.22055,3.24133 -7.46975,5.55252 -10.67213,8.7564c-2.579,2.58021 -4.49582,6.09245 -6.72907,8.9988c-3.68875,4.80052 -7.24766,8.81697 -9.63571,14.38909c-0.41267,0.96193 -1.96378,4.76659 -2.63533,5.54476c-4.46963,5.17926 -10.81797,2.54782 -15.38108,-1.1239c-0.71851,-0.57815 -0.97165,-1.63199 -1.72636,-2.16202c-2.30903,-1.62164 -4.06211,1.68075 -6.18149,-2.41241c-1.20009,-2.31772 1.24226,-6.01901 2.33693,-7.85728c1.67977,-2.82083 3.42848,-5.63519 5.65991,-8.06043c2.60691,-2.83333 5.96481,-5.28809 8.33596,-8.32238c1.45274,-1.85902 2.67528,-3.89506 4.18406,-5.70889c3.52709,-4.70151 7.37521,-9.06078 11.15675,-13.46583c2.33398,-2.71882 5.38079,-4.86489 7.64242,-7.63951c6.61582,-8.11648 13.59442,-19.87154 24.20835,-23.01262c0,0 0.526,-0.15028 1.1562,-0.0642z" fill="#ffdc40" stroke="none" stroke-width="0.5" stroke-linecap="butt"/><path d="M227.69583,145.06561c-1.06978,1.4122 -2.18552,2.77605 -3.36557,4.05822c-0.34049,0.36996 -4.22109,3.50029 -4.74102,3.97409c-2.41295,2.19886 -4.11662,4.88013 -6.42696,7.19634c-1.52955,1.53344 -2.92529,3.21437 -4.5945,4.5945c-1.16492,0.96317 -2.18241,2.83511 -3.68215,2.64661c-1.93096,-0.24271 -3.46873,-2.05006 -4.53332,-3.67922c-3.05916,-4.68149 2.71161,-9.66538 5.33663,-12.69444l0.58922,-0.10649l-0.08007,-0.18683l2.62933,-1.12686c0.13173,-0.06003 0.26959,-0.10896 0.41238,-0.1456c0.35013,-0.3564 0.68412,-0.71375 0.98711,-1.07765c0.85836,-1.03092 1.71027,-2.02646 2.57386,-3.01329c1.645,-3.51322 5.2469,-6.30257 7.83168,-9.26199c1.49252,-1.93544 2.97254,-3.88232 4.55056,-5.74863c3.56689,-4.21857 7.52164,-8.07584 11.10522,-12.25418c1.93776,-2.25935 3.46921,-4.63646 5.62257,-6.73759c2.84362,-5.85929 7.27966,-8.3601 12.31541,-11.96648c3.22411,-4.76506 6.53432,-8.8638 12.75799,-9.72769c0,0 2.48069,-0.31009 2.79078,2.1706c0.01896,0.15165 0.02749,0.29518 0.02679,0.43103c0.46769,0.45429 0.75827,1.08992 0.75827,1.79343c0,0.99801 -0.58479,1.85943 -1.43041,2.26029l-2.24881,1.12441l-0.29347,-0.58693l-0.43476,0.37537c-0.41214,3.55178 -4.37762,7.89992 -5.84312,10.6414c-2.62052,4.90217 -6.44692,8.6238 -9.79725,12.98307c-5.60922,7.29844 -10.93515,14.80013 -18.06323,20.74335c-1.58988,1.13563 -3.16849,2.2419 -4.75315,3.32119zM220.66277,143.73271c0.01796,-0.01151 0.03591,-0.02303 0.05387,-0.03454c-0.00279,-0.00481 -0.00557,-0.00963 -0.00833,-0.01446c-0.01518,0.01633 -0.03037,0.03267 -0.04555,0.049zM212.11106,153.33322l-0.11635,0.4654c0.17839,-0.18511 0.35473,-0.37029 0.52848,-0.55559c-0.08478,-0.02805 -0.16755,-0.0605 -0.24804,-0.0971c-0.05492,0.06234 -0.10963,0.12478 -0.16409,0.1873zM233.28938,128.81205c1.92503,-2.08515 3.71965,-4.24508 5.42778,-6.46006c-1.83678,2.12608 -3.63963,4.28778 -5.42778,6.46006z" fill="#fff5ca" stroke="none" stroke-width="0.5" stroke-linecap="butt"/><path d="M285.11999,156.02608c-9.28665,1.14374 -18.38507,2.46572 -27.86424,1.88258c-7.25984,-0.44662 -13.9808,-3.42947 -21.32782,-3.42002c0,0 -2.5,0 -2.5,-2.5c0,-2.5 2.5,-2.5 2.5,-2.5c7.4799,0.0088 14.27943,3.0204 21.6385,3.42968c9.18484,0.51083 17.93429,-0.70999 26.93338,-1.85363l1.97947,-0.01364c0.15798,-1.6347 0.26137,-3.27 0.52899,-4.7905c1.21774,-6.91885 2.54767,-14.2144 0.80585,-21.16524c-0.18805,-0.75042 -0.80147,-3.29663 -1.46167,-4.05368c-1.9309,-2.21417 -4.72233,-4.31166 -6.98996,-6.20135c-1.19265,-1.19048 -2.1481,-2.66137 -3.54448,-3.60464c-3.32725,-2.24759 -8.06635,-2.08323 -12.21762,-1.93647c-0.31876,0.06905 -0.54719,0.06905 -0.54719,0.06905c-4.41823,-0.04683 -8.39208,1.68188 -12.49743,3.27702c-4.9813,1.9355 -11.24616,3.98802 -15.46647,7.31312c-8.83436,6.96043 -10.12086,19.42333 -10.12086,29.79187c0,2.56571 -0.31667,5.09594 0.61046,7.55589c4.20085,11.146 17.65906,12.63033 27.78197,13.69618c4.04313,0.4257 8.18515,1.32319 12.2393,0.4229c2.96271,-0.65791 5.5145,-2.09729 8.35157,-3.10165c3.39579,-3.49924 8.09961,-5.97949 10.6754,-10.25274c0.38898,-0.64532 0.69214,-1.32963 0.93243,-2.04084zM259.04992,104.71877c0.64841,-0.35055 1.32316,-0.35055 1.32316,-0.35055h0.38288c5.8678,0 12.68261,-0.69758 17.8652,2.72708c0.25466,0.16828 3.68979,3.62879 4.11302,4.05286c2.41472,2.01227 5.6019,4.39274 7.55929,6.8164c1.23088,1.52409 1.90631,4.05445 2.36708,5.90107c1.91246,7.66454 0.62577,15.6111 -0.72565,23.24827c-0.79793,4.50927 -0.5404,9.38159 -2.97913,13.45949c-2.99046,5.00046 -8.22842,7.98658 -12.2971,11.95402c-3.36887,1.31937 -6.46312,2.99781 -10.02644,3.7901c-4.60592,1.02412 -9.20024,0.14081 -13.7962,-0.34285c-12.19967,-1.28384 -27.02015,-3.74989 -31.94655,-16.93383c-1.16253,-3.11114 -0.92104,-6.06289 -0.92104,-9.29062c0,-9.42135 0.90105,-19.88463 6.58246,-27.8585c4.16916,-5.85143 9.63613,-8.18281 15.8927,-11.15076c5.1951,-2.46443 10.845,-5.09143 16.60631,-6.0222z" fill="#000000" stroke="none" stroke-width="0.5" stroke-linecap="butt"/><path d="M285.60359,156.0537c-0.24029,0.71121 -0.54516,1.39846 -0.93414,2.04378c-2.57579,4.27324 -7.29564,6.76938 -10.69143,10.26862c-2.83706,1.00436 -5.40141,2.44927 -8.36412,3.10719c-4.05416,0.90029 -8.21547,0.00441 -12.2586,-0.42129c-10.12291,-1.06585 -23.61957,-2.57618 -27.82042,-13.72218c-0.92714,-2.45995 -0.61445,-4.99993 -0.61445,-7.56564c0,-10.36854 1.29823,-22.87977 10.13259,-29.84019c4.22031,-3.3251 10.51055,-5.39203 15.49185,-7.32753c4.10536,-1.59515 8.09997,-3.32407 12.5182,-3.27724c0,0 0.22923,0.00017 0.54799,-0.06888c4.15127,-0.14677 8.90695,-0.3042 12.23421,1.94339c1.39638,0.94327 2.3576,2.41854 3.55024,3.60901c2.26763,1.88969 5.0678,3.99723 6.9987,6.2114c0.6602,0.75705 1.27664,3.30851 1.46469,4.05893c1.74181,6.95083 0.41624,14.27797 -0.80151,21.19682c-0.26761,1.5205 -0.373,3.16318 -0.53098,4.79788l-1.97987,0.01471c-8.99909,1.14364 -17.79213,2.39657 -26.97696,1.88574c-7.35907,-0.40928 -14.20769,-3.45103 -21.68759,-3.45983c0,0 -2.40919,-0.0418 -2.40919,2.4582c0,2.5 2.49666,2.49421 2.49666,2.49421c7.34702,-0.00945 14.02508,2.95125 21.28492,3.39787c9.47918,0.58315 18.53509,-0.71286 27.82174,-1.8566z" data-paper-data="{&quot;noHover&quot;:false,&quot;origItem&quot;:[&quot;Path&quot;,{&quot;applyMatrix&quot;:true,&quot;segments&quot;:[[[285.11999,156.02607],[0,0],[-9.28665,1.14374]],[[257.25574,157.90865],[9.47918,0.58315],[-7.25984,-0.44662]],[[235.92793,154.48863],[7.34702,-0.00945],[0,0]],[[233.42793,151.98863],[0,2.5],[0,-2.5]],[[235.92793,149.48863],[0,0],[7.4799,0.0088]],[[257.56643,152.91831],[-7.35907,-0.40928],[9.18484,0.51083]],[[284.49982,151.06468],[-8.99909,1.14364],[0,0]],[[286.47929,151.05104],[0,0],[0.15798,-1.6347]],[[287.00827,146.26054],[-0.26761,1.5205],[1.21774,-6.91885]],[[287.81413,125.0953],[1.74181,6.95083],[-0.18805,-0.75042]],[[286.35246,121.04162],[0.6602,0.75705],[-1.9309,-2.21417]],[[279.3625,114.84027],[2.26763,1.88969],[-1.19265,-1.19048]],[[275.81802,111.23563],[1.39638,0.94327],[-3.32725,-2.24759]],[[263.6004,109.29916],[4.15127,-0.14677],[-0.31876,0.06905]],[[263.05321,109.36821],[0,0],[-4.41823,-0.04683]],[[250.55578,112.64523],[4.10536,-1.59515],[-4.9813,1.9355]],[[235.08931,119.95836],[4.22031,-3.3251],[-8.83436,6.96043]],[[224.96845,149.75022],[0,-10.36854],[0,2.56571]],[[225.57891,157.30611],[-0.92714,-2.45995],[4.20085,11.146]],[[253.36088,171.00229],[-10.12291,-1.06585],[4.04313,0.4257]],[[265.60018,171.42519],[-4.05416,0.90029],[2.96271,-0.65791]],[[273.95175,168.32354],[-2.83706,1.00436],[3.39579,-3.49924]],[[284.62715,158.07081],[-2.57579,4.27324],[0.38898,-0.64532]],[[285.55958,156.02997],[-0.24029,0.71121],[0,0]]],&quot;closed&quot;:true}]}" fill="#a95a00" stroke="none" stroke-width="0.5" stroke-linecap="butt"/><path d="M249.85917,131.50487c-2.26059,0.22836 -6.23631,0.646 -3.6701,3.86261c1.50495,1.88638 5.68496,-0.01842 4.79373,-2.54231c-0.16606,-0.47028 -0.61628,-0.92206 -1.12363,-1.3203zM246.91549,126.85093c0.70949,-1.02491 2.08914,-1.02491 2.08914,-1.02491l2.0758,0.46567c1.94601,1.42262 3.89102,2.41739 4.66385,5.00759c1.8268,6.12267 -4.1248,10.89637 -9.87211,9.4062c-6.20581,-1.60905 -7.04681,-10.0484 -1.78749,-13.33604c0.21447,-0.13406 1.50324,-0.33718 2.83081,-0.51851z" fill="#000000" stroke="none" stroke-width="0.5" stroke-linecap="butt"/><path d="M276.55989,132.69345c-0.38611,0.00331 -0.76813,0.02721 -1.13111,0.14694c-0.51848,0.17102 -0.89103,0.6338 -1.30512,0.98961c-2.66851,2.29298 3.0708,2.8739 4.44027,2.66569c0.62794,-0.09547 2.37584,-1.80651 1.6481,-2.4653c-0.4644,-0.4204 -1.13915,-0.52147 -1.70872,-0.7822l0.0796,0.38c0,0 -1.29749,0 -2.02301,-0.93473zM279.44251,128.75526l1.71078,0.25292c1.09096,0.7771 2.58535,1.18178 3.27288,2.3313c3.73588,6.24624 -3.45613,10.60039 -8.63954,10.05372c-5.96264,-0.62885 -9.92975,-6.09439 -5.19851,-11.09874c2.42877,-2.56897 3.28064,-2.15448 6.47329,-2.58504c0,0 1.60871,-0.17875 2.38109,1.04584z" fill="#000000" stroke="none" stroke-width="0.5" stroke-linecap="butt"/></g></g></svg>